<?xml version="1.0" encoding="UTF-8" standalone="no"?>
<!DOCTYPE svg PUBLIC "-//W3C//DTD SVG 1.1//EN"
 "http://www.w3.org/Graphics/SVG/1.1/DTD/svg11.dtd">
<!-- Generated by graphviz version 2.38.0 (20140413.2041)
 -->
<!-- Title: snakemake_dag Pages: 1 -->
<svg width="3794pt" height="852pt"
 viewBox="0.00 0.00 3794.13 852.00" xmlns="http://www.w3.org/2000/svg" xmlns:xlink="http://www.w3.org/1999/xlink">
<g id="graph0" class="graph" transform="scale(1 1) rotate(0) translate(4 848)">
<title>snakemake_dag</title>
<polygon fill="white" stroke="none" points="-4,4 -4,-848 3790.13,-848 3790.13,4 -4,4"/>
<!-- 0 -->
<g id="node1" class="node"><title>0</title>
<path fill="none" stroke="#d85656" stroke-width="2" d="M1522,-36C1522,-36 1492,-36 1492,-36 1486,-36 1480,-30 1480,-24 1480,-24 1480,-12 1480,-12 1480,-6 1486,-0 1492,-0 1492,-0 1522,-0 1522,-0 1528,-0 1534,-6 1534,-12 1534,-12 1534,-24 1534,-24 1534,-30 1528,-36 1522,-36"/>
<text text-anchor="middle" x="1507" y="-15.5" font-family="sans" font-size="10.00">all</text>
</g>
<!-- 1 -->
<g id="node2" class="node"><title>1</title>
<path fill="none" stroke="#56d89a" stroke-width="2" d="M1150,-844C1150,-844 576,-844 576,-844 570,-844 564,-838 564,-832 564,-832 564,-804 564,-804 564,-798 570,-792 576,-792 576,-792 1150,-792 1150,-792 1156,-792 1162,-798 1162,-804 1162,-804 1162,-832 1162,-832 1162,-838 1156,-844 1150,-844"/>
<text text-anchor="middle" x="863" y="-832" font-family="sans" font-size="10.00">rename_fastq_pe</text>
<text text-anchor="middle" x="863" y="-821" font-family="sans" font-size="10.00">mate_index: 1</text>
<text text-anchor="middle" x="863" y="-810" font-family="sans" font-size="10.00">output_dir: /lulab/lustre2/zhangshang/work/software/exvariance/exvariance_software/demo/long_pe_example_2/output</text>
<text text-anchor="middle" x="863" y="-799" font-family="sans" font-size="10.00">sample_id: n1</text>
</g>
<!-- 1&#45;&gt;0 -->
<g id="edge1" class="edge"><title>1&#45;&gt;0</title>
<path fill="none" stroke="grey" stroke-width="2" d="M563.889,-792.689C314.586,-768.246 0,-725.762 0,-667 0,-667 0,-667 0,-161 0,-106.609 34.4644,-94.4643 84,-72 213.392,-13.3207 1257.82,-17.2892 1469.62,-18.71"/>
<polygon fill="grey" stroke="grey" stroke-width="2" points="1469.88,-22.2118 1479.9,-18.7814 1469.92,-15.2119 1469.88,-22.2118"/>
</g>
<!-- 3 -->
<g id="node4" class="node"><title>3</title>
<path fill="none" stroke="#80d856" stroke-width="2" d="M2064,-756C2064,-756 2002,-756 2002,-756 1996,-756 1990,-750 1990,-744 1990,-744 1990,-732 1990,-732 1990,-726 1996,-720 2002,-720 2002,-720 2064,-720 2064,-720 2070,-720 2076,-726 2076,-732 2076,-732 2076,-744 2076,-744 2076,-750 2070,-756 2064,-756"/>
<text text-anchor="middle" x="2033" y="-735.5" font-family="sans" font-size="10.00">map_rRNA_pe</text>
</g>
<!-- 1&#45;&gt;3 -->
<g id="edge48" class="edge"><title>1&#45;&gt;3</title>
<path fill="none" stroke="grey" stroke-width="2" d="M1162.03,-797.065C1441.76,-778.416 1837.18,-752.054 1979.43,-742.571"/>
<polygon fill="grey" stroke="grey" stroke-width="2" points="1979.88,-746.049 1989.63,-741.891 1979.42,-739.064 1979.88,-746.049"/>
</g>
<!-- 2 -->
<g id="node3" class="node"><title>2</title>
<path fill="none" stroke="#56d89a" stroke-width="2" d="M2628,-844C2628,-844 2054,-844 2054,-844 2048,-844 2042,-838 2042,-832 2042,-832 2042,-804 2042,-804 2042,-798 2048,-792 2054,-792 2054,-792 2628,-792 2628,-792 2634,-792 2640,-798 2640,-804 2640,-804 2640,-832 2640,-832 2640,-838 2634,-844 2628,-844"/>
<text text-anchor="middle" x="2341" y="-832" font-family="sans" font-size="10.00">rename_fastq_pe</text>
<text text-anchor="middle" x="2341" y="-821" font-family="sans" font-size="10.00">mate_index: 2</text>
<text text-anchor="middle" x="2341" y="-810" font-family="sans" font-size="10.00">output_dir: /lulab/lustre2/zhangshang/work/software/exvariance/exvariance_software/demo/long_pe_example_2/output</text>
<text text-anchor="middle" x="2341" y="-799" font-family="sans" font-size="10.00">sample_id: n1</text>
</g>
<!-- 2&#45;&gt;0 -->
<g id="edge2" class="edge"><title>2&#45;&gt;0</title>
<path fill="none" stroke="grey" stroke-width="2" d="M2640.4,-815.307C3063.65,-808.856 3786,-781.128 3786,-667 3786,-667 3786,-667 3786,-161 3786,-118.965 3788.1,-96.5811 3754,-72 3707.29,-38.3294 1835.67,-21.6861 1544.82,-19.3009"/>
<polygon fill="grey" stroke="grey" stroke-width="2" points="1544.42,-15.7976 1534.39,-19.216 1544.36,-22.7974 1544.42,-15.7976"/>
</g>
<!-- 2&#45;&gt;3 -->
<g id="edge49" class="edge"><title>2&#45;&gt;3</title>
<path fill="none" stroke="grey" stroke-width="2" d="M2242.28,-791.998C2190.48,-778.88 2129.05,-763.325 2086.2,-752.473"/>
<polygon fill="grey" stroke="grey" stroke-width="2" points="2086.82,-749.02 2076.27,-749.958 2085.1,-755.806 2086.82,-749.02"/>
</g>
<!-- 3&#45;&gt;0 -->
<g id="edge3" class="edge"><title>3&#45;&gt;0</title>
<path fill="none" stroke="grey" stroke-width="2" d="M2076.04,-736.894C2283.4,-736.153 3180.66,-730.284 3456,-684 3589.79,-661.51 3748,-730.672 3748,-595 3748,-595 3748,-595 3748,-161 3748,-120.553 3760.14,-97.8132 3729,-72 3685.17,-35.6622 1832.38,-21.2712 1544.44,-19.2525"/>
<polygon fill="grey" stroke="grey" stroke-width="2" points="1544.14,-15.7504 1534.11,-19.1807 1544.09,-22.7503 1544.14,-15.7504"/>
</g>
<!-- 4 -->
<g id="node5" class="node"><title>4</title>
<path fill="none" stroke="#56d8b9" stroke-width="2" d="M2631.5,-684C2631.5,-684 2534.5,-684 2534.5,-684 2528.5,-684 2522.5,-678 2522.5,-672 2522.5,-672 2522.5,-660 2522.5,-660 2522.5,-654 2528.5,-648 2534.5,-648 2534.5,-648 2631.5,-648 2631.5,-648 2637.5,-648 2643.5,-654 2643.5,-660 2643.5,-660 2643.5,-672 2643.5,-672 2643.5,-678 2637.5,-684 2631.5,-684"/>
<text text-anchor="middle" x="2583" y="-663.5" font-family="sans" font-size="10.00">map_genome_pe_1st</text>
</g>
<!-- 3&#45;&gt;4 -->
<g id="edge50" class="edge"><title>3&#45;&gt;4</title>
<path fill="none" stroke="grey" stroke-width="2" d="M2076.16,-731.507C2170.67,-719.478 2396.73,-690.707 2512.32,-675.996"/>
<polygon fill="grey" stroke="grey" stroke-width="2" points="2513,-679.438 2522.48,-674.703 2512.11,-672.494 2513,-679.438"/>
</g>
<!-- 8 -->
<g id="node9" class="node"><title>8</title>
<path fill="none" stroke="#d87d56" stroke-width="2" d="M406,-396C406,-396 320,-396 320,-396 314,-396 308,-390 308,-384 308,-384 308,-372 308,-372 308,-366 314,-360 320,-360 320,-360 406,-360 406,-360 412,-360 418,-366 418,-372 418,-372 418,-384 418,-384 418,-390 412,-396 406,-396"/>
<text text-anchor="middle" x="363" y="-381" font-family="sans" font-size="10.00">remove_duplicates</text>
<text text-anchor="middle" x="363" y="-370" font-family="sans" font-size="10.00">map_step: rRNA</text>
</g>
<!-- 3&#45;&gt;8 -->
<g id="edge54" class="edge"><title>3&#45;&gt;8</title>
<path fill="none" stroke="grey" stroke-width="2" d="M1989.9,-735.559C1732.18,-726.664 406,-676.916 406,-595 406,-595 406,-595 406,-521 406,-479.295 388.8,-433.542 376.156,-405.545"/>
<polygon fill="grey" stroke="grey" stroke-width="2" points="379.301,-404.008 371.91,-396.418 372.955,-406.961 379.301,-404.008"/>
</g>
<!-- 9 -->
<g id="node10" class="node"><title>9</title>
<path fill="none" stroke="#d89556" stroke-width="2" d="M1192.5,-684C1192.5,-684 1103.5,-684 1103.5,-684 1097.5,-684 1091.5,-678 1091.5,-672 1091.5,-672 1091.5,-660 1091.5,-660 1091.5,-654 1097.5,-648 1103.5,-648 1103.5,-648 1192.5,-648 1192.5,-648 1198.5,-648 1204.5,-654 1204.5,-660 1204.5,-660 1204.5,-672 1204.5,-672 1204.5,-678 1198.5,-684 1192.5,-684"/>
<text text-anchor="middle" x="1148" y="-669" font-family="sans" font-size="10.00">sort_bam_by_name</text>
<text text-anchor="middle" x="1148" y="-658" font-family="sans" font-size="10.00">map_step: rRNA</text>
</g>
<!-- 3&#45;&gt;9 -->
<g id="edge55" class="edge"><title>3&#45;&gt;9</title>
<path fill="none" stroke="grey" stroke-width="2" d="M1989.72,-733.576C1846.55,-722.253 1387.65,-685.956 1214.75,-672.28"/>
<polygon fill="grey" stroke="grey" stroke-width="2" points="1215.01,-668.789 1204.76,-671.49 1214.46,-675.767 1215.01,-668.789"/>
</g>
<!-- 17 -->
<g id="node18" class="node"><title>17</title>
<path fill="none" stroke="#9fd856" stroke-width="2" d="M3569.5,-108C3569.5,-108 3490.5,-108 3490.5,-108 3484.5,-108 3478.5,-102 3478.5,-96 3478.5,-96 3478.5,-84 3478.5,-84 3478.5,-78 3484.5,-72 3490.5,-72 3490.5,-72 3569.5,-72 3569.5,-72 3575.5,-72 3581.5,-78 3581.5,-84 3581.5,-84 3581.5,-96 3581.5,-96 3581.5,-102 3575.5,-108 3569.5,-108"/>
<text text-anchor="middle" x="3530" y="-87.5" font-family="sans" font-size="10.00">normalize_bigwig</text>
</g>
<!-- 3&#45;&gt;17 -->
<g id="edge65" class="edge"><title>3&#45;&gt;17</title>
<path fill="none" stroke="grey" stroke-width="2" d="M2076.29,-736.831C2271.41,-735.82 3070.25,-728.961 3316,-684 3439.46,-661.412 3584,-720.507 3584,-595 3584,-595 3584,-595 3584,-233 3584,-192.458 3579.63,-181.409 3564,-144 3560.06,-134.567 3554.46,-124.953 3548.94,-116.55"/>
<polygon fill="grey" stroke="grey" stroke-width="2" points="3551.83,-114.567 3543.29,-108.288 3546.05,-118.518 3551.83,-114.567"/>
</g>
<!-- 18 -->
<g id="node19" class="node"><title>18</title>
<path fill="none" stroke="#56c9d8" stroke-width="2" d="M3513,-324C3513,-324 3425,-324 3425,-324 3419,-324 3413,-318 3413,-312 3413,-312 3413,-300 3413,-300 3413,-294 3419,-288 3425,-288 3425,-288 3513,-288 3513,-288 3519,-288 3525,-294 3525,-300 3525,-300 3525,-312 3525,-312 3525,-318 3519,-324 3513,-324"/>
<text text-anchor="middle" x="3469" y="-309" font-family="sans" font-size="10.00">sort_bam_by_coord</text>
<text text-anchor="middle" x="3469" y="-298" font-family="sans" font-size="10.00">map_step: rRNA</text>
</g>
<!-- 3&#45;&gt;18 -->
<g id="edge67" class="edge"><title>3&#45;&gt;18</title>
<path fill="none" stroke="grey" stroke-width="2" d="M2076.29,-737.287C2313.11,-738.299 3441,-735.731 3441,-595 3441,-595 3441,-595 3441,-449 3441,-408.27 3452.23,-362.189 3460.46,-333.862"/>
<polygon fill="grey" stroke="grey" stroke-width="2" points="3463.82,-334.856 3463.33,-324.272 3457.11,-332.847 3463.82,-334.856"/>
</g>
<!-- 48 -->
<g id="node49" class="node"><title>48</title>
<path fill="none" stroke="#68d856" stroke-width="2" d="M1917,-612C1917,-612 1817,-612 1817,-612 1811,-612 1805,-606 1805,-600 1805,-600 1805,-588 1805,-588 1805,-582 1811,-576 1817,-576 1817,-576 1917,-576 1917,-576 1923,-576 1929,-582 1929,-588 1929,-588 1929,-600 1929,-600 1929,-606 1923,-612 1917,-612"/>
<text text-anchor="middle" x="1867" y="-591.5" font-family="sans" font-size="10.00">map_genome_pe_2nd</text>
</g>
<!-- 3&#45;&gt;48 -->
<g id="edge104" class="edge"><title>3&#45;&gt;48</title>
<path fill="none" stroke="grey" stroke-width="2" d="M1997.9,-719.861C1980.49,-710.506 1959.67,-697.987 1943,-684 1920.59,-665.199 1899.36,-639.401 1885.06,-620.419"/>
<polygon fill="grey" stroke="grey" stroke-width="2" points="1887.76,-618.184 1878.99,-612.227 1882.13,-622.348 1887.76,-618.184"/>
</g>
<!-- 51 -->
<g id="node52" class="node"><title>51</title>
<path fill="none" stroke="#568ad8" stroke-width="2" d="M1926.5,-468C1926.5,-468 1807.5,-468 1807.5,-468 1801.5,-468 1795.5,-462 1795.5,-456 1795.5,-456 1795.5,-444 1795.5,-444 1795.5,-438 1801.5,-432 1807.5,-432 1807.5,-432 1926.5,-432 1926.5,-432 1932.5,-432 1938.5,-438 1938.5,-444 1938.5,-444 1938.5,-456 1938.5,-456 1938.5,-462 1932.5,-468 1926.5,-468"/>
<text text-anchor="middle" x="1867" y="-447.5" font-family="sans" font-size="10.00">summarize_mapping_star</text>
</g>
<!-- 3&#45;&gt;51 -->
<g id="edge118" class="edge"><title>3&#45;&gt;51</title>
<path fill="none" stroke="grey" stroke-width="2" d="M2023.11,-719.966C1995.21,-671.894 1915.72,-534.932 1882.2,-477.185"/>
<polygon fill="grey" stroke="grey" stroke-width="2" points="1885.09,-475.198 1877.05,-468.306 1879.04,-478.712 1885.09,-475.198"/>
</g>
<!-- 68 -->
<g id="node69" class="node"><title>68</title>
<path fill="none" stroke="#56d873" stroke-width="2" d="M2068.5,-540C2068.5,-540 1997.5,-540 1997.5,-540 1991.5,-540 1985.5,-534 1985.5,-528 1985.5,-528 1985.5,-516 1985.5,-516 1985.5,-510 1991.5,-504 1997.5,-504 1997.5,-504 2068.5,-504 2068.5,-504 2074.5,-504 2080.5,-510 2080.5,-516 2080.5,-516 2080.5,-528 2080.5,-528 2080.5,-534 2074.5,-540 2068.5,-540"/>
<text text-anchor="middle" x="2033" y="-525" font-family="sans" font-size="10.00">samtools_stats</text>
<text text-anchor="middle" x="2033" y="-514" font-family="sans" font-size="10.00">map_step: rRNA</text>
</g>
<!-- 3&#45;&gt;68 -->
<g id="edge137" class="edge"><title>3&#45;&gt;68</title>
<path fill="none" stroke="grey" stroke-width="2" d="M2033,-719.849C2033,-682.832 2033,-595.181 2033,-550.386"/>
<polygon fill="grey" stroke="grey" stroke-width="2" points="2036.5,-550.232 2033,-540.232 2029.5,-550.232 2036.5,-550.232"/>
</g>
<!-- 4&#45;&gt;0 -->
<g id="edge4" class="edge"><title>4&#45;&gt;0</title>
<path fill="none" stroke="grey" stroke-width="2" d="M2643.76,-660.514C2828.98,-646.032 3374,-597.121 3374,-523 3374,-523 3374,-523 3374,-161 3374,-112.537 3353.71,-94.8972 3311,-72 3230.39,-28.7873 1795.75,-20.3102 1544.42,-19.1546"/>
<polygon fill="grey" stroke="grey" stroke-width="2" points="1544.35,-15.6544 1534.33,-19.1093 1544.32,-22.6543 1544.35,-15.6544"/>
</g>
<!-- 6 -->
<g id="node7" class="node"><title>6</title>
<path fill="none" stroke="#d87d56" stroke-width="2" d="M2839,-396C2839,-396 2753,-396 2753,-396 2747,-396 2741,-390 2741,-384 2741,-384 2741,-372 2741,-372 2741,-366 2747,-360 2753,-360 2753,-360 2839,-360 2839,-360 2845,-360 2851,-366 2851,-372 2851,-372 2851,-384 2851,-384 2851,-390 2845,-396 2839,-396"/>
<text text-anchor="middle" x="2796" y="-381" font-family="sans" font-size="10.00">remove_duplicates</text>
<text text-anchor="middle" x="2796" y="-370" font-family="sans" font-size="10.00">map_step: genome</text>
</g>
<!-- 4&#45;&gt;6 -->
<g id="edge52" class="edge"><title>4&#45;&gt;6</title>
<path fill="none" stroke="grey" stroke-width="2" d="M2643.59,-655.675C2672.41,-648.318 2705.23,-635.227 2727,-612 2781.6,-553.744 2793.18,-454.278 2795.51,-406.374"/>
<polygon fill="grey" stroke="grey" stroke-width="2" points="2799.02,-406.289 2795.9,-396.162 2792.02,-406.021 2799.02,-406.289"/>
</g>
<!-- 10 -->
<g id="node11" class="node"><title>10</title>
<path fill="none" stroke="#d89556" stroke-width="2" d="M3129.5,-540C3129.5,-540 3040.5,-540 3040.5,-540 3034.5,-540 3028.5,-534 3028.5,-528 3028.5,-528 3028.5,-516 3028.5,-516 3028.5,-510 3034.5,-504 3040.5,-504 3040.5,-504 3129.5,-504 3129.5,-504 3135.5,-504 3141.5,-510 3141.5,-516 3141.5,-516 3141.5,-528 3141.5,-528 3141.5,-534 3135.5,-540 3129.5,-540"/>
<text text-anchor="middle" x="3085" y="-525" font-family="sans" font-size="10.00">sort_bam_by_name</text>
<text text-anchor="middle" x="3085" y="-514" font-family="sans" font-size="10.00">map_step: genome</text>
</g>
<!-- 4&#45;&gt;10 -->
<g id="edge56" class="edge"><title>4&#45;&gt;10</title>
<path fill="none" stroke="grey" stroke-width="2" d="M2643.71,-649.95C2684.59,-639.657 2739.67,-625.484 2788,-612 2868.55,-589.528 2960.71,-561.555 3020.72,-543.033"/>
<polygon fill="grey" stroke="grey" stroke-width="2" points="3021.92,-546.327 3030.44,-540.03 3019.85,-539.639 3021.92,-546.327"/>
</g>
<!-- 22 -->
<g id="node23" class="node"><title>22</title>
<path fill="none" stroke="#9fd856" stroke-width="2" d="M2374.5,-108C2374.5,-108 2295.5,-108 2295.5,-108 2289.5,-108 2283.5,-102 2283.5,-96 2283.5,-96 2283.5,-84 2283.5,-84 2283.5,-78 2289.5,-72 2295.5,-72 2295.5,-72 2374.5,-72 2374.5,-72 2380.5,-72 2386.5,-78 2386.5,-84 2386.5,-84 2386.5,-96 2386.5,-96 2386.5,-102 2380.5,-108 2374.5,-108"/>
<text text-anchor="middle" x="2335" y="-87.5" font-family="sans" font-size="10.00">normalize_bigwig</text>
</g>
<!-- 4&#45;&gt;22 -->
<g id="edge71" class="edge"><title>4&#45;&gt;22</title>
<path fill="none" stroke="grey" stroke-width="2" d="M2583,-647.951C2583,-621.292 2583,-568.115 2583,-523 2583,-523 2583,-523 2583,-305 2583,-258.027 2563.33,-244.512 2526,-216 2483.44,-183.491 2455.69,-209.516 2411,-180 2397.64,-171.174 2371.91,-139.47 2354.12,-116.41"/>
<polygon fill="grey" stroke="grey" stroke-width="2" points="2356.82,-114.177 2347.96,-108.364 2351.26,-118.432 2356.82,-114.177"/>
</g>
<!-- 23 -->
<g id="node24" class="node"><title>23</title>
<path fill="none" stroke="#9fd856" stroke-width="2" d="M2572.5,-108C2572.5,-108 2493.5,-108 2493.5,-108 2487.5,-108 2481.5,-102 2481.5,-96 2481.5,-96 2481.5,-84 2481.5,-84 2481.5,-78 2487.5,-72 2493.5,-72 2493.5,-72 2572.5,-72 2572.5,-72 2578.5,-72 2584.5,-78 2584.5,-84 2584.5,-84 2584.5,-96 2584.5,-96 2584.5,-102 2578.5,-108 2572.5,-108"/>
<text text-anchor="middle" x="2533" y="-87.5" font-family="sans" font-size="10.00">normalize_bigwig</text>
</g>
<!-- 4&#45;&gt;23 -->
<g id="edge73" class="edge"><title>4&#45;&gt;23</title>
<path fill="none" stroke="grey" stroke-width="2" d="M2615.47,-647.935C2653.97,-625.086 2713,-580.656 2713,-523 2713,-523 2713,-523 2713,-305 2713,-232.13 2729.48,-199.279 2682,-144 2675.8,-136.776 2632.55,-121.815 2594.24,-109.625"/>
<polygon fill="grey" stroke="grey" stroke-width="2" points="2595.22,-106.264 2584.63,-106.592 2593.11,-112.94 2595.22,-106.264"/>
</g>
<!-- 24 -->
<g id="node25" class="node"><title>24</title>
<path fill="none" stroke="#56c9d8" stroke-width="2" d="M2543,-324C2543,-324 2455,-324 2455,-324 2449,-324 2443,-318 2443,-312 2443,-312 2443,-300 2443,-300 2443,-294 2449,-288 2455,-288 2455,-288 2543,-288 2543,-288 2549,-288 2555,-294 2555,-300 2555,-300 2555,-312 2555,-312 2555,-318 2549,-324 2543,-324"/>
<text text-anchor="middle" x="2499" y="-309" font-family="sans" font-size="10.00">sort_bam_by_coord</text>
<text text-anchor="middle" x="2499" y="-298" font-family="sans" font-size="10.00">map_step: genome</text>
</g>
<!-- 4&#45;&gt;24 -->
<g id="edge75" class="edge"><title>4&#45;&gt;24</title>
<path fill="none" stroke="grey" stroke-width="2" d="M2570.06,-647.655C2552.16,-621.878 2522,-571.296 2522,-523 2522,-523 2522,-523 2522,-449 2522,-408.696 2512.86,-362.776 2506.1,-334.337"/>
<polygon fill="grey" stroke="grey" stroke-width="2" points="2509.43,-333.222 2503.65,-324.342 2502.63,-334.888 2509.43,-333.222"/>
</g>
<!-- 4&#45;&gt;48 -->
<g id="edge105" class="edge"><title>4&#45;&gt;48</title>
<path fill="none" stroke="grey" stroke-width="2" d="M2522.26,-659.062C2390.91,-646.22 2080.88,-615.91 1939.52,-602.09"/>
<polygon fill="grey" stroke="grey" stroke-width="2" points="1939.53,-598.574 1929.23,-601.084 1938.84,-605.541 1939.53,-598.574"/>
</g>
<!-- 69 -->
<g id="node70" class="node"><title>69</title>
<path fill="none" stroke="#56d873" stroke-width="2" d="M2365,-612C2365,-612 2279,-612 2279,-612 2273,-612 2267,-606 2267,-600 2267,-600 2267,-588 2267,-588 2267,-582 2273,-576 2279,-576 2279,-576 2365,-576 2365,-576 2371,-576 2377,-582 2377,-588 2377,-588 2377,-600 2377,-600 2377,-606 2371,-612 2365,-612"/>
<text text-anchor="middle" x="2322" y="-597" font-family="sans" font-size="10.00">samtools_stats</text>
<text text-anchor="middle" x="2322" y="-586" font-family="sans" font-size="10.00">map_step: genome</text>
</g>
<!-- 4&#45;&gt;69 -->
<g id="edge138" class="edge"><title>4&#45;&gt;69</title>
<path fill="none" stroke="grey" stroke-width="2" d="M2522.47,-648.765C2481.9,-637.884 2428.52,-623.568 2387.04,-612.445"/>
<polygon fill="grey" stroke="grey" stroke-width="2" points="2387.88,-609.044 2377.31,-609.834 2386.06,-615.806 2387.88,-609.044"/>
</g>
<!-- 5 -->
<g id="node6" class="node"><title>5</title>
<path fill="none" stroke="#59d856" stroke-width="2" d="M1546.5,-540C1546.5,-540 1471.5,-540 1471.5,-540 1465.5,-540 1459.5,-534 1459.5,-528 1459.5,-528 1459.5,-516 1459.5,-516 1459.5,-510 1465.5,-504 1471.5,-504 1471.5,-504 1546.5,-504 1546.5,-504 1552.5,-504 1558.5,-510 1558.5,-516 1558.5,-516 1558.5,-528 1558.5,-528 1558.5,-534 1552.5,-540 1546.5,-540"/>
<text text-anchor="middle" x="1509" y="-519.5" font-family="sans" font-size="10.00">map_circRNA_pe</text>
</g>
<!-- 5&#45;&gt;0 -->
<g id="edge5" class="edge"><title>5&#45;&gt;0</title>
<path fill="none" stroke="grey" stroke-width="2" d="M1511.53,-503.906C1515.22,-472.658 1518.85,-405.363 1490,-360 1473.72,-334.398 1448.71,-349.32 1432,-324 1405.42,-283.734 1417.02,-264.084 1421,-216 1423.68,-183.669 1421.88,-174.476 1433,-144 1446.47,-107.074 1470.97,-68.7778 1488.07,-44.4667"/>
<polygon fill="grey" stroke="grey" stroke-width="2" points="1491.04,-46.3411 1494.01,-36.1711 1485.34,-42.269 1491.04,-46.3411"/>
</g>
<!-- 7 -->
<g id="node8" class="node"><title>7</title>
<path fill="none" stroke="#d87d56" stroke-width="2" d="M976,-468C976,-468 890,-468 890,-468 884,-468 878,-462 878,-456 878,-456 878,-444 878,-444 878,-438 884,-432 890,-432 890,-432 976,-432 976,-432 982,-432 988,-438 988,-444 988,-444 988,-456 988,-456 988,-462 982,-468 976,-468"/>
<text text-anchor="middle" x="933" y="-453" font-family="sans" font-size="10.00">remove_duplicates</text>
<text text-anchor="middle" x="933" y="-442" font-family="sans" font-size="10.00">map_step: circRNA</text>
</g>
<!-- 5&#45;&gt;7 -->
<g id="edge53" class="edge"><title>5&#45;&gt;7</title>
<path fill="none" stroke="grey" stroke-width="2" d="M1459.39,-514.971C1355.42,-502.336 1114.7,-473.082 998.326,-458.939"/>
<polygon fill="grey" stroke="grey" stroke-width="2" points="998.485,-455.433 988.136,-457.701 997.641,-462.381 998.485,-455.433"/>
</g>
<!-- 11 -->
<g id="node12" class="node"><title>11</title>
<path fill="none" stroke="#d89556" stroke-width="2" d="M1638.5,-468C1638.5,-468 1549.5,-468 1549.5,-468 1543.5,-468 1537.5,-462 1537.5,-456 1537.5,-456 1537.5,-444 1537.5,-444 1537.5,-438 1543.5,-432 1549.5,-432 1549.5,-432 1638.5,-432 1638.5,-432 1644.5,-432 1650.5,-438 1650.5,-444 1650.5,-444 1650.5,-456 1650.5,-456 1650.5,-462 1644.5,-468 1638.5,-468"/>
<text text-anchor="middle" x="1594" y="-453" font-family="sans" font-size="10.00">sort_bam_by_name</text>
<text text-anchor="middle" x="1594" y="-442" font-family="sans" font-size="10.00">map_step: circRNA</text>
</g>
<!-- 5&#45;&gt;11 -->
<g id="edge57" class="edge"><title>5&#45;&gt;11</title>
<path fill="none" stroke="grey" stroke-width="2" d="M1530.01,-503.697C1540.72,-494.881 1553.89,-484.032 1565.5,-474.474"/>
<polygon fill="grey" stroke="grey" stroke-width="2" points="1567.74,-477.163 1573.23,-468.104 1563.29,-471.76 1567.74,-477.163"/>
</g>
<!-- 27 -->
<g id="node28" class="node"><title>27</title>
<path fill="none" stroke="#9fd856" stroke-width="2" d="M1280.5,-180C1280.5,-180 1201.5,-180 1201.5,-180 1195.5,-180 1189.5,-174 1189.5,-168 1189.5,-168 1189.5,-156 1189.5,-156 1189.5,-150 1195.5,-144 1201.5,-144 1201.5,-144 1280.5,-144 1280.5,-144 1286.5,-144 1292.5,-150 1292.5,-156 1292.5,-156 1292.5,-168 1292.5,-168 1292.5,-174 1286.5,-180 1280.5,-180"/>
<text text-anchor="middle" x="1241" y="-159.5" font-family="sans" font-size="10.00">normalize_bigwig</text>
</g>
<!-- 5&#45;&gt;27 -->
<g id="edge78" class="edge"><title>5&#45;&gt;27</title>
<path fill="none" stroke="grey" stroke-width="2" d="M1459.41,-515.895C1400.42,-508.745 1307.01,-493.66 1284,-468 1246.33,-425.991 1262.69,-271.584 1253,-216 1251.52,-207.504 1249.57,-198.319 1247.67,-190.019"/>
<polygon fill="grey" stroke="grey" stroke-width="2" points="1251.03,-189.029 1245.33,-180.098 1244.22,-190.634 1251.03,-189.029"/>
</g>
<!-- 28 -->
<g id="node29" class="node"><title>28</title>
<path fill="none" stroke="#56c9d8" stroke-width="2" d="M1225,-396C1225,-396 1137,-396 1137,-396 1131,-396 1125,-390 1125,-384 1125,-384 1125,-372 1125,-372 1125,-366 1131,-360 1137,-360 1137,-360 1225,-360 1225,-360 1231,-360 1237,-366 1237,-372 1237,-372 1237,-384 1237,-384 1237,-390 1231,-396 1225,-396"/>
<text text-anchor="middle" x="1181" y="-381" font-family="sans" font-size="10.00">sort_bam_by_coord</text>
<text text-anchor="middle" x="1181" y="-370" font-family="sans" font-size="10.00">map_step: circRNA</text>
</g>
<!-- 5&#45;&gt;28 -->
<g id="edge80" class="edge"><title>5&#45;&gt;28</title>
<path fill="none" stroke="grey" stroke-width="2" d="M1459.2,-520.726C1404.35,-518.276 1315.38,-507.78 1251,-468 1226.2,-452.677 1206.64,-425.243 1194.58,-404.871"/>
<polygon fill="grey" stroke="grey" stroke-width="2" points="1197.56,-403.033 1189.57,-396.076 1191.48,-406.497 1197.56,-403.033"/>
</g>
<!-- 5&#45;&gt;51 -->
<g id="edge120" class="edge"><title>5&#45;&gt;51</title>
<path fill="none" stroke="grey" stroke-width="2" d="M1558.59,-511.787C1612,-501.804 1699.74,-485.225 1785.55,-468.072"/>
<polygon fill="grey" stroke="grey" stroke-width="2" points="1786.34,-471.483 1795.46,-466.087 1784.97,-464.619 1786.34,-471.483"/>
</g>
<!-- 56 -->
<g id="node57" class="node"><title>56</title>
<path fill="none" stroke="#56d882" stroke-width="2" d="M1469,-468C1469,-468 1305,-468 1305,-468 1299,-468 1293,-462 1293,-456 1293,-456 1293,-444 1293,-444 1293,-438 1299,-432 1305,-432 1305,-432 1469,-432 1469,-432 1475,-432 1481,-438 1481,-444 1481,-444 1481,-456 1481,-456 1481,-462 1475,-468 1469,-468"/>
<text text-anchor="middle" x="1387" y="-453" font-family="sans" font-size="10.00">map_bam_to_pseudo_genome_1_2</text>
<text text-anchor="middle" x="1387" y="-442" font-family="sans" font-size="10.00">map_step: circRNA</text>
</g>
<!-- 5&#45;&gt;56 -->
<g id="edge125" class="edge"><title>5&#45;&gt;56</title>
<path fill="none" stroke="grey" stroke-width="2" d="M1479.16,-503.876C1463.06,-494.639 1443,-483.131 1425.71,-473.212"/>
<polygon fill="grey" stroke="grey" stroke-width="2" points="1427.37,-470.131 1416.96,-468.19 1423.89,-476.202 1427.37,-470.131"/>
</g>
<!-- 70 -->
<g id="node71" class="node"><title>70</title>
<path fill="none" stroke="#56d873" stroke-width="2" d="M1765.5,-468C1765.5,-468 1680.5,-468 1680.5,-468 1674.5,-468 1668.5,-462 1668.5,-456 1668.5,-456 1668.5,-444 1668.5,-444 1668.5,-438 1674.5,-432 1680.5,-432 1680.5,-432 1765.5,-432 1765.5,-432 1771.5,-432 1777.5,-438 1777.5,-444 1777.5,-444 1777.5,-456 1777.5,-456 1777.5,-462 1771.5,-468 1765.5,-468"/>
<text text-anchor="middle" x="1723" y="-453" font-family="sans" font-size="10.00">samtools_stats</text>
<text text-anchor="middle" x="1723" y="-442" font-family="sans" font-size="10.00">map_step: circRNA</text>
</g>
<!-- 5&#45;&gt;70 -->
<g id="edge139" class="edge"><title>5&#45;&gt;70</title>
<path fill="none" stroke="grey" stroke-width="2" d="M1558.63,-504.765C1589.18,-494.772 1628.59,-481.883 1661.16,-471.23"/>
<polygon fill="grey" stroke="grey" stroke-width="2" points="1662.61,-474.436 1671.03,-468.001 1660.43,-467.783 1662.61,-474.436"/>
</g>
<!-- 6&#45;&gt;0 -->
<g id="edge6" class="edge"><title>6&#45;&gt;0</title>
<path fill="none" stroke="grey" stroke-width="2" d="M2796.61,-359.849C2798.3,-301.338 2800.38,-111.054 2758,-72 2712.24,-29.8264 1747.09,-20.693 1544.21,-19.2366"/>
<polygon fill="grey" stroke="grey" stroke-width="2" points="1544.09,-15.7357 1534.06,-19.1656 1544.04,-22.7356 1544.09,-15.7357"/>
</g>
<!-- 12 -->
<g id="node13" class="node"><title>12</title>
<path fill="none" stroke="#d89556" stroke-width="2" d="M2737.5,-108C2737.5,-108 2614.5,-108 2614.5,-108 2608.5,-108 2602.5,-102 2602.5,-96 2602.5,-96 2602.5,-84 2602.5,-84 2602.5,-78 2608.5,-72 2614.5,-72 2614.5,-72 2737.5,-72 2737.5,-72 2743.5,-72 2749.5,-78 2749.5,-84 2749.5,-84 2749.5,-96 2749.5,-96 2749.5,-102 2743.5,-108 2737.5,-108"/>
<text text-anchor="middle" x="2676" y="-93" font-family="sans" font-size="10.00">sort_bam_by_name</text>
<text text-anchor="middle" x="2676" y="-82" font-family="sans" font-size="10.00">map_step: genome_rmdup</text>
</g>
<!-- 6&#45;&gt;12 -->
<g id="edge58" class="edge"><title>6&#45;&gt;12</title>
<path fill="none" stroke="grey" stroke-width="2" d="M2788.93,-359.914C2784.72,-349.578 2779.38,-336.1 2775,-324 2746.37,-244.83 2755,-218.611 2716,-144 2710.95,-134.345 2704.18,-124.597 2697.65,-116.139"/>
<polygon fill="grey" stroke="grey" stroke-width="2" points="2700.24,-113.783 2691.26,-108.162 2694.78,-118.157 2700.24,-113.783"/>
</g>
<!-- 34 -->
<g id="node35" class="node"><title>34</title>
<path fill="none" stroke="#9fd856" stroke-width="2" d="M2954.5,-108C2954.5,-108 2875.5,-108 2875.5,-108 2869.5,-108 2863.5,-102 2863.5,-96 2863.5,-96 2863.5,-84 2863.5,-84 2863.5,-78 2869.5,-72 2875.5,-72 2875.5,-72 2954.5,-72 2954.5,-72 2960.5,-72 2966.5,-78 2966.5,-84 2966.5,-84 2966.5,-96 2966.5,-96 2966.5,-102 2960.5,-108 2954.5,-108"/>
<text text-anchor="middle" x="2915" y="-87.5" font-family="sans" font-size="10.00">normalize_bigwig</text>
</g>
<!-- 6&#45;&gt;34 -->
<g id="edge86" class="edge"><title>6&#45;&gt;34</title>
<path fill="none" stroke="grey" stroke-width="2" d="M2799.51,-359.793C2808.06,-320.022 2832.35,-219.368 2873,-144 2878.32,-134.134 2885.52,-124.254 2892.45,-115.744"/>
<polygon fill="grey" stroke="grey" stroke-width="2" points="2895.17,-117.948 2898.94,-108.049 2889.82,-113.434 2895.17,-117.948"/>
</g>
<!-- 35 -->
<g id="node36" class="node"><title>35</title>
<path fill="none" stroke="#9fd856" stroke-width="2" d="M3251.5,-108C3251.5,-108 3172.5,-108 3172.5,-108 3166.5,-108 3160.5,-102 3160.5,-96 3160.5,-96 3160.5,-84 3160.5,-84 3160.5,-78 3166.5,-72 3172.5,-72 3172.5,-72 3251.5,-72 3251.5,-72 3257.5,-72 3263.5,-78 3263.5,-84 3263.5,-84 3263.5,-96 3263.5,-96 3263.5,-102 3257.5,-108 3251.5,-108"/>
<text text-anchor="middle" x="3212" y="-87.5" font-family="sans" font-size="10.00">normalize_bigwig</text>
</g>
<!-- 6&#45;&gt;35 -->
<g id="edge88" class="edge"><title>6&#45;&gt;35</title>
<path fill="none" stroke="grey" stroke-width="2" d="M2851.1,-372.802C2937.87,-363.754 3108.26,-335.873 3223,-252 3266.49,-220.212 3301.29,-192.571 3278,-144 3272.33,-132.185 3262.61,-122.171 3252.34,-114.136"/>
<polygon fill="grey" stroke="grey" stroke-width="2" points="3254.2,-111.163 3244.05,-108.12 3250.09,-116.828 3254.2,-111.163"/>
</g>
<!-- 36 -->
<g id="node37" class="node"><title>36</title>
<path fill="none" stroke="#56c9d8" stroke-width="2" d="M3001.5,-324C3001.5,-324 2878.5,-324 2878.5,-324 2872.5,-324 2866.5,-318 2866.5,-312 2866.5,-312 2866.5,-300 2866.5,-300 2866.5,-294 2872.5,-288 2878.5,-288 2878.5,-288 3001.5,-288 3001.5,-288 3007.5,-288 3013.5,-294 3013.5,-300 3013.5,-300 3013.5,-312 3013.5,-312 3013.5,-318 3007.5,-324 3001.5,-324"/>
<text text-anchor="middle" x="2940" y="-309" font-family="sans" font-size="10.00">sort_bam_by_coord</text>
<text text-anchor="middle" x="2940" y="-298" font-family="sans" font-size="10.00">map_step: genome_rmdup</text>
</g>
<!-- 6&#45;&gt;36 -->
<g id="edge90" class="edge"><title>6&#45;&gt;36</title>
<path fill="none" stroke="grey" stroke-width="2" d="M2831.23,-359.876C2850.58,-350.469 2874.77,-338.708 2895.43,-328.667"/>
<polygon fill="grey" stroke="grey" stroke-width="2" points="2897.17,-331.71 2904.64,-324.19 2894.11,-325.414 2897.17,-331.71"/>
</g>
<!-- 71 -->
<g id="node72" class="node"><title>71</title>
<path fill="none" stroke="#56d873" stroke-width="2" d="M2395.5,-324C2395.5,-324 2272.5,-324 2272.5,-324 2266.5,-324 2260.5,-318 2260.5,-312 2260.5,-312 2260.5,-300 2260.5,-300 2260.5,-294 2266.5,-288 2272.5,-288 2272.5,-288 2395.5,-288 2395.5,-288 2401.5,-288 2407.5,-294 2407.5,-300 2407.5,-300 2407.5,-312 2407.5,-312 2407.5,-318 2401.5,-324 2395.5,-324"/>
<text text-anchor="middle" x="2334" y="-309" font-family="sans" font-size="10.00">samtools_stats</text>
<text text-anchor="middle" x="2334" y="-298" font-family="sans" font-size="10.00">map_step: genome_rmdup</text>
</g>
<!-- 6&#45;&gt;71 -->
<g id="edge140" class="edge"><title>6&#45;&gt;71</title>
<path fill="none" stroke="grey" stroke-width="2" d="M2740.74,-369.313C2669.7,-359.337 2542.54,-341.168 2434,-324 2428.67,-323.157 2423.19,-322.273 2417.66,-321.369"/>
<polygon fill="grey" stroke="grey" stroke-width="2" points="2418.13,-317.899 2407.69,-319.726 2416.99,-324.806 2418.13,-317.899"/>
</g>
<!-- 7&#45;&gt;0 -->
<g id="edge7" class="edge"><title>7&#45;&gt;0</title>
<path fill="none" stroke="grey" stroke-width="2" d="M936.091,-431.77C948.681,-363.75 998.416,-115.48 1061,-72 1126.82,-26.2696 1374.54,-19.8076 1469.57,-19.0361"/>
<polygon fill="grey" stroke="grey" stroke-width="2" points="1469.88,-22.5343 1479.86,-18.9703 1469.83,-15.5344 1469.88,-22.5343"/>
</g>
<!-- 13 -->
<g id="node14" class="node"><title>13</title>
<path fill="none" stroke="#d89556" stroke-width="2" d="M1095,-396C1095,-396 973,-396 973,-396 967,-396 961,-390 961,-384 961,-384 961,-372 961,-372 961,-366 967,-360 973,-360 973,-360 1095,-360 1095,-360 1101,-360 1107,-366 1107,-372 1107,-372 1107,-384 1107,-384 1107,-390 1101,-396 1095,-396"/>
<text text-anchor="middle" x="1034" y="-381" font-family="sans" font-size="10.00">sort_bam_by_name</text>
<text text-anchor="middle" x="1034" y="-370" font-family="sans" font-size="10.00">map_step: circRNA_rmdup</text>
</g>
<!-- 7&#45;&gt;13 -->
<g id="edge59" class="edge"><title>7&#45;&gt;13</title>
<path fill="none" stroke="grey" stroke-width="2" d="M957.707,-431.876C970.669,-422.893 986.728,-411.763 1000.77,-402.034"/>
<polygon fill="grey" stroke="grey" stroke-width="2" points="1002.97,-404.763 1009.2,-396.19 998.985,-399.009 1002.97,-404.763"/>
</g>
<!-- 39 -->
<g id="node40" class="node"><title>39</title>
<path fill="none" stroke="#9fd856" stroke-width="2" d="M645.5,-180C645.5,-180 566.5,-180 566.5,-180 560.5,-180 554.5,-174 554.5,-168 554.5,-168 554.5,-156 554.5,-156 554.5,-150 560.5,-144 566.5,-144 566.5,-144 645.5,-144 645.5,-144 651.5,-144 657.5,-150 657.5,-156 657.5,-156 657.5,-168 657.5,-168 657.5,-174 651.5,-180 645.5,-180"/>
<text text-anchor="middle" x="606" y="-159.5" font-family="sans" font-size="10.00">normalize_bigwig</text>
</g>
<!-- 7&#45;&gt;39 -->
<g id="edge93" class="edge"><title>7&#45;&gt;39</title>
<path fill="none" stroke="grey" stroke-width="2" d="M877.638,-449.973C780.744,-450.361 586.639,-444.843 544,-396 522.673,-371.571 494.89,-361.657 559,-216 563.628,-205.486 571.135,-195.589 578.805,-187.258"/>
<polygon fill="grey" stroke="grey" stroke-width="2" points="581.337,-189.675 585.817,-180.074 576.327,-184.786 581.337,-189.675"/>
</g>
<!-- 40 -->
<g id="node41" class="node"><title>40</title>
<path fill="none" stroke="#56c9d8" stroke-width="2" d="M687,-396C687,-396 565,-396 565,-396 559,-396 553,-390 553,-384 553,-384 553,-372 553,-372 553,-366 559,-360 565,-360 565,-360 687,-360 687,-360 693,-360 699,-366 699,-372 699,-372 699,-384 699,-384 699,-390 693,-396 687,-396"/>
<text text-anchor="middle" x="626" y="-381" font-family="sans" font-size="10.00">sort_bam_by_coord</text>
<text text-anchor="middle" x="626" y="-370" font-family="sans" font-size="10.00">map_step: circRNA_rmdup</text>
</g>
<!-- 7&#45;&gt;40 -->
<g id="edge95" class="edge"><title>7&#45;&gt;40</title>
<path fill="none" stroke="grey" stroke-width="2" d="M877.76,-436.405C830.793,-425.695 762.652,-410.159 709.103,-397.948"/>
<polygon fill="grey" stroke="grey" stroke-width="2" points="709.81,-394.52 699.282,-395.709 708.254,-401.345 709.81,-394.52"/>
</g>
<!-- 60 -->
<g id="node61" class="node"><title>60</title>
<path fill="none" stroke="#56d882" stroke-width="2" d="M893,-396C893,-396 729,-396 729,-396 723,-396 717,-390 717,-384 717,-384 717,-372 717,-372 717,-366 723,-360 729,-360 729,-360 893,-360 893,-360 899,-360 905,-366 905,-372 905,-372 905,-384 905,-384 905,-390 899,-396 893,-396"/>
<text text-anchor="middle" x="811" y="-381" font-family="sans" font-size="10.00">map_bam_to_pseudo_genome_1_2</text>
<text text-anchor="middle" x="811" y="-370" font-family="sans" font-size="10.00">map_step: circRNA_rmdup</text>
</g>
<!-- 7&#45;&gt;60 -->
<g id="edge129" class="edge"><title>7&#45;&gt;60</title>
<path fill="none" stroke="grey" stroke-width="2" d="M903.155,-431.876C887.056,-422.639 866.999,-411.131 849.712,-401.212"/>
<polygon fill="grey" stroke="grey" stroke-width="2" points="851.375,-398.131 840.959,-396.19 847.891,-404.202 851.375,-398.131"/>
</g>
<!-- 72 -->
<g id="node73" class="node"><title>72</title>
<path fill="none" stroke="#56d873" stroke-width="2" d="M1671,-396C1671,-396 1549,-396 1549,-396 1543,-396 1537,-390 1537,-384 1537,-384 1537,-372 1537,-372 1537,-366 1543,-360 1549,-360 1549,-360 1671,-360 1671,-360 1677,-360 1683,-366 1683,-372 1683,-372 1683,-384 1683,-384 1683,-390 1677,-396 1671,-396"/>
<text text-anchor="middle" x="1610" y="-381" font-family="sans" font-size="10.00">samtools_stats</text>
<text text-anchor="middle" x="1610" y="-370" font-family="sans" font-size="10.00">map_step: circRNA_rmdup</text>
</g>
<!-- 7&#45;&gt;72 -->
<g id="edge141" class="edge"><title>7&#45;&gt;72</title>
<path fill="none" stroke="grey" stroke-width="2" d="M988.035,-444.606C1088.1,-436.428 1306.48,-417.719 1490,-396 1501.84,-394.599 1514.31,-392.986 1526.56,-391.323"/>
<polygon fill="grey" stroke="grey" stroke-width="2" points="1527.34,-394.748 1536.77,-389.918 1526.39,-387.813 1527.34,-394.748"/>
</g>
<!-- 8&#45;&gt;0 -->
<g id="edge8" class="edge"><title>8&#45;&gt;0</title>
<path fill="none" stroke="grey" stroke-width="2" d="M382.086,-359.773C407.422,-334.914 449,-286.302 449,-235 449,-235 449,-235 449,-161 449,-120.031 441.126,-97.7386 473,-72 512.549,-40.0635 1289.79,-23.1806 1469.94,-19.6873"/>
<polygon fill="grey" stroke="grey" stroke-width="2" points="1470.05,-23.1859 1479.98,-19.4945 1469.92,-16.1872 1470.05,-23.1859"/>
</g>
<!-- 14 -->
<g id="node15" class="node"><title>14</title>
<path fill="none" stroke="#d89556" stroke-width="2" d="M148,-324C148,-324 40,-324 40,-324 34,-324 28,-318 28,-312 28,-312 28,-300 28,-300 28,-294 34,-288 40,-288 40,-288 148,-288 148,-288 154,-288 160,-294 160,-300 160,-300 160,-312 160,-312 160,-318 154,-324 148,-324"/>
<text text-anchor="middle" x="94" y="-309" font-family="sans" font-size="10.00">sort_bam_by_name</text>
<text text-anchor="middle" x="94" y="-298" font-family="sans" font-size="10.00">map_step: rRNA_rmdup</text>
</g>
<!-- 8&#45;&gt;14 -->
<g id="edge60" class="edge"><title>8&#45;&gt;14</title>
<path fill="none" stroke="grey" stroke-width="2" d="M307.915,-362.666C267.902,-352.253 213.281,-338.04 169.248,-326.581"/>
<polygon fill="grey" stroke="grey" stroke-width="2" points="170.009,-323.163 159.45,-324.032 168.246,-329.937 170.009,-323.163"/>
</g>
<!-- 45 -->
<g id="node46" class="node"><title>45</title>
<path fill="none" stroke="#9fd856" stroke-width="2" d="M232.5,-108C232.5,-108 153.5,-108 153.5,-108 147.5,-108 141.5,-102 141.5,-96 141.5,-96 141.5,-84 141.5,-84 141.5,-78 147.5,-72 153.5,-72 153.5,-72 232.5,-72 232.5,-72 238.5,-72 244.5,-78 244.5,-84 244.5,-84 244.5,-96 244.5,-96 244.5,-102 238.5,-108 232.5,-108"/>
<text text-anchor="middle" x="193" y="-87.5" font-family="sans" font-size="10.00">normalize_bigwig</text>
</g>
<!-- 8&#45;&gt;45 -->
<g id="edge100" class="edge"><title>8&#45;&gt;45</title>
<path fill="none" stroke="grey" stroke-width="2" d="M307.913,-362.534C286.535,-354.398 263.514,-342.117 248,-324 196.961,-264.398 191.289,-165.984 191.829,-118.42"/>
<polygon fill="grey" stroke="grey" stroke-width="2" points="195.331,-118.347 192.049,-108.273 188.333,-118.194 195.331,-118.347"/>
</g>
<!-- 46 -->
<g id="node47" class="node"><title>46</title>
<path fill="none" stroke="#56c9d8" stroke-width="2" d="M377,-324C377,-324 269,-324 269,-324 263,-324 257,-318 257,-312 257,-312 257,-300 257,-300 257,-294 263,-288 269,-288 269,-288 377,-288 377,-288 383,-288 389,-294 389,-300 389,-300 389,-312 389,-312 389,-318 383,-324 377,-324"/>
<text text-anchor="middle" x="323" y="-309" font-family="sans" font-size="10.00">sort_bam_by_coord</text>
<text text-anchor="middle" x="323" y="-298" font-family="sans" font-size="10.00">map_step: rRNA_rmdup</text>
</g>
<!-- 8&#45;&gt;46 -->
<g id="edge102" class="edge"><title>8&#45;&gt;46</title>
<path fill="none" stroke="grey" stroke-width="2" d="M353.112,-359.697C348.511,-351.644 342.94,-341.894 337.847,-332.982"/>
<polygon fill="grey" stroke="grey" stroke-width="2" points="340.774,-331.05 332.774,-324.104 334.696,-334.523 340.774,-331.05"/>
</g>
<!-- 73 -->
<g id="node74" class="node"><title>73</title>
<path fill="none" stroke="#56d873" stroke-width="2" d="M1561,-324C1561,-324 1453,-324 1453,-324 1447,-324 1441,-318 1441,-312 1441,-312 1441,-300 1441,-300 1441,-294 1447,-288 1453,-288 1453,-288 1561,-288 1561,-288 1567,-288 1573,-294 1573,-300 1573,-300 1573,-312 1573,-312 1573,-318 1567,-324 1561,-324"/>
<text text-anchor="middle" x="1507" y="-309" font-family="sans" font-size="10.00">samtools_stats</text>
<text text-anchor="middle" x="1507" y="-298" font-family="sans" font-size="10.00">map_step: rRNA_rmdup</text>
</g>
<!-- 8&#45;&gt;73 -->
<g id="edge142" class="edge"><title>8&#45;&gt;73</title>
<path fill="none" stroke="grey" stroke-width="2" d="M418.003,-371.251C453.851,-367.649 501.664,-363.114 544,-360 844.059,-337.928 919.605,-340.895 1220,-324 1291.46,-319.981 1372.91,-315.131 1430.74,-311.641"/>
<polygon fill="grey" stroke="grey" stroke-width="2" points="1431.12,-315.125 1440.89,-311.028 1430.7,-308.137 1431.12,-315.125"/>
</g>
<!-- 9&#45;&gt;0 -->
<g id="edge9" class="edge"><title>9&#45;&gt;0</title>
<path fill="none" stroke="grey" stroke-width="2" d="M1091.36,-664.827C931.266,-662.825 487,-646.171 487,-523 487,-523 487,-523 487,-161 487,-120.553 475.239,-98.2628 506,-72 543.33,-40.1285 1292.51,-23.2659 1469.68,-19.7147"/>
<polygon fill="grey" stroke="grey" stroke-width="2" points="1469.88,-23.2114 1479.81,-19.5137 1469.74,-16.2128 1469.88,-23.2114"/>
</g>
<!-- 10&#45;&gt;0 -->
<g id="edge10" class="edge"><title>10&#45;&gt;0</title>
<path fill="none" stroke="grey" stroke-width="2" d="M3141.64,-514.148C3215.67,-501.672 3336,-467.743 3336,-379 3336,-379 3336,-379 3336,-161 3336,-112.279 3315.02,-94.8731 3272,-72 3193.07,-30.032 1792.35,-20.5406 1544.37,-19.1866"/>
<polygon fill="grey" stroke="grey" stroke-width="2" points="1544.1,-15.6852 1534.08,-19.1315 1544.06,-22.6851 1544.1,-15.6852"/>
</g>
<!-- 11&#45;&gt;0 -->
<g id="edge11" class="edge"><title>11&#45;&gt;0</title>
<path fill="none" stroke="grey" stroke-width="2" d="M1648.82,-431.961C1665.66,-423.866 1682.29,-412.283 1692,-396 1700.19,-382.256 1699.61,-374.075 1692,-360 1664.21,-308.6 1635.68,-311.08 1582,-288 1518.22,-260.578 1473.06,-306.454 1430,-252 1411.24,-228.284 1446.79,-153.459 1452,-144 1462.19,-125.508 1473.12,-126.658 1483,-108 1493.27,-88.6127 1499.42,-64.4663 1502.92,-46.2179"/>
<polygon fill="grey" stroke="grey" stroke-width="2" points="1506.39,-46.6924 1504.69,-36.2357 1499.5,-45.4733 1506.39,-46.6924"/>
</g>
<!-- 12&#45;&gt;0 -->
<g id="edge12" class="edge"><title>12&#45;&gt;0</title>
<path fill="none" stroke="grey" stroke-width="2" d="M2602.33,-73.301C2599.18,-72.8236 2596.06,-72.3863 2593,-72 2184.59,-20.5177 1683.95,-18.2862 1544.56,-18.7552"/>
<polygon fill="grey" stroke="grey" stroke-width="2" points="1544.4,-15.2557 1534.41,-18.7965 1544.43,-22.2556 1544.4,-15.2557"/>
</g>
<!-- 13&#45;&gt;0 -->
<g id="edge13" class="edge"><title>13&#45;&gt;0</title>
<path fill="none" stroke="grey" stroke-width="2" d="M1014.53,-359.918C1005.18,-350.403 994.954,-337.723 990,-324 984.567,-308.951 986.44,-303.599 990,-288 1001.85,-236.061 1050.79,-103.164 1094,-72 1153.71,-28.9331 1379.85,-20.8464 1469.79,-19.3398"/>
<polygon fill="grey" stroke="grey" stroke-width="2" points="1469.86,-22.8392 1479.81,-19.1901 1469.76,-15.84 1469.86,-22.8392"/>
</g>
<!-- 14&#45;&gt;0 -->
<g id="edge14" class="edge"><title>14&#45;&gt;0</title>
<path fill="none" stroke="grey" stroke-width="2" d="M88.6341,-287.819C76.2684,-244.425 51.1906,-129.759 111,-72 161.264,-23.4597 1252.6,-19.3625 1469.66,-19.028"/>
<polygon fill="grey" stroke="grey" stroke-width="2" points="1469.9,-22.5277 1479.89,-19.014 1469.89,-15.5277 1469.9,-22.5277"/>
</g>
<!-- 15 -->
<g id="node16" class="node"><title>15</title>
<path fill="none" stroke="#d8a456" stroke-width="2" d="M1773,-108C1773,-108 1669,-108 1669,-108 1663,-108 1657,-102 1657,-96 1657,-96 1657,-84 1657,-84 1657,-78 1663,-72 1669,-72 1669,-72 1773,-72 1773,-72 1779,-72 1785,-78 1785,-84 1785,-84 1785,-96 1785,-96 1785,-102 1779,-108 1773,-108"/>
<text text-anchor="middle" x="1721" y="-87.5" font-family="sans" font-size="10.00">summary_mapping_pe</text>
</g>
<!-- 15&#45;&gt;0 -->
<g id="edge15" class="edge"><title>15&#45;&gt;0</title>
<path fill="none" stroke="grey" stroke-width="2" d="M1668.92,-71.9656C1630.19,-59.295 1578.28,-42.3145 1543.79,-31.0334"/>
<polygon fill="grey" stroke="grey" stroke-width="2" points="1544.71,-27.6513 1534.11,-27.8689 1542.53,-34.3044 1544.71,-27.6513"/>
</g>
<!-- 16 -->
<g id="node17" class="node"><title>16</title>
<path fill="none" stroke="#56a2d8" stroke-width="2" d="M3543.5,-180C3543.5,-180 3452.5,-180 3452.5,-180 3446.5,-180 3440.5,-174 3440.5,-168 3440.5,-168 3440.5,-156 3440.5,-156 3440.5,-150 3446.5,-144 3452.5,-144 3452.5,-144 3543.5,-144 3543.5,-144 3549.5,-144 3555.5,-150 3555.5,-156 3555.5,-156 3555.5,-168 3555.5,-168 3555.5,-174 3549.5,-180 3543.5,-180"/>
<text text-anchor="middle" x="3498" y="-159.5" font-family="sans" font-size="10.00">bedgraph_to_bigwig</text>
</g>
<!-- 16&#45;&gt;0 -->
<g id="edge16" class="edge"><title>16&#45;&gt;0</title>
<path fill="none" stroke="grey" stroke-width="2" d="M3489.92,-143.805C3478.87,-122.525 3456.82,-87.2366 3426,-72 3338.51,-28.7526 1804.32,-20.2745 1544.3,-19.1462"/>
<polygon fill="grey" stroke="grey" stroke-width="2" points="1544.24,-15.646 1534.23,-19.1034 1544.21,-22.6459 1544.24,-15.646"/>
</g>
<!-- 16&#45;&gt;17 -->
<g id="edge66" class="edge"><title>16&#45;&gt;17</title>
<path fill="none" stroke="grey" stroke-width="2" d="M3505.91,-143.697C3509.55,-135.728 3513.95,-126.1 3517.99,-117.264"/>
<polygon fill="grey" stroke="grey" stroke-width="2" points="3521.21,-118.654 3522.18,-108.104 3514.84,-115.744 3521.21,-118.654"/>
</g>
<!-- 17&#45;&gt;0 -->
<g id="edge17" class="edge"><title>17&#45;&gt;0</title>
<path fill="none" stroke="grey" stroke-width="2" d="M3478.34,-74.5218C3473.52,-73.5263 3468.69,-72.6585 3464,-72 3073.06,-17.0731 1780.14,-18.1892 1544.15,-18.8664"/>
<polygon fill="grey" stroke="grey" stroke-width="2" points="1544.01,-15.3667 1534.02,-18.8971 1544.03,-22.3667 1544.01,-15.3667"/>
</g>
<!-- 18&#45;&gt;0 -->
<g id="edge18" class="edge"><title>18&#45;&gt;0</title>
<path fill="none" stroke="grey" stroke-width="2" d="M3455.01,-287.776C3447.54,-277.832 3438.73,-264.793 3433,-252 3399.31,-176.732 3452.28,-123.659 3388,-72 3313.51,-12.1343 1803.43,-17.4298 1544.59,-18.7809"/>
<polygon fill="grey" stroke="grey" stroke-width="2" points="1544.2,-15.2829 1534.22,-18.8365 1544.24,-22.2828 1544.2,-15.2829"/>
</g>
<!-- 19 -->
<g id="node20" class="node"><title>19</title>
<path fill="none" stroke="#78d856" stroke-width="2" d="M3708,-108C3708,-108 3612,-108 3612,-108 3606,-108 3600,-102 3600,-96 3600,-96 3600,-84 3600,-84 3600,-78 3606,-72 3612,-72 3612,-72 3708,-72 3708,-72 3714,-72 3720,-78 3720,-84 3720,-84 3720,-96 3720,-96 3720,-102 3714,-108 3708,-108"/>
<text text-anchor="middle" x="3660" y="-87.5" font-family="sans" font-size="10.00">index_bam_by_coord</text>
</g>
<!-- 18&#45;&gt;19 -->
<g id="edge68" class="edge"><title>18&#45;&gt;19</title>
<path fill="none" stroke="grey" stroke-width="2" d="M3488.19,-287.856C3499.25,-277.724 3513.25,-264.474 3525,-252 3568.16,-206.169 3614.48,-148.963 3640.08,-116.547"/>
<polygon fill="grey" stroke="grey" stroke-width="2" points="3643,-118.499 3646.44,-108.476 3637.5,-114.17 3643,-118.499"/>
</g>
<!-- 52 -->
<g id="node53" class="node"><title>52</title>
<path fill="none" stroke="#5692d8" stroke-width="2" d="M3504,-252C3504,-252 3454,-252 3454,-252 3448,-252 3442,-246 3442,-240 3442,-240 3442,-228 3442,-228 3442,-222 3448,-216 3454,-216 3454,-216 3504,-216 3504,-216 3510,-216 3516,-222 3516,-228 3516,-228 3516,-240 3516,-240 3516,-246 3510,-252 3504,-252"/>
<text text-anchor="middle" x="3479" y="-237" font-family="sans" font-size="10.00">genomecov</text>
<text text-anchor="middle" x="3479" y="-226" font-family="sans" font-size="10.00">strand: +</text>
</g>
<!-- 18&#45;&gt;52 -->
<g id="edge121" class="edge"><title>18&#45;&gt;52</title>
<path fill="none" stroke="grey" stroke-width="2" d="M3471.47,-287.697C3472.57,-279.983 3473.9,-270.712 3475.13,-262.112"/>
<polygon fill="grey" stroke="grey" stroke-width="2" points="3478.61,-262.499 3476.56,-252.104 3471.68,-261.509 3478.61,-262.499"/>
</g>
<!-- 19&#45;&gt;0 -->
<g id="edge19" class="edge"><title>19&#45;&gt;0</title>
<path fill="none" stroke="grey" stroke-width="2" d="M3599.83,-73.5255C3596.51,-72.9434 3593.22,-72.4275 3590,-72 3172.16,-16.5893 1788.98,-18.141 1544.19,-18.8653"/>
<polygon fill="grey" stroke="grey" stroke-width="2" points="1544.02,-15.3657 1534.04,-18.8969 1544.05,-22.3657 1544.02,-15.3657"/>
</g>
<!-- 20 -->
<g id="node21" class="node"><title>20</title>
<path fill="none" stroke="#56a2d8" stroke-width="2" d="M2351.5,-180C2351.5,-180 2260.5,-180 2260.5,-180 2254.5,-180 2248.5,-174 2248.5,-168 2248.5,-168 2248.5,-156 2248.5,-156 2248.5,-150 2254.5,-144 2260.5,-144 2260.5,-144 2351.5,-144 2351.5,-144 2357.5,-144 2363.5,-150 2363.5,-156 2363.5,-156 2363.5,-168 2363.5,-168 2363.5,-174 2357.5,-180 2351.5,-180"/>
<text text-anchor="middle" x="2306" y="-159.5" font-family="sans" font-size="10.00">bedgraph_to_bigwig</text>
</g>
<!-- 20&#45;&gt;0 -->
<g id="edge20" class="edge"><title>20&#45;&gt;0</title>
<path fill="none" stroke="grey" stroke-width="2" d="M2297.07,-143.644C2285.17,-122.542 2261.96,-87.7961 2231,-72 2169.59,-40.667 1684.28,-24.1779 1544.53,-20.0473"/>
<polygon fill="grey" stroke="grey" stroke-width="2" points="1544.42,-16.5428 1534.33,-19.7496 1544.22,-23.5398 1544.42,-16.5428"/>
</g>
<!-- 20&#45;&gt;22 -->
<g id="edge72" class="edge"><title>20&#45;&gt;22</title>
<path fill="none" stroke="grey" stroke-width="2" d="M2313.17,-143.697C2316.43,-135.813 2320.37,-126.304 2324,-117.546"/>
<polygon fill="grey" stroke="grey" stroke-width="2" points="2327.32,-118.683 2327.91,-108.104 2320.85,-116.003 2327.32,-118.683"/>
</g>
<!-- 21 -->
<g id="node22" class="node"><title>21</title>
<path fill="none" stroke="#56a2d8" stroke-width="2" d="M2661.5,-180C2661.5,-180 2570.5,-180 2570.5,-180 2564.5,-180 2558.5,-174 2558.5,-168 2558.5,-168 2558.5,-156 2558.5,-156 2558.5,-150 2564.5,-144 2570.5,-144 2570.5,-144 2661.5,-144 2661.5,-144 2667.5,-144 2673.5,-150 2673.5,-156 2673.5,-156 2673.5,-168 2673.5,-168 2673.5,-174 2667.5,-180 2661.5,-180"/>
<text text-anchor="middle" x="2616" y="-159.5" font-family="sans" font-size="10.00">bedgraph_to_bigwig</text>
</g>
<!-- 21&#45;&gt;0 -->
<g id="edge21" class="edge"><title>21&#45;&gt;0</title>
<path fill="none" stroke="grey" stroke-width="2" d="M2558.25,-144.791C2531.09,-135.924 2498.86,-123.551 2472,-108 2450.43,-95.5108 2452.17,-81.1807 2429,-72 2345.85,-39.0575 1707.25,-23.2776 1544.6,-19.7679"/>
<polygon fill="grey" stroke="grey" stroke-width="2" points="1544.23,-16.2592 1534.15,-19.5453 1544.08,-23.2577 1544.23,-16.2592"/>
</g>
<!-- 21&#45;&gt;23 -->
<g id="edge74" class="edge"><title>21&#45;&gt;23</title>
<path fill="none" stroke="grey" stroke-width="2" d="M2595.48,-143.697C2585.13,-134.965 2572.41,-124.24 2561.16,-114.75"/>
<polygon fill="grey" stroke="grey" stroke-width="2" points="2563.18,-111.876 2553.28,-108.104 2558.67,-117.227 2563.18,-111.876"/>
</g>
<!-- 22&#45;&gt;0 -->
<g id="edge22" class="edge"><title>22&#45;&gt;0</title>
<path fill="none" stroke="grey" stroke-width="2" d="M2283.31,-74.7335C2278.5,-73.6935 2273.67,-72.7576 2269,-72 1993.19,-27.2718 1655.2,-20.2679 1544.22,-19.1897"/>
<polygon fill="grey" stroke="grey" stroke-width="2" points="1544.23,-15.6898 1534.2,-19.1028 1544.17,-22.6895 1544.23,-15.6898"/>
</g>
<!-- 23&#45;&gt;0 -->
<g id="edge23" class="edge"><title>23&#45;&gt;0</title>
<path fill="none" stroke="grey" stroke-width="2" d="M2481.32,-74.6622C2476.5,-73.6372 2471.68,-72.7242 2467,-72 2111.22,-16.9088 1673.49,-17.0271 1544.45,-18.4305"/>
<polygon fill="grey" stroke="grey" stroke-width="2" points="1544.27,-14.9323 1534.31,-18.5507 1544.35,-21.9318 1544.27,-14.9323"/>
</g>
<!-- 24&#45;&gt;0 -->
<g id="edge24" class="edge"><title>24&#45;&gt;0</title>
<path fill="none" stroke="grey" stroke-width="2" d="M2477.3,-287.968C2464.5,-277.763 2448.11,-264.402 2434,-252 2416.53,-236.639 2416.51,-226.988 2396,-216 2332.9,-182.189 2308.67,-196.442 2239,-180 2040.92,-133.256 1993.03,-114.496 1794,-72 1704.62,-52.9165 1598.71,-34.4134 1543.94,-25.1468"/>
<polygon fill="grey" stroke="grey" stroke-width="2" points="1544.45,-21.6831 1534.01,-23.4725 1543.28,-28.5857 1544.45,-21.6831"/>
</g>
<!-- 25 -->
<g id="node26" class="node"><title>25</title>
<path fill="none" stroke="#78d856" stroke-width="2" d="M2528,-180C2528,-180 2432,-180 2432,-180 2426,-180 2420,-174 2420,-168 2420,-168 2420,-156 2420,-156 2420,-150 2426,-144 2432,-144 2432,-144 2528,-144 2528,-144 2534,-144 2540,-150 2540,-156 2540,-156 2540,-168 2540,-168 2540,-174 2534,-180 2528,-180"/>
<text text-anchor="middle" x="2480" y="-159.5" font-family="sans" font-size="10.00">index_bam_by_coord</text>
</g>
<!-- 24&#45;&gt;25 -->
<g id="edge76" class="edge"><title>24&#45;&gt;25</title>
<path fill="none" stroke="grey" stroke-width="2" d="M2510.95,-287.725C2521.91,-269.636 2535.15,-240.505 2526,-216 2522.12,-205.621 2515.2,-195.927 2507.88,-187.743"/>
<polygon fill="grey" stroke="grey" stroke-width="2" points="2510.27,-185.182 2500.82,-180.385 2505.22,-190.026 2510.27,-185.182"/>
</g>
<!-- 53 -->
<g id="node54" class="node"><title>53</title>
<path fill="none" stroke="#5692d8" stroke-width="2" d="M2505,-252C2505,-252 2455,-252 2455,-252 2449,-252 2443,-246 2443,-240 2443,-240 2443,-228 2443,-228 2443,-222 2449,-216 2455,-216 2455,-216 2505,-216 2505,-216 2511,-216 2517,-222 2517,-228 2517,-228 2517,-240 2517,-240 2517,-246 2511,-252 2505,-252"/>
<text text-anchor="middle" x="2480" y="-237" font-family="sans" font-size="10.00">genomecov</text>
<text text-anchor="middle" x="2480" y="-226" font-family="sans" font-size="10.00">strand: +</text>
</g>
<!-- 24&#45;&gt;53 -->
<g id="edge122" class="edge"><title>24&#45;&gt;53</title>
<path fill="none" stroke="grey" stroke-width="2" d="M2494.3,-287.697C2492.19,-279.898 2489.64,-270.509 2487.28,-261.829"/>
<polygon fill="grey" stroke="grey" stroke-width="2" points="2490.64,-260.838 2484.64,-252.104 2483.88,-262.672 2490.64,-260.838"/>
</g>
<!-- 54 -->
<g id="node55" class="node"><title>54</title>
<path fill="none" stroke="#5692d8" stroke-width="2" d="M2673,-252C2673,-252 2623,-252 2623,-252 2617,-252 2611,-246 2611,-240 2611,-240 2611,-228 2611,-228 2611,-222 2617,-216 2623,-216 2623,-216 2673,-216 2673,-216 2679,-216 2685,-222 2685,-228 2685,-228 2685,-240 2685,-240 2685,-246 2679,-252 2673,-252"/>
<text text-anchor="middle" x="2648" y="-237" font-family="sans" font-size="10.00">genomecov</text>
<text text-anchor="middle" x="2648" y="-226" font-family="sans" font-size="10.00">strand: &#45;</text>
</g>
<!-- 24&#45;&gt;54 -->
<g id="edge123" class="edge"><title>24&#45;&gt;54</title>
<path fill="none" stroke="grey" stroke-width="2" d="M2535.45,-287.876C2555.64,-278.392 2580.92,-266.513 2602.41,-256.419"/>
<polygon fill="grey" stroke="grey" stroke-width="2" points="2604.11,-259.488 2611.67,-252.068 2601.13,-253.153 2604.11,-259.488"/>
</g>
<!-- 25&#45;&gt;0 -->
<g id="edge25" class="edge"><title>25&#45;&gt;0</title>
<path fill="none" stroke="grey" stroke-width="2" d="M2466.27,-143.871C2446.99,-120.35 2412.35,-80.0411 2395,-72 2317.01,-35.8538 1703.06,-22.4929 1544.35,-19.6242"/>
<polygon fill="grey" stroke="grey" stroke-width="2" points="1544.2,-16.1211 1534.14,-19.4429 1544.08,-23.12 1544.2,-16.1211"/>
</g>
<!-- 26 -->
<g id="node27" class="node"><title>26</title>
<path fill="none" stroke="#56a2d8" stroke-width="2" d="M1198.5,-252C1198.5,-252 1107.5,-252 1107.5,-252 1101.5,-252 1095.5,-246 1095.5,-240 1095.5,-240 1095.5,-228 1095.5,-228 1095.5,-222 1101.5,-216 1107.5,-216 1107.5,-216 1198.5,-216 1198.5,-216 1204.5,-216 1210.5,-222 1210.5,-228 1210.5,-228 1210.5,-240 1210.5,-240 1210.5,-246 1204.5,-252 1198.5,-252"/>
<text text-anchor="middle" x="1153" y="-231.5" font-family="sans" font-size="10.00">bedgraph_to_bigwig</text>
</g>
<!-- 26&#45;&gt;0 -->
<g id="edge26" class="edge"><title>26&#45;&gt;0</title>
<path fill="none" stroke="grey" stroke-width="2" d="M1145.68,-215.971C1133.04,-183.618 1111.72,-112.858 1147,-72 1188.48,-23.9699 1386.58,-18.6845 1469.92,-18.634"/>
<polygon fill="grey" stroke="grey" stroke-width="2" points="1469.96,-22.134 1479.96,-18.6533 1469.97,-15.134 1469.96,-22.134"/>
</g>
<!-- 26&#45;&gt;27 -->
<g id="edge79" class="edge"><title>26&#45;&gt;27</title>
<path fill="none" stroke="grey" stroke-width="2" d="M1174.75,-215.697C1185.84,-206.881 1199.47,-196.032 1211.49,-186.474"/>
<polygon fill="grey" stroke="grey" stroke-width="2" points="1213.85,-189.069 1219.5,-180.104 1209.49,-183.59 1213.85,-189.069"/>
</g>
<!-- 27&#45;&gt;0 -->
<g id="edge27" class="edge"><title>27&#45;&gt;0</title>
<path fill="none" stroke="grey" stroke-width="2" d="M1228.63,-143.982C1216.11,-124.49 1200.84,-92.5974 1218,-72 1249.6,-34.073 1398.64,-23.1998 1469.45,-20.152"/>
<polygon fill="grey" stroke="grey" stroke-width="2" points="1469.86,-23.6385 1479.71,-19.7419 1469.58,-16.6441 1469.86,-23.6385"/>
</g>
<!-- 30 -->
<g id="node31" class="node"><title>30</title>
<path fill="none" stroke="#56d85b" stroke-width="2" d="M1391,-108C1391,-108 1239,-108 1239,-108 1233,-108 1227,-102 1227,-96 1227,-96 1227,-84 1227,-84 1227,-78 1233,-72 1239,-72 1239,-72 1391,-72 1391,-72 1397,-72 1403,-78 1403,-84 1403,-84 1403,-96 1403,-96 1403,-102 1397,-108 1391,-108"/>
<text text-anchor="middle" x="1315" y="-87.5" font-family="sans" font-size="10.00">map_bigwig_to_pseudo_genome</text>
</g>
<!-- 27&#45;&gt;30 -->
<g id="edge82" class="edge"><title>27&#45;&gt;30</title>
<path fill="none" stroke="grey" stroke-width="2" d="M1259.29,-143.697C1268.43,-135.05 1279.64,-124.449 1289.6,-115.027"/>
<polygon fill="grey" stroke="grey" stroke-width="2" points="1292.06,-117.519 1296.92,-108.104 1287.25,-112.434 1292.06,-117.519"/>
</g>
<!-- 28&#45;&gt;0 -->
<g id="edge28" class="edge"><title>28&#45;&gt;0</title>
<path fill="none" stroke="grey" stroke-width="2" d="M1197.89,-359.993C1206.29,-350.315 1215.58,-337.459 1220,-324 1224.99,-308.798 1220.11,-304 1220,-288 1219.78,-255.998 1232.04,-245.226 1219,-216 1209.39,-194.458 1189.46,-201.609 1180,-180 1173.58,-165.343 1177.15,-159.743 1180,-144 1186.1,-110.372 1180.72,-93.845 1207,-72 1246.37,-39.2813 1397.71,-25.7403 1469.19,-21.0814"/>
<polygon fill="grey" stroke="grey" stroke-width="2" points="1469.78,-24.5514 1479.55,-20.4328 1469.35,-17.5651 1469.78,-24.5514"/>
</g>
<!-- 29 -->
<g id="node30" class="node"><title>29</title>
<path fill="none" stroke="#78d856" stroke-width="2" d="M1107,-324C1107,-324 1011,-324 1011,-324 1005,-324 999,-318 999,-312 999,-312 999,-300 999,-300 999,-294 1005,-288 1011,-288 1011,-288 1107,-288 1107,-288 1113,-288 1119,-294 1119,-300 1119,-300 1119,-312 1119,-312 1119,-318 1113,-324 1107,-324"/>
<text text-anchor="middle" x="1059" y="-303.5" font-family="sans" font-size="10.00">index_bam_by_coord</text>
</g>
<!-- 28&#45;&gt;29 -->
<g id="edge81" class="edge"><title>28&#45;&gt;29</title>
<path fill="none" stroke="grey" stroke-width="2" d="M1151.16,-359.876C1135.06,-350.639 1115,-339.131 1097.71,-329.212"/>
<polygon fill="grey" stroke="grey" stroke-width="2" points="1099.37,-326.131 1088.96,-324.19 1095.89,-332.202 1099.37,-326.131"/>
</g>
<!-- 55 -->
<g id="node56" class="node"><title>55</title>
<path fill="none" stroke="#5692d8" stroke-width="2" d="M1199,-324C1199,-324 1149,-324 1149,-324 1143,-324 1137,-318 1137,-312 1137,-312 1137,-300 1137,-300 1137,-294 1143,-288 1149,-288 1149,-288 1199,-288 1199,-288 1205,-288 1211,-294 1211,-300 1211,-300 1211,-312 1211,-312 1211,-318 1205,-324 1199,-324"/>
<text text-anchor="middle" x="1174" y="-309" font-family="sans" font-size="10.00">genomecov</text>
<text text-anchor="middle" x="1174" y="-298" font-family="sans" font-size="10.00">strand: +</text>
</g>
<!-- 28&#45;&gt;55 -->
<g id="edge124" class="edge"><title>28&#45;&gt;55</title>
<path fill="none" stroke="grey" stroke-width="2" d="M1179.27,-359.697C1178.5,-351.983 1177.57,-342.712 1176.71,-334.112"/>
<polygon fill="grey" stroke="grey" stroke-width="2" points="1180.19,-333.706 1175.71,-324.104 1173.22,-334.403 1180.19,-333.706"/>
</g>
<!-- 29&#45;&gt;0 -->
<g id="edge29" class="edge"><title>29&#45;&gt;0</title>
<path fill="none" stroke="grey" stroke-width="2" d="M1058.25,-287.987C1057.33,-244.481 1061.48,-128.623 1127,-72 1177.8,-28.0975 1384.23,-20.473 1469.69,-19.2152"/>
<polygon fill="grey" stroke="grey" stroke-width="2" points="1469.77,-22.7145 1479.73,-19.0889 1469.68,-15.715 1469.77,-22.7145"/>
</g>
<!-- 30&#45;&gt;0 -->
<g id="edge30" class="edge"><title>30&#45;&gt;0</title>
<path fill="none" stroke="grey" stroke-width="2" d="M1361.97,-71.8761C1395.33,-59.714 1439.48,-43.6154 1470.27,-32.3897"/>
<polygon fill="grey" stroke="grey" stroke-width="2" points="1471.57,-35.6411 1479.77,-28.9274 1469.18,-29.0645 1471.57,-35.6411"/>
</g>
<!-- 31 -->
<g id="node32" class="node"><title>31</title>
<path fill="none" stroke="#56b1d8" stroke-width="2" d="M1469,-396C1469,-396 1305,-396 1305,-396 1299,-396 1293,-390 1293,-384 1293,-384 1293,-372 1293,-372 1293,-366 1299,-360 1305,-360 1305,-360 1469,-360 1469,-360 1475,-360 1481,-366 1481,-372 1481,-372 1481,-384 1481,-384 1481,-390 1475,-396 1469,-396"/>
<text text-anchor="middle" x="1387" y="-375.5" font-family="sans" font-size="10.00">map_bam_to_pseudo_genome_2_2</text>
</g>
<!-- 31&#45;&gt;0 -->
<g id="edge31" class="edge"><title>31&#45;&gt;0</title>
<path fill="none" stroke="grey" stroke-width="2" d="M1376.28,-359.844C1352.2,-318.881 1299.35,-213.602 1345,-144 1363.54,-115.732 1384.55,-127.722 1412,-108 1426.51,-97.5754 1459.34,-66.0733 1482.32,-43.509"/>
<polygon fill="grey" stroke="grey" stroke-width="2" points="1485.03,-45.7542 1489.7,-36.2428 1480.12,-40.7676 1485.03,-45.7542"/>
</g>
<!-- 32 -->
<g id="node33" class="node"><title>32</title>
<path fill="none" stroke="#56a2d8" stroke-width="2" d="M2985.5,-180C2985.5,-180 2894.5,-180 2894.5,-180 2888.5,-180 2882.5,-174 2882.5,-168 2882.5,-168 2882.5,-156 2882.5,-156 2882.5,-150 2888.5,-144 2894.5,-144 2894.5,-144 2985.5,-144 2985.5,-144 2991.5,-144 2997.5,-150 2997.5,-156 2997.5,-156 2997.5,-168 2997.5,-168 2997.5,-174 2991.5,-180 2985.5,-180"/>
<text text-anchor="middle" x="2940" y="-159.5" font-family="sans" font-size="10.00">bedgraph_to_bigwig</text>
</g>
<!-- 32&#45;&gt;0 -->
<g id="edge32" class="edge"><title>32&#45;&gt;0</title>
<path fill="none" stroke="grey" stroke-width="2" d="M2956.43,-143.797C2973.24,-124.132 2994.36,-92.0763 2975,-72 2923.86,-18.9775 1768.83,-18.4938 1544.54,-18.9017"/>
<polygon fill="grey" stroke="grey" stroke-width="2" points="1544.27,-15.4021 1534.28,-18.9222 1544.28,-22.4021 1544.27,-15.4021"/>
</g>
<!-- 32&#45;&gt;34 -->
<g id="edge87" class="edge"><title>32&#45;&gt;34</title>
<path fill="none" stroke="grey" stroke-width="2" d="M2933.82,-143.697C2931,-135.813 2927.61,-126.304 2924.48,-117.546"/>
<polygon fill="grey" stroke="grey" stroke-width="2" points="2927.77,-116.345 2921.11,-108.104 2921.18,-118.699 2927.77,-116.345"/>
</g>
<!-- 33 -->
<g id="node34" class="node"><title>33</title>
<path fill="none" stroke="#56a2d8" stroke-width="2" d="M3257.5,-180C3257.5,-180 3166.5,-180 3166.5,-180 3160.5,-180 3154.5,-174 3154.5,-168 3154.5,-168 3154.5,-156 3154.5,-156 3154.5,-150 3160.5,-144 3166.5,-144 3166.5,-144 3257.5,-144 3257.5,-144 3263.5,-144 3269.5,-150 3269.5,-156 3269.5,-156 3269.5,-168 3269.5,-168 3269.5,-174 3263.5,-180 3257.5,-180"/>
<text text-anchor="middle" x="3212" y="-159.5" font-family="sans" font-size="10.00">bedgraph_to_bigwig</text>
</g>
<!-- 33&#45;&gt;0 -->
<g id="edge33" class="edge"><title>33&#45;&gt;0</title>
<path fill="none" stroke="grey" stroke-width="2" d="M3185.92,-143.836C3151.76,-122.413 3089.21,-86.7902 3030,-72 2881.95,-35.0141 1763.69,-21.6458 1544.29,-19.3664"/>
<polygon fill="grey" stroke="grey" stroke-width="2" points="1544.27,-15.8662 1534.24,-19.2633 1544.2,-22.8658 1544.27,-15.8662"/>
</g>
<!-- 33&#45;&gt;35 -->
<g id="edge89" class="edge"><title>33&#45;&gt;35</title>
<path fill="none" stroke="grey" stroke-width="2" d="M3212,-143.697C3212,-135.983 3212,-126.712 3212,-118.112"/>
<polygon fill="grey" stroke="grey" stroke-width="2" points="3215.5,-118.104 3212,-108.104 3208.5,-118.104 3215.5,-118.104"/>
</g>
<!-- 34&#45;&gt;0 -->
<g id="edge34" class="edge"><title>34&#45;&gt;0</title>
<path fill="none" stroke="grey" stroke-width="2" d="M2863.33,-74.5838C2858.51,-73.5753 2853.68,-72.6875 2849,-72 2587.06,-33.5398 1733.81,-21.6079 1544.45,-19.4036"/>
<polygon fill="grey" stroke="grey" stroke-width="2" points="1544.22,-15.9008 1534.18,-19.2861 1544.14,-22.9004 1544.22,-15.9008"/>
</g>
<!-- 35&#45;&gt;0 -->
<g id="edge35" class="edge"><title>35&#45;&gt;0</title>
<path fill="none" stroke="grey" stroke-width="2" d="M3160.37,-76.7644C3150.66,-74.8626 3140.56,-73.1501 3131,-72 2809.26,-33.2864 1756.94,-21.3722 1544.56,-19.3362"/>
<polygon fill="grey" stroke="grey" stroke-width="2" points="1544.29,-15.8336 1534.25,-19.2389 1544.22,-22.8333 1544.29,-15.8336"/>
</g>
<!-- 36&#45;&gt;0 -->
<g id="edge36" class="edge"><title>36&#45;&gt;0</title>
<path fill="none" stroke="grey" stroke-width="2" d="M2923.31,-287.578C2914.14,-277.572 2902.86,-264.537 2894,-252 2840.93,-176.906 2870.48,-119.923 2792,-72 2737.39,-38.6496 1749.91,-22.5253 1544.31,-19.5219"/>
<polygon fill="grey" stroke="grey" stroke-width="2" points="1544.08,-16.0184 1534.03,-19.3733 1543.98,-23.0177 1544.08,-16.0184"/>
</g>
<!-- 37 -->
<g id="node38" class="node"><title>37</title>
<path fill="none" stroke="#78d856" stroke-width="2" d="M3124,-180C3124,-180 3028,-180 3028,-180 3022,-180 3016,-174 3016,-168 3016,-168 3016,-156 3016,-156 3016,-150 3022,-144 3028,-144 3028,-144 3124,-144 3124,-144 3130,-144 3136,-150 3136,-156 3136,-156 3136,-168 3136,-168 3136,-174 3130,-180 3124,-180"/>
<text text-anchor="middle" x="3076" y="-159.5" font-family="sans" font-size="10.00">index_bam_by_coord</text>
</g>
<!-- 36&#45;&gt;37 -->
<g id="edge91" class="edge"><title>36&#45;&gt;37</title>
<path fill="none" stroke="grey" stroke-width="2" d="M2956.4,-287.871C2980.3,-262.924 3024.81,-216.45 3052.27,-187.773"/>
<polygon fill="grey" stroke="grey" stroke-width="2" points="3055.15,-189.832 3059.54,-180.189 3050.09,-184.99 3055.15,-189.832"/>
</g>
<!-- 57 -->
<g id="node58" class="node"><title>57</title>
<path fill="none" stroke="#5692d8" stroke-width="2" d="M2965,-252C2965,-252 2915,-252 2915,-252 2909,-252 2903,-246 2903,-240 2903,-240 2903,-228 2903,-228 2903,-222 2909,-216 2915,-216 2915,-216 2965,-216 2965,-216 2971,-216 2977,-222 2977,-228 2977,-228 2977,-240 2977,-240 2977,-246 2971,-252 2965,-252"/>
<text text-anchor="middle" x="2940" y="-237" font-family="sans" font-size="10.00">genomecov</text>
<text text-anchor="middle" x="2940" y="-226" font-family="sans" font-size="10.00">strand: +</text>
</g>
<!-- 36&#45;&gt;57 -->
<g id="edge126" class="edge"><title>36&#45;&gt;57</title>
<path fill="none" stroke="grey" stroke-width="2" d="M2940,-287.697C2940,-279.983 2940,-270.712 2940,-262.112"/>
<polygon fill="grey" stroke="grey" stroke-width="2" points="2943.5,-262.104 2940,-252.104 2936.5,-262.104 2943.5,-262.104"/>
</g>
<!-- 58 -->
<g id="node59" class="node"><title>58</title>
<path fill="none" stroke="#5692d8" stroke-width="2" d="M3202,-252C3202,-252 3152,-252 3152,-252 3146,-252 3140,-246 3140,-240 3140,-240 3140,-228 3140,-228 3140,-222 3146,-216 3152,-216 3152,-216 3202,-216 3202,-216 3208,-216 3214,-222 3214,-228 3214,-228 3214,-240 3214,-240 3214,-246 3208,-252 3202,-252"/>
<text text-anchor="middle" x="3177" y="-237" font-family="sans" font-size="10.00">genomecov</text>
<text text-anchor="middle" x="3177" y="-226" font-family="sans" font-size="10.00">strand: &#45;</text>
</g>
<!-- 36&#45;&gt;58 -->
<g id="edge127" class="edge"><title>36&#45;&gt;58</title>
<path fill="none" stroke="grey" stroke-width="2" d="M2997.67,-287.966C3038.3,-275.966 3092.01,-260.102 3130.03,-248.873"/>
<polygon fill="grey" stroke="grey" stroke-width="2" points="3131.23,-252.169 3139.82,-245.98 3129.24,-245.456 3131.23,-252.169"/>
</g>
<!-- 37&#45;&gt;0 -->
<g id="edge37" class="edge"><title>37&#45;&gt;0</title>
<path fill="none" stroke="grey" stroke-width="2" d="M3065.97,-143.784C3052.47,-122.481 3026.25,-87.1693 2993,-72 2925.16,-41.0523 1768.91,-22.7897 1544.54,-19.5287"/>
<polygon fill="grey" stroke="grey" stroke-width="2" points="1544.33,-16.0253 1534.28,-19.3806 1544.23,-23.0246 1544.33,-16.0253"/>
</g>
<!-- 38 -->
<g id="node39" class="node"><title>38</title>
<path fill="none" stroke="#56a2d8" stroke-width="2" d="M671.5,-252C671.5,-252 580.5,-252 580.5,-252 574.5,-252 568.5,-246 568.5,-240 568.5,-240 568.5,-228 568.5,-228 568.5,-222 574.5,-216 580.5,-216 580.5,-216 671.5,-216 671.5,-216 677.5,-216 683.5,-222 683.5,-228 683.5,-228 683.5,-240 683.5,-240 683.5,-246 677.5,-252 671.5,-252"/>
<text text-anchor="middle" x="626" y="-231.5" font-family="sans" font-size="10.00">bedgraph_to_bigwig</text>
</g>
<!-- 38&#45;&gt;0 -->
<g id="edge38" class="edge"><title>38&#45;&gt;0</title>
<path fill="none" stroke="grey" stroke-width="2" d="M641.149,-215.937C676.583,-176.225 763.217,-80.3421 781,-72 843.584,-42.6414 1329.52,-24.7517 1469.43,-20.1724"/>
<polygon fill="grey" stroke="grey" stroke-width="2" points="1469.76,-23.6635 1479.65,-19.8416 1469.54,-16.6671 1469.76,-23.6635"/>
</g>
<!-- 38&#45;&gt;39 -->
<g id="edge94" class="edge"><title>38&#45;&gt;39</title>
<path fill="none" stroke="grey" stroke-width="2" d="M621.056,-215.697C618.828,-207.898 616.145,-198.509 613.665,-189.829"/>
<polygon fill="grey" stroke="grey" stroke-width="2" points="617,-188.758 610.887,-180.104 610.269,-190.681 617,-188.758"/>
</g>
<!-- 39&#45;&gt;0 -->
<g id="edge39" class="edge"><title>39&#45;&gt;0</title>
<path fill="none" stroke="grey" stroke-width="2" d="M639.964,-143.8C658.244,-134.065 680.895,-121.217 700,-108 720.498,-93.8195 719.883,-81.3177 743,-72 877.174,-17.92 1335.27,-17.484 1469.66,-18.5696"/>
<polygon fill="grey" stroke="grey" stroke-width="2" points="1469.82,-22.0711 1479.85,-18.6601 1469.88,-15.0713 1469.82,-22.0711"/>
</g>
<!-- 42 -->
<g id="node43" class="node"><title>42</title>
<path fill="none" stroke="#56d85b" stroke-width="2" d="M679,-108C679,-108 527,-108 527,-108 521,-108 515,-102 515,-96 515,-96 515,-84 515,-84 515,-78 521,-72 527,-72 527,-72 679,-72 679,-72 685,-72 691,-78 691,-84 691,-84 691,-96 691,-96 691,-102 685,-108 679,-108"/>
<text text-anchor="middle" x="603" y="-87.5" font-family="sans" font-size="10.00">map_bigwig_to_pseudo_genome</text>
</g>
<!-- 39&#45;&gt;42 -->
<g id="edge97" class="edge"><title>39&#45;&gt;42</title>
<path fill="none" stroke="grey" stroke-width="2" d="M605.258,-143.697C604.928,-135.983 604.531,-126.712 604.162,-118.112"/>
<polygon fill="grey" stroke="grey" stroke-width="2" points="607.658,-117.945 603.733,-108.104 600.665,-118.245 607.658,-117.945"/>
</g>
<!-- 40&#45;&gt;0 -->
<g id="edge40" class="edge"><title>40&#45;&gt;0</title>
<path fill="none" stroke="grey" stroke-width="2" d="M642.939,-359.753C652.192,-349.801 663.469,-336.763 672,-324 707.721,-270.561 757.927,-103.425 814,-72 871.392,-39.8357 1333.96,-24.0083 1469.69,-20.0263"/>
<polygon fill="grey" stroke="grey" stroke-width="2" points="1470.09,-23.5164 1479.99,-19.7288 1469.89,-16.5193 1470.09,-23.5164"/>
</g>
<!-- 41 -->
<g id="node42" class="node"><title>41</title>
<path fill="none" stroke="#78d856" stroke-width="2" d="M931,-108C931,-108 835,-108 835,-108 829,-108 823,-102 823,-96 823,-96 823,-84 823,-84 823,-78 829,-72 835,-72 835,-72 931,-72 931,-72 937,-72 943,-78 943,-84 943,-84 943,-96 943,-96 943,-102 937,-108 931,-108"/>
<text text-anchor="middle" x="883" y="-87.5" font-family="sans" font-size="10.00">index_bam_by_coord</text>
</g>
<!-- 40&#45;&gt;41 -->
<g id="edge96" class="edge"><title>40&#45;&gt;41</title>
<path fill="none" stroke="grey" stroke-width="2" d="M688.933,-359.895C708.103,-351.854 727.62,-340.321 741,-324 793.147,-260.393 733.773,-209.135 784,-144 794.204,-130.767 808.673,-120.455 823.407,-112.59"/>
<polygon fill="grey" stroke="grey" stroke-width="2" points="825.199,-115.606 832.579,-108.005 822.069,-109.345 825.199,-115.606"/>
</g>
<!-- 59 -->
<g id="node60" class="node"><title>59</title>
<path fill="none" stroke="#5692d8" stroke-width="2" d="M651,-324C651,-324 601,-324 601,-324 595,-324 589,-318 589,-312 589,-312 589,-300 589,-300 589,-294 595,-288 601,-288 601,-288 651,-288 651,-288 657,-288 663,-294 663,-300 663,-300 663,-312 663,-312 663,-318 657,-324 651,-324"/>
<text text-anchor="middle" x="626" y="-309" font-family="sans" font-size="10.00">genomecov</text>
<text text-anchor="middle" x="626" y="-298" font-family="sans" font-size="10.00">strand: +</text>
</g>
<!-- 40&#45;&gt;59 -->
<g id="edge128" class="edge"><title>40&#45;&gt;59</title>
<path fill="none" stroke="grey" stroke-width="2" d="M626,-359.697C626,-351.983 626,-342.712 626,-334.112"/>
<polygon fill="grey" stroke="grey" stroke-width="2" points="629.5,-334.104 626,-324.104 622.5,-334.104 629.5,-334.104"/>
</g>
<!-- 41&#45;&gt;0 -->
<g id="edge41" class="edge"><title>41&#45;&gt;0</title>
<path fill="none" stroke="grey" stroke-width="2" d="M943.047,-74.5193C947.754,-73.5942 952.446,-72.7393 957,-72 1148.53,-40.9057 1380.77,-25.86 1469.81,-20.9145"/>
<polygon fill="grey" stroke="grey" stroke-width="2" points="1470.15,-24.4011 1479.94,-20.361 1469.77,-17.4115 1470.15,-24.4011"/>
</g>
<!-- 42&#45;&gt;0 -->
<g id="edge42" class="edge"><title>42&#45;&gt;0</title>
<path fill="none" stroke="grey" stroke-width="2" d="M691.106,-73.7563C695.799,-73.1193 700.453,-72.5279 705,-72 998.396,-37.9408 1354.91,-23.9703 1469.58,-20.1534"/>
<polygon fill="grey" stroke="grey" stroke-width="2" points="1470.03,-23.6406 1479.91,-19.8154 1469.8,-16.6443 1470.03,-23.6406"/>
</g>
<!-- 43 -->
<g id="node44" class="node"><title>43</title>
<path fill="none" stroke="#56b1d8" stroke-width="2" d="M969,-180C969,-180 805,-180 805,-180 799,-180 793,-174 793,-168 793,-168 793,-156 793,-156 793,-150 799,-144 805,-144 805,-144 969,-144 969,-144 975,-144 981,-150 981,-156 981,-156 981,-168 981,-168 981,-174 975,-180 969,-180"/>
<text text-anchor="middle" x="887" y="-159.5" font-family="sans" font-size="10.00">map_bam_to_pseudo_genome_2_2</text>
</g>
<!-- 43&#45;&gt;0 -->
<g id="edge43" class="edge"><title>43&#45;&gt;0</title>
<path fill="none" stroke="grey" stroke-width="2" d="M908.133,-143.883C920.874,-133.536 937.408,-120.057 952,-108 971.214,-92.1243 972.044,-81.708 995,-72 1080.85,-35.6934 1366.79,-23.3639 1469.7,-20.0435"/>
<polygon fill="grey" stroke="grey" stroke-width="2" points="1470.03,-23.5349 1479.92,-19.7242 1469.81,-16.5383 1470.03,-23.5349"/>
</g>
<!-- 44 -->
<g id="node45" class="node"><title>44</title>
<path fill="none" stroke="#56a2d8" stroke-width="2" d="M319.5,-180C319.5,-180 228.5,-180 228.5,-180 222.5,-180 216.5,-174 216.5,-168 216.5,-168 216.5,-156 216.5,-156 216.5,-150 222.5,-144 228.5,-144 228.5,-144 319.5,-144 319.5,-144 325.5,-144 331.5,-150 331.5,-156 331.5,-156 331.5,-168 331.5,-168 331.5,-174 325.5,-180 319.5,-180"/>
<text text-anchor="middle" x="274" y="-159.5" font-family="sans" font-size="10.00">bedgraph_to_bigwig</text>
</g>
<!-- 44&#45;&gt;0 -->
<g id="edge44" class="edge"><title>44&#45;&gt;0</title>
<path fill="none" stroke="grey" stroke-width="2" d="M271.859,-143.874C270.363,-123.344 271.512,-89.5185 292,-72 337.844,-32.8008 1270.2,-21.3506 1469.66,-19.3454"/>
<polygon fill="grey" stroke="grey" stroke-width="2" points="1469.95,-22.8429 1479.91,-19.2442 1469.88,-15.8432 1469.95,-22.8429"/>
</g>
<!-- 44&#45;&gt;45 -->
<g id="edge101" class="edge"><title>44&#45;&gt;45</title>
<path fill="none" stroke="grey" stroke-width="2" d="M253.978,-143.697C243.874,-134.965 231.464,-124.24 220.482,-114.75"/>
<polygon fill="grey" stroke="grey" stroke-width="2" points="222.647,-111.995 212.792,-108.104 218.07,-117.291 222.647,-111.995"/>
</g>
<!-- 45&#45;&gt;0 -->
<g id="edge45" class="edge"><title>45&#45;&gt;0</title>
<path fill="none" stroke="grey" stroke-width="2" d="M244.671,-74.5987C249.488,-73.587 254.318,-72.6945 259,-72 501.531,-36.0222 1289.29,-22.2515 1469.88,-19.5271"/>
<polygon fill="grey" stroke="grey" stroke-width="2" points="1469.99,-23.0259 1479.94,-19.3774 1469.89,-16.0267 1469.99,-23.0259"/>
</g>
<!-- 46&#45;&gt;0 -->
<g id="edge46" class="edge"><title>46&#45;&gt;0</title>
<path fill="none" stroke="grey" stroke-width="2" d="M290.513,-287.995C218.82,-248.44 59.0139,-147.854 132,-72 179.696,-22.4306 1254.93,-19.1556 1469.82,-18.9967"/>
<polygon fill="grey" stroke="grey" stroke-width="2" points="1469.96,-22.4968 1479.96,-18.9912 1469.96,-15.4968 1469.96,-22.4968"/>
</g>
<!-- 47 -->
<g id="node48" class="node"><title>47</title>
<path fill="none" stroke="#78d856" stroke-width="2" d="M409,-108C409,-108 313,-108 313,-108 307,-108 301,-102 301,-96 301,-96 301,-84 301,-84 301,-78 307,-72 313,-72 313,-72 409,-72 409,-72 415,-72 421,-78 421,-84 421,-84 421,-96 421,-96 421,-102 415,-108 409,-108"/>
<text text-anchor="middle" x="361" y="-87.5" font-family="sans" font-size="10.00">index_bam_by_coord</text>
</g>
<!-- 46&#45;&gt;47 -->
<g id="edge103" class="edge"><title>46&#45;&gt;47</title>
<path fill="none" stroke="grey" stroke-width="2" d="M329.475,-287.553C333.05,-277.321 337.3,-264.071 340,-252 350.392,-205.536 356.213,-150.298 358.971,-118.091"/>
<polygon fill="grey" stroke="grey" stroke-width="2" points="362.461,-118.35 359.79,-108.097 355.484,-117.778 362.461,-118.35"/>
</g>
<!-- 61 -->
<g id="node62" class="node"><title>61</title>
<path fill="none" stroke="#5692d8" stroke-width="2" d="M319,-252C319,-252 269,-252 269,-252 263,-252 257,-246 257,-240 257,-240 257,-228 257,-228 257,-222 263,-216 269,-216 269,-216 319,-216 319,-216 325,-216 331,-222 331,-228 331,-228 331,-240 331,-240 331,-246 325,-252 319,-252"/>
<text text-anchor="middle" x="294" y="-237" font-family="sans" font-size="10.00">genomecov</text>
<text text-anchor="middle" x="294" y="-226" font-family="sans" font-size="10.00">strand: +</text>
</g>
<!-- 46&#45;&gt;61 -->
<g id="edge130" class="edge"><title>46&#45;&gt;61</title>
<path fill="none" stroke="grey" stroke-width="2" d="M315.831,-287.697C312.565,-279.813 308.626,-270.304 304.998,-261.546"/>
<polygon fill="grey" stroke="grey" stroke-width="2" points="308.147,-260.003 301.086,-252.104 301.68,-262.683 308.147,-260.003"/>
</g>
<!-- 47&#45;&gt;0 -->
<g id="edge47" class="edge"><title>47&#45;&gt;0</title>
<path fill="none" stroke="grey" stroke-width="2" d="M421.011,-74.2813C425.726,-73.4104 430.43,-72.6329 435,-72 837.505,-16.2607 1332.14,-17.0247 1469.88,-18.4748"/>
<polygon fill="grey" stroke="grey" stroke-width="2" points="1469.87,-21.9748 1479.91,-18.5885 1469.95,-14.9753 1469.87,-21.9748"/>
</g>
<!-- 48&#45;&gt;5 -->
<g id="edge51" class="edge"><title>48&#45;&gt;5</title>
<path fill="none" stroke="grey" stroke-width="2" d="M1804.64,-580.807C1738.28,-567.831 1634.02,-547.446 1568.69,-534.672"/>
<polygon fill="grey" stroke="grey" stroke-width="2" points="1569.04,-531.174 1558.56,-532.69 1567.7,-538.044 1569.04,-531.174"/>
</g>
<!-- 48&#45;&gt;51 -->
<g id="edge119" class="edge"><title>48&#45;&gt;51</title>
<path fill="none" stroke="grey" stroke-width="2" d="M1867,-575.871C1867,-551.67 1867,-507.211 1867,-478.393"/>
<polygon fill="grey" stroke="grey" stroke-width="2" points="1870.5,-478.189 1867,-468.189 1863.5,-478.189 1870.5,-478.189"/>
</g>
<!-- 49 -->
<g id="node50" class="node"><title>49</title>
<path fill="none" stroke="#d86656" stroke-width="2" d="M1987,-180C1987,-180 1877,-180 1877,-180 1871,-180 1865,-174 1865,-168 1865,-168 1865,-156 1865,-156 1865,-150 1871,-144 1877,-144 1877,-144 1987,-144 1987,-144 1993,-144 1999,-150 1999,-156 1999,-156 1999,-168 1999,-168 1999,-174 1993,-180 1987,-180"/>
<text text-anchor="middle" x="1932" y="-159.5" font-family="sans" font-size="10.00">summarize_read_length</text>
</g>
<!-- 49&#45;&gt;15 -->
<g id="edge61" class="edge"><title>49&#45;&gt;15</title>
<path fill="none" stroke="grey" stroke-width="2" d="M1880.65,-143.966C1851.04,-134.142 1813.63,-121.729 1782.46,-111.389"/>
<polygon fill="grey" stroke="grey" stroke-width="2" points="1783.17,-107.938 1772.58,-108.111 1780.97,-114.582 1783.17,-107.938"/>
</g>
<!-- 50 -->
<g id="node51" class="node"><title>50</title>
<path fill="none" stroke="#5663d8" stroke-width="2" d="M1834.5,-180C1834.5,-180 1729.5,-180 1729.5,-180 1723.5,-180 1717.5,-174 1717.5,-168 1717.5,-168 1717.5,-156 1717.5,-156 1717.5,-150 1723.5,-144 1729.5,-144 1729.5,-144 1834.5,-144 1834.5,-144 1840.5,-144 1846.5,-150 1846.5,-156 1846.5,-156 1846.5,-168 1846.5,-168 1846.5,-174 1840.5,-180 1834.5,-180"/>
<text text-anchor="middle" x="1782" y="-159.5" font-family="sans" font-size="10.00">summarize_insert_size</text>
</g>
<!-- 50&#45;&gt;15 -->
<g id="edge62" class="edge"><title>50&#45;&gt;15</title>
<path fill="none" stroke="grey" stroke-width="2" d="M1766.92,-143.697C1759.61,-135.305 1750.69,-125.07 1742.66,-115.861"/>
<polygon fill="grey" stroke="grey" stroke-width="2" points="1745.11,-113.344 1735.91,-108.104 1739.84,-117.943 1745.11,-113.344"/>
</g>
<!-- 51&#45;&gt;15 -->
<g id="edge63" class="edge"><title>51&#45;&gt;15</title>
<path fill="none" stroke="grey" stroke-width="2" d="M1852.93,-431.906C1824.06,-398.128 1754.39,-323.071 1678,-288 1583.97,-244.829 1515.27,-330.616 1448,-252 1383.43,-176.541 1545.61,-127.455 1646.9,-105.063"/>
<polygon fill="grey" stroke="grey" stroke-width="2" points="1647.78,-108.455 1656.81,-102.915 1646.3,-101.614 1647.78,-108.455"/>
</g>
<!-- 52&#45;&gt;16 -->
<g id="edge64" class="edge"><title>52&#45;&gt;16</title>
<path fill="none" stroke="grey" stroke-width="2" d="M3483.7,-215.697C3485.81,-207.898 3488.36,-198.509 3490.72,-189.829"/>
<polygon fill="grey" stroke="grey" stroke-width="2" points="3494.12,-190.672 3493.36,-180.104 3487.36,-188.838 3494.12,-190.672"/>
</g>
<!-- 53&#45;&gt;20 -->
<g id="edge69" class="edge"><title>53&#45;&gt;20</title>
<path fill="none" stroke="grey" stroke-width="2" d="M2442.67,-217.983C2417.93,-208.029 2385.13,-194.832 2357.86,-183.862"/>
<polygon fill="grey" stroke="grey" stroke-width="2" points="2359.05,-180.569 2348.47,-180.084 2356.44,-187.063 2359.05,-180.569"/>
</g>
<!-- 54&#45;&gt;21 -->
<g id="edge70" class="edge"><title>54&#45;&gt;21</title>
<path fill="none" stroke="grey" stroke-width="2" d="M2640.09,-215.697C2636.45,-207.728 2632.05,-198.1 2628.01,-189.264"/>
<polygon fill="grey" stroke="grey" stroke-width="2" points="2631.16,-187.744 2623.82,-180.104 2624.79,-190.654 2631.16,-187.744"/>
</g>
<!-- 55&#45;&gt;26 -->
<g id="edge77" class="edge"><title>55&#45;&gt;26</title>
<path fill="none" stroke="grey" stroke-width="2" d="M1168.81,-287.697C1166.47,-279.898 1163.65,-270.509 1161.05,-261.829"/>
<polygon fill="grey" stroke="grey" stroke-width="2" points="1164.36,-260.677 1158.13,-252.104 1157.65,-262.688 1164.36,-260.677"/>
</g>
<!-- 56&#45;&gt;31 -->
<g id="edge83" class="edge"><title>56&#45;&gt;31</title>
<path fill="none" stroke="grey" stroke-width="2" d="M1387,-431.697C1387,-423.983 1387,-414.712 1387,-406.112"/>
<polygon fill="grey" stroke="grey" stroke-width="2" points="1390.5,-406.104 1387,-396.104 1383.5,-406.104 1390.5,-406.104"/>
</g>
<!-- 57&#45;&gt;32 -->
<g id="edge84" class="edge"><title>57&#45;&gt;32</title>
<path fill="none" stroke="grey" stroke-width="2" d="M2940,-215.697C2940,-207.983 2940,-198.712 2940,-190.112"/>
<polygon fill="grey" stroke="grey" stroke-width="2" points="2943.5,-190.104 2940,-180.104 2936.5,-190.104 2943.5,-190.104"/>
</g>
<!-- 58&#45;&gt;33 -->
<g id="edge85" class="edge"><title>58&#45;&gt;33</title>
<path fill="none" stroke="grey" stroke-width="2" d="M3185.65,-215.697C3189.64,-207.728 3194.45,-198.1 3198.87,-189.264"/>
<polygon fill="grey" stroke="grey" stroke-width="2" points="3202.11,-190.614 3203.45,-180.104 3195.85,-187.483 3202.11,-190.614"/>
</g>
<!-- 59&#45;&gt;38 -->
<g id="edge92" class="edge"><title>59&#45;&gt;38</title>
<path fill="none" stroke="grey" stroke-width="2" d="M626,-287.697C626,-279.983 626,-270.712 626,-262.112"/>
<polygon fill="grey" stroke="grey" stroke-width="2" points="629.5,-262.104 626,-252.104 622.5,-262.104 629.5,-262.104"/>
</g>
<!-- 60&#45;&gt;43 -->
<g id="edge98" class="edge"><title>60&#45;&gt;43</title>
<path fill="none" stroke="grey" stroke-width="2" d="M817.091,-359.849C830.293,-322.675 861.629,-234.439 877.475,-189.82"/>
<polygon fill="grey" stroke="grey" stroke-width="2" points="880.832,-190.827 880.88,-180.232 874.235,-188.484 880.832,-190.827"/>
</g>
<!-- 61&#45;&gt;44 -->
<g id="edge99" class="edge"><title>61&#45;&gt;44</title>
<path fill="none" stroke="grey" stroke-width="2" d="M289.056,-215.697C286.828,-207.898 284.145,-198.509 281.665,-189.829"/>
<polygon fill="grey" stroke="grey" stroke-width="2" points="285,-188.758 278.887,-180.104 278.269,-190.681 285,-188.758"/>
</g>
<!-- 62 -->
<g id="node63" class="node"><title>62</title>
<path fill="none" stroke="#d86e56" stroke-width="2" d="M2059,-252C2059,-252 1943,-252 1943,-252 1937,-252 1931,-246 1931,-240 1931,-240 1931,-228 1931,-228 1931,-222 1937,-216 1943,-216 1943,-216 2059,-216 2059,-216 2065,-216 2071,-222 2071,-228 2071,-228 2071,-240 2071,-240 2071,-246 2065,-252 2059,-252"/>
<text text-anchor="middle" x="2001" y="-231.5" font-family="sans" font-size="10.00">parse_samtools_stats_pe</text>
</g>
<!-- 62&#45;&gt;49 -->
<g id="edge106" class="edge"><title>62&#45;&gt;49</title>
<path fill="none" stroke="grey" stroke-width="2" d="M1983.94,-215.697C1975.5,-207.135 1965.18,-196.656 1955.96,-187.304"/>
<polygon fill="grey" stroke="grey" stroke-width="2" points="1958.37,-184.769 1948.86,-180.104 1953.39,-189.683 1958.37,-184.769"/>
</g>
<!-- 62&#45;&gt;50 -->
<g id="edge112" class="edge"><title>62&#45;&gt;50</title>
<path fill="none" stroke="grey" stroke-width="2" d="M1947.71,-215.966C1916.84,-206.1 1877.8,-193.622 1845.37,-183.255"/>
<polygon fill="grey" stroke="grey" stroke-width="2" points="1846.12,-179.822 1835.53,-180.111 1843.99,-186.489 1846.12,-179.822"/>
</g>
<!-- 63 -->
<g id="node64" class="node"><title>63</title>
<path fill="none" stroke="#d86e56" stroke-width="2" d="M2217,-252C2217,-252 2101,-252 2101,-252 2095,-252 2089,-246 2089,-240 2089,-240 2089,-228 2089,-228 2089,-222 2095,-216 2101,-216 2101,-216 2217,-216 2217,-216 2223,-216 2229,-222 2229,-228 2229,-228 2229,-240 2229,-240 2229,-246 2223,-252 2217,-252"/>
<text text-anchor="middle" x="2159" y="-231.5" font-family="sans" font-size="10.00">parse_samtools_stats_pe</text>
</g>
<!-- 63&#45;&gt;49 -->
<g id="edge107" class="edge"><title>63&#45;&gt;49</title>
<path fill="none" stroke="grey" stroke-width="2" d="M2103.76,-215.966C2071.63,-206.057 2030.95,-193.514 1997.25,-183.121"/>
<polygon fill="grey" stroke="grey" stroke-width="2" points="1998.08,-179.713 1987.49,-180.111 1996.01,-186.402 1998.08,-179.713"/>
</g>
<!-- 63&#45;&gt;50 -->
<g id="edge113" class="edge"><title>63&#45;&gt;50</title>
<path fill="none" stroke="grey" stroke-width="2" d="M2088.83,-217.699C2085.85,-217.113 2082.9,-216.544 2080,-216 1984,-197.969 1956.66,-199.199 1856.45,-180.01"/>
<polygon fill="grey" stroke="grey" stroke-width="2" points="1857,-176.552 1846.52,-178.088 1855.67,-183.425 1857,-176.552"/>
</g>
<!-- 64 -->
<g id="node65" class="node"><title>64</title>
<path fill="none" stroke="#d86e56" stroke-width="2" d="M1901,-252C1901,-252 1785,-252 1785,-252 1779,-252 1773,-246 1773,-240 1773,-240 1773,-228 1773,-228 1773,-222 1779,-216 1785,-216 1785,-216 1901,-216 1901,-216 1907,-216 1913,-222 1913,-228 1913,-228 1913,-240 1913,-240 1913,-246 1907,-252 1901,-252"/>
<text text-anchor="middle" x="1843" y="-231.5" font-family="sans" font-size="10.00">parse_samtools_stats_pe</text>
</g>
<!-- 64&#45;&gt;49 -->
<g id="edge108" class="edge"><title>64&#45;&gt;49</title>
<path fill="none" stroke="grey" stroke-width="2" d="M1865,-215.697C1876.21,-206.881 1890,-196.032 1902.15,-186.474"/>
<polygon fill="grey" stroke="grey" stroke-width="2" points="1904.56,-189.038 1910.25,-180.104 1900.23,-183.535 1904.56,-189.038"/>
</g>
<!-- 64&#45;&gt;50 -->
<g id="edge114" class="edge"><title>64&#45;&gt;50</title>
<path fill="none" stroke="grey" stroke-width="2" d="M1827.92,-215.697C1820.61,-207.305 1811.69,-197.07 1803.66,-187.861"/>
<polygon fill="grey" stroke="grey" stroke-width="2" points="1806.11,-185.344 1796.91,-180.104 1800.84,-189.943 1806.11,-185.344"/>
</g>
<!-- 65 -->
<g id="node66" class="node"><title>65</title>
<path fill="none" stroke="#d86e56" stroke-width="2" d="M2375,-252C2375,-252 2259,-252 2259,-252 2253,-252 2247,-246 2247,-240 2247,-240 2247,-228 2247,-228 2247,-222 2253,-216 2259,-216 2259,-216 2375,-216 2375,-216 2381,-216 2387,-222 2387,-228 2387,-228 2387,-240 2387,-240 2387,-246 2381,-252 2375,-252"/>
<text text-anchor="middle" x="2317" y="-231.5" font-family="sans" font-size="10.00">parse_samtools_stats_pe</text>
</g>
<!-- 65&#45;&gt;49 -->
<g id="edge109" class="edge"><title>65&#45;&gt;49</title>
<path fill="none" stroke="grey" stroke-width="2" d="M2246.82,-217.744C2243.84,-217.145 2240.89,-216.561 2238,-216 2160.41,-200.939 2071.35,-185.749 2009.39,-175.515"/>
<polygon fill="grey" stroke="grey" stroke-width="2" points="2009.74,-172.025 1999.3,-173.853 2008.6,-178.932 2009.74,-172.025"/>
</g>
<!-- 65&#45;&gt;50 -->
<g id="edge115" class="edge"><title>65&#45;&gt;50</title>
<path fill="none" stroke="grey" stroke-width="2" d="M2246.87,-217.459C2243.88,-216.939 2240.91,-216.449 2238,-216 2072.67,-190.512 2026.12,-206.513 1856.87,-180.006"/>
<polygon fill="grey" stroke="grey" stroke-width="2" points="1857.3,-176.53 1846.88,-178.413 1856.2,-183.443 1857.3,-176.53"/>
</g>
<!-- 66 -->
<g id="node67" class="node"><title>66</title>
<path fill="none" stroke="#d86e56" stroke-width="2" d="M1743,-252C1743,-252 1627,-252 1627,-252 1621,-252 1615,-246 1615,-240 1615,-240 1615,-228 1615,-228 1615,-222 1621,-216 1627,-216 1627,-216 1743,-216 1743,-216 1749,-216 1755,-222 1755,-228 1755,-228 1755,-240 1755,-240 1755,-246 1749,-252 1743,-252"/>
<text text-anchor="middle" x="1685" y="-231.5" font-family="sans" font-size="10.00">parse_samtools_stats_pe</text>
</g>
<!-- 66&#45;&gt;49 -->
<g id="edge110" class="edge"><title>66&#45;&gt;49</title>
<path fill="none" stroke="grey" stroke-width="2" d="M1745.11,-215.966C1780.37,-205.972 1825.09,-193.298 1861.94,-182.854"/>
<polygon fill="grey" stroke="grey" stroke-width="2" points="1862.96,-186.205 1871.62,-180.111 1861.05,-179.47 1862.96,-186.205"/>
</g>
<!-- 66&#45;&gt;50 -->
<g id="edge116" class="edge"><title>66&#45;&gt;50</title>
<path fill="none" stroke="grey" stroke-width="2" d="M1708.98,-215.697C1721.31,-206.796 1736.52,-195.823 1749.85,-186.199"/>
<polygon fill="grey" stroke="grey" stroke-width="2" points="1752.24,-188.794 1758.3,-180.104 1748.14,-183.118 1752.24,-188.794"/>
</g>
<!-- 67 -->
<g id="node68" class="node"><title>67</title>
<path fill="none" stroke="#d86e56" stroke-width="2" d="M1585,-252C1585,-252 1469,-252 1469,-252 1463,-252 1457,-246 1457,-240 1457,-240 1457,-228 1457,-228 1457,-222 1463,-216 1469,-216 1469,-216 1585,-216 1585,-216 1591,-216 1597,-222 1597,-228 1597,-228 1597,-240 1597,-240 1597,-246 1591,-252 1585,-252"/>
<text text-anchor="middle" x="1527" y="-231.5" font-family="sans" font-size="10.00">parse_samtools_stats_pe</text>
</g>
<!-- 67&#45;&gt;49 -->
<g id="edge111" class="edge"><title>67&#45;&gt;49</title>
<path fill="none" stroke="grey" stroke-width="2" d="M1597.16,-217.641C1600.14,-217.071 1603.1,-216.521 1606,-216 1716.06,-196.227 1745,-200.067 1855,-180 1855.1,-179.982 1855.2,-179.963 1855.3,-179.945"/>
<polygon fill="grey" stroke="grey" stroke-width="2" points="1855.7,-183.433 1864.87,-178.127 1854.39,-176.556 1855.7,-183.433"/>
</g>
<!-- 67&#45;&gt;50 -->
<g id="edge117" class="edge"><title>67&#45;&gt;50</title>
<path fill="none" stroke="grey" stroke-width="2" d="M1589.05,-215.966C1625.46,-205.972 1671.63,-193.298 1709.68,-182.854"/>
<polygon fill="grey" stroke="grey" stroke-width="2" points="1710.95,-186.133 1719.67,-180.111 1709.1,-179.383 1710.95,-186.133"/>
</g>
<!-- 68&#45;&gt;62 -->
<g id="edge131" class="edge"><title>68&#45;&gt;62</title>
<path fill="none" stroke="grey" stroke-width="2" d="M2031.09,-503.966C2025.75,-456.192 2010.58,-320.623 2004.05,-262.266"/>
<polygon fill="grey" stroke="grey" stroke-width="2" points="2007.53,-261.855 2002.94,-252.306 2000.57,-262.634 2007.53,-261.855"/>
</g>
<!-- 69&#45;&gt;63 -->
<g id="edge132" class="edge"><title>69&#45;&gt;63</title>
<path fill="none" stroke="grey" stroke-width="2" d="M2293.74,-575.995C2258.83,-552.592 2204,-506.934 2204,-451 2204,-451 2204,-451 2204,-377 2204,-335.128 2186,-289.42 2172.77,-261.477"/>
<polygon fill="grey" stroke="grey" stroke-width="2" points="2175.85,-259.822 2168.32,-252.37 2169.56,-262.892 2175.85,-259.822"/>
</g>
<!-- 70&#45;&gt;64 -->
<g id="edge133" class="edge"><title>70&#45;&gt;64</title>
<path fill="none" stroke="grey" stroke-width="2" d="M1732.62,-431.849C1753.59,-394.44 1803.57,-305.322 1828.43,-260.98"/>
<polygon fill="grey" stroke="grey" stroke-width="2" points="1831.5,-262.667 1833.34,-252.232 1825.39,-259.243 1831.5,-262.667"/>
</g>
<!-- 71&#45;&gt;65 -->
<g id="edge134" class="edge"><title>71&#45;&gt;65</title>
<path fill="none" stroke="grey" stroke-width="2" d="M2329.8,-287.697C2327.9,-279.898 2325.62,-270.509 2323.52,-261.829"/>
<polygon fill="grey" stroke="grey" stroke-width="2" points="2326.92,-260.996 2321.15,-252.104 2320.11,-262.648 2326.92,-260.996"/>
</g>
<!-- 72&#45;&gt;66 -->
<g id="edge135" class="edge"><title>72&#45;&gt;66</title>
<path fill="none" stroke="grey" stroke-width="2" d="M1619.05,-359.871C1632,-335.35 1655.93,-290.032 1671.13,-261.259"/>
<polygon fill="grey" stroke="grey" stroke-width="2" points="1674.35,-262.666 1675.92,-252.189 1668.16,-259.397 1674.35,-262.666"/>
</g>
<!-- 73&#45;&gt;67 -->
<g id="edge136" class="edge"><title>73&#45;&gt;67</title>
<path fill="none" stroke="grey" stroke-width="2" d="M1511.94,-287.697C1514.17,-279.898 1516.85,-270.509 1519.33,-261.829"/>
<polygon fill="grey" stroke="grey" stroke-width="2" points="1522.73,-262.681 1522.11,-252.104 1516,-260.758 1522.73,-262.681"/>
</g>
</g>
</svg>
