<?xml version="1.0" encoding="UTF-8" standalone="no"?>
<!DOCTYPE svg PUBLIC "-//W3C//DTD SVG 1.1//EN"
 "http://www.w3.org/Graphics/SVG/1.1/DTD/svg11.dtd">
<!-- Generated by graphviz version 2.38.0 (20140413.2041)
 -->
<!-- Title: snakemake_dag Pages: 1 -->
<svg width="2199pt" height="497pt"
 viewBox="0.00 0.00 2199.00 497.00" xmlns="http://www.w3.org/2000/svg" xmlns:xlink="http://www.w3.org/1999/xlink">
<g id="graph0" class="graph" transform="scale(1 1) rotate(0) translate(4 493)">
<title>snakemake_dag</title>
<polygon fill="white" stroke="none" points="-4,4 -4,-493 2195,-493 2195,4 -4,4"/>
<!-- 0 -->
<g id="node1" class="node"><title>0</title>
<path fill="none" stroke="#59d856" stroke-width="2" d="M1369.5,-36C1369.5,-36 1339.5,-36 1339.5,-36 1333.5,-36 1327.5,-30 1327.5,-24 1327.5,-24 1327.5,-12 1327.5,-12 1327.5,-6 1333.5,-0 1339.5,-0 1339.5,-0 1369.5,-0 1369.5,-0 1375.5,-0 1381.5,-6 1381.5,-12 1381.5,-12 1381.5,-24 1381.5,-24 1381.5,-30 1375.5,-36 1369.5,-36"/>
<text text-anchor="middle" x="1354.5" y="-15.5" font-family="sans" font-size="10.00">all</text>
</g>
<!-- 1 -->
<g id="node2" class="node"><title>1</title>
<path fill="none" stroke="#56d88a" stroke-width="2" stroke-dasharray="5,2" d="M623,-196C623,-196 12,-196 12,-196 6,-196 0,-190 0,-184 0,-184 0,-156 0,-156 0,-150 6,-144 12,-144 12,-144 623,-144 623,-144 629,-144 635,-150 635,-156 635,-156 635,-184 635,-184 635,-190 629,-196 623,-196"/>
<text text-anchor="middle" x="317.5" y="-184" font-family="sans" font-size="10.00">fastqc_pe</text>
<text text-anchor="middle" x="317.5" y="-173" font-family="sans" font-size="10.00">mate_index: 1</text>
<text text-anchor="middle" x="317.5" y="-162" font-family="sans" font-size="10.00">output_dir: /lulab/lustre2/zhangshang/work/software/exvariance/exvariance_software/demo/seal_methyl&#45;cap_medip_pe/output</text>
<text text-anchor="middle" x="317.5" y="-151" font-family="sans" font-size="10.00">sample_id: SRR6946476</text>
</g>
<!-- 1&#45;&gt;0 -->
<g id="edge1" class="edge"><title>1&#45;&gt;0</title>
<path fill="none" stroke="grey" stroke-width="2" d="M465.021,-143.971C588.012,-123.463 767.936,-94.2947 925.5,-72 1069.98,-51.557 1242.47,-31.5935 1317.07,-23.1742"/>
<polygon fill="grey" stroke="grey" stroke-width="2" points="1317.81,-26.6135 1327.35,-22.0171 1317.02,-19.6574 1317.81,-26.6135"/>
</g>
<!-- 3 -->
<g id="node4" class="node"><title>3</title>
<path fill="none" stroke="#568ad8" stroke-width="2" stroke-dasharray="5,2" d="M994,-108C994,-108 947,-108 947,-108 941,-108 935,-102 935,-96 935,-96 935,-84 935,-84 935,-78 941,-72 947,-72 947,-72 994,-72 994,-72 1000,-72 1006,-78 1006,-84 1006,-84 1006,-96 1006,-96 1006,-102 1000,-108 994,-108"/>
<text text-anchor="middle" x="970.5" y="-87.5" font-family="sans" font-size="10.00">multiqc_pe</text>
</g>
<!-- 1&#45;&gt;3 -->
<g id="edge10" class="edge"><title>1&#45;&gt;3</title>
<path fill="none" stroke="grey" stroke-width="2" d="M526.808,-143.998C668.008,-127.132 842.925,-106.239 924.538,-96.4901"/>
<polygon fill="grey" stroke="grey" stroke-width="2" points="925.441,-99.9072 934.955,-95.2458 924.61,-92.9567 925.441,-99.9072"/>
</g>
<!-- 2 -->
<g id="node3" class="node"><title>2</title>
<path fill="none" stroke="#56d88a" stroke-width="2" stroke-dasharray="5,2" d="M1276,-196C1276,-196 665,-196 665,-196 659,-196 653,-190 653,-184 653,-184 653,-156 653,-156 653,-150 659,-144 665,-144 665,-144 1276,-144 1276,-144 1282,-144 1288,-150 1288,-156 1288,-156 1288,-184 1288,-184 1288,-190 1282,-196 1276,-196"/>
<text text-anchor="middle" x="970.5" y="-184" font-family="sans" font-size="10.00">fastqc_pe</text>
<text text-anchor="middle" x="970.5" y="-173" font-family="sans" font-size="10.00">mate_index: 2</text>
<text text-anchor="middle" x="970.5" y="-162" font-family="sans" font-size="10.00">output_dir: /lulab/lustre2/zhangshang/work/software/exvariance/exvariance_software/demo/seal_methyl&#45;cap_medip_pe/output</text>
<text text-anchor="middle" x="970.5" y="-151" font-family="sans" font-size="10.00">sample_id: SRR6946476</text>
</g>
<!-- 2&#45;&gt;0 -->
<g id="edge2" class="edge"><title>2&#45;&gt;0</title>
<path fill="none" stroke="grey" stroke-width="2" d="M1034.77,-143.893C1115.8,-112.241 1252.38,-58.8911 1317.63,-33.4011"/>
<polygon fill="grey" stroke="grey" stroke-width="2" points="1319.06,-36.6012 1327.1,-29.7025 1316.51,-30.081 1319.06,-36.6012"/>
</g>
<!-- 2&#45;&gt;3 -->
<g id="edge11" class="edge"><title>2&#45;&gt;3</title>
<path fill="none" stroke="grey" stroke-width="2" d="M970.5,-143.891C970.5,-135.84 970.5,-126.88 970.5,-118.658"/>
<polygon fill="grey" stroke="grey" stroke-width="2" points="974,-118.411 970.5,-108.411 967,-118.411 974,-118.411"/>
</g>
<!-- 3&#45;&gt;0 -->
<g id="edge3" class="edge"><title>3&#45;&gt;0</title>
<path fill="none" stroke="grey" stroke-width="2" d="M1006.28,-82.4774C1078.86,-69.2465 1242.78,-39.365 1316.88,-25.858"/>
<polygon fill="grey" stroke="grey" stroke-width="2" points="1317.93,-29.2245 1327.14,-23.9878 1316.67,-22.338 1317.93,-29.2245"/>
</g>
<!-- 4 -->
<g id="node5" class="node"><title>4</title>
<path fill="none" stroke="#d85656" stroke-width="2" d="M1526,-489C1526,-489 915,-489 915,-489 909,-489 903,-483 903,-477 903,-477 903,-460 903,-460 903,-454 909,-448 915,-448 915,-448 1526,-448 1526,-448 1532,-448 1538,-454 1538,-460 1538,-460 1538,-477 1538,-477 1538,-483 1532,-489 1526,-489"/>
<text text-anchor="middle" x="1220.5" y="-477" font-family="sans" font-size="10.00">bwa_map1</text>
<text text-anchor="middle" x="1220.5" y="-466" font-family="sans" font-size="10.00">output_dir: /lulab/lustre2/zhangshang/work/software/exvariance/exvariance_software/demo/seal_methyl&#45;cap_medip_pe/output</text>
<text text-anchor="middle" x="1220.5" y="-455" font-family="sans" font-size="10.00">sample_id: SRR6946476</text>
</g>
<!-- 4&#45;&gt;0 -->
<g id="edge4" class="edge"><title>4&#45;&gt;0</title>
<path fill="none" stroke="grey" stroke-width="2" d="M1244.72,-447.769C1273.16,-422.226 1316.5,-374.804 1316.5,-323 1316.5,-323 1316.5,-323 1316.5,-169 1316.5,-124.783 1332.21,-75.4175 1343.43,-45.8023"/>
<polygon fill="grey" stroke="grey" stroke-width="2" points="1346.8,-46.7798 1347.17,-36.1915 1340.28,-44.2368 1346.8,-46.7798"/>
</g>
<!-- 10 -->
<g id="node11" class="node"><title>10</title>
<path fill="none" stroke="#56d8c1" stroke-width="2" d="M1410.5,-412C1410.5,-412 1380.5,-412 1380.5,-412 1374.5,-412 1368.5,-406 1368.5,-400 1368.5,-400 1368.5,-388 1368.5,-388 1368.5,-382 1374.5,-376 1380.5,-376 1380.5,-376 1410.5,-376 1410.5,-376 1416.5,-376 1422.5,-382 1422.5,-388 1422.5,-388 1422.5,-400 1422.5,-400 1422.5,-406 1416.5,-412 1410.5,-412"/>
<text text-anchor="middle" x="1395.5" y="-391.5" font-family="sans" font-size="10.00">sam</text>
</g>
<!-- 4&#45;&gt;10 -->
<g id="edge16" class="edge"><title>4&#45;&gt;10</title>
<path fill="none" stroke="grey" stroke-width="2" d="M1267.86,-447.88C1296.53,-436.003 1332.54,-421.085 1358.99,-410.125"/>
<polygon fill="grey" stroke="grey" stroke-width="2" points="1360.38,-413.34 1368.27,-406.279 1357.7,-406.873 1360.38,-413.34"/>
</g>
<!-- 5 -->
<g id="node6" class="node"><title>5</title>
<path fill="none" stroke="#bed856" stroke-width="2" d="M2179,-489C2179,-489 1568,-489 1568,-489 1562,-489 1556,-483 1556,-477 1556,-477 1556,-460 1556,-460 1556,-454 1562,-448 1568,-448 1568,-448 2179,-448 2179,-448 2185,-448 2191,-454 2191,-460 2191,-460 2191,-477 2191,-477 2191,-483 2185,-489 2179,-489"/>
<text text-anchor="middle" x="1873.5" y="-477" font-family="sans" font-size="10.00">bwa_map2</text>
<text text-anchor="middle" x="1873.5" y="-466" font-family="sans" font-size="10.00">output_dir: /lulab/lustre2/zhangshang/work/software/exvariance/exvariance_software/demo/seal_methyl&#45;cap_medip_pe/output</text>
<text text-anchor="middle" x="1873.5" y="-455" font-family="sans" font-size="10.00">sample_id: SRR6946476</text>
</g>
<!-- 5&#45;&gt;0 -->
<g id="edge5" class="edge"><title>5&#45;&gt;0</title>
<path fill="none" stroke="grey" stroke-width="2" d="M1849.02,-447.823C1820.29,-422.335 1776.5,-374.97 1776.5,-323 1776.5,-323 1776.5,-323 1776.5,-169 1776.5,-87.6254 1494.39,-39.0422 1391.49,-24.0279"/>
<polygon fill="grey" stroke="grey" stroke-width="2" points="1391.94,-20.5562 1381.54,-22.5998 1390.94,-27.4852 1391.94,-20.5562"/>
</g>
<!-- 5&#45;&gt;10 -->
<g id="edge17" class="edge"><title>5&#45;&gt;10</title>
<path fill="none" stroke="grey" stroke-width="2" d="M1744.78,-447.976C1640.05,-432.092 1499.14,-410.719 1432.88,-400.67"/>
<polygon fill="grey" stroke="grey" stroke-width="2" points="1433.32,-397.196 1422.91,-399.157 1432.27,-404.117 1433.32,-397.196"/>
</g>
<!-- 6 -->
<g id="node7" class="node"><title>6</title>
<path fill="none" stroke="#56c1d8" stroke-width="2" d="M1420.5,-340C1420.5,-340 1370.5,-340 1370.5,-340 1364.5,-340 1358.5,-334 1358.5,-328 1358.5,-328 1358.5,-316 1358.5,-316 1358.5,-310 1364.5,-304 1370.5,-304 1370.5,-304 1420.5,-304 1420.5,-304 1426.5,-304 1432.5,-310 1432.5,-316 1432.5,-316 1432.5,-328 1432.5,-328 1432.5,-334 1426.5,-340 1420.5,-340"/>
<text text-anchor="middle" x="1395.5" y="-319.5" font-family="sans" font-size="10.00">sorted_bam</text>
</g>
<!-- 6&#45;&gt;0 -->
<g id="edge6" class="edge"><title>6&#45;&gt;0</title>
<path fill="none" stroke="grey" stroke-width="2" d="M1386.73,-303.802C1381.97,-293.652 1376.47,-280.402 1373.5,-268 1354.64,-189.148 1353.19,-92.6249 1353.79,-46.326"/>
<polygon fill="grey" stroke="grey" stroke-width="2" points="1357.29,-46.2527 1353.96,-36.1942 1350.29,-46.1327 1357.29,-46.2527"/>
</g>
<!-- 7 -->
<g id="node8" class="node"><title>7</title>
<path fill="none" stroke="#88d856" stroke-width="2" d="M1424.5,-268C1424.5,-268 1394.5,-268 1394.5,-268 1388.5,-268 1382.5,-262 1382.5,-256 1382.5,-256 1382.5,-244 1382.5,-244 1382.5,-238 1388.5,-232 1394.5,-232 1394.5,-232 1424.5,-232 1424.5,-232 1430.5,-232 1436.5,-238 1436.5,-244 1436.5,-244 1436.5,-256 1436.5,-256 1436.5,-262 1430.5,-268 1424.5,-268"/>
<text text-anchor="middle" x="1409.5" y="-247.5" font-family="sans" font-size="10.00">dedup</text>
</g>
<!-- 6&#45;&gt;7 -->
<g id="edge13" class="edge"><title>6&#45;&gt;7</title>
<path fill="none" stroke="grey" stroke-width="2" d="M1398.96,-303.697C1400.5,-295.983 1402.36,-286.712 1404.08,-278.112"/>
<polygon fill="grey" stroke="grey" stroke-width="2" points="1407.55,-278.597 1406.08,-268.104 1400.69,-277.224 1407.55,-278.597"/>
</g>
<!-- 7&#45;&gt;0 -->
<g id="edge7" class="edge"><title>7&#45;&gt;0</title>
<path fill="none" stroke="grey" stroke-width="2" d="M1405.72,-231.872C1398.68,-200.224 1382.99,-130.478 1368.5,-72 1366.41,-63.5563 1364.02,-54.3855 1361.82,-46.0832"/>
<polygon fill="grey" stroke="grey" stroke-width="2" points="1365.13,-44.9102 1359.17,-36.1516 1358.37,-46.7161 1365.13,-44.9102"/>
</g>
<!-- 8 -->
<g id="node9" class="node"><title>8</title>
<path fill="none" stroke="#d8bc56" stroke-width="2" d="M1544,-188C1544,-188 1433,-188 1433,-188 1427,-188 1421,-182 1421,-176 1421,-176 1421,-164 1421,-164 1421,-158 1427,-152 1433,-152 1433,-152 1544,-152 1544,-152 1550,-152 1556,-158 1556,-164 1556,-164 1556,-176 1556,-176 1556,-182 1550,-188 1544,-188"/>
<text text-anchor="middle" x="1488.5" y="-167.5" font-family="sans" font-size="10.00">call_peak_using_danpos</text>
</g>
<!-- 7&#45;&gt;8 -->
<g id="edge14" class="edge"><title>7&#45;&gt;8</title>
<path fill="none" stroke="grey" stroke-width="2" d="M1427.03,-231.689C1437.77,-221.086 1451.69,-207.346 1463.56,-195.622"/>
<polygon fill="grey" stroke="grey" stroke-width="2" points="1466.36,-197.779 1471.02,-188.262 1461.44,-192.798 1466.36,-197.779"/>
</g>
<!-- 8&#45;&gt;0 -->
<g id="edge8" class="edge"><title>8&#45;&gt;0</title>
<path fill="none" stroke="grey" stroke-width="2" d="M1474.65,-151.851C1458.64,-132.207 1431.3,-99.2236 1406.5,-72 1397.82,-62.4706 1387.99,-52.2989 1379.22,-43.4407"/>
<polygon fill="grey" stroke="grey" stroke-width="2" points="1381.7,-40.9687 1372.17,-36.3518 1376.74,-45.9077 1381.7,-40.9687"/>
</g>
<!-- 9 -->
<g id="node10" class="node"><title>9</title>
<path fill="none" stroke="#d88d56" stroke-width="2" d="M1526,-108C1526,-108 1471,-108 1471,-108 1465,-108 1459,-102 1459,-96 1459,-96 1459,-84 1459,-84 1459,-78 1465,-72 1471,-72 1471,-72 1526,-72 1526,-72 1532,-72 1538,-78 1538,-84 1538,-84 1538,-96 1538,-96 1538,-102 1532,-108 1526,-108"/>
<text text-anchor="middle" x="1498.5" y="-87.5" font-family="sans" font-size="10.00">peak_to_bed</text>
</g>
<!-- 8&#45;&gt;9 -->
<g id="edge15" class="edge"><title>8&#45;&gt;9</title>
<path fill="none" stroke="grey" stroke-width="2" d="M1490.72,-151.689C1491.98,-141.894 1493.57,-129.422 1495,-118.335"/>
<polygon fill="grey" stroke="grey" stroke-width="2" points="1498.49,-118.626 1496.29,-108.262 1491.54,-117.736 1498.49,-118.626"/>
</g>
<!-- 9&#45;&gt;0 -->
<g id="edge9" class="edge"><title>9&#45;&gt;0</title>
<path fill="none" stroke="grey" stroke-width="2" d="M1463.27,-71.8761C1441.27,-61.1805 1413.01,-47.4404 1390.8,-36.6474"/>
<polygon fill="grey" stroke="grey" stroke-width="2" points="1392.22,-33.444 1381.7,-32.2198 1389.16,-39.7396 1392.22,-33.444"/>
</g>
<!-- 10&#45;&gt;6 -->
<g id="edge12" class="edge"><title>10&#45;&gt;6</title>
<path fill="none" stroke="grey" stroke-width="2" d="M1395.5,-375.697C1395.5,-367.983 1395.5,-358.712 1395.5,-350.112"/>
<polygon fill="grey" stroke="grey" stroke-width="2" points="1399,-350.104 1395.5,-340.104 1392,-350.104 1399,-350.104"/>
</g>
</g>
</svg>
