<?xml version="1.0" encoding="UTF-8" standalone="no"?>
<!DOCTYPE svg PUBLIC "-//W3C//DTD SVG 1.1//EN"
 "http://www.w3.org/Graphics/SVG/1.1/DTD/svg11.dtd">
<!-- Generated by graphviz version 2.38.0 (20140413.2041)
 -->
<!-- Title: snakemake_dag Pages: 1 -->
<svg width="550pt" height="553pt"
 viewBox="0.00 0.00 550.00 553.00" xmlns="http://www.w3.org/2000/svg" xmlns:xlink="http://www.w3.org/1999/xlink">
<g id="graph0" class="graph" transform="scale(1 1) rotate(0) translate(4 549)">
<title>snakemake_dag</title>
<polygon fill="white" stroke="none" points="-4,4 -4,-549 546,-549 546,4 -4,4"/>
<!-- 0 -->
<g id="node1" class="node"><title>0</title>
<path fill="none" stroke="#d8cb56" stroke-width="2" stroke-dasharray="5,2" d="M312,-36C312,-36 282,-36 282,-36 276,-36 270,-30 270,-24 270,-24 270,-12 270,-12 270,-6 276,-0 282,-0 282,-0 312,-0 312,-0 318,-0 324,-6 324,-12 324,-12 324,-24 324,-24 324,-30 318,-36 312,-36"/>
<text text-anchor="middle" x="297" y="-15.5" font-family="sans" font-size="10.00">all</text>
</g>
<!-- 1 -->
<g id="node2" class="node"><title>1</title>
<path fill="none" stroke="#70d856" stroke-width="2" stroke-dasharray="5,2" d="M530,-545C530,-545 12,-545 12,-545 6,-545 0,-539 0,-533 0,-533 0,-516 0,-516 0,-510 6,-504 12,-504 12,-504 530,-504 530,-504 536,-504 542,-510 542,-516 542,-516 542,-533 542,-533 542,-539 536,-545 530,-545"/>
<text text-anchor="middle" x="271" y="-533" font-family="sans" font-size="10.00">trim_fastq</text>
<text text-anchor="middle" x="271" y="-522" font-family="sans" font-size="10.00">output_dir: /lulab/lustre2/zhangshang/work/software/exvariance/exvariance_software/demo/mcta_pe/output</text>
<text text-anchor="middle" x="271" y="-511" font-family="sans" font-size="10.00">sample_id: SRR8800358</text>
</g>
<!-- 1&#45;&gt;0 -->
<g id="edge1" class="edge"><title>1&#45;&gt;0</title>
<path fill="none" stroke="grey" stroke-width="2" d="M263.966,-503.685C254.819,-476.106 240,-424.414 240,-379 240,-379 240,-379 240,-161 240,-117.801 263,-72.1859 279.78,-44.6553"/>
<polygon fill="grey" stroke="grey" stroke-width="2" points="282.835,-46.3716 285.19,-36.0417 276.907,-42.6485 282.835,-46.3716"/>
</g>
<!-- 2 -->
<g id="node3" class="node"><title>2</title>
<path fill="none" stroke="#d85656" stroke-width="2" stroke-dasharray="5,2" d="M325.5,-468C325.5,-468 280.5,-468 280.5,-468 274.5,-468 268.5,-462 268.5,-456 268.5,-456 268.5,-444 268.5,-444 268.5,-438 274.5,-432 280.5,-432 280.5,-432 325.5,-432 325.5,-432 331.5,-432 337.5,-438 337.5,-444 337.5,-444 337.5,-456 337.5,-456 337.5,-462 331.5,-468 325.5,-468"/>
<text text-anchor="middle" x="303" y="-447.5" font-family="sans" font-size="10.00">filter_fastq</text>
</g>
<!-- 1&#45;&gt;2 -->
<g id="edge5" class="edge"><title>1&#45;&gt;2</title>
<path fill="none" stroke="grey" stroke-width="2" d="M279.744,-503.689C283.294,-495.647 287.448,-486.236 291.255,-477.61"/>
<polygon fill="grey" stroke="grey" stroke-width="2" points="294.52,-478.881 295.356,-468.319 288.116,-476.055 294.52,-478.881"/>
</g>
<!-- 2&#45;&gt;0 -->
<g id="edge2" class="edge"><title>2&#45;&gt;0</title>
<path fill="none" stroke="grey" stroke-width="2" d="M297.941,-431.684C290.636,-405.11 278,-352.558 278,-307 278,-307 278,-307 278,-161 278,-120.86 285.551,-74.897 291.132,-46.4045"/>
<polygon fill="grey" stroke="grey" stroke-width="2" points="294.606,-46.8834 293.155,-36.3884 287.745,-45.4976 294.606,-46.8834"/>
</g>
<!-- 5 -->
<g id="node6" class="node"><title>5</title>
<path fill="none" stroke="#56d873" stroke-width="2" stroke-dasharray="5,2" d="M398,-396C398,-396 318,-396 318,-396 312,-396 306,-390 306,-384 306,-384 306,-372 306,-372 306,-366 312,-360 318,-360 318,-360 398,-360 398,-360 404,-360 410,-366 410,-372 410,-372 410,-384 410,-384 410,-390 404,-396 398,-396"/>
<text text-anchor="middle" x="358" y="-375.5" font-family="sans" font-size="10.00">bismark_mapping</text>
</g>
<!-- 2&#45;&gt;5 -->
<g id="edge8" class="edge"><title>2&#45;&gt;5</title>
<path fill="none" stroke="grey" stroke-width="2" d="M316.596,-431.697C323.123,-423.389 331.068,-413.277 338.247,-404.141"/>
<polygon fill="grey" stroke="grey" stroke-width="2" points="341.135,-406.13 344.561,-396.104 335.631,-401.805 341.135,-406.13"/>
</g>
<!-- 3 -->
<g id="node4" class="node"><title>3</title>
<path fill="none" stroke="#56d8a9" stroke-width="2" stroke-dasharray="5,2" d="M383,-324C383,-324 333,-324 333,-324 327,-324 321,-318 321,-312 321,-312 321,-300 321,-300 321,-294 327,-288 333,-288 333,-288 383,-288 383,-288 389,-288 395,-294 395,-300 395,-300 395,-312 395,-312 395,-318 389,-324 383,-324"/>
<text text-anchor="middle" x="358" y="-303.5" font-family="sans" font-size="10.00">sorted_bam</text>
</g>
<!-- 3&#45;&gt;0 -->
<g id="edge3" class="edge"><title>3&#45;&gt;0</title>
<path fill="none" stroke="grey" stroke-width="2" d="M349.212,-287.739C344.367,-277.569 338.617,-264.319 335,-252 313.714,-179.492 303.378,-90.5676 299.26,-46.4838"/>
<polygon fill="grey" stroke="grey" stroke-width="2" points="302.725,-45.9266 298.345,-36.2795 295.753,-46.5523 302.725,-45.9266"/>
</g>
<!-- 7 -->
<g id="node8" class="node"><title>7</title>
<path fill="none" stroke="#56c9d8" stroke-width="2" stroke-dasharray="5,2" d="M493.5,-252C493.5,-252 356.5,-252 356.5,-252 350.5,-252 344.5,-246 344.5,-240 344.5,-240 344.5,-228 344.5,-228 344.5,-222 350.5,-216 356.5,-216 356.5,-216 493.5,-216 493.5,-216 499.5,-216 505.5,-222 505.5,-228 505.5,-228 505.5,-240 505.5,-240 505.5,-246 499.5,-252 493.5,-252"/>
<text text-anchor="middle" x="425" y="-231.5" font-family="sans" font-size="10.00">bismark_methylation_extract</text>
</g>
<!-- 3&#45;&gt;7 -->
<g id="edge10" class="edge"><title>3&#45;&gt;7</title>
<path fill="none" stroke="grey" stroke-width="2" d="M374.562,-287.697C382.675,-279.22 392.588,-268.864 401.471,-259.583"/>
<polygon fill="grey" stroke="grey" stroke-width="2" points="404.243,-261.749 408.629,-252.104 399.186,-256.908 404.243,-261.749"/>
</g>
<!-- 4 -->
<g id="node5" class="node"><title>4</title>
<path fill="none" stroke="#5692d8" stroke-width="2" stroke-dasharray="5,2" d="M430,-108C430,-108 364,-108 364,-108 358,-108 352,-102 352,-96 352,-96 352,-84 352,-84 352,-78 358,-72 364,-72 364,-72 430,-72 430,-72 436,-72 442,-78 442,-84 442,-84 442,-96 442,-96 442,-102 436,-108 430,-108"/>
<text text-anchor="middle" x="397" y="-87.5" font-family="sans" font-size="10.00">get_wiggle_file</text>
</g>
<!-- 4&#45;&gt;0 -->
<g id="edge4" class="edge"><title>4&#45;&gt;0</title>
<path fill="none" stroke="grey" stroke-width="2" d="M372.537,-71.8761C359.704,-62.8931 343.804,-51.7625 329.906,-42.0341"/>
<polygon fill="grey" stroke="grey" stroke-width="2" points="331.756,-39.0571 321.557,-36.1898 327.742,-44.7917 331.756,-39.0571"/>
</g>
<!-- 5&#45;&gt;3 -->
<g id="edge6" class="edge"><title>5&#45;&gt;3</title>
<path fill="none" stroke="grey" stroke-width="2" d="M358,-359.697C358,-351.983 358,-342.712 358,-334.112"/>
<polygon fill="grey" stroke="grey" stroke-width="2" points="361.5,-334.104 358,-324.104 354.5,-334.104 361.5,-334.104"/>
</g>
<!-- 6 -->
<g id="node7" class="node"><title>6</title>
<path fill="none" stroke="#d88d56" stroke-width="2" stroke-dasharray="5,2" d="M464,-180C464,-180 366,-180 366,-180 360,-180 354,-174 354,-168 354,-168 354,-156 354,-156 354,-150 360,-144 366,-144 366,-144 464,-144 464,-144 470,-144 476,-150 476,-156 476,-156 476,-168 476,-168 476,-174 470,-180 464,-180"/>
<text text-anchor="middle" x="415" y="-159.5" font-family="sans" font-size="10.00">merge_two_coverage</text>
</g>
<!-- 6&#45;&gt;4 -->
<g id="edge7" class="edge"><title>6&#45;&gt;4</title>
<path fill="none" stroke="grey" stroke-width="2" d="M410.551,-143.697C408.545,-135.898 406.131,-126.509 403.899,-117.829"/>
<polygon fill="grey" stroke="grey" stroke-width="2" points="407.278,-116.918 401.398,-108.104 400.499,-118.661 407.278,-116.918"/>
</g>
<!-- 7&#45;&gt;6 -->
<g id="edge9" class="edge"><title>7&#45;&gt;6</title>
<path fill="none" stroke="grey" stroke-width="2" d="M422.528,-215.697C421.426,-207.983 420.102,-198.712 418.873,-190.112"/>
<polygon fill="grey" stroke="grey" stroke-width="2" points="422.323,-189.509 417.443,-180.104 415.393,-190.499 422.323,-189.509"/>
</g>
</g>
</svg>
