<?xml version="1.0" encoding="UTF-8" standalone="no"?>
<!DOCTYPE svg PUBLIC "-//W3C//DTD SVG 1.1//EN"
 "http://www.w3.org/Graphics/SVG/1.1/DTD/svg11.dtd">
<!-- Generated by graphviz version 2.42.3 (20191010.1750)
 -->
<!-- Title: snakemake_dag Pages: 1 -->
<svg width="404pt" height="476pt"
 viewBox="0.00 0.00 404.00 476.00" xmlns="http://www.w3.org/2000/svg" xmlns:xlink="http://www.w3.org/1999/xlink">
<g id="graph0" class="graph" transform="scale(1 1) rotate(0) translate(4 472)">
<title>snakemake_dag</title>
<polygon fill="white" stroke="transparent" points="-4,4 -4,-472 400,-472 400,4 -4,4"/>
<!-- 0 -->
<g id="node1" class="node">
<title>0</title>
<path fill="none" stroke="#59d856" stroke-width="2" d="M200,-36C200,-36 170,-36 170,-36 164,-36 158,-30 158,-24 158,-24 158,-12 158,-12 158,-6 164,0 170,0 170,0 200,0 200,0 206,0 212,-6 212,-12 212,-12 212,-24 212,-24 212,-30 206,-36 200,-36"/>
<text text-anchor="middle" x="185" y="-15.5" font-family="sans" font-size="10.00">all</text>
</g>
<!-- 1 -->
<g id="node2" class="node">
<title>1</title>
<path fill="none" stroke="#56d88a" stroke-width="2" d="M52,-180C52,-180 12,-180 12,-180 6,-180 0,-174 0,-168 0,-168 0,-156 0,-156 0,-150 6,-144 12,-144 12,-144 52,-144 52,-144 58,-144 64,-150 64,-156 64,-156 64,-168 64,-168 64,-174 58,-180 52,-180"/>
<text text-anchor="middle" x="32" y="-159.5" font-family="sans" font-size="10.00">fastqc_pe</text>
</g>
<!-- 1&#45;&gt;0 -->
<g id="edge5" class="edge">
<title>1&#45;&gt;0</title>
<path fill="none" stroke="grey" stroke-width="2" d="M22.8,-143.84C13.84,-124.52 3.62,-93.06 19,-72 48.34,-31.83 108.47,-21.4 147.74,-19.07"/>
<polygon fill="grey" stroke="grey" stroke-width="2" points="148.13,-22.56 157.97,-18.62 147.83,-15.57 148.13,-22.56"/>
</g>
<!-- 2 -->
<g id="node3" class="node">
<title>2</title>
<path fill="none" stroke="#88d856" stroke-width="2" d="M87.5,-108C87.5,-108 40.5,-108 40.5,-108 34.5,-108 28.5,-102 28.5,-96 28.5,-96 28.5,-84 28.5,-84 28.5,-78 34.5,-72 40.5,-72 40.5,-72 87.5,-72 87.5,-72 93.5,-72 99.5,-78 99.5,-84 99.5,-84 99.5,-96 99.5,-96 99.5,-102 93.5,-108 87.5,-108"/>
<text text-anchor="middle" x="64" y="-87.5" font-family="sans" font-size="10.00">multiqc_pe</text>
</g>
<!-- 1&#45;&gt;2 -->
<g id="edge9" class="edge">
<title>1&#45;&gt;2</title>
<path fill="none" stroke="grey" stroke-width="2" d="M39.91,-143.7C43.55,-135.73 47.95,-126.1 51.99,-117.26"/>
<polygon fill="grey" stroke="grey" stroke-width="2" points="55.21,-118.65 56.18,-108.1 48.84,-115.74 55.21,-118.65"/>
</g>
<!-- 2&#45;&gt;0 -->
<g id="edge4" class="edge">
<title>2&#45;&gt;0</title>
<path fill="none" stroke="grey" stroke-width="2" d="M93.6,-71.88C110.28,-62.23 131.25,-50.1 148.89,-39.89"/>
<polygon fill="grey" stroke="grey" stroke-width="2" points="150.87,-42.79 157.77,-34.75 147.37,-36.73 150.87,-42.79"/>
</g>
<!-- 3 -->
<g id="node4" class="node">
<title>3</title>
<path fill="none" stroke="#568ad8" stroke-width="2" d="M175,-468C175,-468 129,-468 129,-468 123,-468 117,-462 117,-456 117,-456 117,-444 117,-444 117,-438 123,-432 129,-432 129,-432 175,-432 175,-432 181,-432 187,-438 187,-444 187,-444 187,-456 187,-456 187,-462 181,-468 175,-468"/>
<text text-anchor="middle" x="152" y="-447.5" font-family="sans" font-size="10.00">bwa_map1</text>
</g>
<!-- 3&#45;&gt;0 -->
<g id="edge8" class="edge">
<title>3&#45;&gt;0</title>
<path fill="none" stroke="grey" stroke-width="2" d="M147.14,-431.67C140.13,-405.08 128,-352.5 128,-307 128,-307 128,-307 128,-161 128,-117.8 151,-72.19 167.78,-44.66"/>
<polygon fill="grey" stroke="grey" stroke-width="2" points="170.83,-46.37 173.19,-36.04 164.91,-42.65 170.83,-46.37"/>
</g>
<!-- 9 -->
<g id="node10" class="node">
<title>9</title>
<path fill="none" stroke="#d8bc56" stroke-width="2" d="M234,-396C234,-396 204,-396 204,-396 198,-396 192,-390 192,-384 192,-384 192,-372 192,-372 192,-366 198,-360 204,-360 204,-360 234,-360 234,-360 240,-360 246,-366 246,-372 246,-372 246,-384 246,-384 246,-390 240,-396 234,-396"/>
<text text-anchor="middle" x="219" y="-375.5" font-family="sans" font-size="10.00">sam</text>
</g>
<!-- 3&#45;&gt;9 -->
<g id="edge15" class="edge">
<title>3&#45;&gt;9</title>
<path fill="none" stroke="grey" stroke-width="2" d="M168.56,-431.7C176.68,-423.22 186.59,-412.86 195.47,-403.58"/>
<polygon fill="grey" stroke="grey" stroke-width="2" points="198.24,-405.75 202.63,-396.1 193.19,-400.91 198.24,-405.75"/>
</g>
<!-- 4 -->
<g id="node5" class="node">
<title>4</title>
<path fill="none" stroke="#d85656" stroke-width="2" d="M286,-468C286,-468 240,-468 240,-468 234,-468 228,-462 228,-456 228,-456 228,-444 228,-444 228,-438 234,-432 240,-432 240,-432 286,-432 286,-432 292,-432 298,-438 298,-444 298,-444 298,-456 298,-456 298,-462 292,-468 286,-468"/>
<text text-anchor="middle" x="263" y="-447.5" font-family="sans" font-size="10.00">bwa_map2</text>
</g>
<!-- 4&#45;&gt;0 -->
<g id="edge1" class="edge">
<title>4&#45;&gt;0</title>
<path fill="none" stroke="grey" stroke-width="2" d="M296.56,-431.93C335.96,-409.23 396,-365.1 396,-307 396,-307 396,-307 396,-161 396,-117.99 389.98,-100.75 358,-72 320.1,-37.93 260.75,-25.75 222.36,-21.41"/>
<polygon fill="grey" stroke="grey" stroke-width="2" points="222.43,-17.9 212.13,-20.38 221.73,-24.86 222.43,-17.9"/>
</g>
<!-- 4&#45;&gt;9 -->
<g id="edge14" class="edge">
<title>4&#45;&gt;9</title>
<path fill="none" stroke="grey" stroke-width="2" d="M252.12,-431.7C247.01,-423.56 240.8,-413.69 235.16,-404.7"/>
<polygon fill="grey" stroke="grey" stroke-width="2" points="238.04,-402.71 229.75,-396.1 232.11,-406.43 238.04,-402.71"/>
</g>
<!-- 5 -->
<g id="node6" class="node">
<title>5</title>
<path fill="none" stroke="#bed856" stroke-width="2" d="M244,-324C244,-324 194,-324 194,-324 188,-324 182,-318 182,-312 182,-312 182,-300 182,-300 182,-294 188,-288 194,-288 194,-288 244,-288 244,-288 250,-288 256,-294 256,-300 256,-300 256,-312 256,-312 256,-318 250,-324 244,-324"/>
<text text-anchor="middle" x="219" y="-303.5" font-family="sans" font-size="10.00">sorted_bam</text>
</g>
<!-- 5&#45;&gt;0 -->
<g id="edge3" class="edge">
<title>5&#45;&gt;0</title>
<path fill="none" stroke="grey" stroke-width="2" d="M204.25,-287.63C196.91,-277.85 188.81,-265.01 185,-252 163.92,-180.1 173.34,-90.27 180.17,-46.09"/>
<polygon fill="grey" stroke="grey" stroke-width="2" points="183.64,-46.56 181.78,-36.13 176.73,-45.44 183.64,-46.56"/>
</g>
<!-- 6 -->
<g id="node7" class="node">
<title>6</title>
<path fill="none" stroke="#d88d56" stroke-width="2" d="M236,-252C236,-252 206,-252 206,-252 200,-252 194,-246 194,-240 194,-240 194,-228 194,-228 194,-222 200,-216 206,-216 206,-216 236,-216 236,-216 242,-216 248,-222 248,-228 248,-228 248,-240 248,-240 248,-246 242,-252 236,-252"/>
<text text-anchor="middle" x="221" y="-231.5" font-family="sans" font-size="10.00">dedup</text>
</g>
<!-- 5&#45;&gt;6 -->
<g id="edge11" class="edge">
<title>5&#45;&gt;6</title>
<path fill="none" stroke="grey" stroke-width="2" d="M219.49,-287.7C219.71,-279.98 219.98,-270.71 220.23,-262.11"/>
<polygon fill="grey" stroke="grey" stroke-width="2" points="223.72,-262.2 220.51,-252.1 216.73,-262 223.72,-262.2"/>
</g>
<!-- 6&#45;&gt;0 -->
<g id="edge2" class="edge">
<title>6&#45;&gt;0</title>
<path fill="none" stroke="grey" stroke-width="2" d="M218.11,-215.85C211.87,-178.75 197.08,-90.81 189.56,-46.1"/>
<polygon fill="grey" stroke="grey" stroke-width="2" points="193.01,-45.51 187.9,-36.23 186.11,-46.67 193.01,-45.51"/>
</g>
<!-- 7 -->
<g id="node8" class="node">
<title>7</title>
<path fill="none" stroke="#56c1d8" stroke-width="2" d="M355.5,-180C355.5,-180 244.5,-180 244.5,-180 238.5,-180 232.5,-174 232.5,-168 232.5,-168 232.5,-156 232.5,-156 232.5,-150 238.5,-144 244.5,-144 244.5,-144 355.5,-144 355.5,-144 361.5,-144 367.5,-150 367.5,-156 367.5,-156 367.5,-168 367.5,-168 367.5,-174 361.5,-180 355.5,-180"/>
<text text-anchor="middle" x="300" y="-159.5" font-family="sans" font-size="10.00">call_peak_using_danpos</text>
</g>
<!-- 6&#45;&gt;7 -->
<g id="edge12" class="edge">
<title>6&#45;&gt;7</title>
<path fill="none" stroke="grey" stroke-width="2" d="M240.53,-215.7C250.38,-206.97 262.49,-196.24 273.2,-186.75"/>
<polygon fill="grey" stroke="grey" stroke-width="2" points="275.53,-189.36 280.7,-180.1 270.89,-184.12 275.53,-189.36"/>
</g>
<!-- 7&#45;&gt;0 -->
<g id="edge7" class="edge">
<title>7&#45;&gt;0</title>
<path fill="none" stroke="grey" stroke-width="2" d="M286.13,-143.87C266.01,-119.03 228.61,-72.85 205.36,-44.14"/>
<polygon fill="grey" stroke="grey" stroke-width="2" points="207.93,-41.76 198.92,-36.19 202.49,-46.16 207.93,-41.76"/>
</g>
<!-- 8 -->
<g id="node9" class="node">
<title>8</title>
<path fill="none" stroke="#56d8c1" stroke-width="2" d="M337.5,-108C337.5,-108 282.5,-108 282.5,-108 276.5,-108 270.5,-102 270.5,-96 270.5,-96 270.5,-84 270.5,-84 270.5,-78 276.5,-72 282.5,-72 282.5,-72 337.5,-72 337.5,-72 343.5,-72 349.5,-78 349.5,-84 349.5,-84 349.5,-96 349.5,-96 349.5,-102 343.5,-108 337.5,-108"/>
<text text-anchor="middle" x="310" y="-87.5" font-family="sans" font-size="10.00">peak_to_bed</text>
</g>
<!-- 7&#45;&gt;8 -->
<g id="edge13" class="edge">
<title>7&#45;&gt;8</title>
<path fill="none" stroke="grey" stroke-width="2" d="M302.47,-143.7C303.57,-135.98 304.9,-126.71 306.13,-118.11"/>
<polygon fill="grey" stroke="grey" stroke-width="2" points="309.61,-118.5 307.56,-108.1 302.68,-117.51 309.61,-118.5"/>
</g>
<!-- 8&#45;&gt;0 -->
<g id="edge6" class="edge">
<title>8&#45;&gt;0</title>
<path fill="none" stroke="grey" stroke-width="2" d="M279.42,-71.88C261.78,-62 239.5,-49.52 221.02,-39.17"/>
<polygon fill="grey" stroke="grey" stroke-width="2" points="222.72,-36.11 212.28,-34.28 219.3,-42.22 222.72,-36.11"/>
</g>
<!-- 9&#45;&gt;5 -->
<g id="edge10" class="edge">
<title>9&#45;&gt;5</title>
<path fill="none" stroke="grey" stroke-width="2" d="M219,-359.7C219,-351.98 219,-342.71 219,-334.11"/>
<polygon fill="grey" stroke="grey" stroke-width="2" points="222.5,-334.1 219,-324.1 215.5,-334.1 222.5,-334.1"/>
</g>
</g>
</svg>
