<?xml version="1.0" encoding="UTF-8" standalone="no"?>
<!DOCTYPE svg PUBLIC "-//W3C//DTD SVG 1.1//EN"
 "http://www.w3.org/Graphics/SVG/1.1/DTD/svg11.dtd">
<!-- Generated by graphviz version 2.42.3 (20191010.1750)
 -->
<!-- Title: snakemake_dag Pages: 1 -->
<svg width="328pt" height="404pt"
 viewBox="0.00 0.00 328.00 404.00" xmlns="http://www.w3.org/2000/svg" xmlns:xlink="http://www.w3.org/1999/xlink">
<g id="graph0" class="graph" transform="scale(1 1) rotate(0) translate(4 400)">
<title>snakemake_dag</title>
<polygon fill="white" stroke="transparent" points="-4,4 -4,-400 324,-400 324,4 -4,4"/>
<!-- 0 -->
<g id="node1" class="node">
<title>0</title>
<path fill="none" stroke="#569ad8" stroke-width="2" d="M208.5,-36C208.5,-36 178.5,-36 178.5,-36 172.5,-36 166.5,-30 166.5,-24 166.5,-24 166.5,-12 166.5,-12 166.5,-6 172.5,0 178.5,0 178.5,0 208.5,0 208.5,0 214.5,0 220.5,-6 220.5,-12 220.5,-12 220.5,-24 220.5,-24 220.5,-30 214.5,-36 208.5,-36"/>
<text text-anchor="middle" x="193.5" y="-15.5" font-family="sans" font-size="10.00">all</text>
</g>
<!-- 1 -->
<g id="node2" class="node">
<title>1</title>
<path fill="none" stroke="#97d856" stroke-width="2" d="M75,-252C75,-252 12,-252 12,-252 6,-252 0,-246 0,-240 0,-240 0,-228 0,-228 0,-222 6,-216 12,-216 12,-216 75,-216 75,-216 81,-216 87,-222 87,-228 87,-228 87,-240 87,-240 87,-246 81,-252 75,-252"/>
<text text-anchor="middle" x="43.5" y="-231.5" font-family="sans" font-size="10.00">fastqc_raw_pe</text>
</g>
<!-- 1&#45;&gt;0 -->
<g id="edge3" class="edge">
<title>1&#45;&gt;0</title>
<path fill="none" stroke="grey" stroke-width="2" d="M35.61,-215.75C31.39,-205.58 26.64,-192.33 24.5,-180 16.01,-131.15 17.24,-106.86 52.5,-72 80.65,-44.17 124.82,-30.72 156.21,-24.37"/>
<polygon fill="grey" stroke="grey" stroke-width="2" points="157.14,-27.76 166.33,-22.48 155.85,-20.88 157.14,-27.76"/>
</g>
<!-- 2 -->
<g id="node3" class="node">
<title>2</title>
<path fill="none" stroke="#d6d856" stroke-width="2" d="M115.5,-180C115.5,-180 45.5,-180 45.5,-180 39.5,-180 33.5,-174 33.5,-168 33.5,-168 33.5,-156 33.5,-156 33.5,-150 39.5,-144 45.5,-144 45.5,-144 115.5,-144 115.5,-144 121.5,-144 127.5,-150 127.5,-156 127.5,-156 127.5,-168 127.5,-168 127.5,-174 121.5,-180 115.5,-180"/>
<text text-anchor="middle" x="80.5" y="-159.5" font-family="sans" font-size="10.00">multiqc_raw_pe</text>
</g>
<!-- 1&#45;&gt;2 -->
<g id="edge7" class="edge">
<title>1&#45;&gt;2</title>
<path fill="none" stroke="grey" stroke-width="2" d="M52.65,-215.7C56.9,-207.64 62.06,-197.89 66.77,-188.98"/>
<polygon fill="grey" stroke="grey" stroke-width="2" points="69.88,-190.58 71.46,-180.1 63.69,-187.31 69.88,-190.58"/>
</g>
<!-- 2&#45;&gt;0 -->
<g id="edge2" class="edge">
<title>2&#45;&gt;0</title>
<path fill="none" stroke="grey" stroke-width="2" d="M69.97,-143.78C59.78,-124.68 47.87,-93.7 62.5,-72 83.32,-41.11 125.53,-28.22 156.43,-22.84"/>
<polygon fill="grey" stroke="grey" stroke-width="2" points="157.08,-26.28 166.42,-21.29 156.01,-19.37 157.08,-26.28"/>
</g>
<!-- 6 -->
<g id="node7" class="node">
<title>6</title>
<path fill="none" stroke="#d85656" stroke-width="2" d="M203.5,-108C203.5,-108 83.5,-108 83.5,-108 77.5,-108 71.5,-102 71.5,-96 71.5,-96 71.5,-84 71.5,-84 71.5,-78 77.5,-72 83.5,-72 83.5,-72 203.5,-72 203.5,-72 209.5,-72 215.5,-78 215.5,-84 215.5,-84 215.5,-96 215.5,-96 215.5,-102 209.5,-108 203.5,-108"/>
<text text-anchor="middle" x="143.5" y="-87.5" font-family="sans" font-size="10.00">summary_pre_process_pe</text>
</g>
<!-- 2&#45;&gt;6 -->
<g id="edge12" class="edge">
<title>2&#45;&gt;6</title>
<path fill="none" stroke="grey" stroke-width="2" d="M96.07,-143.7C103.7,-135.22 113.02,-124.86 121.38,-115.58"/>
<polygon fill="grey" stroke="grey" stroke-width="2" points="124.02,-117.88 128.11,-108.1 118.81,-113.2 124.02,-117.88"/>
</g>
<!-- 3 -->
<g id="node4" class="node">
<title>3</title>
<path fill="none" stroke="#56d8d8" stroke-width="2" d="M305,-324C305,-324 258,-324 258,-324 252,-324 246,-318 246,-312 246,-312 246,-300 246,-300 246,-294 252,-288 258,-288 258,-288 305,-288 305,-288 311,-288 317,-294 317,-300 317,-300 317,-312 317,-312 317,-318 311,-324 305,-324"/>
<text text-anchor="middle" x="281.5" y="-303.5" font-family="sans" font-size="10.00">afterQC_pe</text>
</g>
<!-- 3&#45;&gt;0 -->
<g id="edge6" class="edge">
<title>3&#45;&gt;0</title>
<path fill="none" stroke="grey" stroke-width="2" d="M289.39,-287.75C293.61,-277.58 298.36,-264.33 300.5,-252 314.54,-171.26 305.84,-140.27 260.5,-72 252.38,-59.77 240.52,-49.08 229.03,-40.56"/>
<polygon fill="grey" stroke="grey" stroke-width="2" points="230.98,-37.65 220.79,-34.75 226.95,-43.37 230.98,-37.65"/>
</g>
<!-- 4 -->
<g id="node5" class="node">
<title>4</title>
<path fill="none" stroke="#59d856" stroke-width="2" d="M279,-252C279,-252 208,-252 208,-252 202,-252 196,-246 196,-240 196,-240 196,-228 196,-228 196,-222 202,-216 208,-216 208,-216 279,-216 279,-216 285,-216 291,-222 291,-228 291,-228 291,-240 291,-240 291,-246 285,-252 279,-252"/>
<text text-anchor="middle" x="243.5" y="-231.5" font-family="sans" font-size="10.00">fastqc_clean_pe</text>
</g>
<!-- 3&#45;&gt;4 -->
<g id="edge9" class="edge">
<title>3&#45;&gt;4</title>
<path fill="none" stroke="grey" stroke-width="2" d="M272.11,-287.7C267.74,-279.64 262.44,-269.89 257.6,-260.98"/>
<polygon fill="grey" stroke="grey" stroke-width="2" points="260.63,-259.22 252.79,-252.1 254.48,-262.56 260.63,-259.22"/>
</g>
<!-- 4&#45;&gt;0 -->
<g id="edge4" class="edge">
<title>4&#45;&gt;0</title>
<path fill="none" stroke="grey" stroke-width="2" d="M251.39,-215.75C255.61,-205.58 260.36,-192.33 262.5,-180 265.24,-164.24 264.96,-159.81 262.5,-144 257.33,-110.81 255.96,-101.29 239.5,-72 233.83,-61.92 226.04,-52.02 218.48,-43.56"/>
<polygon fill="grey" stroke="grey" stroke-width="2" points="221.05,-41.18 211.67,-36.24 215.92,-45.94 221.05,-41.18"/>
</g>
<!-- 5 -->
<g id="node6" class="node">
<title>5</title>
<path fill="none" stroke="#56d89a" stroke-width="2" d="M241.5,-180C241.5,-180 163.5,-180 163.5,-180 157.5,-180 151.5,-174 151.5,-168 151.5,-168 151.5,-156 151.5,-156 151.5,-150 157.5,-144 163.5,-144 163.5,-144 241.5,-144 241.5,-144 247.5,-144 253.5,-150 253.5,-156 253.5,-156 253.5,-168 253.5,-168 253.5,-174 247.5,-180 241.5,-180"/>
<text text-anchor="middle" x="202.5" y="-159.5" font-family="sans" font-size="10.00">multiqc_clean_pe</text>
</g>
<!-- 4&#45;&gt;5 -->
<g id="edge10" class="edge">
<title>4&#45;&gt;5</title>
<path fill="none" stroke="grey" stroke-width="2" d="M233.37,-215.7C228.65,-207.64 222.94,-197.89 217.72,-188.98"/>
<polygon fill="grey" stroke="grey" stroke-width="2" points="220.59,-186.96 212.52,-180.1 214.55,-190.5 220.59,-186.96"/>
</g>
<!-- 5&#45;&gt;0 -->
<g id="edge5" class="edge">
<title>5&#45;&gt;0</title>
<path fill="none" stroke="grey" stroke-width="2" d="M211.95,-143.88C220.64,-125.92 231.24,-96.89 224.5,-72 221.92,-62.48 217.16,-52.92 212.12,-44.59"/>
<polygon fill="grey" stroke="grey" stroke-width="2" points="215.01,-42.6 206.65,-36.09 209.12,-46.39 215.01,-42.6"/>
</g>
<!-- 5&#45;&gt;6 -->
<g id="edge11" class="edge">
<title>5&#45;&gt;6</title>
<path fill="none" stroke="grey" stroke-width="2" d="M187.92,-143.7C180.84,-135.3 172.22,-125.07 164.45,-115.86"/>
<polygon fill="grey" stroke="grey" stroke-width="2" points="167.04,-113.49 157.92,-108.1 161.69,-118.01 167.04,-113.49"/>
</g>
<!-- 6&#45;&gt;0 -->
<g id="edge1" class="edge">
<title>6&#45;&gt;0</title>
<path fill="none" stroke="grey" stroke-width="2" d="M155.86,-71.7C161.73,-63.47 168.87,-53.48 175.34,-44.42"/>
<polygon fill="grey" stroke="grey" stroke-width="2" points="178.32,-46.28 181.28,-36.1 172.62,-42.21 178.32,-46.28"/>
</g>
<!-- 7 -->
<g id="node8" class="node">
<title>7</title>
<path fill="none" stroke="#d89556" stroke-width="2" d="M308,-396C308,-396 255,-396 255,-396 249,-396 243,-390 243,-384 243,-384 243,-372 243,-372 243,-366 249,-360 255,-360 255,-360 308,-360 308,-360 314,-360 320,-366 320,-372 320,-372 320,-384 320,-384 320,-390 314,-396 308,-396"/>
<text text-anchor="middle" x="281.5" y="-375.5" font-family="sans" font-size="10.00">cutadapt_pe</text>
</g>
<!-- 7&#45;&gt;3 -->
<g id="edge8" class="edge">
<title>7&#45;&gt;3</title>
<path fill="none" stroke="grey" stroke-width="2" d="M281.5,-359.7C281.5,-351.98 281.5,-342.71 281.5,-334.11"/>
<polygon fill="grey" stroke="grey" stroke-width="2" points="285,-334.1 281.5,-324.1 278,-334.1 285,-334.1"/>
</g>
</g>
</svg>
