<?xml version="1.0" encoding="UTF-8" standalone="no"?>
<!DOCTYPE svg PUBLIC "-//W3C//DTD SVG 1.1//EN"
 "http://www.w3.org/Graphics/SVG/1.1/DTD/svg11.dtd">
<!-- Generated by graphviz version 2.42.3 (20191010.1750)
 -->
<!-- Title: snakemake_dag Pages: 1 -->
<svg width="91pt" height="188pt"
 viewBox="0.00 0.00 91.00 188.00" xmlns="http://www.w3.org/2000/svg" xmlns:xlink="http://www.w3.org/1999/xlink">
<g id="graph0" class="graph" transform="scale(1 1) rotate(0) translate(4 184)">
<title>snakemake_dag</title>
<polygon fill="white" stroke="transparent" points="-4,4 -4,-184 87,-184 87,4 -4,4"/>
<!-- 0 -->
<g id="node1" class="node">
<title>0</title>
<path fill="none" stroke="#56d8a9" stroke-width="2" d="M56.5,-36C56.5,-36 26.5,-36 26.5,-36 20.5,-36 14.5,-30 14.5,-24 14.5,-24 14.5,-12 14.5,-12 14.5,-6 20.5,0 26.5,0 26.5,0 56.5,0 56.5,0 62.5,0 68.5,-6 68.5,-12 68.5,-12 68.5,-24 68.5,-24 68.5,-30 62.5,-36 56.5,-36"/>
<text text-anchor="middle" x="41.5" y="-15.5" font-family="sans" font-size="10.00">all</text>
</g>
<!-- 1 -->
<g id="node2" class="node">
<title>1</title>
<path fill="none" stroke="#d85656" stroke-width="2" d="M68,-108C68,-108 15,-108 15,-108 9,-108 3,-102 3,-96 3,-96 3,-84 3,-84 3,-78 9,-72 15,-72 15,-72 68,-72 68,-72 74,-72 80,-78 80,-84 80,-84 80,-96 80,-96 80,-102 74,-108 68,-108"/>
<text text-anchor="middle" x="41.5" y="-87.5" font-family="sans" font-size="10.00">RNA_editing</text>
</g>
<!-- 1&#45;&gt;0 -->
<g id="edge1" class="edge">
<title>1&#45;&gt;0</title>
<path fill="none" stroke="grey" stroke-width="2" d="M41.5,-71.7C41.5,-63.98 41.5,-54.71 41.5,-46.11"/>
<polygon fill="grey" stroke="grey" stroke-width="2" points="45,-46.1 41.5,-36.1 38,-46.1 45,-46.1"/>
</g>
<!-- 2 -->
<g id="node3" class="node">
<title>2</title>
<path fill="none" stroke="#afd856" stroke-width="2" d="M71,-180C71,-180 12,-180 12,-180 6,-180 0,-174 0,-168 0,-168 0,-156 0,-156 0,-150 6,-144 12,-144 12,-144 71,-144 71,-144 77,-144 83,-150 83,-156 83,-156 83,-168 83,-168 83,-174 77,-180 71,-180"/>
<text text-anchor="middle" x="41.5" y="-159.5" font-family="sans" font-size="10.00">get_fasta_file</text>
</g>
<!-- 2&#45;&gt;1 -->
<g id="edge2" class="edge">
<title>2&#45;&gt;1</title>
<path fill="none" stroke="grey" stroke-width="2" d="M41.5,-143.7C41.5,-135.98 41.5,-126.71 41.5,-118.11"/>
<polygon fill="grey" stroke="grey" stroke-width="2" points="45,-118.1 41.5,-108.1 38,-118.1 45,-118.1"/>
</g>
</g>
</svg>
