<?xml version="1.0" encoding="UTF-8" standalone="no"?>
<!DOCTYPE svg PUBLIC "-//W3C//DTD SVG 1.1//EN"
 "http://www.w3.org/Graphics/SVG/1.1/DTD/svg11.dtd">
<!-- Generated by graphviz version 2.42.3 (20191010.1750)
 -->
<!-- Title: snakemake_dag Pages: 1 -->
<svg width="368pt" height="404pt"
 viewBox="0.00 0.00 367.50 404.00" xmlns="http://www.w3.org/2000/svg" xmlns:xlink="http://www.w3.org/1999/xlink">
<g id="graph0" class="graph" transform="scale(1 1) rotate(0) translate(4 400)">
<title>snakemake_dag</title>
<polygon fill="white" stroke="transparent" points="-4,4 -4,-400 363.5,-400 363.5,4 -4,4"/>
<!-- 0 -->
<g id="node1" class="node">
<title>0</title>
<path fill="none" stroke="#56d873" stroke-width="2" d="M143,-36C143,-36 113,-36 113,-36 107,-36 101,-30 101,-24 101,-24 101,-12 101,-12 101,-6 107,0 113,0 113,0 143,0 143,0 149,0 155,-6 155,-12 155,-12 155,-24 155,-24 155,-30 149,-36 143,-36"/>
<text text-anchor="middle" x="128" y="-15.5" font-family="sans" font-size="10.00">all</text>
</g>
<!-- 1 -->
<g id="node2" class="node">
<title>1</title>
<path fill="none" stroke="#70d856" stroke-width="2" d="M52,-180C52,-180 12,-180 12,-180 6,-180 0,-174 0,-168 0,-168 0,-156 0,-156 0,-150 6,-144 12,-144 12,-144 52,-144 52,-144 58,-144 64,-150 64,-156 64,-156 64,-168 64,-168 64,-174 58,-180 52,-180"/>
<text text-anchor="middle" x="32" y="-159.5" font-family="sans" font-size="10.00">fastqc_pe</text>
</g>
<!-- 1&#45;&gt;0 -->
<g id="edge5" class="edge">
<title>1&#45;&gt;0</title>
<path fill="none" stroke="grey" stroke-width="2" d="M23.21,-143.88C14.8,-124.87 5.25,-93.97 19,-72 34.6,-47.07 65.65,-33.57 90.63,-26.44"/>
<polygon fill="grey" stroke="grey" stroke-width="2" points="91.77,-29.76 100.56,-23.85 90,-22.99 91.77,-29.76"/>
</g>
<!-- 2 -->
<g id="node3" class="node">
<title>2</title>
<path fill="none" stroke="#d88d56" stroke-width="2" d="M87.5,-108C87.5,-108 40.5,-108 40.5,-108 34.5,-108 28.5,-102 28.5,-96 28.5,-96 28.5,-84 28.5,-84 28.5,-78 34.5,-72 40.5,-72 40.5,-72 87.5,-72 87.5,-72 93.5,-72 99.5,-78 99.5,-84 99.5,-84 99.5,-96 99.5,-96 99.5,-102 93.5,-108 87.5,-108"/>
<text text-anchor="middle" x="64" y="-87.5" font-family="sans" font-size="10.00">multiqc_pe</text>
</g>
<!-- 1&#45;&gt;2 -->
<g id="edge6" class="edge">
<title>1&#45;&gt;2</title>
<path fill="none" stroke="grey" stroke-width="2" d="M39.91,-143.7C43.55,-135.73 47.95,-126.1 51.99,-117.26"/>
<polygon fill="grey" stroke="grey" stroke-width="2" points="55.21,-118.65 56.18,-108.1 48.84,-115.74 55.21,-118.65"/>
</g>
<!-- 2&#45;&gt;0 -->
<g id="edge1" class="edge">
<title>2&#45;&gt;0</title>
<path fill="none" stroke="grey" stroke-width="2" d="M79.82,-71.7C87.57,-63.22 97.04,-52.86 105.52,-43.58"/>
<polygon fill="grey" stroke="grey" stroke-width="2" points="108.2,-45.85 112.36,-36.1 103.03,-41.12 108.2,-45.85"/>
</g>
<!-- 3 -->
<g id="node4" class="node">
<title>3</title>
<path fill="none" stroke="#afd856" stroke-width="2" d="M249,-252C249,-252 163,-252 163,-252 157,-252 151,-246 151,-240 151,-240 151,-228 151,-228 151,-222 157,-216 163,-216 163,-216 249,-216 249,-216 255,-216 261,-222 261,-228 261,-228 261,-240 261,-240 261,-246 255,-252 249,-252"/>
<text text-anchor="middle" x="206" y="-231.5" font-family="sans" font-size="10.00">remove_duplicates</text>
</g>
<!-- 3&#45;&gt;0 -->
<g id="edge3" class="edge">
<title>3&#45;&gt;0</title>
<path fill="none" stroke="grey" stroke-width="2" d="M196.26,-215.54C190.68,-205.3 183.68,-192.05 178,-180 163.22,-148.64 158.51,-141.04 148,-108 141.53,-87.66 136.33,-64.06 132.85,-46.28"/>
<polygon fill="grey" stroke="grey" stroke-width="2" points="136.26,-45.47 130.96,-36.3 129.39,-46.77 136.26,-45.47"/>
</g>
<!-- 4 -->
<g id="node5" class="node">
<title>4</title>
<path fill="none" stroke="#d8cb56" stroke-width="2" d="M217.5,-108C217.5,-108 168.5,-108 168.5,-108 162.5,-108 156.5,-102 156.5,-96 156.5,-96 156.5,-84 156.5,-84 156.5,-78 162.5,-72 168.5,-72 168.5,-72 217.5,-72 217.5,-72 223.5,-72 229.5,-78 229.5,-84 229.5,-84 229.5,-96 229.5,-96 229.5,-102 223.5,-108 217.5,-108"/>
<text text-anchor="middle" x="193" y="-87.5" font-family="sans" font-size="10.00">bam_to_bw</text>
</g>
<!-- 3&#45;&gt;4 -->
<g id="edge9" class="edge">
<title>3&#45;&gt;4</title>
<path fill="none" stroke="grey" stroke-width="2" d="M197.28,-215.83C192.63,-205.69 187.38,-192.44 185,-180 181.1,-159.56 183.48,-136.1 186.64,-118.4"/>
<polygon fill="grey" stroke="grey" stroke-width="2" points="190.15,-118.69 188.65,-108.2 183.28,-117.33 190.15,-118.69"/>
</g>
<!-- 5 -->
<g id="node6" class="node">
<title>5</title>
<path fill="none" stroke="#56c9d8" stroke-width="2" d="M347.5,-108C347.5,-108 276.5,-108 276.5,-108 270.5,-108 264.5,-102 264.5,-96 264.5,-96 264.5,-84 264.5,-84 264.5,-78 270.5,-72 276.5,-72 276.5,-72 347.5,-72 347.5,-72 353.5,-72 359.5,-78 359.5,-84 359.5,-84 359.5,-96 359.5,-96 359.5,-102 353.5,-108 347.5,-108"/>
<text text-anchor="middle" x="312" y="-87.5" font-family="sans" font-size="10.00">macs2_callPeak</text>
</g>
<!-- 3&#45;&gt;5 -->
<g id="edge10" class="edge">
<title>3&#45;&gt;5</title>
<path fill="none" stroke="grey" stroke-width="2" d="M261.06,-217.35C279.44,-209.26 298.02,-197.33 309,-180 320.53,-161.79 320.39,-137.02 317.88,-118.23"/>
<polygon fill="grey" stroke="grey" stroke-width="2" points="321.31,-117.53 316.24,-108.23 314.4,-118.66 321.31,-117.53"/>
</g>
<!-- 7 -->
<g id="node8" class="node">
<title>7</title>
<path fill="none" stroke="#d85656" stroke-width="2" d="M288,-180C288,-180 206,-180 206,-180 200,-180 194,-174 194,-168 194,-168 194,-156 194,-156 194,-150 200,-144 206,-144 206,-144 288,-144 288,-144 294,-144 300,-150 300,-156 300,-156 300,-168 300,-168 300,-174 294,-180 288,-180"/>
<text text-anchor="middle" x="247" y="-159.5" font-family="sans" font-size="10.00">index_dudup_bam</text>
</g>
<!-- 3&#45;&gt;7 -->
<g id="edge12" class="edge">
<title>3&#45;&gt;7</title>
<path fill="none" stroke="grey" stroke-width="2" d="M216.13,-215.7C220.85,-207.64 226.56,-197.89 231.78,-188.98"/>
<polygon fill="grey" stroke="grey" stroke-width="2" points="234.95,-190.5 236.98,-180.1 228.91,-186.96 234.95,-190.5"/>
</g>
<!-- 4&#45;&gt;0 -->
<g id="edge2" class="edge">
<title>4&#45;&gt;0</title>
<path fill="none" stroke="grey" stroke-width="2" d="M176.93,-71.7C169.06,-63.22 159.44,-52.86 150.83,-43.58"/>
<polygon fill="grey" stroke="grey" stroke-width="2" points="153.25,-41.05 143.88,-36.1 148.12,-45.81 153.25,-41.05"/>
</g>
<!-- 5&#45;&gt;0 -->
<g id="edge4" class="edge">
<title>5&#45;&gt;0</title>
<path fill="none" stroke="grey" stroke-width="2" d="M266.99,-71.88C235.54,-59.91 194.08,-44.14 164.65,-32.94"/>
<polygon fill="grey" stroke="grey" stroke-width="2" points="165.75,-29.62 155.16,-29.33 163.26,-36.16 165.75,-29.62"/>
</g>
<!-- 6 -->
<g id="node7" class="node">
<title>6</title>
<path fill="none" stroke="#5692d8" stroke-width="2" d="M234,-324C234,-324 178,-324 178,-324 172,-324 166,-318 166,-312 166,-312 166,-300 166,-300 166,-294 172,-288 178,-288 178,-288 234,-288 234,-288 240,-288 246,-294 246,-300 246,-300 246,-312 246,-312 246,-318 240,-324 234,-324"/>
<text text-anchor="middle" x="206" y="-303.5" font-family="sans" font-size="10.00">sam_to_bam</text>
</g>
<!-- 6&#45;&gt;3 -->
<g id="edge7" class="edge">
<title>6&#45;&gt;3</title>
<path fill="none" stroke="grey" stroke-width="2" d="M206,-287.7C206,-279.98 206,-270.71 206,-262.11"/>
<polygon fill="grey" stroke="grey" stroke-width="2" points="209.5,-262.1 206,-252.1 202.5,-262.1 209.5,-262.1"/>
</g>
<!-- 7&#45;&gt;4 -->
<g id="edge8" class="edge">
<title>7&#45;&gt;4</title>
<path fill="none" stroke="grey" stroke-width="2" d="M233.65,-143.7C227.24,-135.39 219.44,-125.28 212.39,-116.14"/>
<polygon fill="grey" stroke="grey" stroke-width="2" points="215.07,-113.88 206.19,-108.1 209.53,-118.16 215.07,-113.88"/>
</g>
<!-- 8 -->
<g id="node9" class="node">
<title>8</title>
<path fill="none" stroke="#56d8a9" stroke-width="2" d="M246,-396C246,-396 166,-396 166,-396 160,-396 154,-390 154,-384 154,-384 154,-372 154,-372 154,-366 160,-360 166,-360 166,-360 246,-360 246,-360 252,-360 258,-366 258,-372 258,-372 258,-384 258,-384 258,-390 252,-396 246,-396"/>
<text text-anchor="middle" x="206" y="-375.5" font-family="sans" font-size="10.00">bowtie2_mapping</text>
</g>
<!-- 8&#45;&gt;6 -->
<g id="edge11" class="edge">
<title>8&#45;&gt;6</title>
<path fill="none" stroke="grey" stroke-width="2" d="M206,-359.7C206,-351.98 206,-342.71 206,-334.11"/>
<polygon fill="grey" stroke="grey" stroke-width="2" points="209.5,-334.1 206,-324.1 202.5,-334.1 209.5,-334.1"/>
</g>
</g>
</svg>
