<?xml version="1.0" encoding="UTF-8" standalone="no"?>
<!DOCTYPE svg PUBLIC "-//W3C//DTD SVG 1.1//EN"
 "http://www.w3.org/Graphics/SVG/1.1/DTD/svg11.dtd">
<!-- Generated by graphviz version 2.42.3 (20191010.1750)
 -->
<!-- Title: snakemake_dag Pages: 1 -->
<svg width="171pt" height="620pt"
 viewBox="0.00 0.00 171.00 620.00" xmlns="http://www.w3.org/2000/svg" xmlns:xlink="http://www.w3.org/1999/xlink">
<g id="graph0" class="graph" transform="scale(1 1) rotate(0) translate(4 616)">
<title>snakemake_dag</title>
<polygon fill="white" stroke="transparent" points="-4,4 -4,-616 167,-616 167,4 -4,4"/>
<!-- 0 -->
<g id="node1" class="node">
<title>0</title>
<path fill="none" stroke="#56c9d8" stroke-width="2" d="M87.5,-36C87.5,-36 57.5,-36 57.5,-36 51.5,-36 45.5,-30 45.5,-24 45.5,-24 45.5,-12 45.5,-12 45.5,-6 51.5,0 57.5,0 57.5,0 87.5,0 87.5,0 93.5,0 99.5,-6 99.5,-12 99.5,-12 99.5,-24 99.5,-24 99.5,-30 93.5,-36 87.5,-36"/>
<text text-anchor="middle" x="72.5" y="-15.5" font-family="sans" font-size="10.00">all</text>
</g>
<!-- 1 -->
<g id="node2" class="node">
<title>1</title>
<path fill="none" stroke="#56d873" stroke-width="2" d="M109.5,-108C109.5,-108 35.5,-108 35.5,-108 29.5,-108 23.5,-102 23.5,-96 23.5,-96 23.5,-84 23.5,-84 23.5,-78 29.5,-72 35.5,-72 35.5,-72 109.5,-72 109.5,-72 115.5,-72 121.5,-78 121.5,-84 121.5,-84 121.5,-96 121.5,-96 121.5,-102 115.5,-108 109.5,-108"/>
<text text-anchor="middle" x="72.5" y="-87.5" font-family="sans" font-size="10.00">variant_filtration</text>
</g>
<!-- 1&#45;&gt;0 -->
<g id="edge1" class="edge">
<title>1&#45;&gt;0</title>
<path fill="none" stroke="grey" stroke-width="2" d="M72.5,-71.7C72.5,-63.98 72.5,-54.71 72.5,-46.11"/>
<polygon fill="grey" stroke="grey" stroke-width="2" points="76,-46.1 72.5,-36.1 69,-46.1 76,-46.1"/>
</g>
<!-- 2 -->
<g id="node3" class="node">
<title>2</title>
<path fill="none" stroke="#70d856" stroke-width="2" d="M109.5,-180C109.5,-180 35.5,-180 35.5,-180 29.5,-180 23.5,-174 23.5,-168 23.5,-168 23.5,-156 23.5,-156 23.5,-150 29.5,-144 35.5,-144 35.5,-144 109.5,-144 109.5,-144 115.5,-144 121.5,-150 121.5,-156 121.5,-156 121.5,-168 121.5,-168 121.5,-174 115.5,-180 109.5,-180"/>
<text text-anchor="middle" x="72.5" y="-159.5" font-family="sans" font-size="10.00">haplotype_caller</text>
</g>
<!-- 2&#45;&gt;1 -->
<g id="edge2" class="edge">
<title>2&#45;&gt;1</title>
<path fill="none" stroke="grey" stroke-width="2" d="M72.5,-143.7C72.5,-135.98 72.5,-126.71 72.5,-118.11"/>
<polygon fill="grey" stroke="grey" stroke-width="2" points="76,-118.1 72.5,-108.1 69,-118.1 76,-118.1"/>
</g>
<!-- 3 -->
<g id="node4" class="node">
<title>3</title>
<path fill="none" stroke="#56d8a9" stroke-width="2" d="M98.5,-252C98.5,-252 46.5,-252 46.5,-252 40.5,-252 34.5,-246 34.5,-240 34.5,-240 34.5,-228 34.5,-228 34.5,-222 40.5,-216 46.5,-216 46.5,-216 98.5,-216 98.5,-216 104.5,-216 110.5,-222 110.5,-228 110.5,-228 110.5,-240 110.5,-240 110.5,-246 104.5,-252 98.5,-252"/>
<text text-anchor="middle" x="72.5" y="-231.5" font-family="sans" font-size="10.00">apply_BQSR</text>
</g>
<!-- 3&#45;&gt;2 -->
<g id="edge3" class="edge">
<title>3&#45;&gt;2</title>
<path fill="none" stroke="grey" stroke-width="2" d="M72.5,-215.7C72.5,-207.98 72.5,-198.71 72.5,-190.11"/>
<polygon fill="grey" stroke="grey" stroke-width="2" points="76,-190.1 72.5,-180.1 69,-190.1 76,-190.1"/>
</g>
<!-- 4 -->
<g id="node5" class="node">
<title>4</title>
<path fill="none" stroke="#afd856" stroke-width="2" d="M108,-396C108,-396 37,-396 37,-396 31,-396 25,-390 25,-384 25,-384 25,-372 25,-372 25,-366 31,-360 37,-360 37,-360 108,-360 108,-360 114,-360 120,-366 120,-372 120,-372 120,-384 120,-384 120,-390 114,-396 108,-396"/>
<text text-anchor="middle" x="72.5" y="-375.5" font-family="sans" font-size="10.00">add_read_group</text>
</g>
<!-- 4&#45;&gt;3 -->
<g id="edge4" class="edge">
<title>4&#45;&gt;3</title>
<path fill="none" stroke="grey" stroke-width="2" d="M64.19,-359.79C59.76,-349.63 54.76,-336.38 52.5,-324 49.63,-308.26 49.63,-303.74 52.5,-288 54.11,-279.2 57.1,-269.95 60.29,-261.7"/>
<polygon fill="grey" stroke="grey" stroke-width="2" points="63.62,-262.79 64.19,-252.21 57.15,-260.12 63.62,-262.79"/>
</g>
<!-- 5 -->
<g id="node6" class="node">
<title>5</title>
<path fill="none" stroke="#d85656" stroke-width="2" d="M151,-324C151,-324 74,-324 74,-324 68,-324 62,-318 62,-312 62,-312 62,-300 62,-300 62,-294 68,-288 74,-288 74,-288 151,-288 151,-288 157,-288 163,-294 163,-300 163,-300 163,-312 163,-312 163,-318 157,-324 151,-324"/>
<text text-anchor="middle" x="112.5" y="-303.5" font-family="sans" font-size="10.00">base_recalibrator</text>
</g>
<!-- 4&#45;&gt;5 -->
<g id="edge7" class="edge">
<title>4&#45;&gt;5</title>
<path fill="none" stroke="grey" stroke-width="2" d="M82.39,-359.7C86.99,-351.64 92.56,-341.89 97.65,-332.98"/>
<polygon fill="grey" stroke="grey" stroke-width="2" points="100.8,-334.52 102.73,-324.1 94.73,-331.05 100.8,-334.52"/>
</g>
<!-- 5&#45;&gt;3 -->
<g id="edge5" class="edge">
<title>5&#45;&gt;3</title>
<path fill="none" stroke="grey" stroke-width="2" d="M102.61,-287.7C98.01,-279.64 92.44,-269.89 87.35,-260.98"/>
<polygon fill="grey" stroke="grey" stroke-width="2" points="90.27,-259.05 82.27,-252.1 84.2,-262.52 90.27,-259.05"/>
</g>
<!-- 6 -->
<g id="node7" class="node">
<title>6</title>
<path fill="none" stroke="#d88d56" stroke-width="2" d="M116.5,-468C116.5,-468 28.5,-468 28.5,-468 22.5,-468 16.5,-462 16.5,-456 16.5,-456 16.5,-444 16.5,-444 16.5,-438 22.5,-432 28.5,-432 28.5,-432 116.5,-432 116.5,-432 122.5,-432 128.5,-438 128.5,-444 128.5,-444 128.5,-456 128.5,-456 128.5,-462 122.5,-468 116.5,-468"/>
<text text-anchor="middle" x="72.5" y="-447.5" font-family="sans" font-size="10.00">split_N_cigar_reads</text>
</g>
<!-- 6&#45;&gt;4 -->
<g id="edge6" class="edge">
<title>6&#45;&gt;4</title>
<path fill="none" stroke="grey" stroke-width="2" d="M72.5,-431.7C72.5,-423.98 72.5,-414.71 72.5,-406.11"/>
<polygon fill="grey" stroke="grey" stroke-width="2" points="76,-406.1 72.5,-396.1 69,-406.1 76,-406.1"/>
</g>
<!-- 7 -->
<g id="node8" class="node">
<title>7</title>
<path fill="none" stroke="#5692d8" stroke-width="2" d="M133,-540C133,-540 12,-540 12,-540 6,-540 0,-534 0,-528 0,-528 0,-516 0,-516 0,-510 6,-504 12,-504 12,-504 133,-504 133,-504 139,-504 145,-510 145,-516 145,-516 145,-528 145,-528 145,-534 139,-540 133,-540"/>
<text text-anchor="middle" x="72.5" y="-519.5" font-family="sans" font-size="10.00">mark_duplicates_and_sort</text>
</g>
<!-- 7&#45;&gt;6 -->
<g id="edge8" class="edge">
<title>7&#45;&gt;6</title>
<path fill="none" stroke="grey" stroke-width="2" d="M72.5,-503.7C72.5,-495.98 72.5,-486.71 72.5,-478.11"/>
<polygon fill="grey" stroke="grey" stroke-width="2" points="76,-478.1 72.5,-468.1 69,-478.1 76,-478.1"/>
</g>
<!-- 8 -->
<g id="node9" class="node">
<title>8</title>
<path fill="none" stroke="#d8cb56" stroke-width="2" d="M105,-612C105,-612 40,-612 40,-612 34,-612 28,-606 28,-600 28,-600 28,-588 28,-588 28,-582 34,-576 40,-576 40,-576 105,-576 105,-576 111,-576 117,-582 117,-588 117,-588 117,-600 117,-600 117,-606 111,-612 105,-612"/>
<text text-anchor="middle" x="72.5" y="-591.5" font-family="sans" font-size="10.00">STAR_mapping</text>
</g>
<!-- 8&#45;&gt;7 -->
<g id="edge9" class="edge">
<title>8&#45;&gt;7</title>
<path fill="none" stroke="grey" stroke-width="2" d="M72.5,-575.7C72.5,-567.98 72.5,-558.71 72.5,-550.11"/>
<polygon fill="grey" stroke="grey" stroke-width="2" points="76,-550.1 72.5,-540.1 69,-550.1 76,-550.1"/>
</g>
</g>
</svg>
