<?xml version="1.0" encoding="UTF-8" standalone="no"?>
<!DOCTYPE svg PUBLIC "-//W3C//DTD SVG 1.1//EN"
 "http://www.w3.org/Graphics/SVG/1.1/DTD/svg11.dtd">
<!-- Generated by graphviz version 2.42.3 (20191010.1750)
 -->
<!-- Title: snakemake_dag Pages: 1 -->
<svg width="276pt" height="548pt"
 viewBox="0.00 0.00 276.00 548.00" xmlns="http://www.w3.org/2000/svg" xmlns:xlink="http://www.w3.org/1999/xlink">
<g id="graph0" class="graph" transform="scale(1 1) rotate(0) translate(4 544)">
<title>snakemake_dag</title>
<polygon fill="white" stroke="transparent" points="-4,4 -4,-544 272,-544 272,4 -4,4"/>
<!-- 0 -->
<g id="node1" class="node">
<title>0</title>
<path fill="none" stroke="#56c9d8" stroke-width="2" d="M74.5,-36C74.5,-36 44.5,-36 44.5,-36 38.5,-36 32.5,-30 32.5,-24 32.5,-24 32.5,-12 32.5,-12 32.5,-6 38.5,0 44.5,0 44.5,0 74.5,0 74.5,0 80.5,0 86.5,-6 86.5,-12 86.5,-12 86.5,-24 86.5,-24 86.5,-30 80.5,-36 74.5,-36"/>
<text text-anchor="middle" x="59.5" y="-15.5" font-family="sans" font-size="10.00">all</text>
</g>
<!-- 1 -->
<g id="node2" class="node">
<title>1</title>
<path fill="none" stroke="#70d856" stroke-width="2" d="M55,-540C55,-540 12,-540 12,-540 6,-540 0,-534 0,-528 0,-528 0,-516 0,-516 0,-510 6,-504 12,-504 12,-504 55,-504 55,-504 61,-504 67,-510 67,-516 67,-516 67,-528 67,-528 67,-534 61,-540 55,-540"/>
<text text-anchor="middle" x="33.5" y="-519.5" font-family="sans" font-size="10.00">trim_fastq</text>
</g>
<!-- 1&#45;&gt;0 -->
<g id="edge4" class="edge">
<title>1&#45;&gt;0</title>
<path fill="none" stroke="grey" stroke-width="2" d="M27.23,-503.78C18.17,-477.32 2.5,-424.92 2.5,-379 2.5,-379 2.5,-379 2.5,-161 2.5,-117.8 25.5,-72.19 42.28,-44.66"/>
<polygon fill="grey" stroke="grey" stroke-width="2" points="45.33,-46.37 47.69,-36.04 39.41,-42.65 45.33,-46.37"/>
</g>
<!-- 2 -->
<g id="node3" class="node">
<title>2</title>
<path fill="none" stroke="#afd856" stroke-width="2" d="M88,-468C88,-468 43,-468 43,-468 37,-468 31,-462 31,-456 31,-456 31,-444 31,-444 31,-438 37,-432 43,-432 43,-432 88,-432 88,-432 94,-432 100,-438 100,-444 100,-444 100,-456 100,-456 100,-462 94,-468 88,-468"/>
<text text-anchor="middle" x="65.5" y="-447.5" font-family="sans" font-size="10.00">filter_fastq</text>
</g>
<!-- 1&#45;&gt;2 -->
<g id="edge5" class="edge">
<title>1&#45;&gt;2</title>
<path fill="none" stroke="grey" stroke-width="2" d="M41.41,-503.7C45.05,-495.73 49.45,-486.1 53.49,-477.26"/>
<polygon fill="grey" stroke="grey" stroke-width="2" points="56.71,-478.65 57.68,-468.1 50.34,-475.74 56.71,-478.65"/>
</g>
<!-- 2&#45;&gt;0 -->
<g id="edge1" class="edge">
<title>2&#45;&gt;0</title>
<path fill="none" stroke="grey" stroke-width="2" d="M60.44,-431.68C53.14,-405.11 40.5,-352.56 40.5,-307 40.5,-307 40.5,-307 40.5,-161 40.5,-120.86 48.05,-74.9 53.63,-46.4"/>
<polygon fill="grey" stroke="grey" stroke-width="2" points="57.11,-46.88 55.66,-36.39 50.24,-45.5 57.11,-46.88"/>
</g>
<!-- 5 -->
<g id="node6" class="node">
<title>5</title>
<path fill="none" stroke="#d8cb56" stroke-width="2" d="M160.5,-396C160.5,-396 80.5,-396 80.5,-396 74.5,-396 68.5,-390 68.5,-384 68.5,-384 68.5,-372 68.5,-372 68.5,-366 74.5,-360 80.5,-360 80.5,-360 160.5,-360 160.5,-360 166.5,-360 172.5,-366 172.5,-372 172.5,-372 172.5,-384 172.5,-384 172.5,-390 166.5,-396 160.5,-396"/>
<text text-anchor="middle" x="120.5" y="-375.5" font-family="sans" font-size="10.00">bismark_mapping</text>
</g>
<!-- 2&#45;&gt;5 -->
<g id="edge8" class="edge">
<title>2&#45;&gt;5</title>
<path fill="none" stroke="grey" stroke-width="2" d="M79.1,-431.7C85.62,-423.39 93.57,-413.28 100.75,-404.14"/>
<polygon fill="grey" stroke="grey" stroke-width="2" points="103.63,-406.13 107.06,-396.1 98.13,-401.81 103.63,-406.13"/>
</g>
<!-- 3 -->
<g id="node4" class="node">
<title>3</title>
<path fill="none" stroke="#d85656" stroke-width="2" d="M145.5,-324C145.5,-324 95.5,-324 95.5,-324 89.5,-324 83.5,-318 83.5,-312 83.5,-312 83.5,-300 83.5,-300 83.5,-294 89.5,-288 95.5,-288 95.5,-288 145.5,-288 145.5,-288 151.5,-288 157.5,-294 157.5,-300 157.5,-300 157.5,-312 157.5,-312 157.5,-318 151.5,-324 145.5,-324"/>
<text text-anchor="middle" x="120.5" y="-303.5" font-family="sans" font-size="10.00">sorted_bam</text>
</g>
<!-- 3&#45;&gt;0 -->
<g id="edge2" class="edge">
<title>3&#45;&gt;0</title>
<path fill="none" stroke="grey" stroke-width="2" d="M111.71,-287.74C106.87,-277.57 101.12,-264.32 97.5,-252 76.21,-179.49 65.88,-90.57 61.76,-46.48"/>
<polygon fill="grey" stroke="grey" stroke-width="2" points="65.22,-45.93 60.84,-36.28 58.25,-46.55 65.22,-45.93"/>
</g>
<!-- 7 -->
<g id="node8" class="node">
<title>7</title>
<path fill="none" stroke="#d88d56" stroke-width="2" d="M256,-252C256,-252 119,-252 119,-252 113,-252 107,-246 107,-240 107,-240 107,-228 107,-228 107,-222 113,-216 119,-216 119,-216 256,-216 256,-216 262,-216 268,-222 268,-228 268,-228 268,-240 268,-240 268,-246 262,-252 256,-252"/>
<text text-anchor="middle" x="187.5" y="-231.5" font-family="sans" font-size="10.00">bismark_methylation_extract</text>
</g>
<!-- 3&#45;&gt;7 -->
<g id="edge10" class="edge">
<title>3&#45;&gt;7</title>
<path fill="none" stroke="grey" stroke-width="2" d="M137.06,-287.7C145.18,-279.22 155.09,-268.86 163.97,-259.58"/>
<polygon fill="grey" stroke="grey" stroke-width="2" points="166.74,-261.75 171.13,-252.1 161.69,-256.91 166.74,-261.75"/>
</g>
<!-- 4 -->
<g id="node5" class="node">
<title>4</title>
<path fill="none" stroke="#5692d8" stroke-width="2" d="M197.5,-108C197.5,-108 131.5,-108 131.5,-108 125.5,-108 119.5,-102 119.5,-96 119.5,-96 119.5,-84 119.5,-84 119.5,-78 125.5,-72 131.5,-72 131.5,-72 197.5,-72 197.5,-72 203.5,-72 209.5,-78 209.5,-84 209.5,-84 209.5,-96 209.5,-96 209.5,-102 203.5,-108 197.5,-108"/>
<text text-anchor="middle" x="164.5" y="-87.5" font-family="sans" font-size="10.00">get_wiggle_file</text>
</g>
<!-- 4&#45;&gt;0 -->
<g id="edge3" class="edge">
<title>4&#45;&gt;0</title>
<path fill="none" stroke="grey" stroke-width="2" d="M138.81,-71.88C125.21,-62.81 108.33,-51.55 93.64,-41.76"/>
<polygon fill="grey" stroke="grey" stroke-width="2" points="95.55,-38.82 85.28,-36.19 91.66,-44.65 95.55,-38.82"/>
</g>
<!-- 5&#45;&gt;3 -->
<g id="edge6" class="edge">
<title>5&#45;&gt;3</title>
<path fill="none" stroke="grey" stroke-width="2" d="M120.5,-359.7C120.5,-351.98 120.5,-342.71 120.5,-334.11"/>
<polygon fill="grey" stroke="grey" stroke-width="2" points="124,-334.1 120.5,-324.1 117,-334.1 124,-334.1"/>
</g>
<!-- 6 -->
<g id="node7" class="node">
<title>6</title>
<path fill="none" stroke="#56d873" stroke-width="2" d="M226.5,-180C226.5,-180 128.5,-180 128.5,-180 122.5,-180 116.5,-174 116.5,-168 116.5,-168 116.5,-156 116.5,-156 116.5,-150 122.5,-144 128.5,-144 128.5,-144 226.5,-144 226.5,-144 232.5,-144 238.5,-150 238.5,-156 238.5,-156 238.5,-168 238.5,-168 238.5,-174 232.5,-180 226.5,-180"/>
<text text-anchor="middle" x="177.5" y="-159.5" font-family="sans" font-size="10.00">merge_two_coverage</text>
</g>
<!-- 6&#45;&gt;4 -->
<g id="edge7" class="edge">
<title>6&#45;&gt;4</title>
<path fill="none" stroke="grey" stroke-width="2" d="M174.29,-143.7C172.85,-135.98 171.13,-126.71 169.54,-118.11"/>
<polygon fill="grey" stroke="grey" stroke-width="2" points="172.94,-117.3 167.68,-108.1 166.06,-118.58 172.94,-117.3"/>
</g>
<!-- 7&#45;&gt;6 -->
<g id="edge9" class="edge">
<title>7&#45;&gt;6</title>
<path fill="none" stroke="grey" stroke-width="2" d="M185.03,-215.7C183.93,-207.98 182.6,-198.71 181.37,-190.11"/>
<polygon fill="grey" stroke="grey" stroke-width="2" points="184.82,-189.51 179.94,-180.1 177.89,-190.5 184.82,-189.51"/>
</g>
</g>
</svg>
