<?xml version="1.0" encoding="UTF-8" standalone="no"?>
<!DOCTYPE svg PUBLIC "-//W3C//DTD SVG 1.1//EN"
 "http://www.w3.org/Graphics/SVG/1.1/DTD/svg11.dtd">
<!-- Generated by graphviz version 2.42.3 (20191010.1750)
 -->
<!-- Title: snakemake_dag Pages: 1 -->
<svg width="99pt" height="332pt"
 viewBox="0.00 0.00 99.00 332.00" xmlns="http://www.w3.org/2000/svg" xmlns:xlink="http://www.w3.org/1999/xlink">
<g id="graph0" class="graph" transform="scale(1 1) rotate(0) translate(4 328)">
<title>snakemake_dag</title>
<polygon fill="white" stroke="transparent" points="-4,4 -4,-328 95,-328 95,4 -4,4"/>
<!-- 0 -->
<g id="node1" class="node">
<title>0</title>
<path fill="none" stroke="#56d88a" stroke-width="2" d="M60.5,-36C60.5,-36 30.5,-36 30.5,-36 24.5,-36 18.5,-30 18.5,-24 18.5,-24 18.5,-12 18.5,-12 18.5,-6 24.5,0 30.5,0 30.5,0 60.5,0 60.5,0 66.5,0 72.5,-6 72.5,-12 72.5,-12 72.5,-24 72.5,-24 72.5,-30 66.5,-36 60.5,-36"/>
<text text-anchor="middle" x="45.5" y="-15.5" font-family="sans" font-size="10.00">all</text>
</g>
<!-- 1 -->
<g id="node2" class="node">
<title>1</title>
<path fill="none" stroke="#56c1d8" stroke-width="2" d="M64,-108C64,-108 27,-108 27,-108 21,-108 15,-102 15,-96 15,-96 15,-84 15,-84 15,-78 21,-72 27,-72 27,-72 64,-72 64,-72 70,-72 76,-78 76,-84 76,-84 76,-96 76,-96 76,-102 70,-108 64,-108"/>
<text text-anchor="middle" x="45.5" y="-87.5" font-family="sans" font-size="10.00">DeepCAT</text>
</g>
<!-- 1&#45;&gt;0 -->
<g id="edge1" class="edge">
<title>1&#45;&gt;0</title>
<path fill="none" stroke="grey" stroke-width="2" d="M45.5,-71.7C45.5,-63.98 45.5,-54.71 45.5,-46.11"/>
<polygon fill="grey" stroke="grey" stroke-width="2" points="49,-46.1 45.5,-36.1 42,-46.1 49,-46.1"/>
</g>
<!-- 2 -->
<g id="node3" class="node">
<title>2</title>
<path fill="none" stroke="#88d856" stroke-width="2" d="M79,-180C79,-180 12,-180 12,-180 6,-180 0,-174 0,-168 0,-168 0,-156 0,-156 0,-150 6,-144 12,-144 12,-144 79,-144 79,-144 85,-144 91,-150 91,-156 91,-156 91,-168 91,-168 91,-174 85,-180 79,-180"/>
<text text-anchor="middle" x="45.5" y="-159.5" font-family="sans" font-size="10.00">iSMART_cluster</text>
</g>
<!-- 2&#45;&gt;1 -->
<g id="edge2" class="edge">
<title>2&#45;&gt;1</title>
<path fill="none" stroke="grey" stroke-width="2" d="M45.5,-143.7C45.5,-135.98 45.5,-126.71 45.5,-118.11"/>
<polygon fill="grey" stroke="grey" stroke-width="2" points="49,-118.1 45.5,-108.1 42,-118.1 49,-118.1"/>
</g>
<!-- 3 -->
<g id="node4" class="node">
<title>3</title>
<path fill="none" stroke="#d8bc56" stroke-width="2" d="M60.5,-252C60.5,-252 30.5,-252 30.5,-252 24.5,-252 18.5,-246 18.5,-240 18.5,-240 18.5,-228 18.5,-228 18.5,-222 24.5,-216 30.5,-216 30.5,-216 60.5,-216 60.5,-216 66.5,-216 72.5,-222 72.5,-228 72.5,-228 72.5,-240 72.5,-240 72.5,-246 66.5,-252 60.5,-252"/>
<text text-anchor="middle" x="45.5" y="-231.5" font-family="sans" font-size="10.00">filter</text>
</g>
<!-- 3&#45;&gt;2 -->
<g id="edge3" class="edge">
<title>3&#45;&gt;2</title>
<path fill="none" stroke="grey" stroke-width="2" d="M45.5,-215.7C45.5,-207.98 45.5,-198.71 45.5,-190.11"/>
<polygon fill="grey" stroke="grey" stroke-width="2" points="49,-190.1 45.5,-180.1 42,-190.1 49,-190.1"/>
</g>
<!-- 4 -->
<g id="node5" class="node">
<title>4</title>
<path fill="none" stroke="#d85656" stroke-width="2" d="M61,-324C61,-324 30,-324 30,-324 24,-324 18,-318 18,-312 18,-312 18,-300 18,-300 18,-294 24,-288 30,-288 30,-288 61,-288 61,-288 67,-288 73,-294 73,-300 73,-300 73,-312 73,-312 73,-318 67,-324 61,-324"/>
<text text-anchor="middle" x="45.5" y="-303.5" font-family="sans" font-size="10.00">TRUST4</text>
</g>
<!-- 4&#45;&gt;3 -->
<g id="edge4" class="edge">
<title>4&#45;&gt;3</title>
<path fill="none" stroke="grey" stroke-width="2" d="M45.5,-287.7C45.5,-279.98 45.5,-270.71 45.5,-262.11"/>
<polygon fill="grey" stroke="grey" stroke-width="2" points="49,-262.1 45.5,-252.1 42,-262.1 49,-262.1"/>
</g>
</g>
</svg>
