<?xml version="1.0" encoding="UTF-8" standalone="no"?>
<!DOCTYPE svg PUBLIC "-//W3C//DTD SVG 1.1//EN"
 "http://www.w3.org/Graphics/SVG/1.1/DTD/svg11.dtd">
<!-- Generated by graphviz version 2.42.3 (20191010.1750)
 -->
<!-- Title: snakemake_dag Pages: 1 -->
<svg width="343pt" height="260pt"
 viewBox="0.00 0.00 342.50 260.00" xmlns="http://www.w3.org/2000/svg" xmlns:xlink="http://www.w3.org/1999/xlink">
<g id="graph0" class="graph" transform="scale(1 1) rotate(0) translate(4 256)">
<title>snakemake_dag</title>
<polygon fill="white" stroke="transparent" points="-4,4 -4,-256 338.5,-256 338.5,4 -4,4"/>
<!-- 0 -->
<g id="node1" class="node">
<title>0</title>
<path fill="none" stroke="#56d8c9" stroke-width="2" d="M79,-36C79,-36 49,-36 49,-36 43,-36 37,-30 37,-24 37,-24 37,-12 37,-12 37,-6 43,0 49,0 49,0 79,0 79,0 85,0 91,-6 91,-12 91,-12 91,-24 91,-24 91,-30 85,-36 79,-36"/>
<text text-anchor="middle" x="64" y="-15.5" font-family="sans" font-size="10.00">all</text>
</g>
<!-- 1 -->
<g id="node2" class="node">
<title>1</title>
<path fill="none" stroke="#56a2d8" stroke-width="2" d="M52,-180C52,-180 12,-180 12,-180 6,-180 0,-174 0,-168 0,-168 0,-156 0,-156 0,-150 6,-144 12,-144 12,-144 52,-144 52,-144 58,-144 64,-150 64,-156 64,-156 64,-168 64,-168 64,-174 58,-180 52,-180"/>
<text text-anchor="middle" x="32" y="-159.5" font-family="sans" font-size="10.00">fastqc_pe</text>
</g>
<!-- 1&#45;&gt;0 -->
<g id="edge2" class="edge">
<title>1&#45;&gt;0</title>
<path fill="none" stroke="grey" stroke-width="2" d="M24.63,-143.76C17.89,-125.44 10.23,-95.89 19,-72 22.78,-61.7 29.56,-52.02 36.72,-43.84"/>
<polygon fill="grey" stroke="grey" stroke-width="2" points="39.34,-46.16 43.62,-36.47 34.23,-41.38 39.34,-46.16"/>
</g>
<!-- 2 -->
<g id="node3" class="node">
<title>2</title>
<path fill="none" stroke="#d8a456" stroke-width="2" d="M87.5,-108C87.5,-108 40.5,-108 40.5,-108 34.5,-108 28.5,-102 28.5,-96 28.5,-96 28.5,-84 28.5,-84 28.5,-78 34.5,-72 40.5,-72 40.5,-72 87.5,-72 87.5,-72 93.5,-72 99.5,-78 99.5,-84 99.5,-84 99.5,-96 99.5,-96 99.5,-102 93.5,-108 87.5,-108"/>
<text text-anchor="middle" x="64" y="-87.5" font-family="sans" font-size="10.00">multiqc_pe</text>
</g>
<!-- 1&#45;&gt;2 -->
<g id="edge4" class="edge">
<title>1&#45;&gt;2</title>
<path fill="none" stroke="grey" stroke-width="2" d="M39.91,-143.7C43.55,-135.73 47.95,-126.1 51.99,-117.26"/>
<polygon fill="grey" stroke="grey" stroke-width="2" points="55.21,-118.65 56.18,-108.1 48.84,-115.74 55.21,-118.65"/>
</g>
<!-- 2&#45;&gt;0 -->
<g id="edge3" class="edge">
<title>2&#45;&gt;0</title>
<path fill="none" stroke="grey" stroke-width="2" d="M64,-71.7C64,-63.98 64,-54.71 64,-46.11"/>
<polygon fill="grey" stroke="grey" stroke-width="2" points="67.5,-46.1 64,-36.1 60.5,-46.1 67.5,-46.1"/>
</g>
<!-- 3 -->
<g id="node4" class="node">
<title>3</title>
<path fill="none" stroke="#c6d856" stroke-width="2" d="M322.5,-108C322.5,-108 129.5,-108 129.5,-108 123.5,-108 117.5,-102 117.5,-96 117.5,-96 117.5,-84 117.5,-84 117.5,-78 123.5,-72 129.5,-72 129.5,-72 322.5,-72 322.5,-72 328.5,-72 334.5,-78 334.5,-84 334.5,-84 334.5,-96 334.5,-96 334.5,-102 328.5,-108 322.5,-108"/>
<text text-anchor="middle" x="226" y="-87.5" font-family="sans" font-size="10.00">merge_cpg_position_and_get_wiggle_file</text>
</g>
<!-- 3&#45;&gt;0 -->
<g id="edge1" class="edge">
<title>3&#45;&gt;0</title>
<path fill="none" stroke="grey" stroke-width="2" d="M186.37,-71.88C160.12,-60.53 125.95,-45.77 100.4,-34.73"/>
<polygon fill="grey" stroke="grey" stroke-width="2" points="101.62,-31.44 91.06,-30.69 98.85,-37.87 101.62,-31.44"/>
</g>
<!-- 4 -->
<g id="node5" class="node">
<title>4</title>
<path fill="none" stroke="#d85656" stroke-width="2" d="M294.5,-180C294.5,-180 157.5,-180 157.5,-180 151.5,-180 145.5,-174 145.5,-168 145.5,-168 145.5,-156 145.5,-156 145.5,-150 151.5,-144 157.5,-144 157.5,-144 294.5,-144 294.5,-144 300.5,-144 306.5,-150 306.5,-156 306.5,-156 306.5,-168 306.5,-168 306.5,-174 300.5,-180 294.5,-180"/>
<text text-anchor="middle" x="226" y="-159.5" font-family="sans" font-size="10.00">bismark_methylation_extract</text>
</g>
<!-- 4&#45;&gt;3 -->
<g id="edge5" class="edge">
<title>4&#45;&gt;3</title>
<path fill="none" stroke="grey" stroke-width="2" d="M226,-143.7C226,-135.98 226,-126.71 226,-118.11"/>
<polygon fill="grey" stroke="grey" stroke-width="2" points="229.5,-118.1 226,-108.1 222.5,-118.1 229.5,-118.1"/>
</g>
<!-- 5 -->
<g id="node6" class="node">
<title>5</title>
<path fill="none" stroke="#78d856" stroke-width="2" d="M266,-252C266,-252 186,-252 186,-252 180,-252 174,-246 174,-240 174,-240 174,-228 174,-228 174,-222 180,-216 186,-216 186,-216 266,-216 266,-216 272,-216 278,-222 278,-228 278,-228 278,-240 278,-240 278,-246 272,-252 266,-252"/>
<text text-anchor="middle" x="226" y="-231.5" font-family="sans" font-size="10.00">bismark_mapping</text>
</g>
<!-- 5&#45;&gt;4 -->
<g id="edge6" class="edge">
<title>5&#45;&gt;4</title>
<path fill="none" stroke="grey" stroke-width="2" d="M226,-215.7C226,-207.98 226,-198.71 226,-190.11"/>
<polygon fill="grey" stroke="grey" stroke-width="2" points="229.5,-190.1 226,-180.1 222.5,-190.1 229.5,-190.1"/>
</g>
</g>
</svg>
