<?xml version="1.0" encoding="UTF-8" standalone="no"?>
<!DOCTYPE svg PUBLIC "-//W3C//DTD SVG 1.1//EN"
 "http://www.w3.org/Graphics/SVG/1.1/DTD/svg11.dtd">
<!-- Generated by graphviz version 2.42.3 (20191010.1750)
 -->
<!-- Title: snakemake_dag Pages: 1 -->
<svg width="1498pt" height="980pt"
 viewBox="0.00 0.00 1497.50 980.00" xmlns="http://www.w3.org/2000/svg" xmlns:xlink="http://www.w3.org/1999/xlink">
<g id="graph0" class="graph" transform="scale(1 1) rotate(0) translate(4 976)">
<title>snakemake_dag</title>
<polygon fill="white" stroke="transparent" points="-4,4 -4,-976 1493.5,-976 1493.5,4 -4,4"/>
<!-- 0 -->
<g id="node1" class="node">
<title>0</title>
<path fill="none" stroke="#d8c356" stroke-width="2" d="M779,-36C779,-36 749,-36 749,-36 743,-36 737,-30 737,-24 737,-24 737,-12 737,-12 737,-6 743,0 749,0 749,0 779,0 779,0 785,0 791,-6 791,-12 791,-12 791,-24 791,-24 791,-30 785,-36 779,-36"/>
<text text-anchor="middle" x="764" y="-15.5" font-family="sans" font-size="10.00">all</text>
</g>
<!-- 1 -->
<g id="node2" class="node">
<title>1</title>
<path fill="none" stroke="#56c9d8" stroke-width="2" d="M1132.5,-972C1132.5,-972 1055.5,-972 1055.5,-972 1049.5,-972 1043.5,-966 1043.5,-960 1043.5,-960 1043.5,-948 1043.5,-948 1043.5,-942 1049.5,-936 1055.5,-936 1055.5,-936 1132.5,-936 1132.5,-936 1138.5,-936 1144.5,-942 1144.5,-948 1144.5,-948 1144.5,-960 1144.5,-960 1144.5,-966 1138.5,-972 1132.5,-972"/>
<text text-anchor="middle" x="1094" y="-951.5" font-family="sans" font-size="10.00">rename_fastq_pe</text>
</g>
<!-- 1&#45;&gt;0 -->
<g id="edge18" class="edge">
<title>1&#45;&gt;0</title>
<path fill="none" stroke="grey" stroke-width="2" d="M1043.43,-951.83C828.27,-946.21 0,-917.65 0,-811 0,-811 0,-811 0,-161 0,-116.68 8.12,-96.59 45,-72 101.96,-34.02 586.78,-22.24 726.47,-19.63"/>
<polygon fill="grey" stroke="grey" stroke-width="2" points="726.74,-23.12 736.68,-19.44 726.61,-16.12 726.74,-23.12"/>
</g>
<!-- 2 -->
<g id="node3" class="node">
<title>2</title>
<path fill="none" stroke="#78d856" stroke-width="2" d="M879,-900C879,-900 817,-900 817,-900 811,-900 805,-894 805,-888 805,-888 805,-876 805,-876 805,-870 811,-864 817,-864 817,-864 879,-864 879,-864 885,-864 891,-870 891,-876 891,-876 891,-888 891,-888 891,-894 885,-900 879,-900"/>
<text text-anchor="middle" x="848" y="-879.5" font-family="sans" font-size="10.00">map_rRNA_pe</text>
</g>
<!-- 1&#45;&gt;2 -->
<g id="edge22" class="edge">
<title>1&#45;&gt;2</title>
<path fill="none" stroke="grey" stroke-width="2" d="M1043.33,-938.58C1001.79,-926.76 943.18,-910.08 901.02,-898.09"/>
<polygon fill="grey" stroke="grey" stroke-width="2" points="901.79,-894.67 891.21,-895.3 899.87,-901.4 901.79,-894.67"/>
</g>
<!-- 7 -->
<g id="node8" class="node">
<title>7</title>
<path fill="none" stroke="#d85656" stroke-width="2" d="M1375.5,-828C1375.5,-828 1256.5,-828 1256.5,-828 1250.5,-828 1244.5,-822 1244.5,-816 1244.5,-816 1244.5,-804 1244.5,-804 1244.5,-798 1250.5,-792 1256.5,-792 1256.5,-792 1375.5,-792 1375.5,-792 1381.5,-792 1387.5,-798 1387.5,-804 1387.5,-804 1387.5,-816 1387.5,-816 1387.5,-822 1381.5,-828 1375.5,-828"/>
<text text-anchor="middle" x="1316" y="-807.5" font-family="sans" font-size="10.00">count_clean_reads_paired</text>
</g>
<!-- 1&#45;&gt;7 -->
<g id="edge32" class="edge">
<title>1&#45;&gt;7</title>
<path fill="none" stroke="grey" stroke-width="2" d="M1120.78,-935.87C1160.78,-910.28 1236.19,-862.05 1280.66,-833.6"/>
<polygon fill="grey" stroke="grey" stroke-width="2" points="1282.59,-836.53 1289.13,-828.19 1278.82,-830.63 1282.59,-836.53"/>
</g>
<!-- 8 -->
<g id="node9" class="node">
<title>8</title>
<path fill="none" stroke="#56a9d8" stroke-width="2" d="M1477.5,-756C1477.5,-756 1370.5,-756 1370.5,-756 1364.5,-756 1358.5,-750 1358.5,-744 1358.5,-744 1358.5,-732 1358.5,-732 1358.5,-726 1364.5,-720 1370.5,-720 1370.5,-720 1477.5,-720 1477.5,-720 1483.5,-720 1489.5,-726 1489.5,-732 1489.5,-732 1489.5,-744 1489.5,-744 1489.5,-750 1483.5,-756 1477.5,-756"/>
<text text-anchor="middle" x="1424" y="-735.5" font-family="sans" font-size="10.00">count_clean_fragments</text>
</g>
<!-- 1&#45;&gt;8 -->
<g id="edge33" class="edge">
<title>1&#45;&gt;8</title>
<path fill="none" stroke="grey" stroke-width="2" d="M1144.57,-945.53C1211.43,-933.02 1328.64,-901.54 1396,-828 1411.51,-811.07 1418.43,-785.6 1421.51,-766.24"/>
<polygon fill="grey" stroke="grey" stroke-width="2" points="1425,-766.58 1422.86,-756.21 1418.06,-765.65 1425,-766.58"/>
</g>
<!-- 2&#45;&gt;0 -->
<g id="edge13" class="edge">
<title>2&#45;&gt;0</title>
<path fill="none" stroke="grey" stroke-width="2" d="M804.73,-880.01C712.34,-877.18 489.35,-866.6 307,-828 183.8,-801.92 38,-864.93 38,-739 38,-739 38,-739 38,-161 38,-116.06 48.34,-96.52 86,-72 139.83,-36.96 592.03,-23.19 726.46,-19.85"/>
<polygon fill="grey" stroke="grey" stroke-width="2" points="726.75,-23.35 736.67,-19.61 726.58,-16.35 726.75,-23.35"/>
</g>
<!-- 3 -->
<g id="node4" class="node">
<title>3</title>
<path fill="none" stroke="#56d8d8" stroke-width="2" d="M776.5,-828C776.5,-828 677.5,-828 677.5,-828 671.5,-828 665.5,-822 665.5,-816 665.5,-816 665.5,-804 665.5,-804 665.5,-798 671.5,-792 677.5,-792 677.5,-792 776.5,-792 776.5,-792 782.5,-792 788.5,-798 788.5,-804 788.5,-804 788.5,-816 788.5,-816 788.5,-822 782.5,-828 776.5,-828"/>
<text text-anchor="middle" x="727" y="-807.5" font-family="sans" font-size="10.00">map_genome_pe_1_2</text>
</g>
<!-- 2&#45;&gt;3 -->
<g id="edge23" class="edge">
<title>2&#45;&gt;3</title>
<path fill="none" stroke="grey" stroke-width="2" d="M818.4,-863.88C802.43,-854.64 782.54,-843.13 765.39,-833.21"/>
<polygon fill="grey" stroke="grey" stroke-width="2" points="767.12,-830.17 756.71,-828.19 763.62,-836.23 767.12,-830.17"/>
</g>
<!-- 5 -->
<g id="node6" class="node">
<title>5</title>
<path fill="none" stroke="#d8ac56" stroke-width="2" d="M776,-612C776,-612 690,-612 690,-612 684,-612 678,-606 678,-600 678,-600 678,-588 678,-588 678,-582 684,-576 690,-576 690,-576 776,-576 776,-576 782,-576 788,-582 788,-588 788,-588 788,-600 788,-600 788,-606 782,-612 776,-612"/>
<text text-anchor="middle" x="733" y="-591.5" font-family="sans" font-size="10.00">remove_duplicates</text>
</g>
<!-- 2&#45;&gt;5 -->
<g id="edge27" class="edge">
<title>2&#45;&gt;5</title>
<path fill="none" stroke="grey" stroke-width="2" d="M841.15,-863.97C821.9,-816.09 767.2,-680.06 743.82,-621.9"/>
<polygon fill="grey" stroke="grey" stroke-width="2" points="746.94,-620.28 739.96,-612.31 740.44,-622.89 746.94,-620.28"/>
</g>
<!-- 6 -->
<g id="node7" class="node">
<title>6</title>
<path fill="none" stroke="#a7d856" stroke-width="2" d="M898.5,-540C898.5,-540 809.5,-540 809.5,-540 803.5,-540 797.5,-534 797.5,-528 797.5,-528 797.5,-516 797.5,-516 797.5,-510 803.5,-504 809.5,-504 809.5,-504 898.5,-504 898.5,-504 904.5,-504 910.5,-510 910.5,-516 910.5,-516 910.5,-528 910.5,-528 910.5,-534 904.5,-540 898.5,-540"/>
<text text-anchor="middle" x="854" y="-519.5" font-family="sans" font-size="10.00">sort_bam_by_name</text>
</g>
<!-- 2&#45;&gt;6 -->
<g id="edge31" class="edge">
<title>2&#45;&gt;6</title>
<path fill="none" stroke="grey" stroke-width="2" d="M848.29,-863.73C849.25,-806.19 852.36,-620.66 853.54,-550.35"/>
<polygon fill="grey" stroke="grey" stroke-width="2" points="857.05,-550.15 853.71,-540.09 850.05,-550.03 857.05,-550.15"/>
</g>
<!-- 9 -->
<g id="node10" class="node">
<title>9</title>
<path fill="none" stroke="#d8bc56" stroke-width="2" d="M1007.5,-540C1007.5,-540 940.5,-540 940.5,-540 934.5,-540 928.5,-534 928.5,-528 928.5,-528 928.5,-516 928.5,-516 928.5,-510 934.5,-504 940.5,-504 940.5,-504 1007.5,-504 1007.5,-504 1013.5,-504 1019.5,-510 1019.5,-516 1019.5,-516 1019.5,-528 1019.5,-528 1019.5,-534 1013.5,-540 1007.5,-540"/>
<text text-anchor="middle" x="974" y="-519.5" font-family="sans" font-size="10.00">samtools_stats</text>
</g>
<!-- 2&#45;&gt;9 -->
<g id="edge37" class="edge">
<title>2&#45;&gt;9</title>
<path fill="none" stroke="grey" stroke-width="2" d="M891.16,-866.02C974.61,-834.39 1156.03,-751.94 1226,-612 1233.16,-597.69 1236.25,-588.29 1226,-576 1199.17,-543.82 1086.57,-549.71 1029.48,-539.61"/>
<polygon fill="grey" stroke="grey" stroke-width="2" points="1030.01,-536.14 1019.5,-537.52 1028.57,-542.99 1030.01,-536.14"/>
</g>
<!-- 13 -->
<g id="node14" class="node">
<title>13</title>
<path fill="none" stroke="#afd856" stroke-width="2" d="M1205.5,-612C1205.5,-612 1086.5,-612 1086.5,-612 1080.5,-612 1074.5,-606 1074.5,-600 1074.5,-600 1074.5,-588 1074.5,-588 1074.5,-582 1080.5,-576 1086.5,-576 1086.5,-576 1205.5,-576 1205.5,-576 1211.5,-576 1217.5,-582 1217.5,-588 1217.5,-588 1217.5,-600 1217.5,-600 1217.5,-606 1211.5,-612 1205.5,-612"/>
<text text-anchor="middle" x="1146" y="-591.5" font-family="sans" font-size="10.00">summarize_mapping_star</text>
</g>
<!-- 2&#45;&gt;13 -->
<g id="edge43" class="edge">
<title>2&#45;&gt;13</title>
<path fill="none" stroke="grey" stroke-width="2" d="M880.91,-863.86C920.3,-842.29 986.86,-802.39 1034,-756 1076.37,-714.31 1113.04,-654.6 1132.08,-620.84"/>
<polygon fill="grey" stroke="grey" stroke-width="2" points="1135.17,-622.49 1136.97,-612.05 1129.05,-619.08 1135.17,-622.49"/>
</g>
<!-- 15 -->
<g id="node16" class="node">
<title>15</title>
<path fill="none" stroke="#bed856" stroke-width="2" d="M499.5,-324C499.5,-324 420.5,-324 420.5,-324 414.5,-324 408.5,-318 408.5,-312 408.5,-312 408.5,-300 408.5,-300 408.5,-294 414.5,-288 420.5,-288 420.5,-288 499.5,-288 499.5,-288 505.5,-288 511.5,-294 511.5,-300 511.5,-300 511.5,-312 511.5,-312 511.5,-318 505.5,-324 499.5,-324"/>
<text text-anchor="middle" x="460" y="-303.5" font-family="sans" font-size="10.00">normalize_bigwig</text>
</g>
<!-- 2&#45;&gt;15 -->
<g id="edge47" class="edge">
<title>2&#45;&gt;15</title>
<path fill="none" stroke="grey" stroke-width="2" d="M804.94,-878.04C683.66,-868.52 348,-833.64 348,-739 348,-739 348,-739 348,-665 348,-647.78 424.45,-414.65 451.03,-334.13"/>
<polygon fill="grey" stroke="grey" stroke-width="2" points="454.48,-334.83 454.29,-324.24 447.83,-332.63 454.48,-334.83"/>
</g>
<!-- 16 -->
<g id="node17" class="node">
<title>16</title>
<path fill="none" stroke="#97d856" stroke-width="2" d="M362,-540C362,-540 274,-540 274,-540 268,-540 262,-534 262,-528 262,-528 262,-516 262,-516 262,-510 268,-504 274,-504 274,-504 362,-504 362,-504 368,-504 374,-510 374,-516 374,-516 374,-528 374,-528 374,-534 368,-540 362,-540"/>
<text text-anchor="middle" x="318" y="-519.5" font-family="sans" font-size="10.00">sort_bam_by_coord</text>
</g>
<!-- 2&#45;&gt;16 -->
<g id="edge53" class="edge">
<title>2&#45;&gt;16</title>
<path fill="none" stroke="grey" stroke-width="2" d="M804.74,-879.32C687.41,-874.36 369.57,-858.27 334,-828 302.8,-801.45 310,-779.97 310,-739 310,-739 310,-739 310,-665 310,-624.93 313.21,-578.61 315.57,-550.05"/>
<polygon fill="grey" stroke="grey" stroke-width="2" points="319.06,-550.29 316.42,-540.03 312.09,-549.7 319.06,-550.29"/>
</g>
<!-- 22 -->
<g id="node23" class="node">
<title>22</title>
<path fill="none" stroke="#56d86b" stroke-width="2" d="M1013.5,-756C1013.5,-756 914.5,-756 914.5,-756 908.5,-756 902.5,-750 902.5,-744 902.5,-744 902.5,-732 902.5,-732 902.5,-726 908.5,-720 914.5,-720 914.5,-720 1013.5,-720 1013.5,-720 1019.5,-720 1025.5,-726 1025.5,-732 1025.5,-732 1025.5,-744 1025.5,-744 1025.5,-750 1019.5,-756 1013.5,-756"/>
<text text-anchor="middle" x="964" y="-735.5" font-family="sans" font-size="10.00">map_genome_pe_2_2</text>
</g>
<!-- 2&#45;&gt;22 -->
<g id="edge60" class="edge">
<title>2&#45;&gt;22</title>
<path fill="none" stroke="grey" stroke-width="2" d="M861.99,-863.87C882.28,-839.03 920.01,-792.85 943.46,-764.14"/>
<polygon fill="grey" stroke="grey" stroke-width="2" points="946.34,-766.15 949.96,-756.19 940.92,-761.72 946.34,-766.15"/>
</g>
<!-- 3&#45;&gt;0 -->
<g id="edge17" class="edge">
<title>3&#45;&gt;0</title>
<path fill="none" stroke="grey" stroke-width="2" d="M665.46,-809.3C600.47,-807.22 496.72,-796.92 418,-756 217.27,-651.66 76,-605.23 76,-379 76,-379 76,-379 76,-161 76,-113.79 93.47,-96.22 134,-72 184.92,-41.57 599.07,-24.74 726.7,-20.24"/>
<polygon fill="grey" stroke="grey" stroke-width="2" points="726.9,-23.74 736.77,-19.89 726.65,-16.74 726.9,-23.74"/>
</g>
<!-- 3&#45;&gt;5 -->
<g id="edge26" class="edge">
<title>3&#45;&gt;5</title>
<path fill="none" stroke="grey" stroke-width="2" d="M727.48,-791.85C728.52,-754.83 730.98,-667.18 732.23,-622.39"/>
<polygon fill="grey" stroke="grey" stroke-width="2" points="735.74,-622.33 732.52,-612.23 728.74,-622.13 735.74,-622.33"/>
</g>
<!-- 3&#45;&gt;6 -->
<g id="edge30" class="edge">
<title>3&#45;&gt;6</title>
<path fill="none" stroke="grey" stroke-width="2" d="M734.56,-791.97C755.87,-743.99 816.48,-607.5 842.21,-549.54"/>
<polygon fill="grey" stroke="grey" stroke-width="2" points="845.46,-550.87 846.31,-540.31 839.06,-548.03 845.46,-550.87"/>
</g>
<!-- 3&#45;&gt;9 -->
<g id="edge36" class="edge">
<title>3&#45;&gt;9</title>
<path fill="none" stroke="grey" stroke-width="2" d="M741.93,-791.83C750.94,-781.46 762.64,-767.98 773,-756 838.52,-680.28 915.84,-590.55 952.56,-547.9"/>
<polygon fill="grey" stroke="grey" stroke-width="2" points="955.27,-550.12 959.14,-540.26 949.96,-545.55 955.27,-550.12"/>
</g>
<!-- 3&#45;&gt;15 -->
<g id="edge48" class="edge">
<title>3&#45;&gt;15</title>
<path fill="none" stroke="grey" stroke-width="2" d="M665.2,-802.93C586.9,-791.44 462,-758.73 462,-667 462,-667 462,-667 462,-449 462,-408.99 461.2,-362.65 460.61,-334.08"/>
<polygon fill="grey" stroke="grey" stroke-width="2" points="464.11,-333.97 460.4,-324.05 457.11,-334.12 464.11,-333.97"/>
</g>
<!-- 3&#45;&gt;16 -->
<g id="edge52" class="edge">
<title>3&#45;&gt;16</title>
<path fill="none" stroke="grey" stroke-width="2" d="M665.45,-803.95C593.76,-796.95 480.94,-782.11 448,-756 406.83,-723.38 425.16,-694.11 400,-648 380.52,-612.29 354.15,-573.44 336.63,-548.69"/>
<polygon fill="grey" stroke="grey" stroke-width="2" points="339.26,-546.35 330.61,-540.24 333.57,-550.42 339.26,-546.35"/>
</g>
<!-- 3&#45;&gt;22 -->
<g id="edge59" class="edge">
<title>3&#45;&gt;22</title>
<path fill="none" stroke="grey" stroke-width="2" d="M784.67,-791.97C818.36,-782.01 861.05,-769.41 896.33,-758.99"/>
<polygon fill="grey" stroke="grey" stroke-width="2" points="897.47,-762.3 906.07,-756.11 895.49,-755.59 897.47,-762.3"/>
</g>
<!-- 4 -->
<g id="node5" class="node">
<title>4</title>
<path fill="none" stroke="#56d85b" stroke-width="2" d="M1007.5,-684C1007.5,-684 932.5,-684 932.5,-684 926.5,-684 920.5,-678 920.5,-672 920.5,-672 920.5,-660 920.5,-660 920.5,-654 926.5,-648 932.5,-648 932.5,-648 1007.5,-648 1007.5,-648 1013.5,-648 1019.5,-654 1019.5,-660 1019.5,-660 1019.5,-672 1019.5,-672 1019.5,-678 1013.5,-684 1007.5,-684"/>
<text text-anchor="middle" x="970" y="-663.5" font-family="sans" font-size="10.00">map_circRNA_pe</text>
</g>
<!-- 4&#45;&gt;0 -->
<g id="edge14" class="edge">
<title>4&#45;&gt;0</title>
<path fill="none" stroke="grey" stroke-width="2" d="M990.78,-647.82C1002.79,-637.68 1018.04,-624.43 1031,-612 1046.88,-596.76 1045.81,-586.77 1065,-576 1132.35,-538.21 1180.34,-594.57 1235,-540 1263.62,-511.42 1254,-491.45 1254,-451 1254,-451 1254,-451 1254,-161 1254,-117.99 1250.45,-97.75 1216,-72 1150.74,-23.21 897.2,-18.63 801.16,-18.7"/>
<polygon fill="grey" stroke="grey" stroke-width="2" points="801.03,-15.2 791.04,-18.72 801.05,-22.2 801.03,-15.2"/>
</g>
<!-- 4&#45;&gt;5 -->
<g id="edge25" class="edge">
<title>4&#45;&gt;5</title>
<path fill="none" stroke="grey" stroke-width="2" d="M920.32,-650.33C884.78,-639.83 836.61,-625.6 798.01,-614.2"/>
<polygon fill="grey" stroke="grey" stroke-width="2" points="799,-610.85 788.42,-611.37 797.02,-617.56 799,-610.85"/>
</g>
<!-- 4&#45;&gt;6 -->
<g id="edge29" class="edge">
<title>4&#45;&gt;6</title>
<path fill="none" stroke="grey" stroke-width="2" d="M956.01,-647.87C935.72,-623.03 897.99,-576.85 874.54,-548.14"/>
<polygon fill="grey" stroke="grey" stroke-width="2" points="877.08,-545.72 868.04,-540.19 871.66,-550.15 877.08,-545.72"/>
</g>
<!-- 4&#45;&gt;9 -->
<g id="edge35" class="edge">
<title>4&#45;&gt;9</title>
<path fill="none" stroke="grey" stroke-width="2" d="M970.48,-647.87C971.16,-623.67 972.42,-579.21 973.23,-550.39"/>
<polygon fill="grey" stroke="grey" stroke-width="2" points="976.73,-550.28 973.52,-540.19 969.74,-550.09 976.73,-550.28"/>
</g>
<!-- 4&#45;&gt;13 -->
<g id="edge41" class="edge">
<title>4&#45;&gt;13</title>
<path fill="none" stroke="grey" stroke-width="2" d="M1013.05,-647.88C1037.33,-638.22 1067.84,-626.09 1093.51,-615.88"/>
<polygon fill="grey" stroke="grey" stroke-width="2" points="1095.09,-619.02 1103.09,-612.07 1092.5,-612.51 1095.09,-619.02"/>
</g>
<!-- 4&#45;&gt;15 -->
<g id="edge49" class="edge">
<title>4&#45;&gt;15</title>
<path fill="none" stroke="grey" stroke-width="2" d="M920.15,-660.61C799.19,-648.59 500,-610.05 500,-523 500,-523 500,-523 500,-449 500,-407.48 483.96,-361.61 472.2,-333.54"/>
<polygon fill="grey" stroke="grey" stroke-width="2" points="475.27,-331.84 468.09,-324.05 468.85,-334.62 475.27,-331.84"/>
</g>
<!-- 4&#45;&gt;16 -->
<g id="edge51" class="edge">
<title>4&#45;&gt;16</title>
<path fill="none" stroke="grey" stroke-width="2" d="M920.34,-665.65C831.26,-665.5 639.32,-659.11 486,-612 436.4,-596.76 384.36,-566.67 351.58,-545.72"/>
<polygon fill="grey" stroke="grey" stroke-width="2" points="353.16,-542.57 342.87,-540.07 349.35,-548.45 353.16,-542.57"/>
</g>
<!-- 24 -->
<g id="node25" class="node">
<title>24</title>
<path fill="none" stroke="#56d8d0" stroke-width="2" d="M1214,-540C1214,-540 1050,-540 1050,-540 1044,-540 1038,-534 1038,-528 1038,-528 1038,-516 1038,-516 1038,-510 1044,-504 1050,-504 1050,-504 1214,-504 1214,-504 1220,-504 1226,-510 1226,-516 1226,-516 1226,-528 1226,-528 1226,-534 1220,-540 1214,-540"/>
<text text-anchor="middle" x="1132" y="-519.5" font-family="sans" font-size="10.00">map_bam_to_pseudo_genome_1_2</text>
</g>
<!-- 4&#45;&gt;24 -->
<g id="edge62" class="edge">
<title>4&#45;&gt;24</title>
<path fill="none" stroke="grey" stroke-width="2" d="M978.73,-647.77C989.25,-628.37 1008.46,-596.85 1032,-576 1046.15,-563.47 1063.78,-552.87 1080.28,-544.53"/>
<polygon fill="grey" stroke="grey" stroke-width="2" points="1081.86,-547.65 1089.31,-540.12 1078.79,-541.36 1081.86,-547.65"/>
</g>
<!-- 5&#45;&gt;0 -->
<g id="edge5" class="edge">
<title>5&#45;&gt;0</title>
<path fill="none" stroke="grey" stroke-width="2" d="M745.16,-575.83C760.76,-552.66 787,-509.48 797,-468 816.48,-387.2 780.82,-130.76 768.19,-46.28"/>
<polygon fill="grey" stroke="grey" stroke-width="2" points="771.62,-45.56 766.67,-36.19 764.7,-46.6 771.62,-45.56"/>
</g>
<!-- 5&#45;&gt;6 -->
<g id="edge28" class="edge">
<title>5&#45;&gt;6</title>
<path fill="none" stroke="grey" stroke-width="2" d="M762.6,-575.88C778.57,-566.64 798.46,-555.13 815.61,-545.21"/>
<polygon fill="grey" stroke="grey" stroke-width="2" points="817.38,-548.23 824.29,-540.19 813.88,-542.17 817.38,-548.23"/>
</g>
<!-- 5&#45;&gt;9 -->
<g id="edge34" class="edge">
<title>5&#45;&gt;9</title>
<path fill="none" stroke="grey" stroke-width="2" d="M788.03,-577.67C822.86,-567.88 869.06,-554.75 918.76,-540.04"/>
<polygon fill="grey" stroke="grey" stroke-width="2" points="919.81,-543.38 928.41,-537.18 917.82,-536.67 919.81,-543.38"/>
</g>
<!-- 5&#45;&gt;15 -->
<g id="edge46" class="edge">
<title>5&#45;&gt;15</title>
<path fill="none" stroke="grey" stroke-width="2" d="M677.91,-583.54C648.49,-576.04 613.4,-562.85 589,-540 563.44,-516.06 570.59,-500.27 557,-468 536.95,-420.38 542.61,-403.02 514,-360 507.08,-349.59 497.85,-339.6 488.97,-331.16"/>
<polygon fill="grey" stroke="grey" stroke-width="2" points="491.07,-328.33 481.34,-324.16 486.35,-333.49 491.07,-328.33"/>
</g>
<!-- 5&#45;&gt;16 -->
<g id="edge50" class="edge">
<title>5&#45;&gt;16</title>
<path fill="none" stroke="grey" stroke-width="2" d="M677.89,-583.7C601.98,-570.9 465.44,-547.87 384.12,-534.15"/>
<polygon fill="grey" stroke="grey" stroke-width="2" points="384.44,-530.66 374,-532.45 383.28,-537.56 384.44,-530.66"/>
</g>
<!-- 5&#45;&gt;24 -->
<g id="edge63" class="edge">
<title>5&#45;&gt;24</title>
<path fill="none" stroke="grey" stroke-width="2" d="M788.06,-583.34C849.64,-572.54 950.8,-554.79 1027.51,-541.33"/>
<polygon fill="grey" stroke="grey" stroke-width="2" points="1028.45,-544.72 1037.69,-539.55 1027.24,-537.83 1028.45,-544.72"/>
</g>
<!-- 28 -->
<g id="node29" class="node">
<title>28</title>
<path fill="none" stroke="#56d8a2" stroke-width="2" d="M776,-468C776,-468 716,-468 716,-468 710,-468 704,-462 704,-456 704,-456 704,-444 704,-444 704,-438 710,-432 716,-432 716,-432 776,-432 776,-432 782,-432 788,-438 788,-444 788,-444 788,-456 788,-456 788,-462 782,-468 776,-468"/>
<text text-anchor="middle" x="746" y="-447.5" font-family="sans" font-size="10.00">featurecounts</text>
</g>
<!-- 5&#45;&gt;28 -->
<g id="edge68" class="edge">
<title>5&#45;&gt;28</title>
<path fill="none" stroke="grey" stroke-width="2" d="M734.57,-575.87C736.78,-551.67 740.85,-507.21 743.49,-478.39"/>
<polygon fill="grey" stroke="grey" stroke-width="2" points="747,-478.47 744.43,-468.19 740.03,-477.83 747,-478.47"/>
</g>
<!-- 30 -->
<g id="node31" class="node">
<title>30</title>
<path fill="none" stroke="#5663d8" stroke-width="2" d="M673.5,-540C673.5,-540 610.5,-540 610.5,-540 604.5,-540 598.5,-534 598.5,-528 598.5,-528 598.5,-516 598.5,-516 598.5,-510 604.5,-504 610.5,-504 610.5,-504 673.5,-504 673.5,-504 679.5,-504 685.5,-510 685.5,-516 685.5,-516 685.5,-528 685.5,-528 685.5,-534 679.5,-540 673.5,-540"/>
<text text-anchor="middle" x="642" y="-519.5" font-family="sans" font-size="10.00">count_circRNA</text>
</g>
<!-- 5&#45;&gt;30 -->
<g id="edge70" class="edge">
<title>5&#45;&gt;30</title>
<path fill="none" stroke="grey" stroke-width="2" d="M710.51,-575.7C699.04,-566.88 684.94,-556.03 672.52,-546.47"/>
<polygon fill="grey" stroke="grey" stroke-width="2" points="674.3,-543.43 664.24,-540.1 670.03,-548.98 674.3,-543.43"/>
</g>
<!-- 6&#45;&gt;0 -->
<g id="edge10" class="edge">
<title>6&#45;&gt;0</title>
<path fill="none" stroke="grey" stroke-width="2" d="M851.98,-503.71C847.39,-465 835.6,-368.43 823,-288 807.82,-191.12 801.16,-167.29 778,-72 775.95,-63.55 773.57,-54.37 771.37,-46.07"/>
<polygon fill="grey" stroke="grey" stroke-width="2" points="774.68,-44.9 768.71,-36.14 767.92,-46.71 774.68,-44.9"/>
</g>
<!-- 7&#45;&gt;0 -->
<g id="edge1" class="edge">
<title>7&#45;&gt;0</title>
<path fill="none" stroke="grey" stroke-width="2" d="M1318.83,-791.57C1322.92,-764.84 1330,-712.09 1330,-667 1330,-667 1330,-667 1330,-161 1330,-118.33 1328.15,-97.59 1294,-72 1254.66,-42.53 915.09,-25.45 801.12,-20.51"/>
<polygon fill="grey" stroke="grey" stroke-width="2" points="801.26,-17.01 791.12,-20.08 800.96,-24.01 801.26,-17.01"/>
</g>
<!-- 8&#45;&gt;0 -->
<g id="edge20" class="edge">
<title>8&#45;&gt;0</title>
<path fill="none" stroke="grey" stroke-width="2" d="M1418.33,-719.73C1410.15,-693.21 1396,-640.73 1396,-595 1396,-595 1396,-595 1396,-161 1396,-115.19 1382.65,-96.59 1344,-72 1298.3,-42.93 922.73,-25.39 801.55,-20.45"/>
<polygon fill="grey" stroke="grey" stroke-width="2" points="801.42,-16.94 791.28,-20.03 801.13,-23.93 801.42,-16.94"/>
</g>
<!-- 9&#45;&gt;0 -->
<g id="edge6" class="edge">
<title>9&#45;&gt;0</title>
<path fill="none" stroke="grey" stroke-width="2" d="M978.26,-503.83C980.83,-493.46 984.13,-479.98 987,-468 1006.12,-388.11 994.95,-362.76 1029,-288 1075.44,-186.03 1232.77,-156.33 1159,-72 1135.59,-45.24 895.05,-27.28 801.21,-21.24"/>
<polygon fill="grey" stroke="grey" stroke-width="2" points="801.24,-17.74 791.03,-20.6 800.79,-24.72 801.24,-17.74"/>
</g>
<!-- 10 -->
<g id="node11" class="node">
<title>10</title>
<path fill="none" stroke="#56b9d8" stroke-width="2" d="M1038,-180C1038,-180 922,-180 922,-180 916,-180 910,-174 910,-168 910,-168 910,-156 910,-156 910,-150 916,-144 922,-144 922,-144 1038,-144 1038,-144 1044,-144 1050,-150 1050,-156 1050,-156 1050,-168 1050,-168 1050,-174 1044,-180 1038,-180"/>
<text text-anchor="middle" x="980" y="-159.5" font-family="sans" font-size="10.00">parse_samtools_stats_pe</text>
</g>
<!-- 9&#45;&gt;10 -->
<g id="edge38" class="edge">
<title>9&#45;&gt;10</title>
<path fill="none" stroke="grey" stroke-width="2" d="M973.6,-503.95C973.02,-477.29 972,-424.12 972,-379 972,-379 972,-379 972,-305 972,-264.93 975.21,-218.61 977.57,-190.05"/>
<polygon fill="grey" stroke="grey" stroke-width="2" points="981.06,-190.29 978.42,-180.03 974.09,-189.7 981.06,-190.29"/>
</g>
<!-- 10&#45;&gt;0 -->
<g id="edge19" class="edge">
<title>10&#45;&gt;0</title>
<path fill="none" stroke="grey" stroke-width="2" d="M982.84,-143.98C985.11,-124.19 985.48,-91.72 968,-72 946.1,-47.29 853.69,-31.08 801.08,-23.67"/>
<polygon fill="grey" stroke="grey" stroke-width="2" points="801.5,-20.19 791.12,-22.3 800.55,-27.13 801.5,-20.19"/>
</g>
<!-- 11 -->
<g id="node12" class="node">
<title>11</title>
<path fill="none" stroke="#d8d356" stroke-width="2" d="M1138,-108C1138,-108 1028,-108 1028,-108 1022,-108 1016,-102 1016,-96 1016,-96 1016,-84 1016,-84 1016,-78 1022,-72 1028,-72 1028,-72 1138,-72 1138,-72 1144,-72 1150,-78 1150,-84 1150,-84 1150,-96 1150,-96 1150,-102 1144,-108 1138,-108"/>
<text text-anchor="middle" x="1083" y="-87.5" font-family="sans" font-size="10.00">summarize_read_length</text>
</g>
<!-- 10&#45;&gt;11 -->
<g id="edge39" class="edge">
<title>10&#45;&gt;11</title>
<path fill="none" stroke="grey" stroke-width="2" d="M1005.2,-143.88C1018.41,-134.89 1034.79,-123.76 1049.11,-114.03"/>
<polygon fill="grey" stroke="grey" stroke-width="2" points="1051.4,-116.71 1057.71,-108.19 1047.47,-110.92 1051.4,-116.71"/>
</g>
<!-- 12 -->
<g id="node13" class="node">
<title>12</title>
<path fill="none" stroke="#56d8b1" stroke-width="2" d="M947.5,-108C947.5,-108 842.5,-108 842.5,-108 836.5,-108 830.5,-102 830.5,-96 830.5,-96 830.5,-84 830.5,-84 830.5,-78 836.5,-72 842.5,-72 842.5,-72 947.5,-72 947.5,-72 953.5,-72 959.5,-78 959.5,-84 959.5,-84 959.5,-96 959.5,-96 959.5,-102 953.5,-108 947.5,-108"/>
<text text-anchor="middle" x="895" y="-87.5" font-family="sans" font-size="10.00">summarize_insert_size</text>
</g>
<!-- 10&#45;&gt;12 -->
<g id="edge40" class="edge">
<title>10&#45;&gt;12</title>
<path fill="none" stroke="grey" stroke-width="2" d="M958.99,-143.7C948.28,-134.88 935.11,-124.03 923.5,-114.47"/>
<polygon fill="grey" stroke="grey" stroke-width="2" points="925.71,-111.76 915.77,-108.1 921.26,-117.16 925.71,-111.76"/>
</g>
<!-- 11&#45;&gt;0 -->
<g id="edge7" class="edge">
<title>11&#45;&gt;0</title>
<path fill="none" stroke="grey" stroke-width="2" d="M1015.74,-74.24C950.45,-59.91 853.74,-38.69 801.22,-27.17"/>
<polygon fill="grey" stroke="grey" stroke-width="2" points="801.85,-23.72 791.33,-25 800.35,-30.56 801.85,-23.72"/>
</g>
<!-- 12&#45;&gt;0 -->
<g id="edge16" class="edge">
<title>12&#45;&gt;0</title>
<path fill="none" stroke="grey" stroke-width="2" d="M862.95,-71.88C843.99,-61.74 819.91,-48.88 800.26,-38.37"/>
<polygon fill="grey" stroke="grey" stroke-width="2" points="801.76,-35.21 791.29,-33.58 798.46,-41.38 801.76,-35.21"/>
</g>
<!-- 13&#45;&gt;0 -->
<g id="edge9" class="edge">
<title>13&#45;&gt;0</title>
<path fill="none" stroke="grey" stroke-width="2" d="M1213.69,-575.93C1233.6,-567.94 1253.81,-556.43 1268,-540 1294.77,-508.99 1292,-491.97 1292,-451 1292,-451 1292,-451 1292,-161 1292,-120.03 1299.17,-98.58 1268,-72 1232.61,-41.82 911.9,-25.34 801.29,-20.52"/>
<polygon fill="grey" stroke="grey" stroke-width="2" points="801.4,-17.02 791.26,-20.09 801.1,-24.01 801.4,-17.02"/>
</g>
<!-- 14 -->
<g id="node15" class="node">
<title>14</title>
<path fill="none" stroke="#d87d56" stroke-width="2" d="M383.5,-396C383.5,-396 292.5,-396 292.5,-396 286.5,-396 280.5,-390 280.5,-384 280.5,-384 280.5,-372 280.5,-372 280.5,-366 286.5,-360 292.5,-360 292.5,-360 383.5,-360 383.5,-360 389.5,-360 395.5,-366 395.5,-372 395.5,-372 395.5,-384 395.5,-384 395.5,-390 389.5,-396 383.5,-396"/>
<text text-anchor="middle" x="338" y="-375.5" font-family="sans" font-size="10.00">bedgraph_to_bigwig</text>
</g>
<!-- 14&#45;&gt;0 -->
<g id="edge4" class="edge">
<title>14&#45;&gt;0</title>
<path fill="none" stroke="grey" stroke-width="2" d="M312.21,-359.94C279.7,-336.16 228,-289.73 228,-235 228,-235 228,-235 228,-161 228,-57.74 604.39,-27.83 726.35,-20.84"/>
<polygon fill="grey" stroke="grey" stroke-width="2" points="726.89,-24.32 736.68,-20.27 726.5,-17.33 726.89,-24.32"/>
</g>
<!-- 14&#45;&gt;15 -->
<g id="edge45" class="edge">
<title>14&#45;&gt;15</title>
<path fill="none" stroke="grey" stroke-width="2" d="M367.84,-359.88C383.94,-350.64 404,-339.13 421.29,-329.21"/>
<polygon fill="grey" stroke="grey" stroke-width="2" points="423.11,-332.2 430.04,-324.19 419.63,-326.13 423.11,-332.2"/>
</g>
<!-- 15&#45;&gt;0 -->
<g id="edge8" class="edge">
<title>15&#45;&gt;0</title>
<path fill="none" stroke="grey" stroke-width="2" d="M456.93,-287.83C450.33,-244.94 439.78,-132.3 498,-72 529.14,-39.75 661.1,-26.16 726.69,-21.3"/>
<polygon fill="grey" stroke="grey" stroke-width="2" points="727.27,-24.77 736.99,-20.57 726.77,-17.79 727.27,-24.77"/>
</g>
<!-- 18 -->
<g id="node19" class="node">
<title>18</title>
<path fill="none" stroke="#88d856" stroke-width="2" d="M420,-252C420,-252 268,-252 268,-252 262,-252 256,-246 256,-240 256,-240 256,-228 256,-228 256,-222 262,-216 268,-216 268,-216 420,-216 420,-216 426,-216 432,-222 432,-228 432,-228 432,-240 432,-240 432,-246 426,-252 420,-252"/>
<text text-anchor="middle" x="344" y="-231.5" font-family="sans" font-size="10.00">map_bigwig_to_pseudo_genome</text>
</g>
<!-- 15&#45;&gt;18 -->
<g id="edge55" class="edge">
<title>15&#45;&gt;18</title>
<path fill="none" stroke="grey" stroke-width="2" d="M431.62,-287.88C416.46,-278.72 397.59,-267.34 381.26,-257.48"/>
<polygon fill="grey" stroke="grey" stroke-width="2" points="382.86,-254.36 372.49,-252.19 379.24,-260.35 382.86,-254.36"/>
</g>
<!-- 16&#45;&gt;0 -->
<g id="edge11" class="edge">
<title>16&#45;&gt;0</title>
<path fill="none" stroke="grey" stroke-width="2" d="M261.99,-507.82C201.59,-489.88 114,-451.39 114,-379 114,-379 114,-379 114,-161 114,-103.79 154.98,-95.81 207,-72 300.07,-29.41 617.35,-21.03 726.64,-19.39"/>
<polygon fill="grey" stroke="grey" stroke-width="2" points="726.9,-22.89 736.85,-19.25 726.8,-15.89 726.9,-22.89"/>
</g>
<!-- 17 -->
<g id="node18" class="node">
<title>17</title>
<path fill="none" stroke="#d87556" stroke-width="2" d="M250,-396C250,-396 154,-396 154,-396 148,-396 142,-390 142,-384 142,-384 142,-372 142,-372 142,-366 148,-360 154,-360 154,-360 250,-360 250,-360 256,-360 262,-366 262,-372 262,-372 262,-384 262,-384 262,-390 256,-396 250,-396"/>
<text text-anchor="middle" x="202" y="-375.5" font-family="sans" font-size="10.00">index_bam_by_coord</text>
</g>
<!-- 16&#45;&gt;17 -->
<g id="edge54" class="edge">
<title>16&#45;&gt;17</title>
<path fill="none" stroke="grey" stroke-width="2" d="M277.16,-503.83C260.83,-495.19 243.07,-483.26 231,-468 216.86,-450.13 209.51,-425.12 205.75,-406.17"/>
<polygon fill="grey" stroke="grey" stroke-width="2" points="209.16,-405.31 203.97,-396.07 202.26,-406.53 209.16,-405.31"/>
</g>
<!-- 23 -->
<g id="node24" class="node">
<title>23</title>
<path fill="none" stroke="#569ad8" stroke-width="2" d="M383.5,-468C383.5,-468 252.5,-468 252.5,-468 246.5,-468 240.5,-462 240.5,-456 240.5,-456 240.5,-444 240.5,-444 240.5,-438 246.5,-432 252.5,-432 252.5,-432 383.5,-432 383.5,-432 389.5,-432 395.5,-438 395.5,-444 395.5,-444 395.5,-456 395.5,-456 395.5,-462 389.5,-468 383.5,-468"/>
<text text-anchor="middle" x="318" y="-447.5" font-family="sans" font-size="10.00">compute_genome_coverage</text>
</g>
<!-- 16&#45;&gt;23 -->
<g id="edge61" class="edge">
<title>16&#45;&gt;23</title>
<path fill="none" stroke="grey" stroke-width="2" d="M318,-503.7C318,-495.98 318,-486.71 318,-478.11"/>
<polygon fill="grey" stroke="grey" stroke-width="2" points="321.5,-478.1 318,-468.1 314.5,-478.1 321.5,-478.1"/>
</g>
<!-- 17&#45;&gt;0 -->
<g id="edge3" class="edge">
<title>17&#45;&gt;0</title>
<path fill="none" stroke="grey" stroke-width="2" d="M199.63,-359.99C196.13,-333.38 190,-280.28 190,-235 190,-235 190,-235 190,-161 190,-107.81 222.65,-96.22 270,-72 349.83,-31.18 625.78,-21.7 726.68,-19.59"/>
<polygon fill="grey" stroke="grey" stroke-width="2" points="726.79,-23.09 736.72,-19.39 726.65,-16.09 726.79,-23.09"/>
</g>
<!-- 18&#45;&gt;0 -->
<g id="edge12" class="edge">
<title>18&#45;&gt;0</title>
<path fill="none" stroke="grey" stroke-width="2" d="M349.55,-215.75C361.35,-182.03 392.37,-107.57 446,-72 491.57,-41.78 652.83,-26.81 726.63,-21.42"/>
<polygon fill="grey" stroke="grey" stroke-width="2" points="727.13,-24.9 736.86,-20.7 726.64,-17.91 727.13,-24.9"/>
</g>
<!-- 19 -->
<g id="node20" class="node">
<title>19</title>
<path fill="none" stroke="#56d892" stroke-width="2" d="M1214,-324C1214,-324 1050,-324 1050,-324 1044,-324 1038,-318 1038,-312 1038,-312 1038,-300 1038,-300 1038,-294 1044,-288 1050,-288 1050,-288 1214,-288 1214,-288 1220,-288 1226,-294 1226,-300 1226,-300 1226,-312 1226,-312 1226,-318 1220,-324 1214,-324"/>
<text text-anchor="middle" x="1132" y="-303.5" font-family="sans" font-size="10.00">map_bam_to_pseudo_genome_2_2</text>
</g>
<!-- 19&#45;&gt;0 -->
<g id="edge15" class="edge">
<title>19&#45;&gt;0</title>
<path fill="none" stroke="grey" stroke-width="2" d="M1145.41,-287.97C1176.82,-245.9 1248.43,-135.85 1192,-72 1166.26,-42.87 900.6,-26.12 801.23,-20.84"/>
<polygon fill="grey" stroke="grey" stroke-width="2" points="801.22,-17.33 791.05,-20.31 800.86,-24.32 801.22,-17.33"/>
</g>
<!-- 20 -->
<g id="node21" class="node">
<title>20</title>
<path fill="none" stroke="#d86656" stroke-width="2" d="M723.5,-108C723.5,-108 538.5,-108 538.5,-108 532.5,-108 526.5,-102 526.5,-96 526.5,-96 526.5,-84 526.5,-84 526.5,-78 532.5,-72 538.5,-72 538.5,-72 723.5,-72 723.5,-72 729.5,-72 735.5,-78 735.5,-84 735.5,-84 735.5,-96 735.5,-96 735.5,-102 729.5,-108 723.5,-108"/>
<text text-anchor="middle" x="631" y="-87.5" font-family="sans" font-size="10.00">batch_removal_step_without_batchinfo</text>
</g>
<!-- 20&#45;&gt;0 -->
<g id="edge2" class="edge">
<title>20&#45;&gt;0</title>
<path fill="none" stroke="grey" stroke-width="2" d="M663.54,-71.88C683.01,-61.63 707.79,-48.58 727.87,-38.01"/>
<polygon fill="grey" stroke="grey" stroke-width="2" points="729.51,-41.11 736.73,-33.35 726.25,-34.91 729.51,-41.11"/>
</g>
<!-- 21 -->
<g id="node22" class="node">
<title>21</title>
<path fill="none" stroke="#5673d8" stroke-width="2" d="M647.5,-324C647.5,-324 606.5,-324 606.5,-324 600.5,-324 594.5,-318 594.5,-312 594.5,-312 594.5,-300 594.5,-300 594.5,-294 600.5,-288 606.5,-288 606.5,-288 647.5,-288 647.5,-288 653.5,-288 659.5,-294 659.5,-300 659.5,-300 659.5,-312 659.5,-312 659.5,-318 653.5,-324 647.5,-324"/>
<text text-anchor="middle" x="627" y="-303.5" font-family="sans" font-size="10.00">filter_step</text>
</g>
<!-- 21&#45;&gt;0 -->
<g id="edge21" class="edge">
<title>21&#45;&gt;0</title>
<path fill="none" stroke="grey" stroke-width="2" d="M607.14,-287.96C562.03,-247.24 460.06,-142.45 517,-72 542.93,-39.92 664.13,-26.37 726.58,-21.44"/>
<polygon fill="grey" stroke="grey" stroke-width="2" points="727.09,-24.91 736.8,-20.66 726.56,-17.93 727.09,-24.91"/>
</g>
<!-- 27 -->
<g id="node28" class="node">
<title>27</title>
<path fill="none" stroke="#68d856" stroke-width="2" d="M665,-252C665,-252 593,-252 593,-252 587,-252 581,-246 581,-240 581,-240 581,-228 581,-228 581,-222 587,-216 593,-216 593,-216 665,-216 665,-216 671,-216 677,-222 677,-228 677,-228 677,-240 677,-240 677,-246 671,-252 665,-252"/>
<text text-anchor="middle" x="629" y="-231.5" font-family="sans" font-size="10.00">imputation_step</text>
</g>
<!-- 21&#45;&gt;27 -->
<g id="edge67" class="edge">
<title>21&#45;&gt;27</title>
<path fill="none" stroke="grey" stroke-width="2" d="M627.49,-287.7C627.71,-279.98 627.98,-270.71 628.23,-262.11"/>
<polygon fill="grey" stroke="grey" stroke-width="2" points="631.72,-262.2 628.51,-252.1 624.73,-262 631.72,-262.2"/>
</g>
<!-- 22&#45;&gt;4 -->
<g id="edge24" class="edge">
<title>22&#45;&gt;4</title>
<path fill="none" stroke="grey" stroke-width="2" d="M965.48,-719.7C966.14,-711.98 966.94,-702.71 967.68,-694.11"/>
<polygon fill="grey" stroke="grey" stroke-width="2" points="971.17,-694.37 968.53,-684.1 964.19,-693.77 971.17,-694.37"/>
</g>
<!-- 22&#45;&gt;13 -->
<g id="edge42" class="edge">
<title>22&#45;&gt;13</title>
<path fill="none" stroke="grey" stroke-width="2" d="M985.95,-719.87C1018.34,-694.6 1079.03,-647.25 1115.65,-618.68"/>
<polygon fill="grey" stroke="grey" stroke-width="2" points="1118.24,-621.1 1123.97,-612.19 1113.93,-615.58 1118.24,-621.1"/>
</g>
<!-- 23&#45;&gt;14 -->
<g id="edge44" class="edge">
<title>23&#45;&gt;14</title>
<path fill="none" stroke="grey" stroke-width="2" d="M322.94,-431.7C325.17,-423.9 327.85,-414.51 330.33,-405.83"/>
<polygon fill="grey" stroke="grey" stroke-width="2" points="333.73,-406.68 333.11,-396.1 327,-404.76 333.73,-406.68"/>
</g>
<!-- 24&#45;&gt;19 -->
<g id="edge56" class="edge">
<title>24&#45;&gt;19</title>
<path fill="none" stroke="grey" stroke-width="2" d="M1132,-503.85C1132,-466.83 1132,-379.18 1132,-334.39"/>
<polygon fill="grey" stroke="grey" stroke-width="2" points="1135.5,-334.23 1132,-324.23 1128.5,-334.23 1135.5,-334.23"/>
</g>
<!-- 25 -->
<g id="node26" class="node">
<title>25</title>
<path fill="none" stroke="#56d8c1" stroke-width="2" d="M673,-180C673,-180 587,-180 587,-180 581,-180 575,-174 575,-168 575,-168 575,-156 575,-156 575,-150 581,-144 587,-144 587,-144 673,-144 673,-144 679,-144 685,-150 685,-156 685,-156 685,-168 685,-168 685,-174 679,-180 673,-180"/>
<text text-anchor="middle" x="630" y="-159.5" font-family="sans" font-size="10.00">normalization_step</text>
</g>
<!-- 25&#45;&gt;20 -->
<g id="edge57" class="edge">
<title>25&#45;&gt;20</title>
<path fill="none" stroke="grey" stroke-width="2" d="M630.25,-143.7C630.36,-135.98 630.49,-126.71 630.61,-118.11"/>
<polygon fill="grey" stroke="grey" stroke-width="2" points="634.11,-118.15 630.76,-108.1 627.11,-118.05 634.11,-118.15"/>
</g>
<!-- 26 -->
<g id="node27" class="node">
<title>26</title>
<path fill="none" stroke="#d88d56" stroke-width="2" d="M655.5,-396C655.5,-396 598.5,-396 598.5,-396 592.5,-396 586.5,-390 586.5,-384 586.5,-384 586.5,-372 586.5,-372 586.5,-366 592.5,-360 598.5,-360 598.5,-360 655.5,-360 655.5,-360 661.5,-360 667.5,-366 667.5,-372 667.5,-372 667.5,-384 667.5,-384 667.5,-390 661.5,-396 655.5,-396"/>
<text text-anchor="middle" x="627" y="-375.5" font-family="sans" font-size="10.00">count_matrix</text>
</g>
<!-- 26&#45;&gt;21 -->
<g id="edge58" class="edge">
<title>26&#45;&gt;21</title>
<path fill="none" stroke="grey" stroke-width="2" d="M627,-359.7C627,-351.98 627,-342.71 627,-334.11"/>
<polygon fill="grey" stroke="grey" stroke-width="2" points="630.5,-334.1 627,-324.1 623.5,-334.1 630.5,-334.1"/>
</g>
<!-- 27&#45;&gt;25 -->
<g id="edge64" class="edge">
<title>27&#45;&gt;25</title>
<path fill="none" stroke="grey" stroke-width="2" d="M629.25,-215.7C629.36,-207.98 629.49,-198.71 629.61,-190.11"/>
<polygon fill="grey" stroke="grey" stroke-width="2" points="633.11,-190.15 629.76,-180.1 626.11,-190.05 633.11,-190.15"/>
</g>
<!-- 28&#45;&gt;26 -->
<g id="edge65" class="edge">
<title>28&#45;&gt;26</title>
<path fill="none" stroke="grey" stroke-width="2" d="M716.89,-431.88C701.33,-422.72 681.98,-411.34 665.22,-401.48"/>
<polygon fill="grey" stroke="grey" stroke-width="2" points="666.62,-398.24 656.22,-396.19 663.07,-404.28 666.62,-398.24"/>
</g>
<!-- 29 -->
<g id="node30" class="node">
<title>29</title>
<path fill="none" stroke="#ced856" stroke-width="2" d="M673.5,-468C673.5,-468 578.5,-468 578.5,-468 572.5,-468 566.5,-462 566.5,-456 566.5,-456 566.5,-444 566.5,-444 566.5,-438 572.5,-432 578.5,-432 578.5,-432 673.5,-432 673.5,-432 679.5,-432 685.5,-438 685.5,-444 685.5,-444 685.5,-456 685.5,-456 685.5,-462 679.5,-468 673.5,-468"/>
<text text-anchor="middle" x="626" y="-447.5" font-family="sans" font-size="10.00">count_matrix_circrna</text>
</g>
<!-- 29&#45;&gt;26 -->
<g id="edge66" class="edge">
<title>29&#45;&gt;26</title>
<path fill="none" stroke="grey" stroke-width="2" d="M626.25,-431.7C626.36,-423.98 626.49,-414.71 626.61,-406.11"/>
<polygon fill="grey" stroke="grey" stroke-width="2" points="630.11,-406.15 626.76,-396.1 623.11,-406.05 630.11,-406.15"/>
</g>
<!-- 30&#45;&gt;29 -->
<g id="edge69" class="edge">
<title>30&#45;&gt;29</title>
<path fill="none" stroke="grey" stroke-width="2" d="M638.04,-503.7C636.28,-495.98 634.16,-486.71 632.2,-478.11"/>
<polygon fill="grey" stroke="grey" stroke-width="2" points="635.55,-477.07 629.91,-468.1 628.73,-478.63 635.55,-477.07"/>
</g>
</g>
</svg>
