<?xml version="1.0" encoding="UTF-8" standalone="no"?>
<!DOCTYPE svg PUBLIC "-//W3C//DTD SVG 1.1//EN"
 "http://www.w3.org/Graphics/SVG/1.1/DTD/svg11.dtd">
<!-- Generated by graphviz version 2.38.0 (20140413.2041)
 -->
<!-- Title: snakemake_dag Pages: 1 -->
<svg width="1687pt" height="353pt"
 viewBox="0.00 0.00 1687.00 353.00" xmlns="http://www.w3.org/2000/svg" xmlns:xlink="http://www.w3.org/1999/xlink">
<g id="graph0" class="graph" transform="scale(1 1) rotate(0) translate(4 349)">
<title>snakemake_dag</title>
<polygon fill="white" stroke="none" points="-4,4 -4,-349 1683,-349 1683,4 -4,4"/>
<!-- 0 -->
<g id="node1" class="node"><title>0</title>
<path fill="none" stroke="#569ad8" stroke-width="2" d="M1144.5,-36C1144.5,-36 1114.5,-36 1114.5,-36 1108.5,-36 1102.5,-30 1102.5,-24 1102.5,-24 1102.5,-12 1102.5,-12 1102.5,-6 1108.5,-0 1114.5,-0 1114.5,-0 1144.5,-0 1144.5,-0 1150.5,-0 1156.5,-6 1156.5,-12 1156.5,-12 1156.5,-24 1156.5,-24 1156.5,-30 1150.5,-36 1144.5,-36"/>
<text text-anchor="middle" x="1129.5" y="-15.5" font-family="sans" font-size="10.00">all</text>
</g>
<!-- 1 -->
<g id="node2" class="node"><title>1</title>
<path fill="none" stroke="#d6d856" stroke-width="2" d="M623,-196C623,-196 12,-196 12,-196 6,-196 0,-190 0,-184 0,-184 0,-156 0,-156 0,-150 6,-144 12,-144 12,-144 623,-144 623,-144 629,-144 635,-150 635,-156 635,-156 635,-184 635,-184 635,-190 629,-196 623,-196"/>
<text text-anchor="middle" x="317.5" y="-184" font-family="sans" font-size="10.00">fastqc_pe</text>
<text text-anchor="middle" x="317.5" y="-173" font-family="sans" font-size="10.00">mate_index: 1</text>
<text text-anchor="middle" x="317.5" y="-162" font-family="sans" font-size="10.00">output_dir: /lulab/lustre2/zhangshang/work/software/exvariance/exvariance_software/demo/seal_methyl&#45;cap_medip_pe/output</text>
<text text-anchor="middle" x="317.5" y="-151" font-family="sans" font-size="10.00">sample_id: SRR6946476</text>
</g>
<!-- 1&#45;&gt;0 -->
<g id="edge1" class="edge"><title>1&#45;&gt;0</title>
<path fill="none" stroke="grey" stroke-width="2" d="M452.953,-143.978C643.539,-108.771 980.097,-46.5991 1092.09,-25.9116"/>
<polygon fill="grey" stroke="grey" stroke-width="2" points="1093.01,-29.2998 1102.21,-24.0414 1091.74,-22.4163 1093.01,-29.2998"/>
</g>
<!-- 3 -->
<g id="node4" class="node"><title>3</title>
<path fill="none" stroke="#56d8d8" stroke-width="2" d="M994,-108C994,-108 947,-108 947,-108 941,-108 935,-102 935,-96 935,-96 935,-84 935,-84 935,-78 941,-72 947,-72 947,-72 994,-72 994,-72 1000,-72 1006,-78 1006,-84 1006,-84 1006,-96 1006,-96 1006,-102 1000,-108 994,-108"/>
<text text-anchor="middle" x="970.5" y="-87.5" font-family="sans" font-size="10.00">multiqc_pe</text>
</g>
<!-- 1&#45;&gt;3 -->
<g id="edge7" class="edge"><title>1&#45;&gt;3</title>
<path fill="none" stroke="grey" stroke-width="2" d="M526.808,-143.998C668.008,-127.132 842.925,-106.239 924.538,-96.4901"/>
<polygon fill="grey" stroke="grey" stroke-width="2" points="925.441,-99.9072 934.955,-95.2458 924.61,-92.9567 925.441,-99.9072"/>
</g>
<!-- 2 -->
<g id="node3" class="node"><title>2</title>
<path fill="none" stroke="#d6d856" stroke-width="2" d="M1276,-196C1276,-196 665,-196 665,-196 659,-196 653,-190 653,-184 653,-184 653,-156 653,-156 653,-150 659,-144 665,-144 665,-144 1276,-144 1276,-144 1282,-144 1288,-150 1288,-156 1288,-156 1288,-184 1288,-184 1288,-190 1282,-196 1276,-196"/>
<text text-anchor="middle" x="970.5" y="-184" font-family="sans" font-size="10.00">fastqc_pe</text>
<text text-anchor="middle" x="970.5" y="-173" font-family="sans" font-size="10.00">mate_index: 2</text>
<text text-anchor="middle" x="970.5" y="-162" font-family="sans" font-size="10.00">output_dir: /lulab/lustre2/zhangshang/work/software/exvariance/exvariance_software/demo/seal_methyl&#45;cap_medip_pe/output</text>
<text text-anchor="middle" x="970.5" y="-151" font-family="sans" font-size="10.00">sample_id: SRR6946476</text>
</g>
<!-- 2&#45;&gt;0 -->
<g id="edge2" class="edge"><title>2&#45;&gt;0</title>
<path fill="none" stroke="grey" stroke-width="2" d="M997.113,-143.893C1026.82,-115.873 1074.54,-70.8469 1103.85,-43.1996"/>
<polygon fill="grey" stroke="grey" stroke-width="2" points="1106.37,-45.6367 1111.24,-36.2286 1101.56,-40.545 1106.37,-45.6367"/>
</g>
<!-- 2&#45;&gt;3 -->
<g id="edge8" class="edge"><title>2&#45;&gt;3</title>
<path fill="none" stroke="grey" stroke-width="2" d="M970.5,-143.891C970.5,-135.84 970.5,-126.88 970.5,-118.658"/>
<polygon fill="grey" stroke="grey" stroke-width="2" points="974,-118.411 970.5,-108.411 967,-118.411 974,-118.411"/>
</g>
<!-- 3&#45;&gt;0 -->
<g id="edge3" class="edge"><title>3&#45;&gt;0</title>
<path fill="none" stroke="grey" stroke-width="2" d="M1006.18,-73.2906C1032.11,-61.8743 1067.09,-46.4759 1093.17,-34.9941"/>
<polygon fill="grey" stroke="grey" stroke-width="2" points="1094.6,-38.1884 1102.34,-30.9558 1091.78,-31.7818 1094.6,-38.1884"/>
</g>
<!-- 4 -->
<g id="node5" class="node"><title>4</title>
<path fill="none" stroke="#d89556" stroke-width="2" d="M1404.5,-188C1404.5,-188 1318.5,-188 1318.5,-188 1312.5,-188 1306.5,-182 1306.5,-176 1306.5,-176 1306.5,-164 1306.5,-164 1306.5,-158 1312.5,-152 1318.5,-152 1318.5,-152 1404.5,-152 1404.5,-152 1410.5,-152 1416.5,-158 1416.5,-164 1416.5,-164 1416.5,-176 1416.5,-176 1416.5,-182 1410.5,-188 1404.5,-188"/>
<text text-anchor="middle" x="1361.5" y="-167.5" font-family="sans" font-size="10.00">remove_duplicates</text>
</g>
<!-- 4&#45;&gt;0 -->
<g id="edge4" class="edge"><title>4&#45;&gt;0</title>
<path fill="none" stroke="grey" stroke-width="2" d="M1318.18,-151.917C1311.27,-149.24 1304.2,-146.525 1297.5,-144 1253.69,-127.481 1236.33,-135.585 1198.5,-108 1175.45,-91.1943 1156.26,-64.6377 1144.02,-44.9026"/>
<polygon fill="grey" stroke="grey" stroke-width="2" points="1146.89,-42.8774 1138.74,-36.1053 1140.89,-46.4805 1146.89,-42.8774"/>
</g>
<!-- 5 -->
<g id="node6" class="node"><title>5</title>
<path fill="none" stroke="#56d89a" stroke-width="2" d="M1268,-108C1268,-108 1219,-108 1219,-108 1213,-108 1207,-102 1207,-96 1207,-96 1207,-84 1207,-84 1207,-78 1213,-72 1219,-72 1219,-72 1268,-72 1268,-72 1274,-72 1280,-78 1280,-84 1280,-84 1280,-96 1280,-96 1280,-102 1274,-108 1268,-108"/>
<text text-anchor="middle" x="1243.5" y="-87.5" font-family="sans" font-size="10.00">bam_to_bw</text>
</g>
<!-- 4&#45;&gt;5 -->
<g id="edge10" class="edge"><title>4&#45;&gt;5</title>
<path fill="none" stroke="grey" stroke-width="2" d="M1335.6,-151.883C1318.62,-140.656 1296.22,-125.851 1277.77,-113.653"/>
<polygon fill="grey" stroke="grey" stroke-width="2" points="1279.61,-110.672 1269.34,-108.078 1275.75,-116.512 1279.61,-110.672"/>
</g>
<!-- 6 -->
<g id="node7" class="node"><title>6</title>
<path fill="none" stroke="#59d856" stroke-width="2" d="M1389,-108C1389,-108 1318,-108 1318,-108 1312,-108 1306,-102 1306,-96 1306,-96 1306,-84 1306,-84 1306,-78 1312,-72 1318,-72 1318,-72 1389,-72 1389,-72 1395,-72 1401,-78 1401,-84 1401,-84 1401,-96 1401,-96 1401,-102 1395,-108 1389,-108"/>
<text text-anchor="middle" x="1353.5" y="-87.5" font-family="sans" font-size="10.00">macs2_callPeak</text>
</g>
<!-- 4&#45;&gt;6 -->
<g id="edge11" class="edge"><title>4&#45;&gt;6</title>
<path fill="none" stroke="grey" stroke-width="2" d="M1359.72,-151.689C1358.72,-141.894 1357.44,-129.422 1356.3,-118.335"/>
<polygon fill="grey" stroke="grey" stroke-width="2" points="1359.77,-117.853 1355.27,-108.262 1352.81,-118.567 1359.77,-117.853"/>
</g>
<!-- 5&#45;&gt;0 -->
<g id="edge5" class="edge"><title>5&#45;&gt;0</title>
<path fill="none" stroke="grey" stroke-width="2" d="M1215.61,-71.8761C1200.48,-62.587 1181.62,-51.0015 1165.4,-41.0447"/>
<polygon fill="grey" stroke="grey" stroke-width="2" points="1167.06,-37.9557 1156.71,-35.7056 1163.4,-43.9209 1167.06,-37.9557"/>
</g>
<!-- 6&#45;&gt;0 -->
<g id="edge6" class="edge"><title>6&#45;&gt;0</title>
<path fill="none" stroke="grey" stroke-width="2" d="M1306,-74.1548C1264.26,-61.1133 1204.41,-42.4084 1166.24,-30.4825"/>
<polygon fill="grey" stroke="grey" stroke-width="2" points="1167.15,-27.0988 1156.56,-27.4567 1165.06,-33.7802 1167.15,-27.0988"/>
</g>
<!-- 7 -->
<g id="node8" class="node"><title>7</title>
<path fill="none" stroke="#d85656" stroke-width="2" d="M1389.5,-268C1389.5,-268 1333.5,-268 1333.5,-268 1327.5,-268 1321.5,-262 1321.5,-256 1321.5,-256 1321.5,-244 1321.5,-244 1321.5,-238 1327.5,-232 1333.5,-232 1333.5,-232 1389.5,-232 1389.5,-232 1395.5,-232 1401.5,-238 1401.5,-244 1401.5,-244 1401.5,-256 1401.5,-256 1401.5,-262 1395.5,-268 1389.5,-268"/>
<text text-anchor="middle" x="1361.5" y="-247.5" font-family="sans" font-size="10.00">sam_to_bam</text>
</g>
<!-- 7&#45;&gt;4 -->
<g id="edge9" class="edge"><title>7&#45;&gt;4</title>
<path fill="none" stroke="grey" stroke-width="2" d="M1361.5,-231.689C1361.5,-221.894 1361.5,-209.422 1361.5,-198.335"/>
<polygon fill="grey" stroke="grey" stroke-width="2" points="1365,-198.262 1361.5,-188.262 1358,-198.262 1365,-198.262"/>
</g>
<!-- 8 -->
<g id="node9" class="node"><title>8</title>
<path fill="none" stroke="#97d856" stroke-width="2" d="M1667,-345C1667,-345 1056,-345 1056,-345 1050,-345 1044,-339 1044,-333 1044,-333 1044,-316 1044,-316 1044,-310 1050,-304 1056,-304 1056,-304 1667,-304 1667,-304 1673,-304 1679,-310 1679,-316 1679,-316 1679,-333 1679,-333 1679,-339 1673,-345 1667,-345"/>
<text text-anchor="middle" x="1361.5" y="-333" font-family="sans" font-size="10.00">bowtie2_mapping</text>
<text text-anchor="middle" x="1361.5" y="-322" font-family="sans" font-size="10.00">output_dir: /lulab/lustre2/zhangshang/work/software/exvariance/exvariance_software/demo/seal_methyl&#45;cap_medip_pe/output</text>
<text text-anchor="middle" x="1361.5" y="-311" font-family="sans" font-size="10.00">sample_id: SRR6946476</text>
</g>
<!-- 8&#45;&gt;7 -->
<g id="edge12" class="edge"><title>8&#45;&gt;7</title>
<path fill="none" stroke="grey" stroke-width="2" d="M1361.5,-303.689C1361.5,-295.907 1361.5,-286.842 1361.5,-278.447"/>
<polygon fill="grey" stroke="grey" stroke-width="2" points="1365,-278.319 1361.5,-268.319 1358,-278.32 1365,-278.319"/>
</g>
</g>
</svg>
