<?xml version="1.0" encoding="UTF-8" standalone="no"?>
<!DOCTYPE svg PUBLIC "-//W3C//DTD SVG 1.1//EN"
 "http://www.w3.org/Graphics/SVG/1.1/DTD/svg11.dtd">
<!-- Generated by graphviz version 2.38.0 (20140413.2041)
 -->
<!-- Title: snakemake_dag Pages: 1 -->
<svg width="1542pt" height="353pt"
 viewBox="0.00 0.00 1542.00 353.00" xmlns="http://www.w3.org/2000/svg" xmlns:xlink="http://www.w3.org/1999/xlink">
<g id="graph0" class="graph" transform="scale(1 1) rotate(0) translate(4 349)">
<title>snakemake_dag</title>
<polygon fill="white" stroke="none" points="-4,4 -4,-349 1538,-349 1538,4 -4,4"/>
<!-- 0 -->
<g id="node1" class="node"><title>0</title>
<path fill="none" stroke="#d85656" stroke-width="2" stroke-dasharray="5,2" d="M851.5,-36C851.5,-36 821.5,-36 821.5,-36 815.5,-36 809.5,-30 809.5,-24 809.5,-24 809.5,-12 809.5,-12 809.5,-6 815.5,-0 821.5,-0 821.5,-0 851.5,-0 851.5,-0 857.5,-0 863.5,-6 863.5,-12 863.5,-12 863.5,-24 863.5,-24 863.5,-30 857.5,-36 851.5,-36"/>
<text text-anchor="middle" x="836.5" y="-15.5" font-family="sans" font-size="10.00">all</text>
</g>
<!-- 1 -->
<g id="node2" class="node"><title>1</title>
<path fill="none" stroke="#56d8c9" stroke-width="2" stroke-dasharray="5,2" d="M555,-196C555,-196 12,-196 12,-196 6,-196 0,-190 0,-184 0,-184 0,-156 0,-156 0,-150 6,-144 12,-144 12,-144 555,-144 555,-144 561,-144 567,-150 567,-156 567,-156 567,-184 567,-184 567,-190 561,-196 555,-196"/>
<text text-anchor="middle" x="283.5" y="-184" font-family="sans" font-size="10.00">fastqc_pe</text>
<text text-anchor="middle" x="283.5" y="-173" font-family="sans" font-size="10.00">mate_index: 1</text>
<text text-anchor="middle" x="283.5" y="-162" font-family="sans" font-size="10.00">output_dir: /lulab/lustre2/zhangshang/work/software/exvariance/exvariance_software/demo/wgbs_rrbs_pe/output</text>
<text text-anchor="middle" x="283.5" y="-151" font-family="sans" font-size="10.00">sample_id: SRR11615795</text>
</g>
<!-- 1&#45;&gt;0 -->
<g id="edge1" class="edge"><title>1&#45;&gt;0</title>
<path fill="none" stroke="grey" stroke-width="2" d="M375.748,-143.978C499.625,-110.377 714.053,-52.2135 799.655,-28.9942"/>
<polygon fill="grey" stroke="grey" stroke-width="2" points="800.706,-32.3357 809.441,-26.3398 798.873,-25.5798 800.706,-32.3357"/>
</g>
<!-- 3 -->
<g id="node4" class="node"><title>3</title>
<path fill="none" stroke="#c6d856" stroke-width="2" stroke-dasharray="5,2" d="M828,-108C828,-108 781,-108 781,-108 775,-108 769,-102 769,-96 769,-96 769,-84 769,-84 769,-78 775,-72 781,-72 781,-72 828,-72 828,-72 834,-72 840,-78 840,-84 840,-84 840,-96 840,-96 840,-102 834,-108 828,-108"/>
<text text-anchor="middle" x="804.5" y="-87.5" font-family="sans" font-size="10.00">multiqc_pe</text>
</g>
<!-- 1&#45;&gt;3 -->
<g id="edge5" class="edge"><title>1&#45;&gt;3</title>
<path fill="none" stroke="grey" stroke-width="2" d="M450.497,-143.998C558.219,-127.871 690.535,-108.062 758.849,-97.8345"/>
<polygon fill="grey" stroke="grey" stroke-width="2" points="759.48,-101.279 768.852,-96.337 758.444,-94.3562 759.48,-101.279"/>
</g>
<!-- 2 -->
<g id="node3" class="node"><title>2</title>
<path fill="none" stroke="#56d8c9" stroke-width="2" stroke-dasharray="5,2" d="M1140,-196C1140,-196 597,-196 597,-196 591,-196 585,-190 585,-184 585,-184 585,-156 585,-156 585,-150 591,-144 597,-144 597,-144 1140,-144 1140,-144 1146,-144 1152,-150 1152,-156 1152,-156 1152,-184 1152,-184 1152,-190 1146,-196 1140,-196"/>
<text text-anchor="middle" x="868.5" y="-184" font-family="sans" font-size="10.00">fastqc_pe</text>
<text text-anchor="middle" x="868.5" y="-173" font-family="sans" font-size="10.00">mate_index: 2</text>
<text text-anchor="middle" x="868.5" y="-162" font-family="sans" font-size="10.00">output_dir: /lulab/lustre2/zhangshang/work/software/exvariance/exvariance_software/demo/wgbs_rrbs_pe/output</text>
<text text-anchor="middle" x="868.5" y="-151" font-family="sans" font-size="10.00">sample_id: SRR11615795</text>
</g>
<!-- 2&#45;&gt;0 -->
<g id="edge2" class="edge"><title>2&#45;&gt;0</title>
<path fill="none" stroke="grey" stroke-width="2" d="M863.903,-143.81C860.241,-124.191 854.857,-96.299 849.5,-72 847.636,-63.5431 845.445,-54.3685 843.399,-46.0668"/>
<polygon fill="grey" stroke="grey" stroke-width="2" points="846.739,-44.9924 840.921,-36.138 839.947,-46.688 846.739,-44.9924"/>
</g>
<!-- 2&#45;&gt;3 -->
<g id="edge6" class="edge"><title>2&#45;&gt;3</title>
<path fill="none" stroke="grey" stroke-width="2" d="M847.898,-143.891C840.624,-135.026 832.446,-125.059 825.166,-116.187"/>
<polygon fill="grey" stroke="grey" stroke-width="2" points="827.835,-113.921 818.786,-108.411 822.423,-118.362 827.835,-113.921"/>
</g>
<!-- 3&#45;&gt;0 -->
<g id="edge3" class="edge"><title>3&#45;&gt;0</title>
<path fill="none" stroke="grey" stroke-width="2" d="M812.41,-71.6966C816.053,-63.7284 820.454,-54.0995 824.494,-45.2641"/>
<polygon fill="grey" stroke="grey" stroke-width="2" points="827.706,-46.6543 828.681,-36.1043 821.34,-43.7439 827.706,-46.6543"/>
</g>
<!-- 4 -->
<g id="node5" class="node"><title>4</title>
<path fill="none" stroke="#56d87b" stroke-width="2" stroke-dasharray="5,2" d="M1224,-108C1224,-108 1031,-108 1031,-108 1025,-108 1019,-102 1019,-96 1019,-96 1019,-84 1019,-84 1019,-78 1025,-72 1031,-72 1031,-72 1224,-72 1224,-72 1230,-72 1236,-78 1236,-84 1236,-84 1236,-96 1236,-96 1236,-102 1230,-108 1224,-108"/>
<text text-anchor="middle" x="1127.5" y="-87.5" font-family="sans" font-size="10.00">merge_cpg_position_and_get_wiggle_file</text>
</g>
<!-- 4&#45;&gt;0 -->
<g id="edge4" class="edge"><title>4&#45;&gt;0</title>
<path fill="none" stroke="grey" stroke-width="2" d="M1056.69,-71.9656C998.815,-58.0448 919.318,-38.9219 873.375,-27.8704"/>
<polygon fill="grey" stroke="grey" stroke-width="2" points="874.092,-24.4431 863.551,-25.5071 872.455,-31.2489 874.092,-24.4431"/>
</g>
<!-- 5 -->
<g id="node6" class="node"><title>5</title>
<path fill="none" stroke="#78d856" stroke-width="2" stroke-dasharray="5,2" d="M1319,-188C1319,-188 1182,-188 1182,-188 1176,-188 1170,-182 1170,-176 1170,-176 1170,-164 1170,-164 1170,-158 1176,-152 1182,-152 1182,-152 1319,-152 1319,-152 1325,-152 1331,-158 1331,-164 1331,-164 1331,-176 1331,-176 1331,-182 1325,-188 1319,-188"/>
<text text-anchor="middle" x="1250.5" y="-167.5" font-family="sans" font-size="10.00">bismark_methylation_extract</text>
</g>
<!-- 5&#45;&gt;4 -->
<g id="edge7" class="edge"><title>5&#45;&gt;4</title>
<path fill="none" stroke="grey" stroke-width="2" d="M1223.51,-151.883C1205.72,-140.605 1182.25,-125.717 1162.96,-113.487"/>
<polygon fill="grey" stroke="grey" stroke-width="2" points="1164.75,-110.477 1154.43,-108.078 1161,-116.389 1164.75,-110.477"/>
</g>
<!-- 6 -->
<g id="node7" class="node"><title>6</title>
<path fill="none" stroke="#56a2d8" stroke-width="2" stroke-dasharray="5,2" d="M1290.5,-268C1290.5,-268 1210.5,-268 1210.5,-268 1204.5,-268 1198.5,-262 1198.5,-256 1198.5,-256 1198.5,-244 1198.5,-244 1198.5,-238 1204.5,-232 1210.5,-232 1210.5,-232 1290.5,-232 1290.5,-232 1296.5,-232 1302.5,-238 1302.5,-244 1302.5,-244 1302.5,-256 1302.5,-256 1302.5,-262 1296.5,-268 1290.5,-268"/>
<text text-anchor="middle" x="1250.5" y="-247.5" font-family="sans" font-size="10.00">bismark_mapping</text>
</g>
<!-- 6&#45;&gt;5 -->
<g id="edge8" class="edge"><title>6&#45;&gt;5</title>
<path fill="none" stroke="grey" stroke-width="2" d="M1250.5,-231.689C1250.5,-221.894 1250.5,-209.422 1250.5,-198.335"/>
<polygon fill="grey" stroke="grey" stroke-width="2" points="1254,-198.262 1250.5,-188.262 1247,-198.262 1254,-198.262"/>
</g>
<!-- 7 -->
<g id="node8" class="node"><title>7</title>
<path fill="none" stroke="#d8a456" stroke-width="2" stroke-dasharray="5,2" d="M1522,-345C1522,-345 979,-345 979,-345 973,-345 967,-339 967,-333 967,-333 967,-316 967,-316 967,-310 973,-304 979,-304 979,-304 1522,-304 1522,-304 1528,-304 1534,-310 1534,-316 1534,-316 1534,-333 1534,-333 1534,-339 1528,-345 1522,-345"/>
<text text-anchor="middle" x="1250.5" y="-333" font-family="sans" font-size="10.00">trim_galore_pe</text>
<text text-anchor="middle" x="1250.5" y="-322" font-family="sans" font-size="10.00">output_dir: /lulab/lustre2/zhangshang/work/software/exvariance/exvariance_software/demo/wgbs_rrbs_pe/output</text>
<text text-anchor="middle" x="1250.5" y="-311" font-family="sans" font-size="10.00">sample_id: SRR11615795</text>
</g>
<!-- 7&#45;&gt;6 -->
<g id="edge9" class="edge"><title>7&#45;&gt;6</title>
<path fill="none" stroke="grey" stroke-width="2" d="M1250.5,-303.689C1250.5,-295.907 1250.5,-286.842 1250.5,-278.447"/>
<polygon fill="grey" stroke="grey" stroke-width="2" points="1254,-278.319 1250.5,-268.319 1247,-278.32 1254,-278.319"/>
</g>
</g>
</svg>
