<?xml version="1.0" encoding="UTF-8" standalone="no"?>
<!DOCTYPE svg PUBLIC "-//W3C//DTD SVG 1.1//EN"
 "http://www.w3.org/Graphics/SVG/1.1/DTD/svg11.dtd">
<!-- Generated by graphviz version 2.38.0 (20140413.2041)
 -->
<!-- Title: snakemake_dag Pages: 1 -->
<svg width="13233pt" height="425pt"
 viewBox="0.00 0.00 13233.00 425.00" xmlns="http://www.w3.org/2000/svg" xmlns:xlink="http://www.w3.org/1999/xlink">
<g id="graph0" class="graph" transform="scale(1 1) rotate(0) translate(4 421)">
<title>snakemake_dag</title>
<polygon fill="white" stroke="none" points="-4,4 -4,-421 13229,-421 13229,4 -4,4"/>
<!-- 0 -->
<g id="node1" class="node"><title>0</title>
<path fill="none" stroke="#d85656" stroke-width="2" d="M9969.5,-36C9969.5,-36 9939.5,-36 9939.5,-36 9933.5,-36 9927.5,-30 9927.5,-24 9927.5,-24 9927.5,-12 9927.5,-12 9927.5,-6 9933.5,-0 9939.5,-0 9939.5,-0 9969.5,-0 9969.5,-0 9975.5,-0 9981.5,-6 9981.5,-12 9981.5,-12 9981.5,-24 9981.5,-24 9981.5,-30 9975.5,-36 9969.5,-36"/>
<text text-anchor="middle" x="9954.5" y="-15.5" font-family="sans" font-size="10.00">all</text>
</g>
<!-- 1 -->
<g id="node2" class="node"><title>1</title>
<path fill="none" stroke="#d89556" stroke-width="2" d="M575,-268C575,-268 12,-268 12,-268 6,-268 5.68434e-14,-262 5.68434e-14,-256 5.68434e-14,-256 5.68434e-14,-228 5.68434e-14,-228 5.68434e-14,-222 6,-216 12,-216 12,-216 575,-216 575,-216 581,-216 587,-222 587,-228 587,-228 587,-256 587,-256 587,-262 581,-268 575,-268"/>
<text text-anchor="middle" x="293.5" y="-256" font-family="sans" font-size="10.00">fastqc_raw_pe</text>
<text text-anchor="middle" x="293.5" y="-245" font-family="sans" font-size="10.00">mate_index: 1</text>
<text text-anchor="middle" x="293.5" y="-234" font-family="sans" font-size="10.00">output_dir: /lulab/lustre2/zhangshang/work/software/exvariance/exvariance_software/demo/long_pe_example/output</text>
<text text-anchor="middle" x="293.5" y="-223" font-family="sans" font-size="10.00">sample_id: n1</text>
</g>
<!-- 1&#45;&gt;0 -->
<g id="edge1" class="edge"><title>1&#45;&gt;0</title>
<path fill="none" stroke="grey" stroke-width="2" d="M587.195,-216.6C589.976,-216.398 592.745,-216.198 595.5,-216 1122.67,-178.196 1254.87,-174.784 1782.5,-144 2353.54,-110.684 2495.78,-90.2062 3067.5,-72 4522.63,-25.6617 9441.18,-19.5236 9917.36,-19.0352"/>
<polygon fill="grey" stroke="grey" stroke-width="2" points="9917.48,-22.5352 9927.47,-19.025 9917.47,-15.5352 9917.48,-22.5352"/>
</g>
<!-- 17 -->
<g id="node18" class="node"><title>17</title>
<path fill="none" stroke="#569ad8" stroke-width="2" d="M5768.5,-180C5768.5,-180 5698.5,-180 5698.5,-180 5692.5,-180 5686.5,-174 5686.5,-168 5686.5,-168 5686.5,-156 5686.5,-156 5686.5,-150 5692.5,-144 5698.5,-144 5698.5,-144 5768.5,-144 5768.5,-144 5774.5,-144 5780.5,-150 5780.5,-156 5780.5,-156 5780.5,-168 5780.5,-168 5780.5,-174 5774.5,-180 5768.5,-180"/>
<text text-anchor="middle" x="5733.5" y="-159.5" font-family="sans" font-size="10.00">multiqc_raw_pe</text>
</g>
<!-- 1&#45;&gt;17 -->
<g id="edge44" class="edge"><title>1&#45;&gt;17</title>
<path fill="none" stroke="grey" stroke-width="2" d="M587.183,-216.4C589.968,-216.262 592.741,-216.128 595.5,-216 1655.59,-166.719 5183.37,-163.261 5676.15,-163.018"/>
<polygon fill="grey" stroke="grey" stroke-width="2" points="5676.23,-166.518 5686.23,-163.014 5676.23,-159.518 5676.23,-166.518"/>
</g>
<!-- 2 -->
<g id="node3" class="node"><title>2</title>
<path fill="none" stroke="#d89556" stroke-width="2" d="M1180,-268C1180,-268 617,-268 617,-268 611,-268 605,-262 605,-256 605,-256 605,-228 605,-228 605,-222 611,-216 617,-216 617,-216 1180,-216 1180,-216 1186,-216 1192,-222 1192,-228 1192,-228 1192,-256 1192,-256 1192,-262 1186,-268 1180,-268"/>
<text text-anchor="middle" x="898.5" y="-256" font-family="sans" font-size="10.00">fastqc_raw_pe</text>
<text text-anchor="middle" x="898.5" y="-245" font-family="sans" font-size="10.00">mate_index: 2</text>
<text text-anchor="middle" x="898.5" y="-234" font-family="sans" font-size="10.00">output_dir: /lulab/lustre2/zhangshang/work/software/exvariance/exvariance_software/demo/long_pe_example/output</text>
<text text-anchor="middle" x="898.5" y="-223" font-family="sans" font-size="10.00">sample_id: n1</text>
</g>
<!-- 2&#45;&gt;0 -->
<g id="edge2" class="edge"><title>2&#45;&gt;0</title>
<path fill="none" stroke="grey" stroke-width="2" d="M1192.19,-216.557C1194.97,-216.368 1197.74,-216.183 1200.5,-216 2485.94,-130.848 2807.8,-109.834 4095.5,-72 5327.89,-35.7907 9479.74,-20.6335 9917.13,-19.1261"/>
<polygon fill="grey" stroke="grey" stroke-width="2" points="9917.34,-22.6255 9927.33,-19.0911 9917.32,-15.6256 9917.34,-22.6255"/>
</g>
<!-- 2&#45;&gt;17 -->
<g id="edge45" class="edge"><title>2&#45;&gt;17</title>
<path fill="none" stroke="grey" stroke-width="2" d="M1192.18,-216.406C1194.97,-216.265 1197.74,-216.13 1200.5,-216 2131.14,-172.095 5217.55,-164.068 5676.29,-163.109"/>
<polygon fill="grey" stroke="grey" stroke-width="2" points="5676.33,-166.609 5686.32,-163.088 5676.32,-159.609 5676.33,-166.609"/>
</g>
<!-- 3 -->
<g id="node4" class="node"><title>3</title>
<path fill="none" stroke="#d89556" stroke-width="2" d="M1785,-268C1785,-268 1222,-268 1222,-268 1216,-268 1210,-262 1210,-256 1210,-256 1210,-228 1210,-228 1210,-222 1216,-216 1222,-216 1222,-216 1785,-216 1785,-216 1791,-216 1797,-222 1797,-228 1797,-228 1797,-256 1797,-256 1797,-262 1791,-268 1785,-268"/>
<text text-anchor="middle" x="1503.5" y="-256" font-family="sans" font-size="10.00">fastqc_raw_pe</text>
<text text-anchor="middle" x="1503.5" y="-245" font-family="sans" font-size="10.00">mate_index: 1</text>
<text text-anchor="middle" x="1503.5" y="-234" font-family="sans" font-size="10.00">output_dir: /lulab/lustre2/zhangshang/work/software/exvariance/exvariance_software/demo/long_pe_example/output</text>
<text text-anchor="middle" x="1503.5" y="-223" font-family="sans" font-size="10.00">sample_id: n2</text>
</g>
<!-- 3&#45;&gt;0 -->
<g id="edge3" class="edge"><title>3&#45;&gt;0</title>
<path fill="none" stroke="grey" stroke-width="2" d="M1797.19,-216.492C1799.97,-216.324 1802.74,-216.16 1805.5,-216 2284.07,-188.217 2404.59,-201.209 2883.5,-180 3753.75,-141.461 3969.87,-100.521 4840.5,-72 5911.99,-36.8995 9512.49,-20.8595 9917.37,-19.1533"/>
<polygon fill="grey" stroke="grey" stroke-width="2" points="9917.4,-22.6533 9927.38,-19.1113 9917.37,-15.6534 9917.4,-22.6533"/>
</g>
<!-- 3&#45;&gt;17 -->
<g id="edge46" class="edge"><title>3&#45;&gt;17</title>
<path fill="none" stroke="grey" stroke-width="2" d="M1797.18,-216.413C1799.97,-216.27 1802.74,-216.133 1805.5,-216 2007.42,-206.292 5205.51,-169.094 5675.91,-163.663"/>
<polygon fill="grey" stroke="grey" stroke-width="2" points="5676.23,-167.16 5686.19,-163.545 5676.15,-160.16 5676.23,-167.16"/>
</g>
<!-- 4 -->
<g id="node5" class="node"><title>4</title>
<path fill="none" stroke="#d89556" stroke-width="2" d="M2390,-268C2390,-268 1827,-268 1827,-268 1821,-268 1815,-262 1815,-256 1815,-256 1815,-228 1815,-228 1815,-222 1821,-216 1827,-216 1827,-216 2390,-216 2390,-216 2396,-216 2402,-222 2402,-228 2402,-228 2402,-256 2402,-256 2402,-262 2396,-268 2390,-268"/>
<text text-anchor="middle" x="2108.5" y="-256" font-family="sans" font-size="10.00">fastqc_raw_pe</text>
<text text-anchor="middle" x="2108.5" y="-245" font-family="sans" font-size="10.00">mate_index: 2</text>
<text text-anchor="middle" x="2108.5" y="-234" font-family="sans" font-size="10.00">output_dir: /lulab/lustre2/zhangshang/work/software/exvariance/exvariance_software/demo/long_pe_example/output</text>
<text text-anchor="middle" x="2108.5" y="-223" font-family="sans" font-size="10.00">sample_id: n2</text>
</g>
<!-- 4&#45;&gt;0 -->
<g id="edge4" class="edge"><title>4&#45;&gt;0</title>
<path fill="none" stroke="grey" stroke-width="2" d="M2402.18,-216.44C2404.97,-216.289 2407.74,-216.142 2410.5,-216 3199.4,-175.396 3399.08,-228.956 4187.5,-180 4649.99,-151.282 4761.88,-98.6245 5224.5,-72 6211.91,-15.1724 9528.62,-18.3624 9917.23,-18.938"/>
<polygon fill="grey" stroke="grey" stroke-width="2" points="9917.37,-22.4381 9927.37,-18.9534 9917.38,-15.4381 9917.37,-22.4381"/>
</g>
<!-- 4&#45;&gt;17 -->
<g id="edge47" class="edge"><title>4&#45;&gt;17</title>
<path fill="none" stroke="grey" stroke-width="2" d="M2402.18,-216.418C2404.97,-216.274 2407.74,-216.134 2410.5,-216 3497.33,-163.085 3770.54,-198.568 4858.5,-180 5166.77,-174.739 5536.11,-167.137 5676.01,-164.211"/>
<polygon fill="grey" stroke="grey" stroke-width="2" points="5676.15,-167.709 5686.08,-164 5676.01,-160.71 5676.15,-167.709"/>
</g>
<!-- 5 -->
<g id="node6" class="node"><title>5</title>
<path fill="none" stroke="#d89556" stroke-width="2" d="M2995,-268C2995,-268 2432,-268 2432,-268 2426,-268 2420,-262 2420,-256 2420,-256 2420,-228 2420,-228 2420,-222 2426,-216 2432,-216 2432,-216 2995,-216 2995,-216 3001,-216 3007,-222 3007,-228 3007,-228 3007,-256 3007,-256 3007,-262 3001,-268 2995,-268"/>
<text text-anchor="middle" x="2713.5" y="-256" font-family="sans" font-size="10.00">fastqc_raw_pe</text>
<text text-anchor="middle" x="2713.5" y="-245" font-family="sans" font-size="10.00">mate_index: 1</text>
<text text-anchor="middle" x="2713.5" y="-234" font-family="sans" font-size="10.00">output_dir: /lulab/lustre2/zhangshang/work/software/exvariance/exvariance_software/demo/long_pe_example/output</text>
<text text-anchor="middle" x="2713.5" y="-223" font-family="sans" font-size="10.00">sample_id: n3</text>
</g>
<!-- 5&#45;&gt;0 -->
<g id="edge5" class="edge"><title>5&#45;&gt;0</title>
<path fill="none" stroke="grey" stroke-width="2" d="M3007.18,-216.437C3009.97,-216.287 3012.74,-216.141 3015.5,-216 3424.6,-195.092 4450.96,-221.383 4858.5,-180 5121.11,-153.334 5179.79,-97.644 5442.5,-72 5913.32,-26.0412 9512.54,-19.6262 9917.47,-19.0483"/>
<polygon fill="grey" stroke="grey" stroke-width="2" points="9917.49,-22.5483 9927.49,-19.0342 9917.48,-15.5483 9917.49,-22.5483"/>
</g>
<!-- 5&#45;&gt;17 -->
<g id="edge48" class="edge"><title>5&#45;&gt;17</title>
<path fill="none" stroke="grey" stroke-width="2" d="M3007.18,-216.424C3009.97,-216.278 3012.74,-216.137 3015.5,-216 3991.32,-167.672 4236.77,-203.963 5213.5,-180 5381.65,-175.875 5580.31,-168.756 5676.13,-165.181"/>
<polygon fill="grey" stroke="grey" stroke-width="2" points="5676.32,-168.677 5686.19,-164.805 5676.06,-161.682 5676.32,-168.677"/>
</g>
<!-- 6 -->
<g id="node7" class="node"><title>6</title>
<path fill="none" stroke="#d89556" stroke-width="2" d="M3600,-268C3600,-268 3037,-268 3037,-268 3031,-268 3025,-262 3025,-256 3025,-256 3025,-228 3025,-228 3025,-222 3031,-216 3037,-216 3037,-216 3600,-216 3600,-216 3606,-216 3612,-222 3612,-228 3612,-228 3612,-256 3612,-256 3612,-262 3606,-268 3600,-268"/>
<text text-anchor="middle" x="3318.5" y="-256" font-family="sans" font-size="10.00">fastqc_raw_pe</text>
<text text-anchor="middle" x="3318.5" y="-245" font-family="sans" font-size="10.00">mate_index: 2</text>
<text text-anchor="middle" x="3318.5" y="-234" font-family="sans" font-size="10.00">output_dir: /lulab/lustre2/zhangshang/work/software/exvariance/exvariance_software/demo/long_pe_example/output</text>
<text text-anchor="middle" x="3318.5" y="-223" font-family="sans" font-size="10.00">sample_id: n3</text>
</g>
<!-- 6&#45;&gt;0 -->
<g id="edge6" class="edge"><title>6&#45;&gt;0</title>
<path fill="none" stroke="grey" stroke-width="2" d="M3612.19,-216.449C3614.97,-216.295 3617.74,-216.145 3620.5,-216 3974.1,-197.386 4863.6,-234.325 5213.5,-180 5381.94,-153.849 5412.93,-97.2685 5581.5,-72 5808.33,-37.9988 9504.01,-20.961 9917.06,-19.16"/>
<polygon fill="grey" stroke="grey" stroke-width="2" points="9917.28,-22.6592 9927.27,-19.1157 9917.25,-15.6592 9917.28,-22.6592"/>
</g>
<!-- 6&#45;&gt;17 -->
<g id="edge49" class="edge"><title>6&#45;&gt;17</title>
<path fill="none" stroke="grey" stroke-width="2" d="M3612.18,-216.439C3614.97,-216.288 3617.74,-216.142 3620.5,-216 4414.72,-175.175 4614.75,-208.839 5409.5,-180 5503.01,-176.607 5611.58,-170.46 5676.3,-166.561"/>
<polygon fill="grey" stroke="grey" stroke-width="2" points="5676.53,-170.053 5686.3,-165.955 5676.11,-163.066 5676.53,-170.053"/>
</g>
<!-- 7 -->
<g id="node8" class="node"><title>7</title>
<path fill="none" stroke="#d89556" stroke-width="2" d="M4205,-268C4205,-268 3642,-268 3642,-268 3636,-268 3630,-262 3630,-256 3630,-256 3630,-228 3630,-228 3630,-222 3636,-216 3642,-216 3642,-216 4205,-216 4205,-216 4211,-216 4217,-222 4217,-228 4217,-228 4217,-256 4217,-256 4217,-262 4211,-268 4205,-268"/>
<text text-anchor="middle" x="3923.5" y="-256" font-family="sans" font-size="10.00">fastqc_raw_pe</text>
<text text-anchor="middle" x="3923.5" y="-245" font-family="sans" font-size="10.00">mate_index: 1</text>
<text text-anchor="middle" x="3923.5" y="-234" font-family="sans" font-size="10.00">output_dir: /lulab/lustre2/zhangshang/work/software/exvariance/exvariance_software/demo/long_pe_example/output</text>
<text text-anchor="middle" x="3923.5" y="-223" font-family="sans" font-size="10.00">sample_id: n4</text>
</g>
<!-- 7&#45;&gt;0 -->
<g id="edge7" class="edge"><title>7&#45;&gt;0</title>
<path fill="none" stroke="grey" stroke-width="2" d="M4217.19,-216.48C4219.97,-216.316 4222.74,-216.156 4225.5,-216 4488.31,-201.137 5151.51,-232.261 5409.5,-180 5539.82,-153.601 5557.95,-97.2265 5688.5,-72 5908.07,-29.5715 9511.16,-20.0248 9917.34,-19.082"/>
<polygon fill="grey" stroke="grey" stroke-width="2" points="9917.39,-22.582 9927.38,-19.059 9917.37,-15.582 9917.39,-22.582"/>
</g>
<!-- 7&#45;&gt;17 -->
<g id="edge50" class="edge"><title>7&#45;&gt;17</title>
<path fill="none" stroke="grey" stroke-width="2" d="M4217.19,-216.469C4219.97,-216.309 4222.74,-216.152 4225.5,-216 4803.06,-184.127 4948.92,-211.684 5526.5,-180 5577.12,-177.223 5634.57,-172.369 5676.08,-168.557"/>
<polygon fill="grey" stroke="grey" stroke-width="2" points="5676.64,-172.02 5686.28,-167.612 5676,-165.05 5676.64,-172.02"/>
</g>
<!-- 8 -->
<g id="node9" class="node"><title>8</title>
<path fill="none" stroke="#d89556" stroke-width="2" d="M4810,-268C4810,-268 4247,-268 4247,-268 4241,-268 4235,-262 4235,-256 4235,-256 4235,-228 4235,-228 4235,-222 4241,-216 4247,-216 4247,-216 4810,-216 4810,-216 4816,-216 4822,-222 4822,-228 4822,-228 4822,-256 4822,-256 4822,-262 4816,-268 4810,-268"/>
<text text-anchor="middle" x="4528.5" y="-256" font-family="sans" font-size="10.00">fastqc_raw_pe</text>
<text text-anchor="middle" x="4528.5" y="-245" font-family="sans" font-size="10.00">mate_index: 2</text>
<text text-anchor="middle" x="4528.5" y="-234" font-family="sans" font-size="10.00">output_dir: /lulab/lustre2/zhangshang/work/software/exvariance/exvariance_software/demo/long_pe_example/output</text>
<text text-anchor="middle" x="4528.5" y="-223" font-family="sans" font-size="10.00">sample_id: n4</text>
</g>
<!-- 8&#45;&gt;0 -->
<g id="edge8" class="edge"><title>8&#45;&gt;0</title>
<path fill="none" stroke="grey" stroke-width="2" d="M4822.19,-216.564C4824.97,-216.373 4827.74,-216.185 4830.5,-216 4985.02,-205.61 5376.14,-217.121 5526.5,-180 5563.57,-170.849 5569,-158.058 5604.5,-144 5698.58,-106.74 5720.72,-88.8492 5820.5,-72 6033.97,-35.952 9517.9,-20.772 9917.29,-19.1476"/>
<polygon fill="grey" stroke="grey" stroke-width="2" points="9917.45,-22.6471 9927.43,-19.1066 9917.42,-15.6471 9917.45,-22.6471"/>
</g>
<!-- 8&#45;&gt;17 -->
<g id="edge51" class="edge"><title>8&#45;&gt;17</title>
<path fill="none" stroke="grey" stroke-width="2" d="M4822.19,-216.544C4824.97,-216.359 4827.74,-216.178 4830.5,-216 5174.16,-193.791 5261.48,-210.524 5604.5,-180 5628.11,-177.899 5654.04,-174.664 5676.42,-171.578"/>
<polygon fill="grey" stroke="grey" stroke-width="2" points="5677.01,-175.029 5686.43,-170.175 5676.04,-168.097 5677.01,-175.029"/>
</g>
<!-- 9 -->
<g id="node10" class="node"><title>9</title>
<path fill="none" stroke="#d89556" stroke-width="2" d="M5415,-268C5415,-268 4852,-268 4852,-268 4846,-268 4840,-262 4840,-256 4840,-256 4840,-228 4840,-228 4840,-222 4846,-216 4852,-216 4852,-216 5415,-216 5415,-216 5421,-216 5427,-222 5427,-228 5427,-228 5427,-256 5427,-256 5427,-262 5421,-268 5415,-268"/>
<text text-anchor="middle" x="5133.5" y="-256" font-family="sans" font-size="10.00">fastqc_raw_pe</text>
<text text-anchor="middle" x="5133.5" y="-245" font-family="sans" font-size="10.00">mate_index: 1</text>
<text text-anchor="middle" x="5133.5" y="-234" font-family="sans" font-size="10.00">output_dir: /lulab/lustre2/zhangshang/work/software/exvariance/exvariance_software/demo/long_pe_example/output</text>
<text text-anchor="middle" x="5133.5" y="-223" font-family="sans" font-size="10.00">sample_id: s1</text>
</g>
<!-- 9&#45;&gt;0 -->
<g id="edge9" class="edge"><title>9&#45;&gt;0</title>
<path fill="none" stroke="grey" stroke-width="2" d="M5383.83,-215.993C5473.27,-205.481 5562.32,-192.746 5604.5,-180 5639.13,-169.535 5642.85,-154.388 5677.5,-144 5924.63,-69.9166 5996.13,-89.8741 6253.5,-72 7019.05,-18.8334 9577.62,-18.7396 9917.17,-18.9658"/>
<polygon fill="grey" stroke="grey" stroke-width="2" points="9917.22,-22.4658 9927.22,-18.9731 9917.22,-15.4658 9917.22,-22.4658"/>
</g>
<!-- 9&#45;&gt;17 -->
<g id="edge52" class="edge"><title>9&#45;&gt;17</title>
<path fill="none" stroke="grey" stroke-width="2" d="M5405.56,-215.966C5488.37,-206.645 5579.43,-194.68 5662.5,-180 5666.97,-179.209 5671.59,-178.307 5676.21,-177.339"/>
<polygon fill="grey" stroke="grey" stroke-width="2" points="5677.28,-180.688 5686.31,-175.136 5675.79,-173.849 5677.28,-180.688"/>
</g>
<!-- 10 -->
<g id="node11" class="node"><title>10</title>
<path fill="none" stroke="#d89556" stroke-width="2" d="M6020,-268C6020,-268 5457,-268 5457,-268 5451,-268 5445,-262 5445,-256 5445,-256 5445,-228 5445,-228 5445,-222 5451,-216 5457,-216 5457,-216 6020,-216 6020,-216 6026,-216 6032,-222 6032,-228 6032,-228 6032,-256 6032,-256 6032,-262 6026,-268 6020,-268"/>
<text text-anchor="middle" x="5738.5" y="-256" font-family="sans" font-size="10.00">fastqc_raw_pe</text>
<text text-anchor="middle" x="5738.5" y="-245" font-family="sans" font-size="10.00">mate_index: 2</text>
<text text-anchor="middle" x="5738.5" y="-234" font-family="sans" font-size="10.00">output_dir: /lulab/lustre2/zhangshang/work/software/exvariance/exvariance_software/demo/long_pe_example/output</text>
<text text-anchor="middle" x="5738.5" y="-223" font-family="sans" font-size="10.00">sample_id: s1</text>
</g>
<!-- 10&#45;&gt;0 -->
<g id="edge10" class="edge"><title>10&#45;&gt;0</title>
<path fill="none" stroke="grey" stroke-width="2" d="M6032.2,-216.634C6034.98,-216.421 6037.75,-216.209 6040.5,-216 6962.72,-145.847 7192.73,-117.339 8116.5,-72 8840.54,-36.4642 9726.29,-22.2693 9917.16,-19.5158"/>
<polygon fill="grey" stroke="grey" stroke-width="2" points="9917.28,-23.0144 9927.23,-19.3718 9917.18,-16.0151 9917.28,-23.0144"/>
</g>
<!-- 10&#45;&gt;17 -->
<g id="edge53" class="edge"><title>10&#45;&gt;17</title>
<path fill="none" stroke="grey" stroke-width="2" d="M5736.89,-215.891C5736.37,-207.84 5735.8,-198.88 5735.27,-190.658"/>
<polygon fill="grey" stroke="grey" stroke-width="2" points="5738.75,-190.166 5734.62,-180.411 5731.76,-190.614 5738.75,-190.166"/>
</g>
<!-- 11 -->
<g id="node12" class="node"><title>11</title>
<path fill="none" stroke="#d89556" stroke-width="2" d="M6625,-268C6625,-268 6062,-268 6062,-268 6056,-268 6050,-262 6050,-256 6050,-256 6050,-228 6050,-228 6050,-222 6056,-216 6062,-216 6062,-216 6625,-216 6625,-216 6631,-216 6637,-222 6637,-228 6637,-228 6637,-256 6637,-256 6637,-262 6631,-268 6625,-268"/>
<text text-anchor="middle" x="6343.5" y="-256" font-family="sans" font-size="10.00">fastqc_raw_pe</text>
<text text-anchor="middle" x="6343.5" y="-245" font-family="sans" font-size="10.00">mate_index: 1</text>
<text text-anchor="middle" x="6343.5" y="-234" font-family="sans" font-size="10.00">output_dir: /lulab/lustre2/zhangshang/work/software/exvariance/exvariance_software/demo/long_pe_example/output</text>
<text text-anchor="middle" x="6343.5" y="-223" font-family="sans" font-size="10.00">sample_id: s2</text>
</g>
<!-- 11&#45;&gt;0 -->
<g id="edge11" class="edge"><title>11&#45;&gt;0</title>
<path fill="none" stroke="grey" stroke-width="2" d="M6637.2,-216.635C6639.98,-216.421 6642.75,-216.21 6645.5,-216 7565.95,-145.921 7795.84,-123.762 8717.5,-72 9190.64,-45.4276 9766.25,-25.3165 9916.95,-20.2445"/>
<polygon fill="grey" stroke="grey" stroke-width="2" points="9917.18,-23.7388 9927.06,-19.9054 9916.95,-16.7427 9917.18,-23.7388"/>
</g>
<!-- 11&#45;&gt;17 -->
<g id="edge54" class="edge"><title>11&#45;&gt;17</title>
<path fill="none" stroke="grey" stroke-width="2" d="M6147.98,-215.998C6023.82,-200.123 5871.77,-180.68 5790.76,-170.321"/>
<polygon fill="grey" stroke="grey" stroke-width="2" points="5791.12,-166.84 5780.76,-169.043 5790.23,-173.783 5791.12,-166.84"/>
</g>
<!-- 12 -->
<g id="node13" class="node"><title>12</title>
<path fill="none" stroke="#d89556" stroke-width="2" d="M7230,-268C7230,-268 6667,-268 6667,-268 6661,-268 6655,-262 6655,-256 6655,-256 6655,-228 6655,-228 6655,-222 6661,-216 6667,-216 6667,-216 7230,-216 7230,-216 7236,-216 7242,-222 7242,-228 7242,-228 7242,-256 7242,-256 7242,-262 7236,-268 7230,-268"/>
<text text-anchor="middle" x="6948.5" y="-256" font-family="sans" font-size="10.00">fastqc_raw_pe</text>
<text text-anchor="middle" x="6948.5" y="-245" font-family="sans" font-size="10.00">mate_index: 2</text>
<text text-anchor="middle" x="6948.5" y="-234" font-family="sans" font-size="10.00">output_dir: /lulab/lustre2/zhangshang/work/software/exvariance/exvariance_software/demo/long_pe_example/output</text>
<text text-anchor="middle" x="6948.5" y="-223" font-family="sans" font-size="10.00">sample_id: s2</text>
</g>
<!-- 12&#45;&gt;0 -->
<g id="edge12" class="edge"><title>12&#45;&gt;0</title>
<path fill="none" stroke="grey" stroke-width="2" d="M7242.2,-216.648C7244.98,-216.43 7247.75,-216.214 7250.5,-216 8340.06,-131.215 9677.49,-38.1757 9916.93,-21.5969"/>
<polygon fill="grey" stroke="grey" stroke-width="2" points="9917.45,-25.0691 9927.19,-20.8869 9916.97,-18.0859 9917.45,-25.0691"/>
</g>
<!-- 12&#45;&gt;17 -->
<g id="edge55" class="edge"><title>12&#45;&gt;17</title>
<path fill="none" stroke="grey" stroke-width="2" d="M6654.63,-216.647C6651.57,-216.429 6648.53,-216.213 6645.5,-216 6322.53,-193.295 5934.72,-173.099 5790.85,-165.848"/>
<polygon fill="grey" stroke="grey" stroke-width="2" points="5790.68,-162.335 5780.51,-165.329 5790.33,-169.326 5790.68,-162.335"/>
</g>
<!-- 13 -->
<g id="node14" class="node"><title>13</title>
<path fill="none" stroke="#d89556" stroke-width="2" d="M7835,-268C7835,-268 7272,-268 7272,-268 7266,-268 7260,-262 7260,-256 7260,-256 7260,-228 7260,-228 7260,-222 7266,-216 7272,-216 7272,-216 7835,-216 7835,-216 7841,-216 7847,-222 7847,-228 7847,-228 7847,-256 7847,-256 7847,-262 7841,-268 7835,-268"/>
<text text-anchor="middle" x="7553.5" y="-256" font-family="sans" font-size="10.00">fastqc_raw_pe</text>
<text text-anchor="middle" x="7553.5" y="-245" font-family="sans" font-size="10.00">mate_index: 1</text>
<text text-anchor="middle" x="7553.5" y="-234" font-family="sans" font-size="10.00">output_dir: /lulab/lustre2/zhangshang/work/software/exvariance/exvariance_software/demo/long_pe_example/output</text>
<text text-anchor="middle" x="7553.5" y="-223" font-family="sans" font-size="10.00">sample_id: s3</text>
</g>
<!-- 13&#45;&gt;0 -->
<g id="edge13" class="edge"><title>13&#45;&gt;0</title>
<path fill="none" stroke="grey" stroke-width="2" d="M7847.19,-216.548C7849.97,-216.362 7852.74,-216.18 7855.5,-216 8225.05,-191.924 9162.01,-208.308 9518.5,-108 9552.56,-98.417 9555.77,-82.6828 9589.5,-72 9705.39,-35.2951 9850.12,-23.8826 9917.19,-20.4353"/>
<polygon fill="grey" stroke="grey" stroke-width="2" points="9917.45,-23.9269 9927.27,-19.9478 9917.11,-16.935 9917.45,-23.9269"/>
</g>
<!-- 13&#45;&gt;17 -->
<g id="edge56" class="edge"><title>13&#45;&gt;17</title>
<path fill="none" stroke="grey" stroke-width="2" d="M7259.64,-216.547C7256.58,-216.36 7253.53,-216.178 7250.5,-216 6681.62,-182.613 5991.42,-167.814 5790.74,-164.022"/>
<polygon fill="grey" stroke="grey" stroke-width="2" points="5790.79,-160.522 5780.72,-163.834 5790.66,-167.521 5790.79,-160.522"/>
</g>
<!-- 14 -->
<g id="node15" class="node"><title>14</title>
<path fill="none" stroke="#d89556" stroke-width="2" d="M8440,-268C8440,-268 7877,-268 7877,-268 7871,-268 7865,-262 7865,-256 7865,-256 7865,-228 7865,-228 7865,-222 7871,-216 7877,-216 7877,-216 8440,-216 8440,-216 8446,-216 8452,-222 8452,-228 8452,-228 8452,-256 8452,-256 8452,-262 8446,-268 8440,-268"/>
<text text-anchor="middle" x="8158.5" y="-256" font-family="sans" font-size="10.00">fastqc_raw_pe</text>
<text text-anchor="middle" x="8158.5" y="-245" font-family="sans" font-size="10.00">mate_index: 2</text>
<text text-anchor="middle" x="8158.5" y="-234" font-family="sans" font-size="10.00">output_dir: /lulab/lustre2/zhangshang/work/software/exvariance/exvariance_software/demo/long_pe_example/output</text>
<text text-anchor="middle" x="8158.5" y="-223" font-family="sans" font-size="10.00">sample_id: s3</text>
</g>
<!-- 14&#45;&gt;0 -->
<g id="edge14" class="edge"><title>14&#45;&gt;0</title>
<path fill="none" stroke="grey" stroke-width="2" d="M8452.19,-216.49C8454.97,-216.323 8457.74,-216.16 8460.5,-216 8521.04,-212.497 9498.7,-209.835 9551.5,-180 9601.3,-151.859 9573.55,-103.193 9621.5,-72 9669.83,-40.5577 9840.95,-26.1227 9917.27,-21.1383"/>
<polygon fill="grey" stroke="grey" stroke-width="2" points="9917.63,-24.6226 9927.39,-20.4969 9917.19,-17.6367 9917.63,-24.6226"/>
</g>
<!-- 14&#45;&gt;17 -->
<g id="edge57" class="edge"><title>14&#45;&gt;17</title>
<path fill="none" stroke="grey" stroke-width="2" d="M7864.64,-216.504C7861.58,-216.331 7858.53,-216.163 7855.5,-216 7036.53,-172.023 6037.76,-164.453 5790.76,-163.226"/>
<polygon fill="grey" stroke="grey" stroke-width="2" points="5790.6,-159.725 5780.59,-163.177 5790.57,-166.725 5790.6,-159.725"/>
</g>
<!-- 15 -->
<g id="node16" class="node"><title>15</title>
<path fill="none" stroke="#d89556" stroke-width="2" d="M9045,-268C9045,-268 8482,-268 8482,-268 8476,-268 8470,-262 8470,-256 8470,-256 8470,-228 8470,-228 8470,-222 8476,-216 8482,-216 8482,-216 9045,-216 9045,-216 9051,-216 9057,-222 9057,-228 9057,-228 9057,-256 9057,-256 9057,-262 9051,-268 9045,-268"/>
<text text-anchor="middle" x="8763.5" y="-256" font-family="sans" font-size="10.00">fastqc_raw_pe</text>
<text text-anchor="middle" x="8763.5" y="-245" font-family="sans" font-size="10.00">mate_index: 1</text>
<text text-anchor="middle" x="8763.5" y="-234" font-family="sans" font-size="10.00">output_dir: /lulab/lustre2/zhangshang/work/software/exvariance/exvariance_software/demo/long_pe_example/output</text>
<text text-anchor="middle" x="8763.5" y="-223" font-family="sans" font-size="10.00">sample_id: s4</text>
</g>
<!-- 15&#45;&gt;0 -->
<g id="edge15" class="edge"><title>15&#45;&gt;0</title>
<path fill="none" stroke="grey" stroke-width="2" d="M9057.2,-216.631C9059.98,-216.419 9062.75,-216.209 9065.5,-216 9123.69,-211.593 9540.14,-211.129 9589.5,-180 9636.13,-150.595 9605.46,-103.789 9650.5,-72 9692.96,-42.0271 9845.71,-27.0419 9917.16,-21.5439"/>
<polygon fill="grey" stroke="grey" stroke-width="2" points="9917.78,-25.0071 9927.49,-20.7715 9917.26,-18.0266 9917.78,-25.0071"/>
</g>
<!-- 15&#45;&gt;17 -->
<g id="edge58" class="edge"><title>15&#45;&gt;17</title>
<path fill="none" stroke="grey" stroke-width="2" d="M8469.64,-216.48C8466.58,-216.314 8463.53,-216.154 8460.5,-216 7388.99,-161.438 6078.04,-161.941 5790.83,-162.777"/>
<polygon fill="grey" stroke="grey" stroke-width="2" points="5790.65,-159.278 5780.66,-162.808 5790.67,-166.278 5790.65,-159.278"/>
</g>
<!-- 16 -->
<g id="node17" class="node"><title>16</title>
<path fill="none" stroke="#d89556" stroke-width="2" d="M9650,-268C9650,-268 9087,-268 9087,-268 9081,-268 9075,-262 9075,-256 9075,-256 9075,-228 9075,-228 9075,-222 9081,-216 9087,-216 9087,-216 9650,-216 9650,-216 9656,-216 9662,-222 9662,-228 9662,-228 9662,-256 9662,-256 9662,-262 9656,-268 9650,-268"/>
<text text-anchor="middle" x="9368.5" y="-256" font-family="sans" font-size="10.00">fastqc_raw_pe</text>
<text text-anchor="middle" x="9368.5" y="-245" font-family="sans" font-size="10.00">mate_index: 2</text>
<text text-anchor="middle" x="9368.5" y="-234" font-family="sans" font-size="10.00">output_dir: /lulab/lustre2/zhangshang/work/software/exvariance/exvariance_software/demo/long_pe_example/output</text>
<text text-anchor="middle" x="9368.5" y="-223" font-family="sans" font-size="10.00">sample_id: s4</text>
</g>
<!-- 16&#45;&gt;0 -->
<g id="edge16" class="edge"><title>16&#45;&gt;0</title>
<path fill="none" stroke="grey" stroke-width="2" d="M9525.2,-215.955C9569.52,-206.326 9610.38,-194.184 9627.5,-180 9667.95,-146.486 9634.33,-104.625 9675.5,-72 9712.45,-42.7143 9849.93,-27.6041 9917.09,-21.835"/>
<polygon fill="grey" stroke="grey" stroke-width="2" points="9917.57,-25.3077 9927.24,-20.9886 9916.99,-18.3319 9917.57,-25.3077"/>
</g>
<!-- 16&#45;&gt;17 -->
<g id="edge59" class="edge"><title>16&#45;&gt;17</title>
<path fill="none" stroke="grey" stroke-width="2" d="M9074.64,-216.464C9071.58,-216.304 9068.53,-216.149 9065.5,-216 8390.87,-182.84 6174.94,-166.079 5790.58,-163.388"/>
<polygon fill="grey" stroke="grey" stroke-width="2" points="5790.55,-159.888 5780.52,-163.318 5790.5,-166.888 5790.55,-159.888"/>
</g>
<!-- 17&#45;&gt;0 -->
<g id="edge17" class="edge"><title>17&#45;&gt;0</title>
<path fill="none" stroke="grey" stroke-width="2" d="M5780.58,-155.473C5921.72,-139.176 6353.76,-91.2501 6713.5,-72 7380.97,-36.2831 9600.53,-21.2151 9916.86,-19.2294"/>
<polygon fill="grey" stroke="grey" stroke-width="2" points="9917.32,-22.7267 9927.3,-19.1643 9917.28,-15.7268 9917.32,-22.7267"/>
</g>
<!-- 43 -->
<g id="node44" class="node"><title>43</title>
<path fill="none" stroke="#59d856" stroke-width="2" d="M9497.5,-108C9497.5,-108 9377.5,-108 9377.5,-108 9371.5,-108 9365.5,-102 9365.5,-96 9365.5,-96 9365.5,-84 9365.5,-84 9365.5,-78 9371.5,-72 9377.5,-72 9377.5,-72 9497.5,-72 9497.5,-72 9503.5,-72 9509.5,-78 9509.5,-84 9509.5,-84 9509.5,-96 9509.5,-96 9509.5,-102 9503.5,-108 9497.5,-108"/>
<text text-anchor="middle" x="9437.5" y="-87.5" font-family="sans" font-size="10.00">summary_pre_process_pe</text>
</g>
<!-- 17&#45;&gt;43 -->
<g id="edge100" class="edge"><title>17&#45;&gt;43</title>
<path fill="none" stroke="grey" stroke-width="2" d="M5780.67,-160.109C6169.89,-152.753 8849.1,-102.12 9355.14,-92.5565"/>
<polygon fill="grey" stroke="grey" stroke-width="2" points="9355.35,-96.0533 9365.28,-92.3649 9355.22,-89.0545 9355.35,-96.0533"/>
</g>
<!-- 18 -->
<g id="node19" class="node"><title>18</title>
<path fill="none" stroke="#56d8d8" stroke-width="2" d="M9751,-340C9751,-340 9704,-340 9704,-340 9698,-340 9692,-334 9692,-328 9692,-328 9692,-316 9692,-316 9692,-310 9698,-304 9704,-304 9704,-304 9751,-304 9751,-304 9757,-304 9763,-310 9763,-316 9763,-316 9763,-328 9763,-328 9763,-334 9757,-340 9751,-340"/>
<text text-anchor="middle" x="9727.5" y="-319.5" font-family="sans" font-size="10.00">afterQC_pe</text>
</g>
<!-- 18&#45;&gt;0 -->
<g id="edge18" class="edge"><title>18&#45;&gt;0</title>
<path fill="none" stroke="grey" stroke-width="2" d="M9718.4,-303.854C9708.34,-282.396 9695.19,-244.948 9708.5,-216 9750.84,-123.943 9860.66,-61.9825 9918.17,-34.749"/>
<polygon fill="grey" stroke="grey" stroke-width="2" points="9919.67,-37.9105 9927.27,-30.5244 9916.72,-31.5615 9919.67,-37.9105"/>
</g>
<!-- 26 -->
<g id="node27" class="node"><title>26</title>
<path fill="none" stroke="#56d89a" stroke-width="2" d="M9801,-260C9801,-260 9730,-260 9730,-260 9724,-260 9718,-254 9718,-248 9718,-248 9718,-236 9718,-236 9718,-230 9724,-224 9730,-224 9730,-224 9801,-224 9801,-224 9807,-224 9813,-230 9813,-236 9813,-236 9813,-248 9813,-248 9813,-254 9807,-260 9801,-260"/>
<text text-anchor="middle" x="9765.5" y="-245" font-family="sans" font-size="10.00">fastqc_clean_pe</text>
<text text-anchor="middle" x="9765.5" y="-234" font-family="sans" font-size="10.00">mate_index: 1</text>
</g>
<!-- 18&#45;&gt;26 -->
<g id="edge68" class="edge"><title>18&#45;&gt;26</title>
<path fill="none" stroke="grey" stroke-width="2" d="M9735.93,-303.689C9740.85,-293.591 9747.16,-280.648 9752.68,-269.31"/>
<polygon fill="grey" stroke="grey" stroke-width="2" points="9755.86,-270.785 9757.09,-260.262 9749.56,-267.719 9755.86,-270.785"/>
</g>
<!-- 27 -->
<g id="node28" class="node"><title>27</title>
<path fill="none" stroke="#56d89a" stroke-width="2" d="M9914,-260C9914,-260 9843,-260 9843,-260 9837,-260 9831,-254 9831,-248 9831,-248 9831,-236 9831,-236 9831,-230 9837,-224 9843,-224 9843,-224 9914,-224 9914,-224 9920,-224 9926,-230 9926,-236 9926,-236 9926,-248 9926,-248 9926,-254 9920,-260 9914,-260"/>
<text text-anchor="middle" x="9878.5" y="-245" font-family="sans" font-size="10.00">fastqc_clean_pe</text>
<text text-anchor="middle" x="9878.5" y="-234" font-family="sans" font-size="10.00">mate_index: 2</text>
</g>
<!-- 18&#45;&gt;27 -->
<g id="edge69" class="edge"><title>18&#45;&gt;27</title>
<path fill="none" stroke="grey" stroke-width="2" d="M9760.64,-303.883C9782.86,-292.402 9812.33,-277.18 9836.24,-264.829"/>
<polygon fill="grey" stroke="grey" stroke-width="2" points="9838.16,-267.777 9845.44,-260.078 9834.95,-261.557 9838.16,-267.777"/>
</g>
<!-- 19 -->
<g id="node20" class="node"><title>19</title>
<path fill="none" stroke="#56d8d8" stroke-width="2" d="M10016,-340C10016,-340 9969,-340 9969,-340 9963,-340 9957,-334 9957,-328 9957,-328 9957,-316 9957,-316 9957,-310 9963,-304 9969,-304 9969,-304 10016,-304 10016,-304 10022,-304 10028,-310 10028,-316 10028,-316 10028,-328 10028,-328 10028,-334 10022,-340 10016,-340"/>
<text text-anchor="middle" x="9992.5" y="-319.5" font-family="sans" font-size="10.00">afterQC_pe</text>
</g>
<!-- 19&#45;&gt;0 -->
<g id="edge19" class="edge"><title>19&#45;&gt;0</title>
<path fill="none" stroke="grey" stroke-width="2" d="M9984.96,-303.677C9980.86,-293.486 9976.11,-280.236 9973.5,-268 9956.58,-188.707 9954.24,-92.3875 9954.21,-46.23"/>
<polygon fill="grey" stroke="grey" stroke-width="2" points="9957.71,-46.1411 9954.24,-36.1307 9950.71,-46.1201 9957.71,-46.1411"/>
</g>
<!-- 28 -->
<g id="node29" class="node"><title>28</title>
<path fill="none" stroke="#56d89a" stroke-width="2" d="M10066,-260C10066,-260 9995,-260 9995,-260 9989,-260 9983,-254 9983,-248 9983,-248 9983,-236 9983,-236 9983,-230 9989,-224 9995,-224 9995,-224 10066,-224 10066,-224 10072,-224 10078,-230 10078,-236 10078,-236 10078,-248 10078,-248 10078,-254 10072,-260 10066,-260"/>
<text text-anchor="middle" x="10030.5" y="-245" font-family="sans" font-size="10.00">fastqc_clean_pe</text>
<text text-anchor="middle" x="10030.5" y="-234" font-family="sans" font-size="10.00">mate_index: 1</text>
</g>
<!-- 19&#45;&gt;28 -->
<g id="edge70" class="edge"><title>19&#45;&gt;28</title>
<path fill="none" stroke="grey" stroke-width="2" d="M10000.9,-303.689C10005.9,-293.591 10012.2,-280.648 10017.7,-269.31"/>
<polygon fill="grey" stroke="grey" stroke-width="2" points="10020.9,-270.785 10022.1,-260.262 10014.6,-267.719 10020.9,-270.785"/>
</g>
<!-- 29 -->
<g id="node30" class="node"><title>29</title>
<path fill="none" stroke="#56d89a" stroke-width="2" d="M10179,-260C10179,-260 10108,-260 10108,-260 10102,-260 10096,-254 10096,-248 10096,-248 10096,-236 10096,-236 10096,-230 10102,-224 10108,-224 10108,-224 10179,-224 10179,-224 10185,-224 10191,-230 10191,-236 10191,-236 10191,-248 10191,-248 10191,-254 10185,-260 10179,-260"/>
<text text-anchor="middle" x="10143.5" y="-245" font-family="sans" font-size="10.00">fastqc_clean_pe</text>
<text text-anchor="middle" x="10143.5" y="-234" font-family="sans" font-size="10.00">mate_index: 2</text>
</g>
<!-- 19&#45;&gt;29 -->
<g id="edge71" class="edge"><title>19&#45;&gt;29</title>
<path fill="none" stroke="grey" stroke-width="2" d="M10025.6,-303.883C10047.9,-292.402 10077.3,-277.18 10101.2,-264.829"/>
<polygon fill="grey" stroke="grey" stroke-width="2" points="10103.2,-267.777 10110.4,-260.078 10099.9,-261.557 10103.2,-267.777"/>
</g>
<!-- 20 -->
<g id="node21" class="node"><title>20</title>
<path fill="none" stroke="#56d8d8" stroke-width="2" d="M10281,-340C10281,-340 10234,-340 10234,-340 10228,-340 10222,-334 10222,-328 10222,-328 10222,-316 10222,-316 10222,-310 10228,-304 10234,-304 10234,-304 10281,-304 10281,-304 10287,-304 10293,-310 10293,-316 10293,-316 10293,-328 10293,-328 10293,-334 10287,-340 10281,-340"/>
<text text-anchor="middle" x="10257.5" y="-319.5" font-family="sans" font-size="10.00">afterQC_pe</text>
</g>
<!-- 20&#45;&gt;0 -->
<g id="edge20" class="edge"><title>20&#45;&gt;0</title>
<path fill="none" stroke="grey" stroke-width="2" d="M10250.4,-303.844C10240.8,-282.045 10222.3,-243.903 10199.5,-216 10137.5,-140.076 10041.9,-73.7172 9990.36,-40.8743"/>
<polygon fill="grey" stroke="grey" stroke-width="2" points="9992.2,-37.8957 9981.88,-35.5154 9988.46,-43.8143 9992.2,-37.8957"/>
</g>
<!-- 30 -->
<g id="node31" class="node"><title>30</title>
<path fill="none" stroke="#56d89a" stroke-width="2" d="M10444,-260C10444,-260 10373,-260 10373,-260 10367,-260 10361,-254 10361,-248 10361,-248 10361,-236 10361,-236 10361,-230 10367,-224 10373,-224 10373,-224 10444,-224 10444,-224 10450,-224 10456,-230 10456,-236 10456,-236 10456,-248 10456,-248 10456,-254 10450,-260 10444,-260"/>
<text text-anchor="middle" x="10408.5" y="-245" font-family="sans" font-size="10.00">fastqc_clean_pe</text>
<text text-anchor="middle" x="10408.5" y="-234" font-family="sans" font-size="10.00">mate_index: 1</text>
</g>
<!-- 20&#45;&gt;30 -->
<g id="edge72" class="edge"><title>20&#45;&gt;30</title>
<path fill="none" stroke="grey" stroke-width="2" d="M10290.6,-303.883C10312.9,-292.402 10342.3,-277.18 10366.2,-264.829"/>
<polygon fill="grey" stroke="grey" stroke-width="2" points="10368.2,-267.777 10375.4,-260.078 10364.9,-261.557 10368.2,-267.777"/>
</g>
<!-- 31 -->
<g id="node32" class="node"><title>31</title>
<path fill="none" stroke="#56d89a" stroke-width="2" d="M10331,-260C10331,-260 10260,-260 10260,-260 10254,-260 10248,-254 10248,-248 10248,-248 10248,-236 10248,-236 10248,-230 10254,-224 10260,-224 10260,-224 10331,-224 10331,-224 10337,-224 10343,-230 10343,-236 10343,-236 10343,-248 10343,-248 10343,-254 10337,-260 10331,-260"/>
<text text-anchor="middle" x="10295.5" y="-245" font-family="sans" font-size="10.00">fastqc_clean_pe</text>
<text text-anchor="middle" x="10295.5" y="-234" font-family="sans" font-size="10.00">mate_index: 2</text>
</g>
<!-- 20&#45;&gt;31 -->
<g id="edge73" class="edge"><title>20&#45;&gt;31</title>
<path fill="none" stroke="grey" stroke-width="2" d="M10265.9,-303.689C10270.9,-293.591 10277.2,-280.648 10282.7,-269.31"/>
<polygon fill="grey" stroke="grey" stroke-width="2" points="10285.9,-270.785 10287.1,-260.262 10279.6,-267.719 10285.9,-270.785"/>
</g>
<!-- 21 -->
<g id="node22" class="node"><title>21</title>
<path fill="none" stroke="#56d8d8" stroke-width="2" d="M10602,-340C10602,-340 10555,-340 10555,-340 10549,-340 10543,-334 10543,-328 10543,-328 10543,-316 10543,-316 10543,-310 10549,-304 10555,-304 10555,-304 10602,-304 10602,-304 10608,-304 10614,-310 10614,-316 10614,-316 10614,-328 10614,-328 10614,-334 10608,-340 10602,-340"/>
<text text-anchor="middle" x="10578.5" y="-319.5" font-family="sans" font-size="10.00">afterQC_pe</text>
</g>
<!-- 21&#45;&gt;0 -->
<g id="edge21" class="edge"><title>21&#45;&gt;0</title>
<path fill="none" stroke="grey" stroke-width="2" d="M10614.1,-320.984C10692.8,-320.113 10877.8,-313.193 10916.5,-268 10931.5,-250.438 10928.7,-235.651 10916.5,-216 10841,-93.9788 10765.8,-110.336 10627.5,-72 10506.2,-38.3827 10114.9,-23.871 9991.86,-20.0666"/>
<polygon fill="grey" stroke="grey" stroke-width="2" points="9991.9,-16.5665 9981.8,-19.7611 9991.69,-23.5632 9991.9,-16.5665"/>
</g>
<!-- 32 -->
<g id="node33" class="node"><title>32</title>
<path fill="none" stroke="#56d89a" stroke-width="2" d="M10557,-260C10557,-260 10486,-260 10486,-260 10480,-260 10474,-254 10474,-248 10474,-248 10474,-236 10474,-236 10474,-230 10480,-224 10486,-224 10486,-224 10557,-224 10557,-224 10563,-224 10569,-230 10569,-236 10569,-236 10569,-248 10569,-248 10569,-254 10563,-260 10557,-260"/>
<text text-anchor="middle" x="10521.5" y="-245" font-family="sans" font-size="10.00">fastqc_clean_pe</text>
<text text-anchor="middle" x="10521.5" y="-234" font-family="sans" font-size="10.00">mate_index: 1</text>
</g>
<!-- 21&#45;&gt;32 -->
<g id="edge74" class="edge"><title>21&#45;&gt;32</title>
<path fill="none" stroke="grey" stroke-width="2" d="M10565.8,-303.689C10558.3,-293.389 10548.6,-280.129 10540.2,-268.632"/>
<polygon fill="grey" stroke="grey" stroke-width="2" points="10542.8,-266.271 10534.1,-260.262 10537.2,-270.401 10542.8,-266.271"/>
</g>
<!-- 33 -->
<g id="node34" class="node"><title>33</title>
<path fill="none" stroke="#56d89a" stroke-width="2" d="M10670,-260C10670,-260 10599,-260 10599,-260 10593,-260 10587,-254 10587,-248 10587,-248 10587,-236 10587,-236 10587,-230 10593,-224 10599,-224 10599,-224 10670,-224 10670,-224 10676,-224 10682,-230 10682,-236 10682,-236 10682,-248 10682,-248 10682,-254 10676,-260 10670,-260"/>
<text text-anchor="middle" x="10634.5" y="-245" font-family="sans" font-size="10.00">fastqc_clean_pe</text>
<text text-anchor="middle" x="10634.5" y="-234" font-family="sans" font-size="10.00">mate_index: 2</text>
</g>
<!-- 21&#45;&gt;33 -->
<g id="edge75" class="edge"><title>21&#45;&gt;33</title>
<path fill="none" stroke="grey" stroke-width="2" d="M10590.9,-303.689C10598.3,-293.389 10607.8,-280.129 10616.1,-268.632"/>
<polygon fill="grey" stroke="grey" stroke-width="2" points="10619.1,-270.427 10622.1,-260.262 10613.4,-266.344 10619.1,-270.427"/>
</g>
<!-- 22 -->
<g id="node23" class="node"><title>22</title>
<path fill="none" stroke="#56d8d8" stroke-width="2" d="M11073,-340C11073,-340 11026,-340 11026,-340 11020,-340 11014,-334 11014,-328 11014,-328 11014,-316 11014,-316 11014,-310 11020,-304 11026,-304 11026,-304 11073,-304 11073,-304 11079,-304 11085,-310 11085,-316 11085,-316 11085,-328 11085,-328 11085,-334 11079,-340 11073,-340"/>
<text text-anchor="middle" x="11049.5" y="-319.5" font-family="sans" font-size="10.00">afterQC_pe</text>
</g>
<!-- 22&#45;&gt;0 -->
<g id="edge22" class="edge"><title>22&#45;&gt;0</title>
<path fill="none" stroke="grey" stroke-width="2" d="M11085.2,-318.331C11171.7,-311.511 11386.6,-292.261 11407.5,-268 11422.6,-250.502 11419.6,-235.694 11407.5,-216 11333.4,-95.407 11260.4,-108.011 11123.5,-72 11012,-42.6668 10179.3,-23.6862 9991.89,-19.7585"/>
<polygon fill="grey" stroke="grey" stroke-width="2" points="9991.78,-16.2556 9981.71,-19.5468 9991.64,-23.2541 9991.78,-16.2556"/>
</g>
<!-- 34 -->
<g id="node35" class="node"><title>34</title>
<path fill="none" stroke="#56d89a" stroke-width="2" d="M10783,-260C10783,-260 10712,-260 10712,-260 10706,-260 10700,-254 10700,-248 10700,-248 10700,-236 10700,-236 10700,-230 10706,-224 10712,-224 10712,-224 10783,-224 10783,-224 10789,-224 10795,-230 10795,-236 10795,-236 10795,-248 10795,-248 10795,-254 10789,-260 10783,-260"/>
<text text-anchor="middle" x="10747.5" y="-245" font-family="sans" font-size="10.00">fastqc_clean_pe</text>
<text text-anchor="middle" x="10747.5" y="-234" font-family="sans" font-size="10.00">mate_index: 1</text>
</g>
<!-- 22&#45;&gt;34 -->
<g id="edge76" class="edge"><title>22&#45;&gt;34</title>
<path fill="none" stroke="grey" stroke-width="2" d="M11013.9,-315.709C10965.5,-307.987 10876.6,-291.898 10803.5,-268 10799.7,-266.769 10795.9,-265.369 10792.1,-263.874"/>
<polygon fill="grey" stroke="grey" stroke-width="2" points="10793.2,-260.559 10782.6,-260.005 10790.5,-267.036 10793.2,-260.559"/>
</g>
<!-- 35 -->
<g id="node36" class="node"><title>35</title>
<path fill="none" stroke="#56d89a" stroke-width="2" d="M10896,-260C10896,-260 10825,-260 10825,-260 10819,-260 10813,-254 10813,-248 10813,-248 10813,-236 10813,-236 10813,-230 10819,-224 10825,-224 10825,-224 10896,-224 10896,-224 10902,-224 10908,-230 10908,-236 10908,-236 10908,-248 10908,-248 10908,-254 10902,-260 10896,-260"/>
<text text-anchor="middle" x="10860.5" y="-245" font-family="sans" font-size="10.00">fastqc_clean_pe</text>
<text text-anchor="middle" x="10860.5" y="-234" font-family="sans" font-size="10.00">mate_index: 2</text>
</g>
<!-- 22&#45;&gt;35 -->
<g id="edge77" class="edge"><title>22&#45;&gt;35</title>
<path fill="none" stroke="grey" stroke-width="2" d="M11014,-306.329C10984.9,-294.359 10943.6,-277.3 10911.1,-263.902"/>
<polygon fill="grey" stroke="grey" stroke-width="2" points="10912.4,-260.629 10901.8,-260.05 10909.7,-267.1 10912.4,-260.629"/>
</g>
<!-- 23 -->
<g id="node24" class="node"><title>23</title>
<path fill="none" stroke="#56d8d8" stroke-width="2" d="M11351,-340C11351,-340 11304,-340 11304,-340 11298,-340 11292,-334 11292,-328 11292,-328 11292,-316 11292,-316 11292,-310 11298,-304 11304,-304 11304,-304 11351,-304 11351,-304 11357,-304 11363,-310 11363,-316 11363,-316 11363,-328 11363,-328 11363,-334 11357,-340 11351,-340"/>
<text text-anchor="middle" x="11327.5" y="-319.5" font-family="sans" font-size="10.00">afterQC_pe</text>
</g>
<!-- 23&#45;&gt;0 -->
<g id="edge23" class="edge"><title>23&#45;&gt;0</title>
<path fill="none" stroke="grey" stroke-width="2" d="M11363.2,-312.242C11386,-304.622 11413.6,-291.065 11427.5,-268 11439.4,-248.198 11434.3,-238.087 11427.5,-216 11393.8,-106.44 11325.2,-97.7738 11213.5,-72 10972.4,-16.361 10174.1,-17.6704 9991.8,-18.7266"/>
<polygon fill="grey" stroke="grey" stroke-width="2" points="9991.63,-15.2275 9981.65,-18.7889 9991.67,-22.2273 9991.63,-15.2275"/>
</g>
<!-- 36 -->
<g id="node37" class="node"><title>36</title>
<path fill="none" stroke="#56d89a" stroke-width="2" d="M11161,-260C11161,-260 11090,-260 11090,-260 11084,-260 11078,-254 11078,-248 11078,-248 11078,-236 11078,-236 11078,-230 11084,-224 11090,-224 11090,-224 11161,-224 11161,-224 11167,-224 11173,-230 11173,-236 11173,-236 11173,-248 11173,-248 11173,-254 11167,-260 11161,-260"/>
<text text-anchor="middle" x="11125.5" y="-245" font-family="sans" font-size="10.00">fastqc_clean_pe</text>
<text text-anchor="middle" x="11125.5" y="-234" font-family="sans" font-size="10.00">mate_index: 1</text>
</g>
<!-- 23&#45;&gt;36 -->
<g id="edge78" class="edge"><title>23&#45;&gt;36</title>
<path fill="none" stroke="grey" stroke-width="2" d="M11291.8,-308.853C11262.1,-298.539 11218.8,-283.054 11181.5,-268 11178.4,-266.763 11175.3,-265.46 11172.1,-264.123"/>
<polygon fill="grey" stroke="grey" stroke-width="2" points="11173.3,-260.794 11162.7,-260.05 11170.5,-267.222 11173.3,-260.794"/>
</g>
<!-- 37 -->
<g id="node38" class="node"><title>37</title>
<path fill="none" stroke="#56d89a" stroke-width="2" d="M11048,-260C11048,-260 10977,-260 10977,-260 10971,-260 10965,-254 10965,-248 10965,-248 10965,-236 10965,-236 10965,-230 10971,-224 10977,-224 10977,-224 11048,-224 11048,-224 11054,-224 11060,-230 11060,-236 11060,-236 11060,-248 11060,-248 11060,-254 11054,-260 11048,-260"/>
<text text-anchor="middle" x="11012.5" y="-245" font-family="sans" font-size="10.00">fastqc_clean_pe</text>
<text text-anchor="middle" x="11012.5" y="-234" font-family="sans" font-size="10.00">mate_index: 2</text>
</g>
<!-- 23&#45;&gt;37 -->
<g id="edge79" class="edge"><title>23&#45;&gt;37</title>
<path fill="none" stroke="grey" stroke-width="2" d="M11291.7,-316.197C11241.1,-308.851 11146.3,-292.989 11068.5,-268 11064.7,-266.789 11060.9,-265.402 11057,-263.916"/>
<polygon fill="grey" stroke="grey" stroke-width="2" points="11058.2,-260.601 11047.6,-260.062 11055.5,-267.082 11058.2,-260.601"/>
</g>
<!-- 24 -->
<g id="node25" class="node"><title>24</title>
<path fill="none" stroke="#56d8d8" stroke-width="2" d="M11508,-340C11508,-340 11461,-340 11461,-340 11455,-340 11449,-334 11449,-328 11449,-328 11449,-316 11449,-316 11449,-310 11455,-304 11461,-304 11461,-304 11508,-304 11508,-304 11514,-304 11520,-310 11520,-316 11520,-316 11520,-328 11520,-328 11520,-334 11514,-340 11508,-340"/>
<text text-anchor="middle" x="11484.5" y="-319.5" font-family="sans" font-size="10.00">afterQC_pe</text>
</g>
<!-- 24&#45;&gt;0 -->
<g id="edge24" class="edge"><title>24&#45;&gt;0</title>
<path fill="none" stroke="grey" stroke-width="2" d="M11520,-314.774C11546.4,-308.092 11580.6,-294.609 11597.5,-268 11645,-193.327 11534.1,-86.3679 11509.5,-72 11441.9,-32.5749 10222.9,-21.0998 9992.05,-19.2763"/>
<polygon fill="grey" stroke="grey" stroke-width="2" points="9991.84,-15.7747 9981.82,-19.1967 9991.79,-22.7745 9991.84,-15.7747"/>
</g>
<!-- 38 -->
<g id="node39" class="node"><title>38</title>
<path fill="none" stroke="#56d89a" stroke-width="2" d="M11274,-260C11274,-260 11203,-260 11203,-260 11197,-260 11191,-254 11191,-248 11191,-248 11191,-236 11191,-236 11191,-230 11197,-224 11203,-224 11203,-224 11274,-224 11274,-224 11280,-224 11286,-230 11286,-236 11286,-236 11286,-248 11286,-248 11286,-254 11280,-260 11274,-260"/>
<text text-anchor="middle" x="11238.5" y="-245" font-family="sans" font-size="10.00">fastqc_clean_pe</text>
<text text-anchor="middle" x="11238.5" y="-234" font-family="sans" font-size="10.00">mate_index: 1</text>
</g>
<!-- 24&#45;&gt;38 -->
<g id="edge80" class="edge"><title>24&#45;&gt;38</title>
<path fill="none" stroke="grey" stroke-width="2" d="M11449,-312.764C11410.5,-303.439 11347.3,-287.044 11294.5,-268 11291,-266.753 11287.5,-265.388 11284,-263.959"/>
<polygon fill="grey" stroke="grey" stroke-width="2" points="11285.2,-260.69 11274.6,-260.064 11282.5,-267.149 11285.2,-260.69"/>
</g>
<!-- 39 -->
<g id="node40" class="node"><title>39</title>
<path fill="none" stroke="#56d89a" stroke-width="2" d="M11387,-260C11387,-260 11316,-260 11316,-260 11310,-260 11304,-254 11304,-248 11304,-248 11304,-236 11304,-236 11304,-230 11310,-224 11316,-224 11316,-224 11387,-224 11387,-224 11393,-224 11399,-230 11399,-236 11399,-236 11399,-248 11399,-248 11399,-254 11393,-260 11387,-260"/>
<text text-anchor="middle" x="11351.5" y="-245" font-family="sans" font-size="10.00">fastqc_clean_pe</text>
<text text-anchor="middle" x="11351.5" y="-234" font-family="sans" font-size="10.00">mate_index: 2</text>
</g>
<!-- 24&#45;&gt;39 -->
<g id="edge81" class="edge"><title>24&#45;&gt;39</title>
<path fill="none" stroke="grey" stroke-width="2" d="M11455.3,-303.883C11435.9,-292.503 11410.2,-277.449 11389.3,-265.157"/>
<polygon fill="grey" stroke="grey" stroke-width="2" points="11391,-262.117 11380.6,-260.078 11387.5,-268.156 11391,-262.117"/>
</g>
<!-- 25 -->
<g id="node26" class="node"><title>25</title>
<path fill="none" stroke="#56d8d8" stroke-width="2" d="M11755,-340C11755,-340 11708,-340 11708,-340 11702,-340 11696,-334 11696,-328 11696,-328 11696,-316 11696,-316 11696,-310 11702,-304 11708,-304 11708,-304 11755,-304 11755,-304 11761,-304 11767,-310 11767,-316 11767,-316 11767,-328 11767,-328 11767,-334 11761,-340 11755,-340"/>
<text text-anchor="middle" x="11731.5" y="-319.5" font-family="sans" font-size="10.00">afterQC_pe</text>
</g>
<!-- 25&#45;&gt;0 -->
<g id="edge25" class="edge"><title>25&#45;&gt;0</title>
<path fill="none" stroke="grey" stroke-width="2" d="M11739.1,-303.66C11747.3,-282.638 11758,-246.266 11749.5,-216 11729.2,-143.799 11726.3,-109.7 11661.5,-72 11586.9,-28.6115 10235,-20.3026 9991.83,-19.1568"/>
<polygon fill="grey" stroke="grey" stroke-width="2" points="9991.74,-15.6564 9981.72,-19.1103 9991.71,-22.6564 9991.74,-15.6564"/>
</g>
<!-- 40 -->
<g id="node41" class="node"><title>40</title>
<path fill="none" stroke="#56d89a" stroke-width="2" d="M11577,-260C11577,-260 11506,-260 11506,-260 11500,-260 11494,-254 11494,-248 11494,-248 11494,-236 11494,-236 11494,-230 11500,-224 11506,-224 11506,-224 11577,-224 11577,-224 11583,-224 11589,-230 11589,-236 11589,-236 11589,-248 11589,-248 11589,-254 11583,-260 11577,-260"/>
<text text-anchor="middle" x="11541.5" y="-245" font-family="sans" font-size="10.00">fastqc_clean_pe</text>
<text text-anchor="middle" x="11541.5" y="-234" font-family="sans" font-size="10.00">mate_index: 1</text>
</g>
<!-- 25&#45;&gt;40 -->
<g id="edge82" class="edge"><title>25&#45;&gt;40</title>
<path fill="none" stroke="grey" stroke-width="2" d="M11695.8,-306.329C11666.6,-294.359 11625.1,-277.3 11592.4,-263.902"/>
<polygon fill="grey" stroke="grey" stroke-width="2" points="11593.6,-260.61 11583,-260.05 11591,-267.085 11593.6,-260.61"/>
</g>
<!-- 41 -->
<g id="node42" class="node"><title>41</title>
<path fill="none" stroke="#56d89a" stroke-width="2" d="M11729,-260C11729,-260 11658,-260 11658,-260 11652,-260 11646,-254 11646,-248 11646,-248 11646,-236 11646,-236 11646,-230 11652,-224 11658,-224 11658,-224 11729,-224 11729,-224 11735,-224 11741,-230 11741,-236 11741,-236 11741,-248 11741,-248 11741,-254 11735,-260 11729,-260"/>
<text text-anchor="middle" x="11693.5" y="-245" font-family="sans" font-size="10.00">fastqc_clean_pe</text>
<text text-anchor="middle" x="11693.5" y="-234" font-family="sans" font-size="10.00">mate_index: 2</text>
</g>
<!-- 25&#45;&gt;41 -->
<g id="edge83" class="edge"><title>25&#45;&gt;41</title>
<path fill="none" stroke="grey" stroke-width="2" d="M11723.1,-303.689C11718.1,-293.591 11711.8,-280.648 11706.3,-269.31"/>
<polygon fill="grey" stroke="grey" stroke-width="2" points="11709.4,-267.719 11701.9,-260.262 11703.1,-270.785 11709.4,-267.719"/>
</g>
<!-- 26&#45;&gt;0 -->
<g id="edge26" class="edge"><title>26&#45;&gt;0</title>
<path fill="none" stroke="grey" stroke-width="2" d="M9780.02,-223.949C9813.2,-184.966 9894.74,-89.1973 9933.44,-43.7317"/>
<polygon fill="grey" stroke="grey" stroke-width="2" points="9936.12,-45.9927 9939.93,-36.1094 9930.79,-41.4549 9936.12,-45.9927"/>
</g>
<!-- 42 -->
<g id="node43" class="node"><title>42</title>
<path fill="none" stroke="#97d856" stroke-width="2" d="M10597.5,-180C10597.5,-180 10519.5,-180 10519.5,-180 10513.5,-180 10507.5,-174 10507.5,-168 10507.5,-168 10507.5,-156 10507.5,-156 10507.5,-150 10513.5,-144 10519.5,-144 10519.5,-144 10597.5,-144 10597.5,-144 10603.5,-144 10609.5,-150 10609.5,-156 10609.5,-156 10609.5,-168 10609.5,-168 10609.5,-174 10603.5,-180 10597.5,-180"/>
<text text-anchor="middle" x="10558.5" y="-159.5" font-family="sans" font-size="10.00">multiqc_clean_pe</text>
</g>
<!-- 26&#45;&gt;42 -->
<g id="edge84" class="edge"><title>26&#45;&gt;42</title>
<path fill="none" stroke="grey" stroke-width="2" d="M9798.58,-223.967C9805.95,-220.815 9813.86,-217.917 9821.5,-216 9948.91,-184.032 10344.1,-169.293 10497.1,-164.676"/>
<polygon fill="grey" stroke="grey" stroke-width="2" points="10497.4,-168.17 10507.3,-164.374 10497.2,-161.173 10497.4,-168.17"/>
</g>
<!-- 27&#45;&gt;0 -->
<g id="edge27" class="edge"><title>27&#45;&gt;0</title>
<path fill="none" stroke="grey" stroke-width="2" d="M9884.34,-223.949C9897.49,-185.531 9929.52,-91.9613 9945.35,-45.7398"/>
<polygon fill="grey" stroke="grey" stroke-width="2" points="9948.72,-46.704 9948.64,-36.1094 9942.09,-44.4368 9948.72,-46.704"/>
</g>
<!-- 27&#45;&gt;42 -->
<g id="edge85" class="edge"><title>27&#45;&gt;42</title>
<path fill="none" stroke="grey" stroke-width="2" d="M9926.48,-226.707C9941.43,-222.706 9958.05,-218.714 9973.5,-216 10162.6,-182.799 10389.9,-169.768 10497,-165.196"/>
<polygon fill="grey" stroke="grey" stroke-width="2" points="10497.4,-168.68 10507.3,-164.767 10497.1,-161.686 10497.4,-168.68"/>
</g>
<!-- 28&#45;&gt;0 -->
<g id="edge28" class="edge"><title>28&#45;&gt;0</title>
<path fill="none" stroke="grey" stroke-width="2" d="M10024.7,-223.949C10011.5,-185.531 9979.48,-91.9613 9963.65,-45.7398"/>
<polygon fill="grey" stroke="grey" stroke-width="2" points="9966.91,-44.4368 9960.36,-36.1094 9960.28,-46.704 9966.91,-44.4368"/>
</g>
<!-- 28&#45;&gt;42 -->
<g id="edge86" class="edge"><title>28&#45;&gt;42</title>
<path fill="none" stroke="grey" stroke-width="2" d="M10064.2,-223.942C10071.4,-220.873 10079.1,-218.014 10086.5,-216 10230.1,-176.886 10405.9,-166.582 10497.1,-163.905"/>
<polygon fill="grey" stroke="grey" stroke-width="2" points="10497.3,-167.399 10507.2,-163.628 10497.2,-160.402 10497.3,-167.399"/>
</g>
<!-- 29&#45;&gt;0 -->
<g id="edge29" class="edge"><title>29&#45;&gt;0</title>
<path fill="none" stroke="grey" stroke-width="2" d="M10129,-223.949C10095.8,-184.966 10014.3,-89.1973 9975.56,-43.7317"/>
<polygon fill="grey" stroke="grey" stroke-width="2" points="9978.21,-41.4549 9969.07,-36.1094 9972.88,-45.9927 9978.21,-41.4549"/>
</g>
<!-- 29&#45;&gt;42 -->
<g id="edge87" class="edge"><title>29&#45;&gt;42</title>
<path fill="none" stroke="grey" stroke-width="2" d="M10191.1,-227.536C10206.2,-223.524 10223,-219.318 10238.5,-216 10327.9,-196.881 10432.6,-180.7 10497.2,-171.417"/>
<polygon fill="grey" stroke="grey" stroke-width="2" points="10497.8,-174.864 10507.2,-169.987 10496.8,-167.935 10497.8,-174.864"/>
</g>
<!-- 30&#45;&gt;0 -->
<g id="edge30" class="edge"><title>30&#45;&gt;0</title>
<path fill="none" stroke="grey" stroke-width="2" d="M10399.3,-223.93C10379.4,-188.994 10328.8,-109.482 10262.5,-72 10216.8,-46.1659 10064.1,-29.0985 9992.37,-22.31"/>
<polygon fill="grey" stroke="grey" stroke-width="2" points="9992.26,-18.7854 9981.98,-21.346 9991.62,-25.7554 9992.26,-18.7854"/>
</g>
<!-- 30&#45;&gt;42 -->
<g id="edge88" class="edge"><title>30&#45;&gt;42</title>
<path fill="none" stroke="grey" stroke-width="2" d="M10441.4,-223.883C10463.5,-212.402 10492.8,-197.18 10516.5,-184.829"/>
<polygon fill="grey" stroke="grey" stroke-width="2" points="10518.4,-187.796 10525.7,-180.078 10515.2,-181.586 10518.4,-187.796"/>
</g>
<!-- 31&#45;&gt;0 -->
<g id="edge31" class="edge"><title>31&#45;&gt;0</title>
<path fill="none" stroke="grey" stroke-width="2" d="M10294.6,-223.767C10291.7,-189.24 10280.1,-111.522 10233.5,-72 10197.5,-41.5002 10059.6,-26.9901 9992.1,-21.6021"/>
<polygon fill="grey" stroke="grey" stroke-width="2" points="9992.14,-18.0951 9981.9,-20.8147 9991.6,-25.0743 9992.14,-18.0951"/>
</g>
<!-- 31&#45;&gt;42 -->
<g id="edge89" class="edge"><title>31&#45;&gt;42</title>
<path fill="none" stroke="grey" stroke-width="2" d="M10331.3,-223.949C10337.9,-221.094 10344.9,-218.312 10351.5,-216 10399.6,-199.255 10455.6,-185.237 10497.2,-175.831"/>
<polygon fill="grey" stroke="grey" stroke-width="2" points="10498.2,-179.196 10507.2,-173.6 10496.6,-172.364 10498.2,-179.196"/>
</g>
<!-- 32&#45;&gt;0 -->
<g id="edge32" class="edge"><title>32&#45;&gt;0</title>
<path fill="none" stroke="grey" stroke-width="2" d="M10505.3,-223.885C10471,-188.864 10387.1,-109.202 10299.5,-72 10194.4,-27.353 10057,-19.7205 9991.87,-18.7993"/>
<polygon fill="grey" stroke="grey" stroke-width="2" points="9991.72,-15.2978 9981.69,-18.7026 9991.65,-22.2974 9991.72,-15.2978"/>
</g>
<!-- 32&#45;&gt;42 -->
<g id="edge90" class="edge"><title>32&#45;&gt;42</title>
<path fill="none" stroke="grey" stroke-width="2" d="M10529.7,-223.689C10534.5,-213.591 10540.6,-200.648 10546,-189.31"/>
<polygon fill="grey" stroke="grey" stroke-width="2" points="10549.2,-190.797 10550.3,-180.262 10542.9,-187.797 10549.2,-190.797"/>
</g>
<!-- 33&#45;&gt;0 -->
<g id="edge33" class="edge"><title>33&#45;&gt;0</title>
<path fill="none" stroke="grey" stroke-width="2" d="M10595.8,-223.933C10557.2,-206.856 10503,-182.732 10498.5,-180 10476.3,-166.589 10473.5,-159.256 10452.5,-144 10406.1,-110.315 10399.1,-92.3807 10345.5,-72 10222.2,-25.0854 10063.1,-18.7642 9991.86,-18.5101"/>
<polygon fill="grey" stroke="grey" stroke-width="2" points="9991.6,-15.0101 9981.61,-18.5143 9991.61,-22.0101 9991.6,-15.0101"/>
</g>
<!-- 33&#45;&gt;42 -->
<g id="edge91" class="edge"><title>33&#45;&gt;42</title>
<path fill="none" stroke="grey" stroke-width="2" d="M10617.6,-223.689C10607.3,-213.086 10593.9,-199.346 10582.5,-187.622"/>
<polygon fill="grey" stroke="grey" stroke-width="2" points="10584.8,-184.982 10575.3,-180.262 10579.8,-189.867 10584.8,-184.982"/>
</g>
<!-- 34&#45;&gt;0 -->
<g id="edge34" class="edge"><title>34&#45;&gt;0</title>
<path fill="none" stroke="grey" stroke-width="2" d="M10731.6,-223.981C10697.3,-188.408 10611.9,-106.617 10521.5,-72 10424.1,-34.6885 10102.2,-22.8791 9991.91,-19.8792"/>
<polygon fill="grey" stroke="grey" stroke-width="2" points="9991.71,-16.3727 9981.62,-19.6082 9991.52,-23.3703 9991.71,-16.3727"/>
</g>
<!-- 34&#45;&gt;42 -->
<g id="edge92" class="edge"><title>34&#45;&gt;42</title>
<path fill="none" stroke="grey" stroke-width="2" d="M10708.9,-223.891C10702.8,-221.217 10696.5,-218.51 10690.5,-216 10664.6,-205.111 10635.6,-193.422 10611.4,-183.799"/>
<polygon fill="grey" stroke="grey" stroke-width="2" points="10612.6,-180.52 10602,-180.083 10610,-187.026 10612.6,-180.52"/>
</g>
<!-- 35&#45;&gt;0 -->
<g id="edge35" class="edge"><title>35&#45;&gt;0</title>
<path fill="none" stroke="grey" stroke-width="2" d="M10838.8,-223.731C10792.7,-188.056 10679.9,-106.663 10570.5,-72 10461.6,-37.5057 10107.9,-23.7323 9991.81,-20.0695"/>
<polygon fill="grey" stroke="grey" stroke-width="2" points="9991.75,-16.566 9981.65,-19.7557 9991.53,-23.5626 9991.75,-16.566"/>
</g>
<!-- 35&#45;&gt;42 -->
<g id="edge93" class="edge"><title>35&#45;&gt;42</title>
<path fill="none" stroke="grey" stroke-width="2" d="M10824.4,-223.888C10817.6,-221.006 10810.4,-218.231 10803.5,-216 10742.3,-196.181 10670.1,-181.579 10620,-172.777"/>
<polygon fill="grey" stroke="grey" stroke-width="2" points="10620.4,-169.298 10610,-171.041 10619.2,-176.196 10620.4,-169.298"/>
</g>
<!-- 36&#45;&gt;0 -->
<g id="edge36" class="edge"><title>36&#45;&gt;0</title>
<path fill="none" stroke="grey" stroke-width="2" d="M11117,-223.832C11098.1,-187.974 11049,-105.667 10980.5,-72 10890.4,-27.7292 10165.1,-20.334 9991.66,-19.1947"/>
<polygon fill="grey" stroke="grey" stroke-width="2" points="9991.52,-15.6939 9981.5,-19.1311 9991.48,-22.6938 9991.52,-15.6939"/>
</g>
<!-- 36&#45;&gt;42 -->
<g id="edge94" class="edge"><title>36&#45;&gt;42</title>
<path fill="none" stroke="grey" stroke-width="2" d="M11091.1,-223.902C11083.8,-220.836 11076,-217.988 11068.5,-216 10910.5,-174.238 10716.9,-165.117 10619.9,-163.298"/>
<polygon fill="grey" stroke="grey" stroke-width="2" points="10619.8,-159.795 10609.7,-163.127 10619.7,-166.794 10619.8,-159.795"/>
</g>
<!-- 37&#45;&gt;0 -->
<g id="edge37" class="edge"><title>37&#45;&gt;0</title>
<path fill="none" stroke="grey" stroke-width="2" d="M11012,-223.768C11010,-188.531 10999.9,-108.485 10950.5,-72 10911.2,-42.9988 10168.2,-23.9637 9991.83,-19.8418"/>
<polygon fill="grey" stroke="grey" stroke-width="2" points="9991.82,-16.3407 9981.74,-19.6079 9991.66,-23.3388 9991.82,-16.3407"/>
</g>
<!-- 37&#45;&gt;42 -->
<g id="edge95" class="edge"><title>37&#45;&gt;42</title>
<path fill="none" stroke="grey" stroke-width="2" d="M10964.9,-227.517C10949.5,-223.459 10932.4,-219.23 10916.5,-216 10813.2,-194.971 10691.6,-178.744 10620,-170.056"/>
<polygon fill="grey" stroke="grey" stroke-width="2" points="10620.1,-166.549 10609.8,-168.829 10619.3,-173.499 10620.1,-166.549"/>
</g>
<!-- 38&#45;&gt;0 -->
<g id="edge38" class="edge"><title>38&#45;&gt;0</title>
<path fill="none" stroke="grey" stroke-width="2" d="M11223.6,-223.975C11190.9,-188.012 11108.7,-104.917 11019.5,-72 10921.5,-35.8502 10168.9,-22.2512 9991.75,-19.5341"/>
<polygon fill="grey" stroke="grey" stroke-width="2" points="9991.68,-16.0327 9981.62,-19.3812 9991.57,-23.0319 9991.68,-16.0327"/>
</g>
<!-- 38&#45;&gt;42 -->
<g id="edge96" class="edge"><title>38&#45;&gt;42</title>
<path fill="none" stroke="grey" stroke-width="2" d="M11204.5,-223.92C11197.1,-220.813 11189.1,-217.945 11181.5,-216 11076.3,-189.234 10755.1,-171.937 10619.7,-165.654"/>
<polygon fill="grey" stroke="grey" stroke-width="2" points="10619.7,-162.148 10609.5,-165.185 10619.3,-169.14 10619.7,-162.148"/>
</g>
<!-- 39&#45;&gt;0 -->
<g id="edge39" class="edge"><title>39&#45;&gt;0</title>
<path fill="none" stroke="grey" stroke-width="2" d="M11331.1,-223.945C11286.7,-187.924 11176.3,-104.723 11067.5,-72 10962.7,-40.4833 10173.8,-23.2782 9991.87,-19.7043"/>
<polygon fill="grey" stroke="grey" stroke-width="2" points="9991.79,-16.2023 9981.73,-19.507 9991.66,-23.2009 9991.79,-16.2023"/>
</g>
<!-- 39&#45;&gt;42 -->
<g id="edge97" class="edge"><title>39&#45;&gt;42</title>
<path fill="none" stroke="grey" stroke-width="2" d="M11317.8,-223.972C11310.3,-220.82 11302.3,-217.921 11294.5,-216 11167.2,-184.486 10772.5,-169.475 10619.8,-164.731"/>
<polygon fill="grey" stroke="grey" stroke-width="2" points="10619.7,-161.228 10609.6,-164.42 10619.5,-168.225 10619.7,-161.228"/>
</g>
<!-- 40&#45;&gt;0 -->
<g id="edge40" class="edge"><title>40&#45;&gt;0</title>
<path fill="none" stroke="grey" stroke-width="2" d="M11541.1,-223.964C11539.2,-188.727 11529.4,-108.121 11479.5,-72 11417.4,-27.0102 10219.8,-20.0461 9991.8,-19.1267"/>
<polygon fill="grey" stroke="grey" stroke-width="2" points="9991.7,-15.6264 9981.69,-19.0874 9991.68,-22.6263 9991.7,-15.6264"/>
</g>
<!-- 40&#45;&gt;42 -->
<g id="edge98" class="edge"><title>40&#45;&gt;42</title>
<path fill="none" stroke="grey" stroke-width="2" d="M11494,-230.669C11468.4,-225.494 11436.4,-219.583 11407.5,-216 11114,-179.602 10760.2,-167.718 10620,-164.268"/>
<polygon fill="grey" stroke="grey" stroke-width="2" points="10620,-160.766 10609.9,-164.024 10619.8,-167.764 10620,-160.766"/>
</g>
<!-- 41&#45;&gt;0 -->
<g id="edge41" class="edge"><title>41&#45;&gt;0</title>
<path fill="none" stroke="grey" stroke-width="2" d="M11693.1,-223.951C11691.2,-188.691 11681.4,-108.042 11631.5,-72 11562.8,-22.3796 10232.3,-19.1771 9991.66,-19.0043"/>
<polygon fill="grey" stroke="grey" stroke-width="2" points="9991.66,-15.5044 9981.66,-18.9985 9991.66,-22.5044 9991.66,-15.5044"/>
</g>
<!-- 41&#45;&gt;42 -->
<g id="edge99" class="edge"><title>41&#45;&gt;42</title>
<path fill="none" stroke="grey" stroke-width="2" d="M11645.6,-226.467C11630.3,-222.405 11613.3,-218.439 11597.5,-216 11407.2,-186.682 10813.2,-169.437 10620,-164.49"/>
<polygon fill="grey" stroke="grey" stroke-width="2" points="10619.8,-160.985 10609.7,-164.23 10619.6,-167.983 10619.8,-160.985"/>
</g>
<!-- 42&#45;&gt;0 -->
<g id="edge42" class="edge"><title>42&#45;&gt;0</title>
<path fill="none" stroke="grey" stroke-width="2" d="M10550.2,-143.789C10539.1,-122.838 10517.4,-88.2474 10487.5,-72 10401.8,-25.3825 10098.6,-19.5774 9991.95,-19.0005"/>
<polygon fill="grey" stroke="grey" stroke-width="2" points="9991.69,-15.4995 9981.67,-18.9581 9991.66,-22.4994 9991.69,-15.4995"/>
</g>
<!-- 42&#45;&gt;43 -->
<g id="edge101" class="edge"><title>42&#45;&gt;43</title>
<path fill="none" stroke="grey" stroke-width="2" d="M10507.4,-157.81C10329.9,-146.726 9738.8,-109.814 9519.93,-96.1472"/>
<polygon fill="grey" stroke="grey" stroke-width="2" points="9519.99,-92.6443 9509.79,-95.5142 9519.55,-99.6307 9519.99,-92.6443"/>
</g>
<!-- 43&#45;&gt;0 -->
<g id="edge43" class="edge"><title>43&#45;&gt;0</title>
<path fill="none" stroke="grey" stroke-width="2" d="M9509.69,-74.3333C9514.36,-73.5079 9518.99,-72.7218 9523.5,-72 9668.24,-48.826 9841.75,-30.28 9916.83,-22.7004"/>
<polygon fill="grey" stroke="grey" stroke-width="2" points="9917.57,-26.1431 9927.17,-21.6624 9916.87,-19.1781 9917.57,-26.1431"/>
</g>
<!-- 44 -->
<g id="node45" class="node"><title>44</title>
<path fill="none" stroke="#d6d856" stroke-width="2" stroke-dasharray="5,2" d="M8978,-417C8978,-417 8415,-417 8415,-417 8409,-417 8403,-411 8403,-405 8403,-405 8403,-388 8403,-388 8403,-382 8409,-376 8415,-376 8415,-376 8978,-376 8978,-376 8984,-376 8990,-382 8990,-388 8990,-388 8990,-405 8990,-405 8990,-411 8984,-417 8978,-417"/>
<text text-anchor="middle" x="8696.5" y="-405" font-family="sans" font-size="10.00">cutadapt_pe</text>
<text text-anchor="middle" x="8696.5" y="-394" font-family="sans" font-size="10.00">output_dir: /lulab/lustre2/zhangshang/work/software/exvariance/exvariance_software/demo/long_pe_example/output</text>
<text text-anchor="middle" x="8696.5" y="-383" font-family="sans" font-size="10.00">sample_id: n1</text>
</g>
<!-- 44&#45;&gt;18 -->
<g id="edge60" class="edge"><title>44&#45;&gt;18</title>
<path fill="none" stroke="grey" stroke-width="2" d="M8973.81,-376C9220.4,-358.659 9560.21,-334.764 9681.89,-326.208"/>
<polygon fill="grey" stroke="grey" stroke-width="2" points="9682.23,-329.692 9691.96,-325.499 9681.74,-322.709 9682.23,-329.692"/>
</g>
<!-- 45 -->
<g id="node46" class="node"><title>45</title>
<path fill="none" stroke="#d6d856" stroke-width="2" stroke-dasharray="5,2" d="M9583,-417C9583,-417 9020,-417 9020,-417 9014,-417 9008,-411 9008,-405 9008,-405 9008,-388 9008,-388 9008,-382 9014,-376 9020,-376 9020,-376 9583,-376 9583,-376 9589,-376 9595,-382 9595,-388 9595,-388 9595,-405 9595,-405 9595,-411 9589,-417 9583,-417"/>
<text text-anchor="middle" x="9301.5" y="-405" font-family="sans" font-size="10.00">cutadapt_pe</text>
<text text-anchor="middle" x="9301.5" y="-394" font-family="sans" font-size="10.00">output_dir: /lulab/lustre2/zhangshang/work/software/exvariance/exvariance_software/demo/long_pe_example/output</text>
<text text-anchor="middle" x="9301.5" y="-383" font-family="sans" font-size="10.00">sample_id: n2</text>
</g>
<!-- 45&#45;&gt;19 -->
<g id="edge61" class="edge"><title>45&#45;&gt;19</title>
<path fill="none" stroke="grey" stroke-width="2" d="M9487.58,-375.976C9643.47,-359.62 9854.81,-337.447 9946.69,-327.806"/>
<polygon fill="grey" stroke="grey" stroke-width="2" points="9947.19,-331.273 9956.77,-326.748 9946.46,-324.311 9947.19,-331.273"/>
</g>
<!-- 46 -->
<g id="node47" class="node"><title>46</title>
<path fill="none" stroke="#d6d856" stroke-width="2" stroke-dasharray="5,2" d="M10188,-417C10188,-417 9625,-417 9625,-417 9619,-417 9613,-411 9613,-405 9613,-405 9613,-388 9613,-388 9613,-382 9619,-376 9625,-376 9625,-376 10188,-376 10188,-376 10194,-376 10200,-382 10200,-388 10200,-388 10200,-405 10200,-405 10200,-411 10194,-417 10188,-417"/>
<text text-anchor="middle" x="9906.5" y="-405" font-family="sans" font-size="10.00">cutadapt_pe</text>
<text text-anchor="middle" x="9906.5" y="-394" font-family="sans" font-size="10.00">output_dir: /lulab/lustre2/zhangshang/work/software/exvariance/exvariance_software/demo/long_pe_example/output</text>
<text text-anchor="middle" x="9906.5" y="-383" font-family="sans" font-size="10.00">sample_id: n3</text>
</g>
<!-- 46&#45;&gt;20 -->
<g id="edge62" class="edge"><title>46&#45;&gt;20</title>
<path fill="none" stroke="grey" stroke-width="2" d="M10001,-375.976C10069.3,-361.87 10158.6,-343.437 10211.8,-332.449"/>
<polygon fill="grey" stroke="grey" stroke-width="2" points="10212.5,-335.87 10221.6,-330.42 10211.1,-329.015 10212.5,-335.87"/>
</g>
<!-- 47 -->
<g id="node48" class="node"><title>47</title>
<path fill="none" stroke="#d6d856" stroke-width="2" stroke-dasharray="5,2" d="M10793,-417C10793,-417 10230,-417 10230,-417 10224,-417 10218,-411 10218,-405 10218,-405 10218,-388 10218,-388 10218,-382 10224,-376 10230,-376 10230,-376 10793,-376 10793,-376 10799,-376 10805,-382 10805,-388 10805,-388 10805,-405 10805,-405 10805,-411 10799,-417 10793,-417"/>
<text text-anchor="middle" x="10511.5" y="-405" font-family="sans" font-size="10.00">cutadapt_pe</text>
<text text-anchor="middle" x="10511.5" y="-394" font-family="sans" font-size="10.00">output_dir: /lulab/lustre2/zhangshang/work/software/exvariance/exvariance_software/demo/long_pe_example/output</text>
<text text-anchor="middle" x="10511.5" y="-383" font-family="sans" font-size="10.00">sample_id: n4</text>
</g>
<!-- 47&#45;&gt;21 -->
<g id="edge63" class="edge"><title>47&#45;&gt;21</title>
<path fill="none" stroke="grey" stroke-width="2" d="M10529.8,-375.689C10537.8,-367.042 10547.3,-356.811 10555.7,-347.676"/>
<polygon fill="grey" stroke="grey" stroke-width="2" points="10558.3,-350.039 10562.5,-340.319 10553.1,-345.288 10558.3,-350.039"/>
</g>
<!-- 48 -->
<g id="node49" class="node"><title>48</title>
<path fill="none" stroke="#d6d856" stroke-width="2" stroke-dasharray="5,2" d="M11398,-417C11398,-417 10835,-417 10835,-417 10829,-417 10823,-411 10823,-405 10823,-405 10823,-388 10823,-388 10823,-382 10829,-376 10835,-376 10835,-376 11398,-376 11398,-376 11404,-376 11410,-382 11410,-388 11410,-388 11410,-405 11410,-405 11410,-411 11404,-417 11398,-417"/>
<text text-anchor="middle" x="11116.5" y="-405" font-family="sans" font-size="10.00">cutadapt_pe</text>
<text text-anchor="middle" x="11116.5" y="-394" font-family="sans" font-size="10.00">output_dir: /lulab/lustre2/zhangshang/work/software/exvariance/exvariance_software/demo/long_pe_example/output</text>
<text text-anchor="middle" x="11116.5" y="-383" font-family="sans" font-size="10.00">sample_id: s1</text>
</g>
<!-- 48&#45;&gt;22 -->
<g id="edge64" class="edge"><title>48&#45;&gt;22</title>
<path fill="none" stroke="grey" stroke-width="2" d="M11098.2,-375.689C11090.2,-367.042 11080.7,-356.811 11072.3,-347.676"/>
<polygon fill="grey" stroke="grey" stroke-width="2" points="11074.9,-345.288 11065.5,-340.319 11069.7,-350.039 11074.9,-345.288"/>
</g>
<!-- 49 -->
<g id="node50" class="node"><title>49</title>
<path fill="none" stroke="#d6d856" stroke-width="2" stroke-dasharray="5,2" d="M12003,-417C12003,-417 11440,-417 11440,-417 11434,-417 11428,-411 11428,-405 11428,-405 11428,-388 11428,-388 11428,-382 11434,-376 11440,-376 11440,-376 12003,-376 12003,-376 12009,-376 12015,-382 12015,-388 12015,-388 12015,-405 12015,-405 12015,-411 12009,-417 12003,-417"/>
<text text-anchor="middle" x="11721.5" y="-405" font-family="sans" font-size="10.00">cutadapt_pe</text>
<text text-anchor="middle" x="11721.5" y="-394" font-family="sans" font-size="10.00">output_dir: /lulab/lustre2/zhangshang/work/software/exvariance/exvariance_software/demo/long_pe_example/output</text>
<text text-anchor="middle" x="11721.5" y="-383" font-family="sans" font-size="10.00">sample_id: s2</text>
</g>
<!-- 49&#45;&gt;23 -->
<g id="edge65" class="edge"><title>49&#45;&gt;23</title>
<path fill="none" stroke="grey" stroke-width="2" d="M11615.4,-375.976C11536.3,-361.416 11432.1,-342.246 11373.2,-331.41"/>
<polygon fill="grey" stroke="grey" stroke-width="2" points="11373.6,-327.919 11363.1,-329.552 11372.3,-334.804 11373.6,-327.919"/>
</g>
<!-- 50 -->
<g id="node51" class="node"><title>50</title>
<path fill="none" stroke="#d6d856" stroke-width="2" stroke-dasharray="5,2" d="M12608,-417C12608,-417 12045,-417 12045,-417 12039,-417 12033,-411 12033,-405 12033,-405 12033,-388 12033,-388 12033,-382 12039,-376 12045,-376 12045,-376 12608,-376 12608,-376 12614,-376 12620,-382 12620,-388 12620,-388 12620,-405 12620,-405 12620,-411 12614,-417 12608,-417"/>
<text text-anchor="middle" x="12326.5" y="-405" font-family="sans" font-size="10.00">cutadapt_pe</text>
<text text-anchor="middle" x="12326.5" y="-394" font-family="sans" font-size="10.00">output_dir: /lulab/lustre2/zhangshang/work/software/exvariance/exvariance_software/demo/long_pe_example/output</text>
<text text-anchor="middle" x="12326.5" y="-383" font-family="sans" font-size="10.00">sample_id: s3</text>
</g>
<!-- 50&#45;&gt;24 -->
<g id="edge66" class="edge"><title>50&#45;&gt;24</title>
<path fill="none" stroke="grey" stroke-width="2" d="M12100,-376C11904.2,-359.135 11636.3,-336.07 11530.3,-326.946"/>
<polygon fill="grey" stroke="grey" stroke-width="2" points="11530.5,-323.452 11520.3,-326.081 11529.9,-330.426 11530.5,-323.452"/>
</g>
<!-- 51 -->
<g id="node52" class="node"><title>51</title>
<path fill="none" stroke="#d6d856" stroke-width="2" stroke-dasharray="5,2" d="M13213,-417C13213,-417 12650,-417 12650,-417 12644,-417 12638,-411 12638,-405 12638,-405 12638,-388 12638,-388 12638,-382 12644,-376 12650,-376 12650,-376 13213,-376 13213,-376 13219,-376 13225,-382 13225,-388 13225,-388 13225,-405 13225,-405 13225,-411 13219,-417 13213,-417"/>
<text text-anchor="middle" x="12931.5" y="-405" font-family="sans" font-size="10.00">cutadapt_pe</text>
<text text-anchor="middle" x="12931.5" y="-394" font-family="sans" font-size="10.00">output_dir: /lulab/lustre2/zhangshang/work/software/exvariance/exvariance_software/demo/long_pe_example/output</text>
<text text-anchor="middle" x="12931.5" y="-383" font-family="sans" font-size="10.00">sample_id: s4</text>
</g>
<!-- 51&#45;&gt;25 -->
<g id="edge67" class="edge"><title>51&#45;&gt;25</title>
<path fill="none" stroke="grey" stroke-width="2" d="M12637.6,-376.564C12634.6,-376.375 12631.5,-376.187 12628.5,-376 12302.6,-355.883 11909.9,-333.228 11777.6,-325.636"/>
<polygon fill="grey" stroke="grey" stroke-width="2" points="11777.6,-322.131 11767.4,-325.053 11777.2,-329.12 11777.6,-322.131"/>
</g>
</g>
</svg>
