<?xml version="1.0" encoding="UTF-8" standalone="no"?>
<!DOCTYPE svg PUBLIC "-//W3C//DTD SVG 1.1//EN"
 "http://www.w3.org/Graphics/SVG/1.1/DTD/svg11.dtd">
<!-- Generated by graphviz version 2.38.0 (20140413.2041)
 -->
<!-- Title: snakemake_dag Pages: 1 -->
<svg width="1700pt" height="425pt"
 viewBox="0.00 0.00 1700.00 425.00" xmlns="http://www.w3.org/2000/svg" xmlns:xlink="http://www.w3.org/1999/xlink">
<g id="graph0" class="graph" transform="scale(1 1) rotate(0) translate(4 421)">
<title>snakemake_dag</title>
<polygon fill="white" stroke="none" points="-4,4 -4,-421 1696,-421 1696,4 -4,4"/>
<!-- 0 -->
<g id="node1" class="node"><title>0</title>
<path fill="none" stroke="#97d856" stroke-width="2" d="M1166,-36C1166,-36 1136,-36 1136,-36 1130,-36 1124,-30 1124,-24 1124,-24 1124,-12 1124,-12 1124,-6 1130,-0 1136,-0 1136,-0 1166,-0 1166,-0 1172,-0 1178,-6 1178,-12 1178,-12 1178,-24 1178,-24 1178,-30 1172,-36 1166,-36"/>
<text text-anchor="middle" x="1151" y="-15.5" font-family="sans" font-size="10.00">all</text>
</g>
<!-- 1 -->
<g id="node2" class="node"><title>1</title>
<path fill="none" stroke="#56d8d8" stroke-width="2" d="M586,-268C586,-268 12,-268 12,-268 6,-268 0,-262 0,-256 0,-256 0,-228 0,-228 0,-222 6,-216 12,-216 12,-216 586,-216 586,-216 592,-216 598,-222 598,-228 598,-228 598,-256 598,-256 598,-262 592,-268 586,-268"/>
<text text-anchor="middle" x="299" y="-256" font-family="sans" font-size="10.00">fastqc_raw_pe</text>
<text text-anchor="middle" x="299" y="-245" font-family="sans" font-size="10.00">mate_index: 1</text>
<text text-anchor="middle" x="299" y="-234" font-family="sans" font-size="10.00">output_dir: /lulab/lustre2/zhangshang/work/software/exvariance/exvariance_software/demo/long_pe_example_2/output</text>
<text text-anchor="middle" x="299" y="-223" font-family="sans" font-size="10.00">sample_id: n1</text>
</g>
<!-- 1&#45;&gt;0 -->
<g id="edge1" class="edge"><title>1&#45;&gt;0</title>
<path fill="none" stroke="grey" stroke-width="2" d="M394.626,-215.942C520.867,-182.88 750.067,-122.917 946,-72 1004.71,-56.7429 1072.91,-39.1335 1113.97,-28.5438"/>
<polygon fill="grey" stroke="grey" stroke-width="2" points="1114.99,-31.8945 1123.8,-26.0084 1113.25,-25.1163 1114.99,-31.8945"/>
</g>
<!-- 3 -->
<g id="node4" class="node"><title>3</title>
<path fill="none" stroke="#d6d856" stroke-width="2" d="M953,-180C953,-180 883,-180 883,-180 877,-180 871,-174 871,-168 871,-168 871,-156 871,-156 871,-150 877,-144 883,-144 883,-144 953,-144 953,-144 959,-144 965,-150 965,-156 965,-156 965,-168 965,-168 965,-174 959,-180 953,-180"/>
<text text-anchor="middle" x="918" y="-159.5" font-family="sans" font-size="10.00">multiqc_raw_pe</text>
</g>
<!-- 1&#45;&gt;3 -->
<g id="edge9" class="edge"><title>1&#45;&gt;3</title>
<path fill="none" stroke="grey" stroke-width="2" d="M497.41,-215.998C623.901,-200.059 778.936,-180.523 860.892,-170.196"/>
<polygon fill="grey" stroke="grey" stroke-width="2" points="861.515,-173.645 870.999,-168.923 860.64,-166.7 861.515,-173.645"/>
</g>
<!-- 2 -->
<g id="node3" class="node"><title>2</title>
<path fill="none" stroke="#56d8d8" stroke-width="2" d="M1202,-268C1202,-268 628,-268 628,-268 622,-268 616,-262 616,-256 616,-256 616,-228 616,-228 616,-222 622,-216 628,-216 628,-216 1202,-216 1202,-216 1208,-216 1214,-222 1214,-228 1214,-228 1214,-256 1214,-256 1214,-262 1208,-268 1202,-268"/>
<text text-anchor="middle" x="915" y="-256" font-family="sans" font-size="10.00">fastqc_raw_pe</text>
<text text-anchor="middle" x="915" y="-245" font-family="sans" font-size="10.00">mate_index: 2</text>
<text text-anchor="middle" x="915" y="-234" font-family="sans" font-size="10.00">output_dir: /lulab/lustre2/zhangshang/work/software/exvariance/exvariance_software/demo/long_pe_example_2/output</text>
<text text-anchor="middle" x="915" y="-223" font-family="sans" font-size="10.00">sample_id: n1</text>
</g>
<!-- 2&#45;&gt;0 -->
<g id="edge2" class="edge"><title>2&#45;&gt;0</title>
<path fill="none" stroke="grey" stroke-width="2" d="M943.44,-215.823C953.986,-205.47 965.448,-192.892 974,-180 1002.84,-136.523 982.774,-108.554 1020,-72 1045.65,-46.8161 1084.84,-33.0988 1113.68,-25.9718"/>
<polygon fill="grey" stroke="grey" stroke-width="2" points="1114.84,-29.2969 1123.79,-23.6352 1113.26,-22.4766 1114.84,-29.2969"/>
</g>
<!-- 2&#45;&gt;3 -->
<g id="edge10" class="edge"><title>2&#45;&gt;3</title>
<path fill="none" stroke="grey" stroke-width="2" d="M915.966,-215.891C916.275,-207.84 916.62,-198.88 916.936,-190.658"/>
<polygon fill="grey" stroke="grey" stroke-width="2" points="920.443,-190.538 917.33,-180.411 913.449,-190.269 920.443,-190.538"/>
</g>
<!-- 3&#45;&gt;0 -->
<g id="edge3" class="edge"><title>3&#45;&gt;0</title>
<path fill="none" stroke="grey" stroke-width="2" d="M926.118,-143.676C936.388,-123.589 955.929,-90.8352 982,-72 1021.59,-43.4008 1077.1,-29.888 1113.54,-23.7501"/>
<polygon fill="grey" stroke="grey" stroke-width="2" points="1114.41,-27.1565 1123.75,-22.1406 1113.32,-20.242 1114.41,-27.1565"/>
</g>
<!-- 8 -->
<g id="node9" class="node"><title>8</title>
<path fill="none" stroke="#569ad8" stroke-width="2" d="M1161,-108C1161,-108 1041,-108 1041,-108 1035,-108 1029,-102 1029,-96 1029,-96 1029,-84 1029,-84 1029,-78 1035,-72 1041,-72 1041,-72 1161,-72 1161,-72 1167,-72 1173,-78 1173,-84 1173,-84 1173,-96 1173,-96 1173,-102 1167,-108 1161,-108"/>
<text text-anchor="middle" x="1101" y="-87.5" font-family="sans" font-size="10.00">summary_pre_process_pe</text>
</g>
<!-- 3&#45;&gt;8 -->
<g id="edge16" class="edge"><title>3&#45;&gt;8</title>
<path fill="none" stroke="grey" stroke-width="2" d="M962.767,-143.876C988.118,-134.179 1020.01,-121.98 1046.77,-111.743"/>
<polygon fill="grey" stroke="grey" stroke-width="2" points="1048.29,-114.91 1056.38,-108.068 1045.79,-108.372 1048.29,-114.91"/>
</g>
<!-- 4 -->
<g id="node5" class="node"><title>4</title>
<path fill="none" stroke="#59d856" stroke-width="2" d="M1416.5,-340C1416.5,-340 1369.5,-340 1369.5,-340 1363.5,-340 1357.5,-334 1357.5,-328 1357.5,-328 1357.5,-316 1357.5,-316 1357.5,-310 1363.5,-304 1369.5,-304 1369.5,-304 1416.5,-304 1416.5,-304 1422.5,-304 1428.5,-310 1428.5,-316 1428.5,-316 1428.5,-328 1428.5,-328 1428.5,-334 1422.5,-340 1416.5,-340"/>
<text text-anchor="middle" x="1393" y="-319.5" font-family="sans" font-size="10.00">afterQC_pe</text>
</g>
<!-- 4&#45;&gt;0 -->
<g id="edge4" class="edge"><title>4&#45;&gt;0</title>
<path fill="none" stroke="grey" stroke-width="2" d="M1419.12,-303.816C1430.58,-294.692 1442.81,-282.386 1449,-268 1458.14,-246.772 1458.27,-237.171 1449,-216 1401.09,-106.573 1256.58,-50.2893 1187.95,-29.1259"/>
<polygon fill="grey" stroke="grey" stroke-width="2" points="1188.59,-25.6634 1178.01,-26.1419 1186.58,-32.3681 1188.59,-25.6634"/>
</g>
<!-- 5 -->
<g id="node6" class="node"><title>5</title>
<path fill="none" stroke="#d89556" stroke-width="2" d="M1315.5,-260C1315.5,-260 1244.5,-260 1244.5,-260 1238.5,-260 1232.5,-254 1232.5,-248 1232.5,-248 1232.5,-236 1232.5,-236 1232.5,-230 1238.5,-224 1244.5,-224 1244.5,-224 1315.5,-224 1315.5,-224 1321.5,-224 1327.5,-230 1327.5,-236 1327.5,-236 1327.5,-248 1327.5,-248 1327.5,-254 1321.5,-260 1315.5,-260"/>
<text text-anchor="middle" x="1280" y="-245" font-family="sans" font-size="10.00">fastqc_clean_pe</text>
<text text-anchor="middle" x="1280" y="-234" font-family="sans" font-size="10.00">mate_index: 1</text>
</g>
<!-- 4&#45;&gt;5 -->
<g id="edge12" class="edge"><title>4&#45;&gt;5</title>
<path fill="none" stroke="grey" stroke-width="2" d="M1368.2,-303.883C1352.01,-292.706 1330.68,-277.985 1313.06,-265.818"/>
<polygon fill="grey" stroke="grey" stroke-width="2" points="1314.96,-262.878 1304.74,-260.078 1310.98,-268.639 1314.96,-262.878"/>
</g>
<!-- 6 -->
<g id="node7" class="node"><title>6</title>
<path fill="none" stroke="#d89556" stroke-width="2" d="M1428.5,-260C1428.5,-260 1357.5,-260 1357.5,-260 1351.5,-260 1345.5,-254 1345.5,-248 1345.5,-248 1345.5,-236 1345.5,-236 1345.5,-230 1351.5,-224 1357.5,-224 1357.5,-224 1428.5,-224 1428.5,-224 1434.5,-224 1440.5,-230 1440.5,-236 1440.5,-236 1440.5,-248 1440.5,-248 1440.5,-254 1434.5,-260 1428.5,-260"/>
<text text-anchor="middle" x="1393" y="-245" font-family="sans" font-size="10.00">fastqc_clean_pe</text>
<text text-anchor="middle" x="1393" y="-234" font-family="sans" font-size="10.00">mate_index: 2</text>
</g>
<!-- 4&#45;&gt;6 -->
<g id="edge13" class="edge"><title>4&#45;&gt;6</title>
<path fill="none" stroke="grey" stroke-width="2" d="M1393,-303.689C1393,-293.894 1393,-281.422 1393,-270.335"/>
<polygon fill="grey" stroke="grey" stroke-width="2" points="1396.5,-270.262 1393,-260.262 1389.5,-270.262 1396.5,-270.262"/>
</g>
<!-- 5&#45;&gt;0 -->
<g id="edge5" class="edge"><title>5&#45;&gt;0</title>
<path fill="none" stroke="grey" stroke-width="2" d="M1259,-223.895C1246.24,-212.573 1230.46,-196.763 1220,-180 1193.07,-136.827 1203.39,-118.172 1182,-72 1177.79,-62.9079 1172.49,-53.347 1167.47,-44.8874"/>
<polygon fill="grey" stroke="grey" stroke-width="2" points="1170.38,-42.9415 1162.2,-36.2144 1164.4,-46.5776 1170.38,-42.9415"/>
</g>
<!-- 7 -->
<g id="node8" class="node"><title>7</title>
<path fill="none" stroke="#56d89a" stroke-width="2" d="M1319,-180C1319,-180 1241,-180 1241,-180 1235,-180 1229,-174 1229,-168 1229,-168 1229,-156 1229,-156 1229,-150 1235,-144 1241,-144 1241,-144 1319,-144 1319,-144 1325,-144 1331,-150 1331,-156 1331,-156 1331,-168 1331,-168 1331,-174 1325,-180 1319,-180"/>
<text text-anchor="middle" x="1280" y="-159.5" font-family="sans" font-size="10.00">multiqc_clean_pe</text>
</g>
<!-- 5&#45;&gt;7 -->
<g id="edge14" class="edge"><title>5&#45;&gt;7</title>
<path fill="none" stroke="grey" stroke-width="2" d="M1280,-223.689C1280,-213.894 1280,-201.422 1280,-190.335"/>
<polygon fill="grey" stroke="grey" stroke-width="2" points="1283.5,-190.262 1280,-180.262 1276.5,-190.262 1283.5,-190.262"/>
</g>
<!-- 6&#45;&gt;0 -->
<g id="edge6" class="edge"><title>6&#45;&gt;0</title>
<path fill="none" stroke="grey" stroke-width="2" d="M1386.31,-223.864C1377.72,-203.345 1361.36,-168.662 1340,-144 1296.76,-94.0621 1228.92,-55.8548 1187.37,-35.4749"/>
<polygon fill="grey" stroke="grey" stroke-width="2" points="1188.69,-32.2256 1178.16,-31.0399 1185.65,-38.5323 1188.69,-32.2256"/>
</g>
<!-- 6&#45;&gt;7 -->
<g id="edge15" class="edge"><title>6&#45;&gt;7</title>
<path fill="none" stroke="grey" stroke-width="2" d="M1368.2,-223.883C1352.01,-212.706 1330.68,-197.985 1313.06,-185.818"/>
<polygon fill="grey" stroke="grey" stroke-width="2" points="1314.96,-182.878 1304.74,-180.078 1310.98,-188.639 1314.96,-182.878"/>
</g>
<!-- 7&#45;&gt;0 -->
<g id="edge7" class="edge"><title>7&#45;&gt;0</title>
<path fill="none" stroke="grey" stroke-width="2" d="M1269.4,-143.973C1257.38,-125.319 1236.63,-94.9924 1215,-72 1205.15,-61.5344 1193.28,-51.189 1182.45,-42.4547"/>
<polygon fill="grey" stroke="grey" stroke-width="2" points="1184.43,-39.5646 1174.42,-36.1143 1180.1,-45.0584 1184.43,-39.5646"/>
</g>
<!-- 7&#45;&gt;8 -->
<g id="edge17" class="edge"><title>7&#45;&gt;8</title>
<path fill="none" stroke="grey" stroke-width="2" d="M1236.21,-143.876C1211.42,-134.179 1180.22,-121.98 1154.04,-111.743"/>
<polygon fill="grey" stroke="grey" stroke-width="2" points="1155.23,-108.451 1144.65,-108.068 1152.68,-114.97 1155.23,-108.451"/>
</g>
<!-- 8&#45;&gt;0 -->
<g id="edge8" class="edge"><title>8&#45;&gt;0</title>
<path fill="none" stroke="grey" stroke-width="2" d="M1113.36,-71.6966C1119.23,-63.4741 1126.37,-53.4832 1132.84,-44.4207"/>
<polygon fill="grey" stroke="grey" stroke-width="2" points="1135.82,-46.276 1138.78,-36.1043 1130.12,-42.2073 1135.82,-46.276"/>
</g>
<!-- 9 -->
<g id="node10" class="node"><title>9</title>
<path fill="none" stroke="#d85656" stroke-width="2" d="M1680,-417C1680,-417 1106,-417 1106,-417 1100,-417 1094,-411 1094,-405 1094,-405 1094,-388 1094,-388 1094,-382 1100,-376 1106,-376 1106,-376 1680,-376 1680,-376 1686,-376 1692,-382 1692,-388 1692,-388 1692,-405 1692,-405 1692,-411 1686,-417 1680,-417"/>
<text text-anchor="middle" x="1393" y="-405" font-family="sans" font-size="10.00">cutadapt_pe</text>
<text text-anchor="middle" x="1393" y="-394" font-family="sans" font-size="10.00">output_dir: /lulab/lustre2/zhangshang/work/software/exvariance/exvariance_software/demo/long_pe_example_2/output</text>
<text text-anchor="middle" x="1393" y="-383" font-family="sans" font-size="10.00">sample_id: n1</text>
</g>
<!-- 9&#45;&gt;4 -->
<g id="edge11" class="edge"><title>9&#45;&gt;4</title>
<path fill="none" stroke="grey" stroke-width="2" d="M1393,-375.689C1393,-367.907 1393,-358.842 1393,-350.447"/>
<polygon fill="grey" stroke="grey" stroke-width="2" points="1396.5,-350.319 1393,-340.319 1389.5,-350.32 1396.5,-350.319"/>
</g>
</g>
</svg>
